<?xml version="1.0" encoding="UTF-8" standalone="no"?>
<!-- Created with Inkscape (http://www.inkscape.org/) -->

<svg
   width="2400"
   height="1200"
   viewBox="0 0 634.99999 317.50001"
   version="1.1"
   id="svg8"
   inkscape:version="1.1.2 (0a00cf5339, 2022-02-04, custom)"
   sodipodi:docname="featured_k3s.svg"
   xmlns:inkscape="http://www.inkscape.org/namespaces/inkscape"
   xmlns:sodipodi="http://sodipodi.sourceforge.net/DTD/sodipodi-0.dtd"
   xmlns="http://www.w3.org/2000/svg"
   xmlns:svg="http://www.w3.org/2000/svg"
   xmlns:rdf="http://www.w3.org/1999/02/22-rdf-syntax-ns#"
   xmlns:cc="http://creativecommons.org/ns#"
   xmlns:dc="http://purl.org/dc/elements/1.1/">
  <defs
     id="defs2" />
  <sodipodi:namedview
     id="base"
     pagecolor="#ffffff"
     bordercolor="#666666"
     borderopacity="1.0"
     inkscape:pageopacity="0.0"
     inkscape:pageshadow="2"
     inkscape:zoom="0.175"
     inkscape:cx="348.57143"
     inkscape:cy="548.57143"
     inkscape:document-units="px"
     inkscape:current-layer="layer1"
     showgrid="false"
     units="px"
     inkscape:snap-page="true"
     inkscape:window-width="2560"
     inkscape:window-height="1375"
     inkscape:window-x="0"
     inkscape:window-y="0"
     inkscape:window-maximized="1"
     inkscape:snap-object-midpoints="true"
     inkscape:pagecheckerboard="0" />
  <metadata
     id="metadata5">
    <rdf:RDF>
      <cc:Work
         rdf:about="">
        <dc:format>image/svg+xml</dc:format>
        <dc:type
           rdf:resource="http://purl.org/dc/dcmitype/StillImage" />
      </cc:Work>
    </rdf:RDF>
  </metadata>
  <g
     inkscape:label="Background"
     inkscape:groupmode="layer"
     id="layer1"
     transform="translate(0,20.50002)">
    <rect
       style="fill:#000002;fill-opacity:1;stroke-width:0.264583"
       id="rect10"
       width="635"
       height="317.5"
       x="2.4999999e-06"
       y="-20.500019" />
  </g>
  <g
     inkscape:groupmode="layer"
     id="layer2"
     inkscape:label="Layer1">
    <path
       d="M 380.07234,93.744662 H 254.92766 A 16.852072,16.852072 0 0 0 238.125,110.54723 v 96.40554 a 16.852072,16.852072 0 0 0 16.80266,16.80257 H 380.07234 A 16.852072,16.852072 0 0 0 396.875,206.95277 V 110.54723 A 16.852072,16.852072 0 0 0 380.07234,93.744662 Z m -74.86755,94.541348 -30.54115,17.74858 a 8.1721124,8.1721124 0 1 1 -8.21212,-14.13134 l 30.54118,-17.74858 a 8.1721123,8.1721123 0 1 1 8.21209,14.13134 z m 12.0149,-27.04085 h -0.0368 a 8.1718319,8.1718319 0 0 1 -8.13629,-8.2077 l 0.1532,-35.18393 a 8.1728536,8.1728536 0 0 1 8.17138,-8.13666 h 0.0367 a 8.1720607,8.1720607 0 0 1 8.13623,8.2077 l -0.1532,35.18393 a 8.1728453,8.1728453 0 0 1 -8.17134,8.13666 z m 54.0386,41.80667 a 8.168653,8.168653 0 0 1 -11.16334,2.99116 l -30.58587,-17.65882 a 8.1721216,8.1721216 0 0 1 8.17221,-14.15447 l 30.58584,17.65879 a 8.1716768,8.1716768 0 0 1 2.99116,11.16334 z"
       id="path1726"
       style="fill:#fffffd;fill-opacity:1;stroke-width:0.264583" />
  </g>
</svg>
