<?xml version="1.0" encoding="UTF-8" standalone="no"?>
<!-- Created with Inkscape (http://www.inkscape.org/) -->

<svg
   width="2400"
   height="1200"
   viewBox="0 0 634.99999 317.50001"
   version="1.1"
   id="svg8"
   inkscape:version="1.1.1 (3bf5ae0d25, 2021-09-20, custom)"
   sodipodi:docname="featured_netlify.svg"
   xmlns:inkscape="http://www.inkscape.org/namespaces/inkscape"
   xmlns:sodipodi="http://sodipodi.sourceforge.net/DTD/sodipodi-0.dtd"
   xmlns="http://www.w3.org/2000/svg"
   xmlns:svg="http://www.w3.org/2000/svg"
   xmlns:rdf="http://www.w3.org/1999/02/22-rdf-syntax-ns#"
   xmlns:cc="http://creativecommons.org/ns#"
   xmlns:dc="http://purl.org/dc/elements/1.1/">
  <defs
     id="defs2">
    <radialGradient
       id="netlify-logo-inner-gradient"
       cy="0.80804464"
       r="38.33041"
       fx="19.945896"
       fy="0.80804464"
       gradientTransform="scale(1.0002058,0.99979428)"
       cx="19.945896"
       gradientUnits="userSpaceOnUse">
      <stop
         offset="0%"
         stop-color="#20C6B7"
         id="stop7" />
      <stop
         offset="100%"
         stop-color="#4D9ABF"
         id="stop9" />
    </radialGradient>
  </defs>
  <sodipodi:namedview
     id="base"
     pagecolor="#ffffff"
     bordercolor="#666666"
     borderopacity="1.0"
     inkscape:pageopacity="0.0"
     inkscape:pageshadow="2"
     inkscape:zoom="0.24748737"
     inkscape:cx="840.44692"
     inkscape:cy="-4.0406102"
     inkscape:document-units="px"
     inkscape:current-layer="layer2"
     showgrid="false"
     units="px"
     inkscape:snap-page="true"
     inkscape:window-width="2560"
     inkscape:window-height="1375"
     inkscape:window-x="0"
     inkscape:window-y="0"
     inkscape:window-maximized="1"
     inkscape:snap-object-midpoints="true"
     inkscape:pagecheckerboard="0" />
  <metadata
     id="metadata5">
    <rdf:RDF>
      <cc:Work
         rdf:about="">
        <dc:format>image/svg+xml</dc:format>
        <dc:type
           rdf:resource="http://purl.org/dc/dcmitype/StillImage" />
      </cc:Work>
    </rdf:RDF>
  </metadata>
  <g
     inkscape:label="Background"
     inkscape:groupmode="layer"
     id="layer1"
     transform="translate(0,20.50002)"
     style="display:inline">
    <rect
       style="fill:#ffffff;fill-opacity:1;stroke-width:0.264583"
       id="rect10"
       width="635"
       height="317.5"
       x="2.4999999e-06"
       y="-20.500019" />
  </g>
  <g
     inkscape:groupmode="layer"
     id="layer2"
     inkscape:label="Layer1"
     style="display:inline">
    <g
       id="g837"
       transform="matrix(4.1449086,0,0,4.1449086,234.80908,76.059075)"
       style="stroke-width:0.0638332">
      <path
         d="m 28.6,14.1 0.7,-4.8 3.6,3.6 -3.7,1.6 H 29 a 1.7,1.7 0 0 0 -0.5,-0.4 z m 5.2,-0.3 4,4 c 0.7,0.7 1.1,1.1 1.3,1.6 v 0.2 l -9.2,-4 h -0.1 z m 5.2,7 c -0.2,0.4 -0.6,0.8 -1.3,1.5 l -4.3,4.3 -5.7,-1.1 -0.1,-0.1 A 1.7,1.7 0 0 0 26.9,24.2 V 24 l 1,-6.5 0.1,-0.2 a 1.7,1.7 0 0 0 1.2,-0.6 h 0.1 l 9.7,4 z m -6.7,6.9 -7.1,7.1 1.2,-7.5 v -0.1 a 1.9,1.9 0 0 0 0.8,-0.5 z m -8.7,8.7 -0.8,0.8 -9,-13 V 24 l 0.1,-0.1 0.1,-0.1 h 0.1 l 10,2 v 0.1 a 1.8,1.8 0 0 0 1,1.2 0.2,0.2 0 0 0 0,0.1 l -1.5,9 z M 22,38 c -0.6,0.6 -1,1 -1.4,1 a 2,2 0 0 1 -1.2,0 c -0.5,0 -0.9,-0.5 -1.7,-1.3 l -9,-9 2.4,-3.6 h 0.1 A 2.4,2.4 0 0 0 12.8,25 h 0.1 l 9,13 z M 7.9,28 5.8,25.9 l 4,-1.7 h 0.1 a 3,3 0 0 0 0.2,0.2 L 8,28 Z m -3,-3 -2.6,-2.6 -1,-1 8,1.6 v 0.1 L 4.8,25 Z m -4,-5 a 2,2 0 0 1 0,-0.5 C 1.1,19 1.5,18.6 2.3,17.8 l 3.3,-3.3 a 2175.5,2175.5 0 0 0 4.6,6.7 c 0,0 0.1,0 0,0 L 9.9,21.8 H 9.8 L 0.8,20 Z M 6.5,13.6 11,9 l 3.3,1.4 2.3,1 c 0.1,0 0,0 0,0.1 a 2,2 0 0 0 0.6,1.8 v 0.1 l -4.6,7.1 h -0.1 a 2.3,2.3 0 0 0 -0.6,0 3,3 0 0 0 -0.5,0 l -4.9,-7 z M 12,8 17.8,2.2 C 18.5,1.5 19,1 19.4,0.9 a 2,2 0 0 1 1.2,0 c 0.5,0.2 0.9,0.6 1.7,1.4 l 1.2,1.2 -4.1,6.4 c 0,0.1 -0.1,0.1 -0.1,0 a 2.1,2.1 0 0 0 -2,0.5 L 11.8,8 Z m 12.5,-3.7 3.8,3.8 -0.9,5.7 v 0.1 a 1.8,1.8 0 0 0 -0.6,0.3 0.1,0.1 0 0 1 -0.1,0 L 20.8,12 20.7,11.9 a 2.2,2.2 0 0 0 -0.3,-1 l 4,-6.4 z m -4,8.6 5.5,2.3 h 0.1 a 0.1,0.1 0 0 1 0,0.1 v 0.5 H 26 L 13.9,21 h -0.1 v 0 l 4.5,-7 h 0.5 a 2,2 0 0 0 1.7,-1 z m -6.2,9.2 12.2,-5.1 0.2,0.1 0.1,0.1 -1,6.5 -0.1,0.1 a 1.7,1.7 0 0 0 -1.4,0.9 h -0.1 l -9.8,-2 -0.2,-0.5 z"
         fill="url(#netlify-logo-inner-gradient)"
         fill-rule="nonzero"
         id="path18"
         style="fill:url(#netlify-logo-inner-gradient);stroke-width:0.00963743" />
    </g>
  </g>
</svg>
