<svg xmlns="http://www.w3.org/2000/svg" width="2400" height="1200" viewBox="0 0 635 317.5"><path style="fill:#000;stroke-width:.26458335" d="M0-20.5h635V297H0z" transform="translate(0 20.5)"/><path transform="translate(0 20.5)" d="M362.857 111.792h-7.56v-15.12c0-20.864-16.933-37.797-37.797-37.797-20.864 0-37.798 16.933-37.798 37.798v15.119h-7.56c-8.315 0-15.118 6.803-15.118 15.119v75.595c0 8.315 6.803 15.119 15.119 15.119h90.714c8.316 0 15.12-6.804 15.12-15.12v-75.594c0-8.316-6.804-15.12-15.12-15.12zM317.5 179.827c-8.315 0-15.119-6.803-15.119-15.119 0-8.315 6.804-15.119 15.119-15.119s15.12 6.804 15.12 15.12c0 8.315-6.805 15.118-15.12 15.118zm23.435-68.035h-46.87v-15.12c0-12.926 10.508-23.434 23.435-23.434s23.435 10.508 23.435 23.435z" style="fill:#fff;fill-opacity:1;stroke-width:7.55952501"/></svg>