<svg width="2400" height="1200" viewBox="0 0 635 317.5" version="1.1" id="svg8" xmlns="http://www.w3.org/2000/svg"><defs id="defs2"><style id="style1508">.cls-1{fill:#6abf4b}.cls-2{fill:#c31c4a}</style></defs><g id="layer1" transform="translate(0 20.5)"><path style="fill:#fff;fill-opacity:1;stroke-width:.264583" id="rect10" d="M0-20.5h635V297H0z"/></g><g id="layer2"><g id="g1720" transform="matrix(.96881 0 0 .96881 229 -21.328)" style="stroke-width:1.03219"><path d="M61.477 103.946c-.841.027-1.746.331-2.775 1.13-2.516-.955-4.958-1.288-7.144.659-3.37-.431-4.466.458-5.292 1.495-.738-.013-5.535-.746-7.736 2.487-5.527-.646-7.273 3.201-5.292 6.79-1.132 1.727-2.302 3.42.339 6.7-.934 1.83-.354 3.811 1.852 6.21-.58 2.572.561 4.385 2.609 5.798-.384 3.516 3.273 5.556 4.366 6.289.41 2.048 1.285 3.982 5.46 5.04.688 3.053 3.2 3.58 5.63 4.234-8.035 4.598-14.922 10.652-14.877 25.5l-1.177 2.066c-9.21 5.506-17.497 23.25-4.538 37.664.847 4.498 2.265 7.752 3.53 11.34 1.892 14.446 14.23 21.222 17.484 22.021 4.762 3.577 9.847 6.972 16.721 9.35 6.48 6.583 13.494 9.092 20.556 9.086h.312c7.056 0 14.076-2.503 20.555-9.085 6.88-2.382 11.952-5.774 16.722-9.35 3.254-.795 15.592-7.568 17.484-22.022 1.262-3.588 2.683-6.829 3.53-11.34 12.964-14.415 4.672-32.15-4.541-37.669l-1.177-2.066c.045-14.849-6.843-20.902-14.878-25.5 2.432-.641 4.943-1.168 5.63-4.22 4.178-1.06 5.051-3.004 5.47-5.052 1.092-.727 4.749-2.773 4.365-6.289 2.048-1.413 3.188-3.225 2.609-5.794 2.198-2.4 2.778-4.384 1.852-6.21 2.646-3.28 1.468-4.982.341-6.705 1.98-3.585.233-7.432-5.291-6.789-2.2-3.23-6.993-2.497-7.737-2.482-.828-1.037-1.923-1.926-5.292-1.494-2.182-1.948-4.622-1.614-7.143-.66-2.99-2.322-4.97-.46-7.229.244-3.617-1.164-4.445.431-6.223 1.08-3.947-.82-5.146.968-7.038 2.854l-2.201-.042c-5.964 3.464-8.922 10.49-9.97 14.108-1.047-3.617-4.01-10.644-9.95-14.108l-2.202.042c-1.894-1.886-3.093-3.675-7.04-2.854-1.778-.649-2.604-2.244-6.223-1.08-1.485-.463-2.847-1.423-4.453-1.376z" id="path1512" style="stroke-width:.273101"/><path class="cls-1" d="M49.743 119.152c15.793 8.02 24.977 14.507 30.006 20.031-2.577 10.171-16.015 10.634-20.928 10.348 1.005-.46 1.852-1.013 2.143-1.852-1.233-.862-5.604-.09-8.657-1.778 1.172-.24 1.722-.473 2.27-1.323-2.884-.905-5.99-1.685-7.816-3.188.984.013 1.905.22 3.194-.661-2.583-1.37-5.34-2.458-7.48-4.554 1.323-.032 2.775-.013 3.193-.495a28.784 28.784 0 0 1-6.01-4.802c1.87.222 2.645.032 3.11-.29-1.785-1.803-4.047-3.324-5.127-5.557 1.39.47 2.646.65 3.572-.04-.606-1.352-3.207-2.146-4.707-5.291 1.463.14 3.01.314 3.32 0-.677-2.72-1.852-4.25-2.981-5.821 3.124-.048 7.863 0 7.649-.249l-1.934-1.947c3.053-.81 6.178.132 8.445.828 1.019-.794-.016-1.791-1.26-2.815a31.19 31.19 0 0 1 7.06 1.74c1.132-1.007-.736-2.016-1.638-3.02 4.008.748 5.707 1.8 7.395 2.854 1.225-1.156.072-2.138-.757-3.146 3.038 1.08 4.58 2.503 6.213 3.908.555-.738 1.413-1.28.378-3.061a15.684 15.684 0 0 1 4.966 4.262c1.323-.833.794-1.971.794-3.021 2.23 1.786 3.646 3.688 5.38 5.556.348-.249.653-1.098.923-2.442 5.32 5.085 12.84 17.894 1.934 22.974-9.28-7.554-20.365-13.04-32.653-17.148z" id="path1514" style="stroke-width:.273101"/><path class="cls-1" d="M133.394 119.152c-15.793 8.02-24.974 14.504-30.004 20.031 2.577 10.171 16.015 10.634 20.929 10.348-1.009-.46-1.853-1.013-2.144-1.852 1.233-.862 5.604-.09 8.658-1.778-1.173-.24-1.723-.473-2.27-1.323 2.883-.905 5.99-1.685 7.815-3.188-.984.013-1.905.22-3.193-.661 2.582-1.37 5.339-2.458 7.48-4.554-1.337-.032-2.776-.013-3.194-.495a28.766 28.766 0 0 0 6.009-4.802c-1.868.222-2.646.032-3.11-.29 1.787-1.803 4.049-3.324 5.128-5.557-1.389.47-2.645.65-3.571-.04.605-1.352 3.206-2.146 4.704-5.291-1.46.14-3.008.314-3.318 0 .677-2.723 1.852-4.252 2.982-5.837-3.125-.045-7.86.013-7.647-.249l1.932-1.945c-3.053-.81-6.178.13-8.446.829-1.018-.794.019-1.794 1.26-2.816a31.086 31.086 0 0 0-7.06 1.739c-1.132-1.006.736-2.014 1.641-3.022-4.011.749-5.71 1.802-7.408 2.858-1.225-1.157-.069-2.14.756-3.146-3.01 1.09-4.569 2.516-6.21 3.92-.555-.737-1.41-1.28-.378-3.063a15.724 15.724 0 0 0-4.958 4.265c-1.323-.833-.794-1.974-.794-3.021-2.233 1.786-3.648 3.688-5.379 5.556-.349-.265-.656-1.1-.926-2.442-5.32 5.085-12.84 17.894-1.931 22.97 9.276-7.542 20.373-13.022 32.652-17.134z" id="path1516" style="stroke-width:.273101"/><path class="cls-2" d="M110.669 222.702c.055 9.49-8.372 17.224-18.817 17.275-10.446.05-18.963-7.605-19.019-17.093v-.182c-.055-9.488 8.372-17.222 18.817-17.272 10.446-.05 18.963 7.601 19.019 17.092z" id="path1518" style="stroke-width:.273101"/><path class="cls-2" d="M81.173 173.619c7.837 5.059 9.26 16.523 3.156 25.609-6.104 9.086-17.39 12.35-25.23 7.292-7.84-5.056-9.26-16.523-3.157-25.61 6.104-9.085 17.391-12.35 25.23-7.291z" id="path1520" style="stroke-width:.273101"/><path class="cls-2" d="M102.329 172.704c-7.837 5.058-9.26 16.523-3.156 25.609 6.103 9.085 17.39 12.35 25.23 7.291 7.84-5.058 9.26-16.523 3.157-25.609-6.104-9.085-17.391-12.35-25.231-7.291z" id="path1522" style="stroke-width:.273101"/><path class="cls-2" d="M42.48 181.943c8.467-2.236 2.858 34.486-4.03 31.485-7.574-6.014-10.014-23.587 4.03-31.485z" id="path1524" style="stroke-width:.273101"/><path class="cls-2" d="M140.28 181.485c-8.466-2.236-2.857 34.486 4.03 31.485 7.575-6.003 10.015-23.577-4.03-31.485z" id="path1526" style="stroke-width:.273101"/><path class="cls-2" d="M111.896 154.085c14.605-2.429 26.758 6.12 26.268 21.72-.479 5.98-31.647-20.829-26.268-21.72z" id="path1528" style="stroke-width:.273101"/><path class="cls-2" d="M71.545 153.627c-14.608-2.429-26.758 6.12-26.268 21.72.481 5.98 31.65-20.828 26.268-21.72z" id="path1530" style="stroke-width:.273101"/><path class="cls-2" d="M91.666 149.984c-8.718-.225-17.084 6.37-17.102 10.197-.027 4.649 6.879 9.408 17.16 9.525 10.489.074 17.183-3.81 17.214-8.607.04-5.435-9.538-11.203-17.272-11.113z" id="path1532" style="stroke-width:.273101"/><path class="cls-2" d="M92.338 245.313c7.602-.328 17.799 2.41 17.82 6.043.124 3.527-9.26 11.496-18.322 11.343-9.398.397-18.611-7.583-18.49-10.35-.142-4.054 11.441-7.221 18.992-7.036z" id="path1534" style="stroke-width:.273101"/><path class="cls-2" d="M64.213 223.787c5.41 6.421 7.877 17.703 3.363 21.026-4.273 2.537-14.64 1.495-22.021-8.94-4.972-8.755-4.332-17.664-.842-20.273 5.223-3.132 13.29 1.098 19.5 8.203z" id="path1536" style="stroke-width:.273101"/><path class="cls-2" d="M118.69 221.752c-5.854 6.755-9.114 19.074-4.844 23.04 4.083 3.082 15.045 2.646 23.143-8.414 5.88-7.432 3.908-19.844.55-23.14-4.99-3.802-12.152 1.058-18.848 8.511z" id="path1538" style="stroke-width:.273101"/></g></g></svg>