<?xml version="1.0" encoding="UTF-8" standalone="no"?>
<!-- Created with Inkscape (http://www.inkscape.org/) -->

<svg
   xmlns:dc="http://purl.org/dc/elements/1.1/"
   xmlns:cc="http://creativecommons.org/ns#"
   xmlns:rdf="http://www.w3.org/1999/02/22-rdf-syntax-ns#"
   xmlns:svg="http://www.w3.org/2000/svg"
   xmlns="http://www.w3.org/2000/svg"
   xmlns:sodipodi="http://sodipodi.sourceforge.net/DTD/sodipodi-0.dtd"
   xmlns:inkscape="http://www.inkscape.org/namespaces/inkscape"
   width="2400"
   height="1200"
   viewBox="0 0 634.99999 317.50001"
   version="1.1"
   id="svg8"
   inkscape:version="0.92.5 (2060ec1f9f, 2020-04-08)"
   sodipodi:docname="featured_ansible_text.svg"
   inkscape:export-filename="/home/logan/Downloads/featured_images/completed_files_png/featured_ansible_text.png"
   inkscape:export-xdpi="96"
   inkscape:export-ydpi="96">
  <defs
     id="defs2">
    <style
       id="style187">.cls-1{fill:#fff;}</style>
    <style
       id="style77">.cls-1{fill:#fff;}</style>
  </defs>
  <sodipodi:namedview
     id="base"
     pagecolor="#ffffff"
     bordercolor="#666666"
     borderopacity="1.0"
     inkscape:pageopacity="0.0"
     inkscape:pageshadow="2"
     inkscape:zoom="0.35"
     inkscape:cx="288.85788"
     inkscape:cy="723.76288"
     inkscape:document-units="px"
     inkscape:current-layer="layer2"
     showgrid="false"
     units="px"
     inkscape:snap-page="true"
     inkscape:window-width="1920"
     inkscape:window-height="1015"
     inkscape:window-x="0"
     inkscape:window-y="0"
     inkscape:window-maximized="1"
     inkscape:snap-object-midpoints="true" />
  <metadata
     id="metadata5">
    <rdf:RDF>
      <cc:Work
         rdf:about="">
        <dc:format>image/svg+xml</dc:format>
        <dc:type
           rdf:resource="http://purl.org/dc/dcmitype/StillImage" />
        <dc:title />
      </cc:Work>
    </rdf:RDF>
  </metadata>
  <g
     inkscape:label="Background"
     inkscape:groupmode="layer"
     id="layer1"
     transform="translate(0,20.50002)">
    <rect
       style="fill:#000000;stroke-width:0.26458335"
       id="rect10"
       width="635"
       height="317.5"
       x="0"
       y="-20.500019" />
  </g>
  <g
     inkscape:groupmode="layer"
     id="layer2"
     inkscape:label="Layer1">
    <g
       id="g110"
       transform="matrix(1.1054531,0,0,1.1054531,-14.135941,-2.0970786)">
      <path
         id="path83"
         d="m 186.70849,172.89462 a 3.43056,3.43056 0 0 1 -2.87092,-1.21825 l -32.58294,-40.57806 v 41.39022 h -7.43037 v -50.96621 a 3.76836,3.76836 0 0 1 3.80207,-3.65286 3.46193,3.46193 0 0 1 2.95024,1.29946 l 32.49984,40.49684 V 118.438 h 7.43037 v 50.885 a 3.64592,3.64592 0 0 1 -3.79828,3.57164"
         class="cls-1"
         inkscape:connector-curvature="0"
         style="fill:#ffffff" />
      <path
         id="path85"
         d="m 248.16525,173.38136 a 67.66519,67.66519 0 0 1 -22.45543,-4.05705 l 1.77353,-5.84381 a 73.16883,73.16883 0 0 0 20.6819,3.49042 c 9.37012,0 14.26577,-3.16556 14.26577,-7.62869 0,-4.05894 -3.80018,-6.08746 -16.88359,-11.93128 -13.08341,-5.84382 -18.23217,-9.576 -18.23217,-16.88171 0,-9.168 7.42848,-12.904 21.43928,-12.904 a 87.83016,87.83016 0 0 1 19.92451,2.59893 l -1.18238,6.00436 a 89.36194,89.36194 0 0 0 -18.57215,-2.191 c -9.87442,0 -13.92768,1.78487 -13.92768,6.2499 0,4.38192 2.954,6.248 16.7986,12.33547 14.60387,6.41233 18.31716,9.6591 18.31716,16.31131 0,9.6591 -9.62511,14.4471 -21.94735,14.4471"
         class="cls-1"
         inkscape:connector-curvature="0"
         style="fill:#ffffff" />
      <rect
         id="rect87"
         height="54.05056"
         width="7.6796799"
         y="118.43741"
         x="305.31543"
         class="cls-1"
         style="fill:#ffffff" />
      <path
         id="path89"
         d="m 378.33742,147.9789 h -19.08023 v 18.3436 h 19.08023 c 6.4992,0 10.4656,-3.89651 10.4656,-9.33424 0,-5.11287 -4.13448,-9.00937 -10.4656,-9.00937 m -3.71708,-23.37337 h -15.36315 v 17.28779 h 15.36316 c 6.163,0 10.63749,-3.73408 10.63749,-8.92816 0,-5.11286 -3.88328,-8.35964 -10.63749,-8.35964 m 3.8002,47.88377 H 355.4608 a 3.73386,3.73386 0 0 1 -3.88328,-3.65286 v -46.74483 a 3.78454,3.78454 0 0 1 3.88328,-3.65286 h 18.99334 c 11.648,0 18.57026,5.43773 18.57026,13.95981 0,4.62368 -2.87092,8.92627 -7.26227,11.44209 6.503,1.86609 10.89059,6.979 10.89059,13.14764 0,8.6014 -7.5116,15.501 -18.23217,15.501"
         class="cls-1"
         inkscape:connector-curvature="0"
         style="fill:#ffffff" />
      <path
         id="path91"
         d="m 433.54336,172.4893 a 3.76545,3.76545 0 0 1 -3.79642,-3.65286 v -50.39771 h 7.6797 v 47.47769 h 30.5582 v 6.57287 h -34.44148 z"
         class="cls-1"
         inkscape:connector-curvature="0"
         style="fill:#ffffff" />
      <path
         id="path93"
         d="m 520.34855,173.38136 c -15.70124,0 -25.15636,-5.51895 -25.15636,-16.63617 0,-5.2753 3.12589,-10.30695 9.202,-12.66034 -4.89565,-2.92191 -7.42661,-7.06206 -7.42661,-11.60641 0,-10.0633 8.18965,-14.85319 23.55093,-14.85319 a 95.987,95.987 0 0 1 18.48714,1.868 l -0.84426,6.00436 a 121.21837,121.21837 0 0 0 -18.23407,-1.53934 c -9.96131,0 -15.28,2.59515 -15.28,8.84505 0,4.95043 4.89755,8.84694 11.39863,8.84694 h 13.16654 a 3.12831,3.12831 0 1 1 0,6.248 h -14.17892 c -7.43035,0 -12.156,3.48853 -12.156,8.84694 0,7.87234 7.68155,10.22573 17.30477,10.22573 a 89.05215,89.05215 0 0 0 18.06219,-1.94731 l 1.09926,5.92314 a 78.75064,78.75064 0 0 1 -18.99521,2.43461"
         class="cls-1"
         inkscape:connector-curvature="0"
         style="fill:#ffffff" />
      <path
         id="path95"
         d="m 86.66064,128.57494 13.45362,31.92188 -20.31736,-15.3877 z m 23.90033,39.2767 -20.69133,-47.88 a 3.34511,3.34511 0 0 0 -3.209,-2.10974 3.45329,3.45329 0 0 0 -3.29021,2.10974 l -22.7142,52.51689 h 7.76846 l 8.99237,-21.65082 26.82979,20.83866 a 4.44562,4.44562 0 0 0 2.87091,1.21825 3.64559,3.64559 0 0 0 3.79829,-3.56975 4.62448,4.62448 0 0 0 -0.35509,-1.47323"
         class="cls-1"
         inkscape:connector-curvature="0"
         style="fill:#ffffff" />
    </g>
  </g>
</svg>
