<?xml version="1.0" encoding="UTF-8" standalone="no"?>
<!-- Created with Inkscape (http://www.inkscape.org/) -->

<svg
   xmlns:dc="http://purl.org/dc/elements/1.1/"
   xmlns:cc="http://creativecommons.org/ns#"
   xmlns:rdf="http://www.w3.org/1999/02/22-rdf-syntax-ns#"
   xmlns:svg="http://www.w3.org/2000/svg"
   xmlns="http://www.w3.org/2000/svg"
   xmlns:xlink="http://www.w3.org/1999/xlink"
   xmlns:sodipodi="http://sodipodi.sourceforge.net/DTD/sodipodi-0.dtd"
   xmlns:inkscape="http://www.inkscape.org/namespaces/inkscape"
   width="2400"
   height="1200"
   viewBox="0 0 634.99999 317.50001"
   version="1.1"
   id="svg8"
   inkscape:version="0.92.5 (2060ec1f9f, 2020-04-08)"
   sodipodi:docname="featured_nut_logo.svg"
   inkscape:export-filename="/home/logan/Downloads/featured_images/completed_files_png/featured_nut_logo.png"
   inkscape:export-xdpi="96"
   inkscape:export-ydpi="96">
  <defs
     id="defs2">
    <radialGradient
       r="15252"
       fy="148727"
       fx="22767.4"
       cy="148727"
       cx="22767.4"
       gradientTransform="matrix(0.00328986,0.00250497,-0.00250497,0.00328986,813.49885,-242.17629)"
       gradientUnits="userSpaceOnUse"
       id="radialGradient6400"
       xlink:href="#id97"
       inkscape:collect="always" />
    <radialGradient
       id="id97"
       gradientUnits="userSpaceOnUse"
       cx="22767.4"
       cy="148727"
       r="15252"
       fx="22767.4"
       fy="148727">
      <stop
         offset="0"
         style="stop-color:#EF9A48"
         id="stop404" />
      <stop
         offset="1"
         style="stop-color:#8F5444"
         id="stop406" />
    </radialGradient>
    <radialGradient
       r="28.291517"
       fy="591.72388"
       fx="326.28094"
       cy="591.72388"
       cx="326.28094"
       gradientTransform="matrix(0.93052262,0,0,0.92333713,288.43248,-616.84103)"
       gradientUnits="userSpaceOnUse"
       id="radialGradient6397"
       xlink:href="#linearGradient5994"
       inkscape:collect="always" />
    <linearGradient
       id="linearGradient5994"
       inkscape:collect="always">
      <stop
         id="stop5996"
         offset="0"
         style="stop-color:#ffffff;stop-opacity:1;" />
      <stop
         id="stop5998"
         offset="1"
         style="stop-color:#ffffff;stop-opacity:0;" />
    </linearGradient>
    <radialGradient
       r="19.88851"
       fy="601.14636"
       fx="306.03009"
       cy="601.14636"
       cx="306.03009"
       gradientTransform="matrix(1.836803,-0.1530383,0.2177191,1.7315357,-184.24282,-677.81111)"
       gradientUnits="userSpaceOnUse"
       id="radialGradient6393"
       xlink:href="#linearGradient6352"
       inkscape:collect="always" />
    <linearGradient
       inkscape:collect="always"
       id="linearGradient6352">
      <stop
         style="stop-color:#d69600;stop-opacity:1"
         offset="0"
         id="stop6354" />
      <stop
         style="stop-color:#ffff90;stop-opacity:1"
         offset="1"
         id="stop6356" />
    </linearGradient>
    <linearGradient
       y2="146536.86"
       x2="22053.289"
       y1="138225.59"
       x1="20482.521"
       gradientTransform="matrix(0.00415074,4.6170613e-4,-6.2836721e-4,0.00385903,516.60065,-282.00415)"
       gradientUnits="userSpaceOnUse"
       id="linearGradient6390"
       xlink:href="#linearGradient5994"
       inkscape:collect="always" />
    <radialGradient
       r="14266.5"
       fy="150304"
       fx="18876.199"
       cy="150304"
       cx="18876.199"
       gradientTransform="matrix(0.00328986,0.00250497,-0.00244116,0.00320605,799.1539,-219.15978)"
       gradientUnits="userSpaceOnUse"
       id="radialGradient6386"
       xlink:href="#id96"
       inkscape:collect="always" />
    <radialGradient
       id="id96"
       gradientUnits="userSpaceOnUse"
       cx="18876.199"
       cy="150304"
       r="14266.5"
       fx="18876.199"
       fy="150304">
      <stop
         offset="0"
         style="stop-color:#FFF974"
         id="stop399" />
      <stop
         offset="1"
         style="stop-color:#97946B"
         id="stop401" />
    </radialGradient>
  </defs>
  <sodipodi:namedview
     id="base"
     pagecolor="#ffffff"
     bordercolor="#666666"
     borderopacity="1.0"
     inkscape:pageopacity="0.0"
     inkscape:pageshadow="2"
     inkscape:zoom="0.35"
     inkscape:cx="787.42929"
     inkscape:cy="900.90573"
     inkscape:document-units="px"
     inkscape:current-layer="layer2"
     showgrid="false"
     units="px"
     inkscape:snap-page="true"
     inkscape:window-width="1920"
     inkscape:window-height="1015"
     inkscape:window-x="0"
     inkscape:window-y="0"
     inkscape:window-maximized="1"
     inkscape:snap-object-midpoints="true" />
  <metadata
     id="metadata5">
    <rdf:RDF>
      <cc:Work
         rdf:about="">
        <dc:format>image/svg+xml</dc:format>
        <dc:type
           rdf:resource="http://purl.org/dc/dcmitype/StillImage" />
        <dc:title />
      </cc:Work>
    </rdf:RDF>
  </metadata>
  <g
     inkscape:label="Background"
     inkscape:groupmode="layer"
     id="layer1"
     transform="translate(0,20.50002)">
    <rect
       style="fill:#ffffff;stroke-width:0.26458335"
       id="rect10"
       width="635"
       height="317.5"
       x="0"
       y="-20.500019" />
  </g>
  <g
     inkscape:groupmode="layer"
     id="layer2"
     inkscape:label="Layer1">
    <g
       id="layer1-6"
       inkscape:label="Calque 1"
       transform="matrix(1.984375,0,0,1.984375,154.14385,7.6577318)">
      <g
         inkscape:export-ydpi="144"
         inkscape:export-xdpi="144"
         id="g6403"
         transform="translate(-431.60097,-226.01267)">
        <rect
           style="color:#000000;display:inline;overflow:visible;visibility:visible;fill:none;stroke:none;stroke-width:2;marker:none;enable-background:accumulate"
           id="rect6314"
           width="80"
           height="80"
           x="473.92218"
           y="262.15366" />
        <path
           sodipodi:nodetypes="cccccccc"
           inkscape:connector-curvature="0"
           id="path6316"
           d="m 520.65858,264.42021 c 4.27938,-0.77706 10.16009,-1.15779 14.46039,-1.80478 l 3.69642,8.01174 c 8.58733,10.85336 11.54715,25.74793 10.08901,34.57232 l -2.48524,12.59545 -65.75521,-29.7587 c 2.19584,-5.10034 5.34609,-8.2567 8.36809,-11.67432 9.26309,-8.60251 20.37664,-11.03034 31.62654,-11.94171 z"
           style="fill:#1f1a17;fill-rule:evenodd" />
        <path
           sodipodi:nodetypes="ccccccccc"
           inkscape:connector-curvature="0"
           id="path6318"
           d="m 492.24752,332.77799 c -12.52545,-10.49168 -15.10016,-25.98853 -11.31085,-41.37548 l 3.65672,-7.34505 c 7.40546,-10.73333 17.58539,-14.48975 29.77863,-17.45348 6.95687,-0.53519 13.97404,-1.45369 19.91501,-1.83112 9.70365,16.56861 15.41125,26.60793 12.19818,46.3648 l -2.72104,7.87039 -3.54031,5.43795 c -12.32438,15.22828 -31.46058,18.77011 -47.97634,8.33199 z"
           style="fill:url(#radialGradient6400);fill-rule:evenodd" />
        <rect
           transform="rotate(37.286451)"
           y="-96.60302"
           x="565.71838"
           height="52.245213"
           width="52.651794"
           id="rect6320"
           style="color:#000000;display:inline;overflow:visible;visibility:visible;fill:url(#radialGradient6397);fill-opacity:1;fill-rule:evenodd;stroke:none;stroke-width:2;marker:none;enable-background:accumulate" />
        <path
           style="fill:#000000;stroke:none"
           d="m 529.82626,268.79558 c 0,0 -33.83846,28.42319 -32.80561,30.79645 0.67874,1.55962 13.03476,3.25735 13.03476,3.25735 l -10.07313,22.06221 c -1.78204,5.72643 1.45573,2.51688 3.09186,3.09428 0,0 33.70019,-28.97749 32.86821,-30.93292 -0.83197,-1.95544 -8.93143,-2.48368 -12.43885,-3.49667 2.28226,-4.66139 9.4881,-22.93988 9.4881,-22.93988 2.12509,-4.13743 1.38019,-6.2758 -3.16534,-1.84082 z"
           id="path6324"
           inkscape:connector-curvature="0"
           sodipodi:nodetypes="csccczccc" />
        <path
           style="fill:url(#radialGradient6393);fill-opacity:1;stroke:none"
           id="path6326"
           d="m 531.53774,269.80716 -29.94604,27.53766 12.90555,2.52091 -12.04948,25.46895 29.94604,-27.53764 -12.90554,-2.5209 z"
           inkscape:connector-curvature="0" />
        <path
           d="m 516.04726,269.15447 c 16.41807,-0.021 29.70942,11.42877 29.68214,25.56833 l -0.006,0.35993 -59.45243,0.0767 -0.004,-0.36007 c 0.0273,-14.13956 13.36246,-25.62389 29.78054,-25.64489 l 1.3e-4,2e-5 z"
           style="fill:url(#linearGradient6390);fill-opacity:1;fill-rule:evenodd"
           class="fil16"
           id="path6328"
           inkscape:connector-curvature="0" />
        <path
           sodipodi:nodetypes="cccccccccccccccccccccccccc"
           inkscape:connector-curvature="0"
           id="path6332"
           d="m 549.64671,313.18416 1.23063,2.29349 -9.7375,10.76546 c -6.48594,7.95296 -9.21767,9.85116 -14.88881,13.01715 -12.60734,4.67767 -19.60436,1.75868 -29.44588,-1.66442 l -5.71181,3.72215 -2.79033,-1.32424 -1.42588,-2.26028 4.77357,-2.77864 c -17.26602,-18.40203 -15.36197,-34.6694 -11.6313,-50.88972 l 2.60344,-0.6111 2.25506,15.45327 9.39948,-7.04179 v 0 l 2.26428,2.01512 -2.48095,14.00472 9.78082,-3.16222 3.15332,0.87823 -0.31,13.32243 22.89178,-12.04294 2.38056,1.42283 -5.03999,12.32074 12.98246,-12.60629 2.41442,1.40703 -4.85611,10.85461 z"
           style="fill:#1f1a17;fill-rule:evenodd" />
        <path
           sodipodi:nodetypes="cccccccccccccccc"
           inkscape:connector-curvature="0"
           id="path6334"
           d="m 499.65267,336.92135 c -2.53147,-0.74769 -5.3726,-1.3134 -7.32773,-2.97472 -13.61035,-16.32999 -14.71843,-29.28437 -11.32324,-46.88851 l 2.26839,15.51359 10.66792,-7.70976 v 0 l -3.3775,18.04202 13.13098,-5.2243 -0.038,17.01783 24.6928,-14.58857 -5.57998,17.70934 17.12417,-17.07152 -4.87349,12.91696 13.1682,-7.58882 c -7.07975,8.91139 -14.30169,18.23537 -22.7844,21.45034 -7.50985,3.45528 -13.61685,2.60928 -25.74814,-0.60388 z"
           style="fill:url(#radialGradient6386);fill-rule:evenodd" />
        <polygon
           transform="matrix(0.00328986,0.00250497,-0.00250497,0.00328986,813.80781,-242.48525)"
           style="fill:#99ae6a;fill-rule:evenodd"
           points="23163.6,159265 22842,159364 22642.4,159246 22893.4,158534 23466.3,158566 "
           class="fil43"
           id="polygon6336" />
      </g>
    </g>
  </g>
</svg>
