<svg xmlns="http://www.w3.org/2000/svg" width="2400" height="1200" viewBox="0 0 635 317.5"><path style="fill:#000;stroke-width:.26458335" d="M0-20.5h635V297H0z" transform="translate(0 20.5)"/><path transform="translate(0 20.5)" d="M326.099 111.792c-10.848-30.824-40.217-52.917-74.745-52.917-43.788 0-79.375 35.586-79.375 79.375s35.587 79.375 79.375 79.375c34.528 0 63.897-22.093 74.745-52.917h57.547v52.917h52.917v-52.917h26.458v-52.916zm-74.745 52.916c-14.552 0-26.458-11.906-26.458-26.458 0-14.552 11.906-26.458 26.458-26.458 14.552 0 26.458 11.906 26.458 26.458 0 14.552-11.906 26.458-26.458 26.458z" style="fill:#fff;fill-opacity:1;stroke-width:13.22916794"/></svg>