<svg xmlns="http://www.w3.org/2000/svg" width="2400" height="1200" viewBox="0 0 635 317.5"><path style="fill:#000;stroke-width:.26458335" d="M0-20.5h635V297H0z" transform="translate(0 20.5)"/><g style="fill:#000;fill-opacity:1;stroke:#006fac;stroke-opacity:1"><path d="M123.796 89.066a74.462 74.462 0 1 0 .764 0z" style="fill:#000;fill-opacity:1;stroke:#006fac;stroke-width:9.92826271;stroke-opacity:1" transform="translate(193.322 -4.727)"/><path d="M124.178 89.066V237.99m74.462-74.462H49.716m16.802-45.823a99.283 99.283 0 0 0 115.32 0m0 91.646a99.283 99.283 0 0 0-115.32 0M118.45 90.976a95.464 95.464 0 0 0 0 145.869m11.456 0a95.464 95.464 0 0 0 0-145.87" style="fill:#000;fill-opacity:1;stroke:#006fac;stroke-width:6.87341261;stroke-opacity:1" transform="translate(193.322 -4.727)"/></g></svg>