<?xml version="1.0" encoding="UTF-8" standalone="no"?>
<svg
   xmlns:dc="http://purl.org/dc/elements/1.1/"
   xmlns:cc="http://creativecommons.org/ns#"
   xmlns:rdf="http://www.w3.org/1999/02/22-rdf-syntax-ns#"
   xmlns:svg="http://www.w3.org/2000/svg"
   xmlns="http://www.w3.org/2000/svg"
   xmlns:sodipodi="http://sodipodi.sourceforge.net/DTD/sodipodi-0.dtd"
   xmlns:inkscape="http://www.inkscape.org/namespaces/inkscape"
   width="2400"
   height="1200"
   viewBox="0 0 634.99999 317.50001"
   version="1.1"
   id="svg8"
   inkscape:version="1.0.1 (3bc2e813f5, 2020-09-07)"
   sodipodi:docname="featured_postgres_lets_encrypt.svg">
  <defs
     id="defs2" />
  <sodipodi:namedview
     id="base"
     pagecolor="#ffffff"
     bordercolor="#666666"
     borderopacity="1.0"
     inkscape:pageopacity="0.0"
     inkscape:pageshadow="2"
     inkscape:zoom="0.60398704"
     inkscape:cx="776.73927"
     inkscape:cy="621.37562"
     inkscape:document-units="px"
     inkscape:current-layer="layer2"
     showgrid="false"
     units="px"
     inkscape:snap-page="true"
     inkscape:window-width="2560"
     inkscape:window-height="1375"
     inkscape:window-x="0"
     inkscape:window-y="0"
     inkscape:window-maximized="1"
     inkscape:snap-object-midpoints="true"
     inkscape:document-rotation="0" />
  <metadata
     id="metadata5">
    <rdf:RDF>
      <cc:Work
         rdf:about="">
        <dc:format>image/svg+xml</dc:format>
        <dc:type
           rdf:resource="http://purl.org/dc/dcmitype/StillImage" />
        <dc:title />
      </cc:Work>
    </rdf:RDF>
  </metadata>
  <g
     inkscape:label="Background"
     inkscape:groupmode="layer"
     id="layer1"
     transform="translate(0,20.50002)">
    <rect
       style="fill:#ffffff;fill-opacity:1;stroke-width:0.264583"
       id="rect10"
       width="635"
       height="317.5"
       x="2.4999999e-06"
       y="-20.500019"
       inkscape:export-xdpi="96"
       inkscape:export-ydpi="96" />
  </g>
  <g
     inkscape:groupmode="layer"
     id="layer2"
     inkscape:label="Layer1">
    <g
       id="g995"
       transform="translate(-175.30349)"
       inkscape:export-xdpi="96"
       inkscape:export-ydpi="96">
      <g
         id="g880"
         transform="matrix(0.35683063,0,0,0.35699364,238.9714,79.297756)"
         style="stroke-width:0.988417">
        <g
           id="orginal"
           style="clip-rule:nonzero;fill-rule:nonzero;stroke:#000000;stroke-width:0.988417;stroke-miterlimit:4">
	</g>
        <g
           id="Layer_x0020_3"
           style="clip-rule:nonzero;fill:none;fill-rule:nonzero;stroke:#ffffff;stroke-width:12.3207;stroke-linecap:round;stroke-linejoin:round;stroke-miterlimit:4">
<path
   style="fill:#000000;stroke:#000000;stroke-width:36.9621;stroke-linecap:butt;stroke-linejoin:miter"
   d="m 323.205,324.227 c 2.833,-23.601 1.984,-27.062 19.563,-23.239 l 4.463,0.392 c 13.517,0.615 31.199,-2.174 41.587,-7 22.362,-10.376 35.622,-27.7 13.572,-23.148 -50.297,10.376 -53.755,-6.655 -53.755,-6.655 C 401.746,185.774 423.948,85.741 404.784,61.255 352.514,-5.534 262.036,26.049 260.522,26.869 l -0.482,0.089 c -9.938,-2.062 -21.06,-3.294 -33.554,-3.496 -22.761,-0.374 -40.032,5.967 -53.133,15.904 0,0 -161.408,-66.498 -153.899,83.628 1.597,31.936 45.777,241.655 98.47,178.31 19.259,-23.163 37.871,-42.748 37.871,-42.748 9.242,6.14 20.307,9.272 31.912,8.147 l 0.897,-0.765 c -0.281,2.876 -0.157,5.689 0.359,9.019 -13.572,15.167 -9.584,17.83 -36.723,23.416 -27.457,5.659 -11.326,15.734 -0.797,18.367 12.768,3.193 42.305,7.716 62.268,-20.224 l -0.795,3.188 c 5.325,4.26 4.965,30.619 5.72,49.452 0.756,18.834 2.017,36.409 5.856,46.771 3.839,10.36 8.369,37.05 44.036,29.406 29.809,-6.388 52.6,-15.582 54.677,-101.107"
   id="path833" />

<path
   style="fill:#336791;stroke:none;stroke-width:12.3207"
   d="m 402.395,271.23 c -50.302,10.376 -53.76,-6.655 -53.76,-6.655 53.111,-78.808 75.313,-178.843 56.153,-203.326 -52.27,-66.785 -142.752,-35.2 -144.262,-34.38 l -0.486,0.087 c -9.938,-2.063 -21.06,-3.292 -33.56,-3.496 -22.761,-0.373 -40.026,5.967 -53.127,15.902 0,0 -161.411,-66.495 -153.904,83.63 1.597,31.938 45.776,241.657 98.471,178.312 19.26,-23.163 37.869,-42.748 37.869,-42.748 9.243,6.14 20.308,9.272 31.908,8.147 l 0.901,-0.765 c -0.28,2.876 -0.152,5.689 0.361,9.019 -13.575,15.167 -9.586,17.83 -36.723,23.416 -27.459,5.659 -11.328,15.734 -0.796,18.367 12.768,3.193 42.307,7.716 62.266,-20.224 l -0.796,3.188 c 5.319,4.26 9.054,27.711 8.428,48.969 -0.626,21.259 -1.044,35.854 3.147,47.254 4.191,11.4 8.368,37.05 44.042,29.406 29.809,-6.388 45.256,-22.942 47.405,-50.555 1.525,-19.631 4.976,-16.729 5.194,-34.28 l 2.768,-8.309 c 3.192,-26.611 0.507,-35.196 18.872,-31.203 l 4.463,0.392 c 13.517,0.615 31.208,-2.174 41.591,-7 22.358,-10.376 35.618,-27.7 13.573,-23.148 z"
   id="path835" />

<path
   d="m 215.866,286.484 c -1.385,49.516 0.348,99.377 5.193,111.495 4.848,12.118 15.223,35.688 50.9,28.045 29.806,-6.39 40.651,-18.756 45.357,-46.051 3.466,-20.082 10.148,-75.854 11.005,-87.281"
   id="path837"
   style="stroke-width:12.3207" />

<path
   d="m 173.104,38.256 c 0,0 -161.521,-66.016 -154.012,84.109 1.597,31.938 45.779,241.664 98.473,178.316 19.256,-23.166 36.671,-41.335 36.671,-41.335"
   id="path839"
   style="stroke-width:12.3207" />

<path
   d="m 260.349,26.207 c -5.591,1.753 89.848,-34.889 144.087,34.417 19.159,24.484 -3.043,124.519 -56.153,203.329"
   id="path841"
   style="stroke-width:12.3207" />

<path
   style="stroke-width:12.3207;stroke-linejoin:bevel"
   d="m 348.282,263.953 c 0,0 3.461,17.036 53.764,6.653 22.04,-4.552 8.776,12.774 -13.577,23.155 -18.345,8.514 -59.474,10.696 -60.146,-1.069 -1.729,-30.355 21.647,-21.133 19.96,-28.739 -1.525,-6.85 -11.979,-13.573 -18.894,-30.338 -6.037,-14.633 -82.796,-126.849 21.287,-110.183 3.813,-0.789 -27.146,-99.002 -124.553,-100.599 -97.385,-1.597 -94.19,119.762 -94.19,119.762"
   id="path843" />

<path
   d="m 188.604,274.334 c -13.577,15.166 -9.584,17.829 -36.723,23.417 -27.459,5.66 -11.326,15.733 -0.797,18.365 12.768,3.195 42.307,7.718 62.266,-20.229 6.078,-8.509 -0.036,-22.086 -8.385,-25.547 -4.034,-1.671 -9.428,-3.765 -16.361,3.994 z"
   id="path845"
   style="stroke-width:12.3207" />

<path
   d="m 187.715,274.069 c -1.368,-8.917 2.93,-19.528 7.536,-31.942 6.922,-18.626 22.893,-37.255 10.117,-96.339 -9.523,-44.029 -73.396,-9.163 -73.436,-3.193 -0.039,5.968 2.889,30.26 -1.067,58.548 -5.162,36.913 23.488,68.132 56.479,64.938"
   id="path847"
   style="stroke-width:12.3207" />

<path
   style="fill:#ffffff;stroke-width:4.10687;stroke-linecap:butt;stroke-linejoin:miter"
   d="m 172.517,141.7 c -0.288,2.039 3.733,7.48 8.976,8.207 5.234,0.73 9.714,-3.522 9.998,-5.559 0.284,-2.039 -3.732,-4.285 -8.977,-5.015 -5.237,-0.731 -9.719,0.333 -9.996,2.367 z"
   id="path849" />

<path
   style="fill:#ffffff;stroke-width:2.05344;stroke-linecap:butt;stroke-linejoin:miter"
   d="m 331.941,137.543 c 0.284,2.039 -3.732,7.48 -8.976,8.207 -5.238,0.73 -9.718,-3.522 -10.005,-5.559 -0.277,-2.039 3.74,-4.285 8.979,-5.015 5.239,-0.73 9.718,0.333 10.002,2.368 z"
   id="path851" />

<path
   d="m 350.676,123.432 c 0.863,15.994 -3.445,26.888 -3.988,43.914 -0.804,24.748 11.799,53.074 -7.191,81.435"
   id="path853"
   style="stroke-width:12.3207" />

<path
   style="stroke-width:2.96525"
   d="M 0,60.232"
   id="path855" />

</g>
      </g>
      <path
         id="text7752"
         d="m 488.93697,107.8229 h 2.71068 c 0.25812,0.0861 0.64536,0.25822 1.16172,0.51631 1.20471,0.60245 2.10828,1.54904 2.7107,2.83976 0.43021,0.77456 0.64535,2.58169 0.64541,5.42137 -6e-5,0.25823 -6e-5,2.19443 0,5.80862 v 9.55193 h 9.42284 c 6.1958,5e-5 9.46582,0.0432 9.81011,0.12907 2.66758,0.51638 4.3026,2.02233 4.90504,4.51783 0.086,0.51635 0.129,1.03269 0.12907,1.54896 -7e-5,2.66769 -1.20481,4.51784 -3.61423,5.55045 -0.43035,0.25821 -0.90364,0.43031 -1.41988,0.51632 -0.34429,0.0861 -3.61431,0.12912 -9.81011,0.12908 h -9.42284 v 9.55194 c -6e-5,6.7122 -0.2152,10.45553 -0.64541,11.22996 -0.60242,1.29084 -1.50599,2.23744 -2.7107,2.83977 -1.20478,0.60242 -2.36649,0.81753 -3.48515,0.64542 -0.43031,-0.086 -0.90362,-0.21511 -1.41989,-0.38723 -0.77452,-0.25817 -1.50597,-0.73145 -2.19435,-1.41991 -0.68848,-0.68839 -1.16178,-1.41984 -1.4199,-2.19435 -0.25818,-0.77447 -0.38727,-4.43173 -0.38724,-10.97182 v -9.29378 h -9.68102 l -9.55194,-0.12908 -0.5163,-0.12909 c -2.83979,-0.86048 -4.34573,-2.83971 -4.51782,-5.93768 -1e-5,-2.92577 1.50592,-4.90501 4.51782,-5.93769 l 0.5163,-0.25817 h 9.55194 9.68102 v -9.29377 c -3e-5,-6.54 0.12906,-10.19727 0.38724,-10.97181 0.25812,-0.68836 0.73142,-1.41982 1.4199,-2.19438 0.94653,-0.86046 2.02221,-1.41981 3.22699,-1.67803"
         style="font-style:normal;font-variant:normal;font-weight:normal;font-stretch:normal;font-size:1000px;font-family:OCRA;-inkscape-font-specification:OCRA;fill:#000000;fill-opacity:1;stroke:none;stroke-width:0.12908px;stroke-linecap:butt;stroke-linejoin:miter;stroke-opacity:1"
         inkscape:connector-curvature="0"
         transform="translate(0,20.50002)" />
      <g
         id="g933"
         transform="matrix(0.32357349,0,0,0.32357349,593.53646,75.142982)"
         style="stroke-width:0.817692">
	<path
   fill="#ffa400"
   d="m 344.592,276.957 h -58.997 v -30.291 c 0,-24.191 -19.685,-43.876 -43.876,-43.876 -24.191,0 -43.876,19.685 -43.876,43.876 v 30.291 h -58.997 v -30.291 c 0,-56.724 46.149,-102.873 102.873,-102.873 56.724,0 102.873,46.149 102.873,102.873 z"
   id="path915"
   style="stroke-width:0.66862" />

	<path
   fill="#003a70"
   d="m 368.389,276.957 h -253.34 c -10.816,0 -19.665,8.85 -19.665,19.665 v 187.406 c 0,10.816 8.849,19.666 19.665,19.666 h 253.34 c 10.816,0 19.665,-8.85 19.665,-19.666 V 296.622 c 0,-10.816 -8.849,-19.665 -19.665,-19.665 z m -113.83,123.044 v 25.393 c 0,7.087 -5.749,12.837 -12.837,12.837 -7.088,0 -12.837,-5.749 -12.837,-12.837 v -25.389 c -7.897,-4.481 -13.233,-12.947 -13.233,-22.674 0,-14.396 11.671,-26.067 26.067,-26.067 14.396,0 26.067,11.671 26.067,26.067 0,9.727 -5.335,18.192 -13.227,22.67 z"
   id="path917"
   style="stroke-width:0.66862" />

	<path
   fill="#ffa400"
   d="M 89.367,249.016 H 28.235 c -9.911,0 -17.948,-8.036 -17.948,-17.948 0,-9.912 8.036,-17.948 17.948,-17.948 h 61.132 c 9.911,0 17.948,8.036 17.948,17.948 0,9.912 -8.037,17.948 -17.948,17.948 z"
   id="path919"
   style="stroke-width:0.66862" />

	<path
   fill="#ffa400"
   d="m 132.43,152.854 c -4.01,0 -8.048,-1.338 -11.389,-4.085 L 72.685,109.008 c -7.656,-6.296 -8.758,-17.606 -2.462,-25.262 6.294,-7.654 17.601,-8.762 25.262,-2.464 l 48.356,39.761 c 7.656,6.296 8.758,17.606 2.462,25.262 -3.547,4.315 -8.69,6.549 -13.873,6.549 z"
   id="path921"
   style="stroke-width:0.66862" />

	<path
   fill="#ffa400"
   d="m 241.718,110.588 c -9.911,0 -17.948,-8.036 -17.948,-17.948 V 31.027 c 0,-9.912 8.036,-17.948 17.948,-17.948 9.911,0 17.948,8.036 17.948,17.948 V 92.64 c -10e-4,9.912 -8.037,17.948 -17.948,17.948 z"
   id="path923"
   style="stroke-width:0.66862" />

	<g
   id="g929"
   style="stroke-width:0.817692">
		<g
   id="g927"
   style="stroke-width:0.817692">
			<path
   fill="#ffa400"
   d="m 351.008,152.854 c -5.186,0 -10.326,-2.233 -13.873,-6.55 -6.296,-7.656 -5.194,-18.966 2.462,-25.262 l 48.356,-39.761 c 7.664,-6.299 18.971,-5.19 25.262,2.464 6.296,7.656 5.194,18.966 -2.462,25.262 l -48.356,39.761 c -3.342,2.747 -7.379,4.086 -11.389,4.086 z"
   id="path925"
   style="stroke-width:0.66862" />

		</g>

	</g>

	<path
   fill="#ffa400"
   d="M 455.203,249.016 H 393.49 c -9.911,0 -17.948,-8.036 -17.948,-17.948 0,-9.912 8.036,-17.948 17.948,-17.948 h 61.713 c 9.911,0 17.948,8.036 17.948,17.948 -0.001,9.912 -8.037,17.948 -17.948,17.948 z"
   id="path931"
   style="stroke-width:0.66862" />

</g>
    </g>
  </g>
</svg>
