<svg xmlns="http://www.w3.org/2000/svg" width="2400" height="1200" viewBox="0 0 635 317.5" version="1.1" id="svg8"><defs id="defs2"><style id="style877">.cls-1{fill:#231f20}</style></defs><g id="layer1" transform="translate(0 20.5)"><path style="fill:#000;stroke-width:.26458335" id="rect10" d="M0-20.5h635V297H0z"/></g><g id="layer2"><g id="g917" transform="matrix(.9612 0 0 .9612 111.01 79.824)" style="fill:#fff;fill-opacity:1;stroke:#0f0000;stroke-opacity:1"><path id="path881" transform="translate(-35.04 -38.03)" d="M344.15 91.38c-1.16-6.47-7-11.78-16.28-15.62a77.54 77.54 0 0 0-19.57-21h.07c-4.24-9-10.08-14.85-17.36-16.33-4.55-.93-9.31-.07-14.1 2.31a81.63 81.63 0 0 0-28.13-.87A85.18 85.18 0 0 0 232 44c-17.6.64-31 5.48-34.82 13.84a18.63 18.63 0 0 0-1.49 11.56A74.54 74.54 0 0 0 182 95.22a129.94 129.94 0 0 0-13.26 9.34 108.81 108.81 0 0 1 12.92-8.09 75.94 75.94 0 0 0-2.66 20.35 14.14 14.14 0 0 0 1.86 1.45l2.44 2A67 67 0 0 1 188.54 93c4.29-2.06 8.82-4 13.5-5.84a4.48 4.48 0 0 0 1.21 1.47 5.15 5.15 0 0 0 5.77.22 141.93 141.93 0 0 0 21.21 14.83 6 6 0 0 0 3.13 6.61c-.62 2.18-1.67 6.1-1.67 6.1s-.17.71-.42 1.78c.49.08 1.94.55 2.51.67.29-1.25.49-2.09.49-2.09l1.73-5.85a6.05 6.05 0 0 0 4.08-1.67c4.1 2.22 8.31 4.4 12.53 6.53l.77-2.79c-3.83-2.15-7.73-4.31-11.6-6.47 0-.16.09-.31.13-.48a6.09 6.09 0 0 0-2.35-6.36c1.81-5.2 3.75-10.17 5.8-14.86a12.75 12.75 0 0 0 4.52.71A12.39 12.39 0 0 0 262.14 73l-.06-.78c3.71-.4 7.4-.7 11.05-.9l2.6-.12c22.76-.93 41.89 2.33 53.57 8.49a67.78 67.78 0 0 1 6.16 12.1 73.65 73.65 0 0 0-4.94-11.44c6.13 3.5 10 7.85 10.86 12.85 1.11 6.17-2.48 14.62-9.63 21.08 8.72-7.17 13.71-15.61 12.4-22.9zm-52.7-51.15c6.55 1.34 11.85 6.26 15.9 13.77a80.3 80.3 0 0 0-27.28-12.6 19.78 19.78 0 0 1 11.38-1.17zm-38.57 5.26a87.26 87.26 0 0 1 16.94-.17 77.17 77.17 0 0 0-14.93 16.88 12.91 12.91 0 0 0-5.63-1.2A12.43 12.43 0 0 0 237 73.58v.58a217.25 217.25 0 0 0-25.6 7.23 4.36 4.36 0 0 0-1.1-1.3 5.24 5.24 0 0 0-6.19 0 31.28 31.28 0 0 1-4.14-6 80.14 80.14 0 0 1 52.91-28.6zm6.69 24.78c-1.12.13-2.26.26-3.38.41a7 7 0 0 0-2.19-2.84c.57-1 1.14-1.88 1.72-2.79a10.32 10.32 0 0 1 3.85 5.22zm-16.9 4.93a7 7 0 0 0 2.65 3.69c-.48 1-.95 2-1.42 3a10.22 10.22 0 0 1-4.48-6zm9.33-8.47a7.31 7.31 0 0 0-2.58-.41 7.09 7.09 0 0 0-7 6.7l-3.32.69v-.18a10.36 10.36 0 0 1 10.24-10.45 10.85 10.85 0 0 1 4.42.85c-.62.91-1.22 1.85-1.76 2.8zm-52.52-8.53c3.77-8.19 15.58-13 31.72-13.93a82.52 82.52 0 0 0-33.39 22.64 17.26 17.26 0 0 1 1.67-8.71zM189.4 91a76 76 0 0 1 8.88-14.76 36.62 36.62 0 0 0 4 5.81 5.54 5.54 0 0 0-.8 3.18Q195.11 88 189.4 91Zm47.68 7.67a6 6 0 0 0-5.4 2 159 159 0 0 1-20.59-13.88 5.56 5.56 0 0 0 .95-3.34 253.57 253.57 0 0 1 25.33-7.17 12.33 12.33 0 0 0 5.68 7.4q-3.2 7.14-5.97 15zM260 73a10.32 10.32 0 0 1-10.23 10.43 10.69 10.69 0 0 1-3.63-.55c.46-1 .91-2 1.37-3a7.13 7.13 0 0 0 2.18.28 7.06 7.06 0 0 0 7-7.13 2.28 2.28 0 0 1 0-.26c1.1-.15 2.2-.27 3.3-.4.01.28.01.48.01.63Zm15.75-4c-.89 0-1.78.08-2.67.13-3.76.2-7.57.49-11.41.9a12.31 12.31 0 0 0-4.81-6.69c5.05-7.63 10.42-13.67 15.88-17.7 21.26 2.58 40.81 13 53.35 29.43-12.33-4.67-30.01-6.91-50.34-6.07Z" class="cls-1" style="fill:#fff;fill-opacity:1;stroke:#0f0000;stroke-opacity:1"/><path id="path883" transform="translate(-35.04 -38.03)" d="M349.43 102.45h21.88l-3.83 78.33h-15.29l1.73-24.56h-16.09l-11.2 24.56h-16.39ZM343.14 145h11.67l2.24-30.7z" class="cls-1" style="fill:#fff;fill-opacity:1;stroke:#0f0000;stroke-opacity:1"/><path id="path887" transform="translate(-35.04 -38.03)" d="M446.59 102.45h-17.52l-17.57 25.84-4.42-25.84h-27.57s-.84.58.83.8c3.66.5 12.34 2.82 13.07 7.72l6 28-31.93 41.86h18.09L405 152.85l5 27.93h15.3L417.12 142Z" class="cls-1" style="fill:#fff;fill-opacity:1;stroke:#0f0000;stroke-opacity:1"/><path id="path889" transform="translate(-35.04 -38.03)" d="M318.17 102.45h-12l-27.34 57.62 7.29-57.62h-40.58s-.84.58.82.8c4 .54 13.79 3.21 13.09 9l-21 68.56h14.73l19.38-67.33-7.92 67.33h16.66l31.8-66-20.34 66h14.77l22.72-78.33z" class="cls-1" style="fill:#fff;fill-opacity:1;stroke:#0f0000;stroke-opacity:1"/><path id="path891" transform="translate(-35.04 -38.03)" d="M58.45 102.46h42.88l-3.21 10.67H67.91l-6.48 22h28.44l-3.1 10.67H58.33l-7.52 25.33h31.1l-3.1 10.66H35Z" class="cls-1" style="fill:#fff;fill-opacity:1;stroke:#0f0000;stroke-opacity:1"/><path id="path893" transform="translate(-35.04 -38.03)" d="M117.8 174.45h-.22c-2.65 3.89-7.17 8.89-15.72 8.89-14 0-16.15-11.67-10-32.22 7.74-26.55 18.3-30.66 27.41-30.66 6.44 0 10.4 3.22 11.07 8.56h.22l7.85-26.56h12L127 181.78h-11.36ZM120 130c-6.89 0-11 5.56-15.67 21.67-4 13.55-4.82 22.1 3.51 22.1s12.58-8.44 16.41-21.21c4.2-14.32 4.99-22.56-4.25-22.56Z" class="cls-1" style="fill:#fff;fill-opacity:1;stroke:#0f0000;stroke-opacity:1"/><path id="path895" transform="translate(-35.04 -38.03)" d="M146.54 186.89c-1.08 3.67 1.3 7.11 6.63 7.11 6.22 0 11.36-4.33 13.37-11.22l2.9-9.66h-.22a20.41 20.41 0 0 1-16 8.22c-14 0-13.86-13.78-9.08-30.11 4-13.1 11.08-30.77 28.08-30.77 7 0 10.73 4.55 10.49 8.89h.22l2.16-7.33h11.33l-16.67 56.87c-4.31 14.55-13.14 23.33-29.25 23.33-17.77 0-16.69-10.44-15.29-15.33zm12.91-15.11c9.33 0 13.85-11.77 16.63-21.21 2.8-9.78 4.8-20.56-3.53-20.56-8.67 0-12.73 8.89-16 20-3.04 10.22-5.99 21.77 2.9 21.77z" class="cls-1" style="fill:#fff;fill-opacity:1;stroke:#0f0000;stroke-opacity:1"/><path id="path897" transform="translate(-35.04 -38.03)" d="m206.49 153.46-1 3.44c-2.43 8-4.38 18.22 4.62 18.22 8.55 0 12.35-9.78 13.42-13.33h11.37c-3.9 13.21-14.32 21.55-27.32 21.55-9.77 0-21-2.89-12.93-30.55 4.63-15.67 12.88-32.33 31.65-32.33 16.67 0 18.18 10 13.25 26.66l-1.85 6.34zm21.67-8.23.93-3.22c2.28-7.55 1.54-13.33-5.24-13.33-7.67 0-12.28 7.55-14.59 15.33l-.32 1.22z" class="cls-1" style="fill:#fff;fill-opacity:1;stroke:#0f0000;stroke-opacity:1"/><path id="path899" transform="translate(-35.04 -38.03)" d="M456.81 118.9a8.26 8.26 0 1 1 8.08-8.26 7.95 7.95 0 0 1-8.08 8.26zm0-15.08c-3.58 0-6.36 2.81-6.36 6.82 0 3.76 2.43 6.83 6.36 6.83 3.53 0 6.31-2.78 6.31-6.83 0-4.05-2.78-6.82-6.31-6.82zm-1.63 11.55h-1.5v-9.14h3.46c2.21 0 3.34.77 3.34 2.63a2.34 2.34 0 0 1-2.39 2.49l2.56 4H459l-2.36-3.91h-1.41zm1.67-5.19c1.13 0 2.12-.11 2.12-1.43 0-1.11-1.08-1.24-2-1.24h-1.81v2.67z" class="cls-1" style="fill:#fff;fill-opacity:1;stroke:#0f0000;stroke-opacity:1"/></g></g></svg>