<svg xmlns="http://www.w3.org/2000/svg" width="2400" height="1200" viewBox="0 0 635 317.5"><path style="fill:#000;stroke-width:.26458335" d="M0-20.5h635V297H0z" transform="translate(0 20.5)"/><path transform="translate(0 20.5)" d="M382.443 208.82 261.36 87.74l-8.804 8.803 14.72 14.72c-4.473 2.455-7.504 7.144-7.504 12.556v72.158c0 7.937 6.495 14.432 14.432 14.432h86.59c1.66 0 3.247-.36 4.763-.865l8.081 8.082zM295.13 94.954c0-12.339 10.03-22.369 22.369-22.369 12.34 0 22.37 10.03 22.37 22.37v14.431h-39.255l74.612 74.612v-60.18c0-7.938-6.494-14.432-14.432-14.432h-7.216V94.954c0-19.915-16.163-36.079-36.079-36.079-18.472 0-33.481 13.927-35.646 31.75l13.277 13.277z" style="fill:#fff;fill-opacity:1;stroke-width:7.21583939"/></svg>