<svg xmlns="http://www.w3.org/2000/svg" width="2400" height="1200" viewBox="0 0 635 317.5"><path style="fill:#000;stroke-width:.26458335" d="M0-20.5h635V297H0z" transform="translate(0 20.5)"/><path d="M230.188 238.125h31.75v-95.25h-31.75zm174.624-87.312c0-8.731-7.144-15.875-15.875-15.875H338.85l7.541-36.274.24-2.541c0-3.254-1.35-6.27-3.493-8.414l-8.413-8.334-52.229 52.308c-2.937 2.859-4.683 6.826-4.683 11.192v79.374c0 8.731 7.144 15.875 15.875 15.875h71.437a15.768 15.768 0 0 0 14.605-9.684l23.971-55.959a15.694 15.694 0 0 0 1.11-5.794z" style="fill:#fff;fill-opacity:1;stroke-width:7.93745041"/></svg>