<svg xmlns="http://www.w3.org/2000/svg" xml:space="preserve" width="2400" height="1200" viewBox="0 0 635 317.5"><path fill="#fff" d="M0 0h635v317.5H0z"/><g fill="currentColor"><path d="M423.336 97.014a17.639 17.639 0 0 1 17.639 17.64v88.194a17.639 17.639 0 0 1-17.639 17.64H211.668a17.639 17.639 0 0 1-17.639-17.64v-88.195a17.639 17.639 0 0 1 17.639-17.639zM211.668 79.375a35.278 35.278 0 0 0-35.278 35.278v88.195a35.278 35.278 0 0 0 35.278 35.278h211.668a35.278 35.278 0 0 0 35.278-35.278v-88.195a35.278 35.278 0 0 0-35.278-35.278z"/><path d="M405.697 189.62a4.41 4.41 0 0 1 4.41-4.41h8.82a4.41 4.41 0 0 1 4.409 4.41v8.819a4.41 4.41 0 0 1-4.41 4.41h-8.82a4.41 4.41 0 0 1-4.409-4.41zm0-35.279a4.41 4.41 0 0 1 4.41-4.41h8.82a4.41 4.41 0 0 1 4.409 4.41v8.82a4.41 4.41 0 0 1-4.41 4.41h-8.82a4.41 4.41 0 0 1-4.409-4.41zm-88.195 0a4.41 4.41 0 0 1 4.41-4.41h8.82a4.41 4.41 0 0 1 4.409 4.41v8.82a4.41 4.41 0 0 1-4.41 4.41h-8.82a4.41 4.41 0 0 1-4.409-4.41zm35.278 0a4.41 4.41 0 0 1 4.41-4.41h26.458a4.41 4.41 0 0 1 4.41 4.41v8.82a4.41 4.41 0 0 1-4.41 4.41H357.19a4.41 4.41 0 0 1-4.41-4.41zm17.639 35.278a4.41 4.41 0 0 1 4.41-4.41h8.82a4.41 4.41 0 0 1 4.409 4.41v8.82a4.41 4.41 0 0 1-4.41 4.41h-8.82a4.41 4.41 0 0 1-4.409-4.41zm-88.195-35.278a4.41 4.41 0 0 1 4.41-4.41h8.82a4.41 4.41 0 0 1 4.409 4.41v8.82a4.41 4.41 0 0 1-4.41 4.41h-8.82a4.41 4.41 0 0 1-4.409-4.41zm-35.278 0a4.41 4.41 0 0 1 4.41-4.41h8.82a4.41 4.41 0 0 1 4.409 4.41v8.82a4.41 4.41 0 0 1-4.41 4.41h-8.82a4.41 4.41 0 0 1-4.409-4.41zm-35.278 0a4.41 4.41 0 0 1 4.41-4.41h8.82a4.41 4.41 0 0 1 4.409 4.41v8.82a4.41 4.41 0 0 1-4.41 4.41h-8.82a4.41 4.41 0 0 1-4.409-4.41zm194.029-35.278a4.41 4.41 0 0 1 4.41-4.41h8.82a4.41 4.41 0 0 1 4.409 4.41v8.82a4.41 4.41 0 0 1-4.41 4.41h-8.82a4.41 4.41 0 0 1-4.409-4.41zm-35.278 0a4.41 4.41 0 0 1 4.41-4.41h8.82a4.41 4.41 0 0 1 4.409 4.41v8.82a4.41 4.41 0 0 1-4.41 4.41h-8.82a4.41 4.41 0 0 1-4.409-4.41zm-35.278 0a4.41 4.41 0 0 1 4.41-4.41h8.82a4.41 4.41 0 0 1 4.409 4.41v8.82a4.41 4.41 0 0 1-4.41 4.41h-8.82a4.41 4.41 0 0 1-4.409-4.41zm-35.278 0a4.41 4.41 0 0 1 4.41-4.41h8.82a4.41 4.41 0 0 1 4.409 4.41v8.82a4.41 4.41 0 0 1-4.41 4.41h-8.82a4.41 4.41 0 0 1-4.409-4.41zm-35.278 0a4.41 4.41 0 0 1 4.41-4.41h8.82a4.41 4.41 0 0 1 4.409 4.41v8.82a4.41 4.41 0 0 1-4.41 4.41h-8.82a4.41 4.41 0 0 1-4.409-4.41zm-52.917 0a4.41 4.41 0 0 1 4.41-4.41h26.458a4.41 4.41 0 0 1 4.41 4.41v8.82a4.41 4.41 0 0 1-4.41 4.41h-26.458a4.41 4.41 0 0 1-4.41-4.41zm0 70.556a4.41 4.41 0 0 1 4.41-4.41h8.82a4.41 4.41 0 0 1 4.409 4.41v8.82a4.41 4.41 0 0 1-4.41 4.41h-8.82a4.41 4.41 0 0 1-4.409-4.41zm35.278 0a4.41 4.41 0 0 1 4.41-4.41h97.014a4.41 4.41 0 0 1 4.41 4.41v8.82a4.41 4.41 0 0 1-4.41 4.41h-97.014a4.41 4.41 0 0 1-4.41-4.41z"/></g></svg>