<?xml version="1.0" encoding="UTF-8" standalone="no"?>
<svg
   xmlns:dc="http://purl.org/dc/elements/1.1/"
   xmlns:cc="http://creativecommons.org/ns#"
   xmlns:rdf="http://www.w3.org/1999/02/22-rdf-syntax-ns#"
   xmlns:svg="http://www.w3.org/2000/svg"
   xmlns="http://www.w3.org/2000/svg"
   xmlns:sodipodi="http://sodipodi.sourceforge.net/DTD/sodipodi-0.dtd"
   xmlns:inkscape="http://www.inkscape.org/namespaces/inkscape"
   inkscape:export-ydpi="96"
   inkscape:export-xdpi="96"
   inkscape:export-filename="/home/logan/Downloads/featured_images/completed_files_png/featured_grafana.png"
   sodipodi:docname="featured_grafana.svg"
   inkscape:version="1.0 (4035a4fb49, 2020-05-01)"
   id="svg8"
   version="1.1"
   viewBox="0 0 634.99999 317.50001"
   height="1200"
   width="2400">
  <defs
     id="defs2">
    <linearGradient
       gradientTransform="matrix(0.43732779,0,0,0.43732779,240.74128,58.437691)"
       id="SVGID_1_"
       gradientUnits="userSpaceOnUse"
       x1="175.5"
       y1="45"
       x2="175.5"
       y2="148.5">
      <stop
         offset="0"
         style="stop-color:#F05A28"
         id="stop5" />
      <stop
         offset="1"
         style="stop-color:#FBCA0A"
         id="stop7" />
    </linearGradient>
  </defs>
  <sodipodi:namedview
     inkscape:document-rotation="0"
     inkscape:snap-object-midpoints="true"
     inkscape:window-maximized="1"
     inkscape:window-y="0"
     inkscape:window-x="0"
     inkscape:window-height="1015"
     inkscape:window-width="1920"
     inkscape:snap-page="true"
     units="px"
     showgrid="false"
     inkscape:current-layer="layer2"
     inkscape:document-units="px"
     inkscape:cy="580.37338"
     inkscape:cx="1441.4607"
     inkscape:zoom="0.35"
     inkscape:pageshadow="2"
     inkscape:pageopacity="0.0"
     borderopacity="1.0"
     bordercolor="#666666"
     pagecolor="#ffffff"
     id="base" />
  <metadata
     id="metadata5">
    <rdf:RDF>
      <cc:Work
         rdf:about="">
        <dc:format>image/svg+xml</dc:format>
        <dc:type
           rdf:resource="http://purl.org/dc/dcmitype/StillImage" />
        <dc:title />
      </cc:Work>
    </rdf:RDF>
  </metadata>
  <g
     transform="translate(0,20.50002)"
     id="layer1"
     inkscape:groupmode="layer"
     inkscape:label="Background">
    <rect
       y="-20.500019"
       x="0"
       height="317.5"
       width="635"
       id="rect10"
       style="fill:#000000;stroke-width:0.26458335" />
    <g
       transform="matrix(0.26458334,0,0,0.26458334,470.78716,133.57949)"
       id="Layer_1_1_" />
  </g>
  <g
     inkscape:label="Layer1"
     id="layer2"
     inkscape:groupmode="layer">
    <path
       style="fill:#ffffff;fill-opacity:1;stroke-width:0.264583"
       class="st0"
       d="m 390.30738,149.43496 c -0.2624,-2.6677 -0.69972,-5.72901 -1.57438,-9.14017 -0.87466,-3.36742 -2.18665,-7.08471 -4.11088,-10.93319 -1.92425,-3.84847 -4.41702,-7.82816 -7.65324,-11.72037 -1.26824,-1.53065 -2.6677,-3.01757 -4.15461,-4.46075 2.23037,-8.87775 -2.71144,-16.574718 -2.71144,-16.574718 -8.5279,-0.5248 -13.95075,2.6677 -15.96246,4.110868 -0.34986,-0.13124 -0.656,-0.30613 -1.00585,-0.43732 -1.44319,-0.568528 -2.9301,-1.137058 -4.50448,-1.618118 -1.53064,-0.48105 -3.10502,-0.91838 -4.72314,-1.31198 -1.61811,-0.39359 -3.23623,-0.69972 -4.89808,-0.96211 -0.30611,-0.0438 -0.56851,-0.0874 -0.87464,-0.13124 -3.71729,-11.895324 -14.38808,-16.880861 -14.38808,-16.880861 -11.93906,7.565768 -14.16942,18.149101 -14.16942,18.149101 0,0 -0.0438,0.21866 -0.13124,0.61227 -0.656,0.17492 -1.31199,0.39358 -1.96799,0.56851 -0.91838,0.2624 -1.83677,0.61226 -2.71144,0.96213 -0.91838,0.349848 -1.79304,0.699718 -2.71142,1.093318 -1.79304,0.78719 -3.5861,1.66184 -5.3354,2.62397 -1.70557,0.96212 -3.36742,2.0117 -4.98554,3.10503 -0.21866,-0.0874 -0.43732,-0.17495 -0.43732,-0.17495 -16.53101,-6.2975 -31.18148,1.26827 -31.18148,1.26827 -1.35572,17.58057 6.60365,28.64497 8.17803,30.65667 -0.39361,1.09332 -0.74346,2.18665 -1.09332,3.27997 -1.22452,3.97968 -2.14291,8.04682 -2.71144,12.28891 -0.0874,0.61226 -0.17493,1.22451 -0.21866,1.83677 -15.30646,7.56577 -19.81094,23.00344 -19.81094,23.00344 12.72623,14.65048 27.59538,15.56887 27.59538,15.56887 0,0 0.0438,-0.0438 0.0438,-0.0438 1.8805,3.36742 4.06714,6.55992 6.51618,9.57747 1.04959,1.26827 2.09918,2.44904 3.23622,3.62984 -4.63567,13.29476 0.656,24.31542 0.656,24.31542 14.16942,0.52479 23.48449,-6.21005 25.45248,-7.74071 1.39945,0.48107 2.84262,0.91839 4.28581,1.26826 4.37328,1.13704 8.83402,1.79304 13.29476,1.96797 1.09333,0.0438 2.23037,0.0874 3.32369,0.0438 h 0.52479 0.34987 0.69972 l 0.69973,-0.0438 v 0.0438 c 6.69111,9.53375 18.41149,10.88947 18.41149,10.88947 8.35297,-8.7903 8.83403,-17.53686 8.83403,-19.41735 v 0 c 0,0 0,-0.0438 0,-0.13124 0,-0.17495 0,-0.2624 0,-0.2624 v 0 c 0,-0.13124 0,-0.2624 0,-0.3936 1.74931,-1.22452 3.41116,-2.5365 4.98554,-3.97969 3.32368,-3.01755 6.25378,-6.47245 8.70282,-10.18973 0.21867,-0.34987 0.43733,-0.69972 0.65599,-1.04959 9.44628,0.52479 16.1374,-5.8602 16.1374,-5.8602 -1.57438,-9.83987 -7.17218,-14.65048 -8.35297,-15.56886 v 0 c 0,0 -0.0438,-0.0438 -0.13124,-0.0874 -0.0874,-0.0438 -0.0874,-0.0874 -0.0874,-0.0874 0,0 0,0 0,0 -0.0438,-0.0438 -0.13124,-0.0874 -0.21866,-0.13124 0.0438,-0.61227 0.0874,-1.1808 0.13124,-1.79306 0.0874,-1.04959 0.0874,-2.14289 0.0874,-3.19248 v -0.78719 -0.3936 -0.21866 c 0,-0.2624 0,-0.17493 0,-0.2624 l -0.0438,-0.656 -0.0438,-0.87464 c 0,-0.30614 -0.0438,-0.56853 -0.0874,-0.83093 -0.0438,-0.2624 -0.0438,-0.56853 -0.0874,-0.83093 l -0.0874,-0.83092 -0.13124,-0.83093 c -0.17493,-1.0933 -0.34985,-2.14289 -0.61225,-3.23621 -1.00587,-4.24208 -2.6677,-8.2655 -4.81061,-11.89532 -2.18664,-3.62982 -4.89807,-6.82232 -8.00311,-9.53375 -3.06129,-2.71143 -6.51618,-4.89807 -10.10226,-6.51618 -3.62982,-1.61812 -7.39084,-2.66771 -11.15187,-3.14876 -1.88049,-0.2624 -3.76101,-0.34986 -5.64152,-0.30614 h -0.69972 -0.17494 c -0.0438,0 -0.2624,0 -0.21866,0 h -0.30613 l -0.69972,0.0438 c -0.2624,0 -0.52479,0.0438 -0.74346,0.0438 -0.96213,0.0874 -1.92424,0.21867 -2.84262,0.3936 -3.76103,0.69972 -7.30339,2.05544 -10.40842,3.93595 -3.10502,1.88051 -5.81646,4.19835 -8.00309,6.82231 -2.18664,2.62397 -3.89221,5.55407 -5.073,8.57162 -1.18078,3.01757 -1.83678,6.16633 -2.01171,9.18389 -0.0438,0.74345 -0.0438,1.53064 -0.0438,2.27411 0,0.17493 0,0.39359 0,0.56851 l 0.0438,0.61227 c 0.0438,0.34987 0.0438,0.74345 0.0874,1.09332 0.13124,1.53064 0.43732,3.01755 0.83093,4.41701 0.83091,2.84263 2.14289,5.42286 3.76101,7.6095 1.61811,2.18665 3.58609,3.97969 5.64153,5.42286 2.05544,1.39945 4.2858,2.40531 6.47245,3.06131 2.18664,0.65598 4.37327,0.91838 6.42872,0.91838 0.2624,0 0.5248,0 0.74346,0 0.13124,0 0.2624,0 0.39359,0 0.13124,0 0.26239,0 0.3936,-0.0438 0.21866,0 0.43732,-0.0438 0.65598,-0.0438 0.0438,0 0.13124,0 0.17494,-0.0438 l 0.21867,-0.0438 c 0.13124,0 0.26239,-0.0438 0.39358,-0.0438 0.2624,-0.0438 0.48106,-0.0874 0.74346,-0.13124 0.26239,-0.0438 0.48107,-0.0874 0.69973,-0.17493 0.48106,-0.0874 0.91838,-0.26239 1.35572,-0.3936 0.87465,-0.30612 1.74931,-0.65598 2.49276,-1.04959 0.78719,-0.39358 1.48691,-0.87464 2.18665,-1.31198 0.17492,-0.13124 0.39358,-0.2624 0.56853,-0.43732 0.69971,-0.56853 0.8309,-1.61812 0.26239,-2.31784 -0.48107,-0.61226 -1.35572,-0.78719 -2.05545,-0.3936 -0.17493,0.0874 -0.34985,0.17494 -0.5248,0.2624 -0.61224,0.30613 -1.22451,0.56852 -1.88049,0.78719 -0.656,0.21867 -1.35572,0.3936 -2.05546,0.52479 -0.34985,0.0438 -0.69971,0.0874 -1.0933,0.13124 -0.17494,0 -0.34987,0.0438 -0.56853,0.0438 -0.17494,0 -0.3936,0 -0.52479,0 -0.17495,0 -0.34987,0 -0.5248,0 -0.21866,0 -0.43734,0 -0.656,-0.0438 0,0 -0.13124,0 -0.0438,0 h -0.0874 -0.13124 c -0.0874,0 -0.21866,0 -0.30613,-0.0438 -0.21866,-0.0438 -0.39359,-0.0438 -0.61225,-0.0874 -1.61811,-0.21866 -3.23623,-0.69972 -4.76687,-1.39944 -1.57438,-0.69973 -3.06129,-1.66185 -4.41701,-2.88636 -1.35572,-1.22453 -2.53651,-2.6677 -3.45489,-4.32956 -0.9184,-1.66183 -1.57438,-3.49861 -1.88051,-5.42285 -0.13124,-0.96212 -0.21867,-1.96799 -0.17493,-2.9301 0,-0.2624 0.0438,-0.5248 0.0438,-0.78719 0,0.0874 0,-0.0438 0,-0.0438 v -0.0874 -0.21866 c 0,-0.13124 0.0438,-0.2624 0.0438,-0.39361 0.0438,-0.52479 0.13124,-1.04958 0.21866,-1.57438 0.74346,-4.19834 2.84263,-8.30922 6.07886,-11.41424 0.83093,-0.78719 1.70557,-1.48691 2.62397,-2.14291 0.91838,-0.65599 1.92423,-1.22452 2.97382,-1.70557 1.04958,-0.48108 2.09917,-0.87466 3.23623,-1.1808 1.09332,-0.30613 2.23038,-0.48105 3.41116,-0.61226 0.56852,-0.0438 1.13705,-0.0874 1.7493,-0.0874 0.17494,0 0.2624,0 0.3936,0 h 0.48106 0.30613 c 0.13124,0 0,0 0.0438,0 h 0.13124 l 0.48105,0.0438 c 1.26825,0.0874 2.49278,0.2624 3.71729,0.56853 2.44904,0.52479 4.85433,1.44319 7.08471,2.6677 4.46075,2.49276 8.26551,6.34126 10.58334,10.97693 1.18078,2.31783 2.0117,4.81061 2.40531,7.39084 0.0874,0.65598 0.17492,1.31198 0.21866,1.96797 l 0.0438,0.48107 0.0438,0.48106 c 0,0.17492 0,0.34985 0,0.48106 0,0.17492 0,0.34986 0,0.48105 v 0.43733 0.48107 c 0,0.30612 -0.0438,0.83091 -0.0438,1.13704 -0.0438,0.69974 -0.13124,1.44319 -0.21868,2.14291 -0.0874,0.69972 -0.21866,1.39946 -0.34985,2.09917 -0.13124,0.69972 -0.30613,1.39946 -0.48106,2.05544 -0.34987,1.35572 -0.78719,2.71144 -1.31198,4.06716 -1.04959,2.62397 -2.44904,5.16046 -4.11089,7.4783 -3.36742,4.63568 -7.95936,8.39669 -13.20729,10.80199 -2.62397,1.1808 -5.37914,2.05544 -8.22177,2.49278 -1.39945,0.2624 -2.84263,0.39359 -4.28582,0.43732 h -0.26239 -0.21866 -0.48106 -0.69972 -0.34987 c 0.17493,0 -0.0438,0 -0.0438,0 h -0.13124 c -0.78719,0 -1.53064,-0.0438 -2.31783,-0.13124 -3.06131,-0.21866 -6.07886,-0.78719 -9.0527,-1.61811 -2.9301,-0.83093 -5.77273,-2.0117 -8.48416,-3.41116 -5.37913,-2.88636 -10.23347,-6.82231 -13.99448,-11.58919 -1.88051,-2.36157 -3.54236,-4.9418 -4.89808,-7.6095 -1.35571,-2.6677 -2.44903,-5.51033 -3.23622,-8.35296 -0.78719,-2.88636 -1.26825,-5.81646 -1.48692,-8.79028 l -0.0438,-0.56853 v -0.13124 -0.13124 -0.26239 -0.48106 -0.13124 -0.17494 -0.34985 -0.69974 -0.13124 c 0,0 0,0.0438 0,-0.0438 v -0.2624 c 0,-0.34985 0,-0.74345 0,-1.0933 0.0438,-1.44319 0.17494,-2.97384 0.34986,-4.46075 0.17493,-1.48692 0.43733,-3.01757 0.74346,-4.50448 0.30613,-1.48692 0.656,-2.97383 1.09332,-4.46074 0.83093,-2.9301 1.88051,-5.77273 3.10502,-8.44043 2.49278,-5.3354 5.729,-10.10228 9.62123,-13.90702 0.96211,-0.96212 1.96796,-1.83678 3.01755,-2.71144 1.04959,-0.83092 2.14291,-1.61811 3.27997,-2.36157 1.0933,-0.74345 2.2741,-1.39944 3.45487,-2.0117 0.56853,-0.30613 1.1808,-0.61227 1.79306,-0.87466 0.30612,-0.13124 0.61225,-0.2624 0.91838,-0.39359 0.30613,-0.13124 0.61226,-0.2624 0.9184,-0.3936 1.22451,-0.5248 2.49276,-0.96212 3.80474,-1.35572 0.30613,-0.0874 0.656,-0.17493 0.96212,-0.30612 0.30613,-0.0874 0.656,-0.17494 0.96213,-0.26239 0.65598,-0.17495 1.31198,-0.34987 1.96796,-0.48108 0.30614,-0.0874 0.656,-0.13124 1.00586,-0.21866 0.34986,-0.0874 0.656,-0.13124 1.00586,-0.21866 0.34985,-0.0438 0.65599,-0.13124 1.00585,-0.17493 l 0.48106,-0.0874 0.5248,-0.0874 c 0.34986,-0.0438 0.65598,-0.0874 1.00585,-0.13124 0.3936,-0.0438 0.74345,-0.0874 1.13705,-0.13124 0.30614,-0.0438 0.83093,-0.0874 1.13705,-0.13124 0.21867,-0.0438 0.48107,-0.0438 0.69973,-0.0874 l 0.48106,-0.0438 0.21866,-0.0438 h 0.2624 c 0.3936,-0.0438 0.74345,-0.0438 1.13705,-0.0874 l 0.56853,-0.0438 c 0,0 0.21866,0 0.0438,0 h 0.13123 0.2624 c 0.30612,0 0.65598,-0.0438 0.96212,-0.0438 1.26824,-0.0438 2.58023,-0.0438 3.84848,0 2.53651,0.0874 5.02927,0.3936 7.43457,0.83092 4.85433,0.9184 9.40255,2.44904 13.55716,4.50448 4.15461,2.0117 7.82816,4.50448 11.0644,7.2159 0.21866,0.17494 0.3936,0.34987 0.61226,0.52479 0.17493,0.17495 0.39359,0.34987 0.56853,0.5248 0.39359,0.34987 0.74345,0.69973 1.13704,1.04958 0.3936,0.34987 0.74345,0.69974 1.09332,1.04959 0.34987,0.34987 0.69972,0.69974 1.04959,1.09332 1.35572,1.44319 2.62397,2.88637 3.76102,4.37329 2.2741,2.93008 4.11088,5.90392 5.55407,8.70281 0.0874,0.17494 0.17492,0.34987 0.2624,0.52479 0.0874,0.17495 0.17492,0.34987 0.26239,0.5248 0.17493,0.34987 0.34985,0.69973 0.48106,1.04958 0.17493,0.34987 0.30613,0.656 0.48106,1.00587 0.13124,0.34985 0.30613,0.65599 0.43732,1.00585 0.52479,1.31199 1.04959,2.58023 1.44319,3.76101 0.65598,1.92425 1.13704,3.62984 1.53064,5.11674 0.13124,0.61227 0.69972,1.00586 1.31199,0.91838 0.65598,-0.0438 1.13706,-0.56851 1.13706,-1.22451 0.0438,-1.57438 0,-3.45489 -0.21868,-5.5978 z"
       id="path10" />
  </g>
</svg>
