<svg width="2400" height="1200" viewBox="0 0 635 317.5" xml:space="preserve" xmlns="http://www.w3.org/2000/svg"><g style="display:inline"><path style="fill:#fff;stroke-width:.264583;fill-opacity:1" d="M0-20.5h635V297H0z" transform="translate(0 20.5)"/></g><g style="display:inline"><path d="m260.524 181.15-14.473-14.474q16.082-16.082 33.657-24.123 17.575-8.04 37.792-8.04 20.217 0 37.792 8.04 17.575 8.041 33.657 24.123l-14.474 14.474q-14.014-14.014-28.258-19.988-14.244-5.973-28.717-5.973-14.474 0-28.718 5.973-14.243 5.974-28.258 19.988zm-38.826-38.826-14.473-14.474q21.366-21.825 49.739-35.15 28.372-13.325 60.536-13.325 32.163 0 60.536 13.325 28.373 13.325 49.74 35.15L413.3 142.324q-20.217-19.298-44.225-30.786-24.007-11.487-51.576-11.487t-51.577 11.487q-24.007 11.488-44.225 30.786zm95.802 95.801 34.001-34.231q-6.662-6.663-15.277-10.453-8.616-3.791-18.724-3.791-10.109 0-18.724 3.79-8.615 3.791-15.278 10.454z" style="stroke-width:.264584"/></g></svg>