<?xml version="1.0" encoding="UTF-8" standalone="no"?>
<!-- Created with Inkscape (http://www.inkscape.org/) -->

<svg
   xmlns:dc="http://purl.org/dc/elements/1.1/"
   xmlns:cc="http://creativecommons.org/ns#"
   xmlns:rdf="http://www.w3.org/1999/02/22-rdf-syntax-ns#"
   xmlns:svg="http://www.w3.org/2000/svg"
   xmlns="http://www.w3.org/2000/svg"
   xmlns:sodipodi="http://sodipodi.sourceforge.net/DTD/sodipodi-0.dtd"
   xmlns:inkscape="http://www.inkscape.org/namespaces/inkscape"
   width="2400"
   height="1200"
   viewBox="0 0 634.99999 317.50001"
   version="1.1"
   id="svg8"
   inkscape:version="0.92.5 (2060ec1f9f, 2020-04-08)"
   sodipodi:docname="featured_backblaze_logo.svg"
   inkscape:export-filename="/home/logan/Downloads/featured_images/completed_files_png/featured_backblaze_logo.png"
   inkscape:export-xdpi="96"
   inkscape:export-ydpi="96">
  <defs
     id="defs2">
    <style
       id="style881">.cls-1{fill:#65656a;}.cls-2{fill:#d0202e;}</style>
  </defs>
  <sodipodi:namedview
     id="base"
     pagecolor="#ffffff"
     bordercolor="#666666"
     borderopacity="1.0"
     inkscape:pageopacity="0.0"
     inkscape:pageshadow="2"
     inkscape:zoom="0.35"
     inkscape:cx="1118.4357"
     inkscape:cy="589.47716"
     inkscape:document-units="px"
     inkscape:current-layer="layer2"
     showgrid="false"
     units="px"
     inkscape:snap-page="true"
     inkscape:window-width="1920"
     inkscape:window-height="1015"
     inkscape:window-x="0"
     inkscape:window-y="0"
     inkscape:window-maximized="1"
     inkscape:snap-object-midpoints="true" />
  <metadata
     id="metadata5">
    <rdf:RDF>
      <cc:Work
         rdf:about="">
        <dc:format>image/svg+xml</dc:format>
        <dc:type
           rdf:resource="http://purl.org/dc/dcmitype/StillImage" />
        <dc:title />
      </cc:Work>
    </rdf:RDF>
  </metadata>
  <g
     inkscape:label="Background"
     inkscape:groupmode="layer"
     id="layer1"
     transform="translate(0,20.50002)">
    <rect
       style="fill:#000000;stroke-width:0.26458335"
       id="rect10"
       width="635"
       height="317.5"
       x="0"
       y="-20.500019" />
  </g>
  <g
     inkscape:groupmode="layer"
     id="layer2"
     inkscape:label="Layer1">
    <g
       id="g944"
       transform="matrix(1.2733852,0,0,1.2733852,508.77014,258.84345)">
      <path
         id="path903"
         d="m -164.73522,-140.93807 c 0,0 18.5517,16.18823 16.02634,30.62812 -1.11699,6.47529 -9.63199,16.965254 -5.03454,27.001951 4.85647,10.813732 7.51134,31.680349 -14.76365,26.289671 -21.98361,-5.325925 -20.28385,-32.246936 -3.94993,-46.460192 16.33391,-14.21326 10.95943,-30.25579 7.72178,-37.45955 z"
         class="cls-2"
         inkscape:connector-curvature="0"
         style="fill:#d0202e;stroke-width:1.6188221" />
      <path
         id="path905"
         d="m -147.8509,-92.276273 c -1.2465,10.959425 10.86229,21.854098 1.24649,36.698697 -6.65336,10.247144 3.56141,24.687037 16.69005,22.048357 14.40752,-2.865315 17.98512,-11.963096 17.58041,-22.534004 -0.50183,-13.436223 -5.82776,-17.159514 -17.70991,-27.244776 -12.85345,-10.910861 -2.93007,-31.502281 -2.93007,-31.502281 0,0 -13.45241,10.48997 -14.87697,22.534007 z"
         class="cls-2"
         inkscape:connector-curvature="0"
         style="fill:#d0202e;stroke-width:1.6188221" />
      <path
         id="path907"
         d="m -186.91308,-60.175031 c 4.06324,5.00216 11.91453,10.878484 26.96957,11.218437 4.56508,0.09713 1.00367,8.579757 10.11764,16.188221 a 25.901154,25.901154 0 0 0 24.16902,4.646019 c 3.23764,-1.230304 6.47528,-2.428233 4.01468,0.647529 -10.70042,13.711424 -29.2845,12.853448 -42.52646,7.883664 -15.75114,-5.892512 -19.73344,-17.467091 -22.30737,-24.687037 -2.78437,-7.802723 -1.35981,-17.078573 -0.43708,-15.896833 z"
         class="cls-2"
         inkscape:connector-curvature="0"
         style="fill:#d0202e;stroke-width:1.6188221" />
    </g>
  </g>
</svg>
