<?xml version="1.0" encoding="UTF-8" standalone="no"?>
<!-- Created with Inkscape (http://www.inkscape.org/) -->

<svg
   xmlns:dc="http://purl.org/dc/elements/1.1/"
   xmlns:cc="http://creativecommons.org/ns#"
   xmlns:rdf="http://www.w3.org/1999/02/22-rdf-syntax-ns#"
   xmlns:svg="http://www.w3.org/2000/svg"
   xmlns="http://www.w3.org/2000/svg"
   xmlns:sodipodi="http://sodipodi.sourceforge.net/DTD/sodipodi-0.dtd"
   xmlns:inkscape="http://www.inkscape.org/namespaces/inkscape"
   width="2400"
   height="1200"
   viewBox="0 0 634.99999 317.50001"
   version="1.1"
   id="svg8"
   inkscape:version="0.92.5 (2060ec1f9f, 2020-04-08)"
   sodipodi:docname="featured_pfsense.svg"
   inkscape:export-filename="/home/logan/Downloads/featured_images/completed_files_png/featured_pfsense.png"
   inkscape:export-xdpi="96"
   inkscape:export-ydpi="96">
  <defs
     id="defs2" />
  <sodipodi:namedview
     id="base"
     pagecolor="#ffffff"
     bordercolor="#666666"
     borderopacity="1.0"
     inkscape:pageopacity="0.0"
     inkscape:pageshadow="2"
     inkscape:zoom="0.35"
     inkscape:cx="427.00625"
     inkscape:cy="778.04859"
     inkscape:document-units="px"
     inkscape:current-layer="layer1"
     showgrid="false"
     units="px"
     inkscape:snap-page="true"
     inkscape:window-width="1920"
     inkscape:window-height="1015"
     inkscape:window-x="0"
     inkscape:window-y="0"
     inkscape:window-maximized="1"
     inkscape:snap-object-midpoints="true" />
  <metadata
     id="metadata5">
    <rdf:RDF>
      <cc:Work
         rdf:about="">
        <dc:format>image/svg+xml</dc:format>
        <dc:type
           rdf:resource="http://purl.org/dc/dcmitype/StillImage" />
        <dc:title />
      </cc:Work>
    </rdf:RDF>
  </metadata>
  <g
     inkscape:label="Background"
     inkscape:groupmode="layer"
     id="layer1"
     transform="translate(0,20.50002)">
    <rect
       style="fill:#ffffff;stroke-width:0.26458335"
       id="rect10"
       width="635"
       height="317.5"
       x="0"
       y="-20.500019" />
  </g>
  <g
     inkscape:groupmode="layer"
     id="layer2"
     inkscape:label="Layer1">
    <g
       id="g114"
       transform="matrix(2.0483871,0,0,2.0483871,22.941935,73.22984)">
      <path
         id="path80"
         d="m 27.8,57.7 c 2.9,0 5.4,-0.9 7.5,-2.6 2.1,-1.7 3.6,-4 4.4,-6.8 0.8,-2.8 0.6,-5.1 -0.5,-6.8 -1.1,-1.7 -3.2,-2.6 -6.1,-2.6 -2.9,0 -5.4,0.9 -7.5,2.6 -2.1,1.7 -3.5,4 -4.3,6.8 -0.8,2.8 -0.7,5.1 0.5,6.8 1,1.8 3,2.6 6,2.6"
         inkscape:connector-curvature="0"
         style="fill:#2b40b5" />
      <path
         id="path82"
         d="m 115.1,46.6 c -1.5,-0.8 -3,-1.4 -4.7,-1.8 -1.7,-0.4 -3.2,-0.7 -4.7,-1.1 -1.5,-0.3 -2.7,-0.7 -3.6,-1.1 -0.9,-0.4 -1.4,-1.1 -1.4,-2 0,-1.1 0.5,-1.9 1.4,-2.4 0.9,-0.5 1.9,-0.7 2.8,-0.7 2.8,0 5,1 6.7,3.1 l 7,-7 c -1.7,-1.8 -3.9,-3.1 -6.4,-3.8 -2.5,-0.7 -5,-1.1 -7.4,-1.1 -1.9,0 -3.9,0.2 -5.7,0.7 -1.9,0.5 -3.6,1.2 -5,2.3 -1.5,1 -2.6,2.3 -3.5,3.9 -0.9,1.6 -1.3,3.5 -1.3,5.7 0,2.3 0.5,4.2 1.4,5.6 0.9,1.4 2.1,2.5 3.6,3.3 1.5,0.8 3,1.3 4.7,1.7 1.7,0.4 3.2,0.7 4.7,1.1 1.5,0.3 2.7,0.7 3.6,1.2 0.9,0.5 1.4,1.2 1.4,2.2 0,1 -0.5,1.7 -1.6,2.1 -1.1,0.4 -2.3,0.6 -3.6,0.6 -1.7,0 -3.3,-0.3 -4.6,-1 -1.3,-0.7 -2.5,-1.7 -3.6,-3 l -7,7.7 c 1.8,1.9 4.1,3.2 6.7,3.9 2.7,0.7 5.3,1.1 7.9,1.1 2,0 4,-0.2 6.1,-0.6 2,-0.4 3.9,-1 5.5,-2 1.6,-0.9 3,-2.2 4,-3.8 1,-1.6 1.6,-3.5 1.6,-5.9 0,-2.3 -0.5,-4.2 -1.4,-5.6 -1,-1.3 -2.2,-2.5 -3.6,-3.3"
         inkscape:connector-curvature="0"
         style="fill:#2b40b5" />
      <path
         id="path84"
         d="m 156.3,34.1 c -1.5,-1.7 -3.3,-3 -5.5,-3.9 -2.2,-0.9 -4.6,-1.4 -7.2,-1.4 -2.9,0 -5.6,0.5 -8.1,1.4 -2.5,0.9 -4.7,2.2 -6.6,3.9 -1.9,1.7 -3.3,3.8 -4.4,6.2 -1.1,2.4 -1.6,5.1 -1.6,8 0,3 0.5,5.6 1.6,8 1.1,2.4 2.5,4.5 4.4,6.2 1.9,1.7 4.1,3 6.6,3.9 2.5,0.9 5.2,1.4 8.1,1.4 3,0 5.9,-0.6 8.7,-1.9 2.8,-1.3 5.1,-3.1 7,-5.4 l -8,-5.9 c -1,1.3 -2.1,2.4 -3.4,3.3 -1.3,0.8 -2.9,1.3 -4.8,1.3 -2.2,0 -4.1,-0.7 -5.7,-2 -1.5,-1.3 -2.5,-3.1 -3,-5.2 H 161 v -3.6 c 0,-3 -0.4,-5.6 -1.2,-8 -0.8,-2.5 -2,-4.6 -3.5,-6.3 m -22,10 c 0.1,-0.9 0.3,-1.8 0.7,-2.6 0.4,-0.8 0.9,-1.6 1.6,-2.2 0.7,-0.6 1.5,-1.2 2.5,-1.6 1,-0.4 2.1,-0.6 3.4,-0.6 2.1,0 3.8,0.7 5.1,2.1 1.3,1.4 2,3 1.9,5 h -15.2 z"
         inkscape:connector-curvature="0"
         style="fill:#2b40b5" />
      <path
         id="path86"
         d="m 198.3,33.8 c -1,-1.6 -2.4,-2.8 -4.2,-3.7 -1.8,-0.9 -4.1,-1.3 -7,-1.3 -1.4,0 -2.7,0.2 -3.8,0.5 -1.2,0.4 -2.2,0.8 -3.1,1.4 -0.9,0.6 -1.7,1.2 -2.4,1.9 -0.7,0.7 -1.2,1.4 -1.5,2.1 H 176 v -5.1 h -11 v 37.2 h 11.5 V 48.4 c 0,-1.2 0.1,-2.4 0.2,-3.5 0.2,-1.1 0.5,-2.1 1,-3 0.5,-0.9 1.2,-1.6 2.1,-2.1 0.9,-0.5 2.1,-0.8 3.6,-0.8 1.5,0 2.6,0.3 3.4,0.9 0.8,0.6 1.4,1.4 1.8,2.4 0.4,1 0.6,2 0.7,3.2 0.1,1.1 0.1,2.3 0.1,3.3 V 67 h 11.5 V 46.4 c 0,-2.5 -0.2,-4.8 -0.5,-7 -0.5,-2.1 -1.1,-4 -2.1,-5.6"
         inkscape:connector-curvature="0"
         style="fill:#2b40b5" />
      <path
         id="path88"
         d="m 231.5,46.6 c -1.5,-0.8 -3,-1.4 -4.7,-1.8 -1.7,-0.4 -3.2,-0.7 -4.7,-1.1 -1.5,-0.3 -2.7,-0.7 -3.6,-1.1 -0.9,-0.4 -1.4,-1.1 -1.4,-2 0,-1.1 0.5,-1.9 1.4,-2.4 0.9,-0.5 1.9,-0.7 2.8,-0.7 2.8,0 5,1 6.7,3.1 l 7,-7 c -1.7,-1.8 -3.9,-3.1 -6.4,-3.8 -2.5,-0.7 -5,-1.1 -7.4,-1.1 -1.9,0 -3.9,0.2 -5.7,0.7 -1.9,0.5 -3.6,1.2 -5,2.3 -1.5,1 -2.6,2.3 -3.5,3.9 -0.9,1.6 -1.3,3.5 -1.3,5.7 0,2.3 0.5,4.2 1.4,5.6 0.9,1.4 2.1,2.5 3.6,3.3 1.5,0.8 3,1.3 4.7,1.7 1.7,0.4 3.2,0.7 4.7,1.1 1.5,0.3 2.7,0.7 3.6,1.2 0.9,0.5 1.4,1.2 1.4,2.2 0,1 -0.5,1.7 -1.6,2.1 -1.1,0.4 -2.3,0.6 -3.6,0.6 -1.7,0 -3.3,-0.3 -4.6,-1 -1.3,-0.7 -2.5,-1.7 -3.6,-3 l -7,7.7 c 1.8,1.9 4.1,3.2 6.7,3.9 2.7,0.7 5.3,1.1 7.9,1.1 2,0 4,-0.2 6.1,-0.6 2,-0.4 3.9,-1 5.5,-2 1.6,-0.9 3,-2.2 4,-3.8 1,-1.6 1.6,-3.5 1.6,-5.9 0,-2.3 -0.5,-4.2 -1.4,-5.6 -1,-1.3 -2.2,-2.5 -3.6,-3.3"
         inkscape:connector-curvature="0"
         style="fill:#2b40b5" />
      <path
         id="path90"
         d="m 277.4,51.9 v -4.2 c -0.1,-2.7 -0.5,-5.2 -1.2,-7.4 -0.8,-2.4 -2,-4.5 -3.5,-6.2 -1.5,-1.7 -3.3,-3 -5.5,-3.9 -2.2,-0.9 -4.6,-1.4 -7.2,-1.4 -2.9,0 -5.6,0.5 -8.1,1.4 -2.5,0.9 -4.7,2.2 -6.6,3.9 -1.9,1.7 -3.3,3.8 -4.4,6.2 -1.1,2.4 -1.6,5.1 -1.6,8 0,3 0.5,5.6 1.6,8 1.1,2.4 2.5,4.5 4.4,6.2 1.9,1.7 4.1,3 6.6,3.9 2.5,0.9 5.2,1.4 8.1,1.4 3,0 5.9,-0.6 8.7,-1.9 2.8,-1.3 5.1,-3.1 7,-5.4 l -8,-5.9 c -1,1.3 -2.1,2.4 -3.4,3.3 -1.3,0.8 -2.9,1.3 -4.8,1.3 -2.2,0 -4.1,-0.7 -5.7,-2 -1.5,-1.3 -2.5,-3.1 -3,-5.2 h 26.6 z m -26.7,-7.8 c 0.1,-0.9 0.3,-1.8 0.7,-2.6 0.4,-0.8 0.9,-1.6 1.6,-2.2 0.7,-0.6 1.5,-1.2 2.5,-1.6 1,-0.4 2.1,-0.6 3.4,-0.6 2.1,0 3.8,0.7 5.1,2.1 1.3,1.4 2,3 1.9,5 h -15.2 z"
         inkscape:connector-curvature="0"
         style="fill:#2b40b5" />
      <path
         id="path92"
         d="m 52.6,38.9 2.6,-9.2 h 4.6 l 1.8,-6.6 c 0.6,-2 1.3,-4 2.2,-5.8 0.8,-1.8 2,-3.4 3.4,-4.8 C 68.6,11.1 70.4,10 72.5,9.2 74.6,8.4 77.3,8 80.4,8 81.2,8 81.9,8 82.7,8.1 82,5.2 79.4,3.1 76.4,3 H 11.9 C 8.3,3 5.4,6 5.4,9.6 V 67 L 15.9,29.7 h 10.6 l -1.4,4.9 h 0.2 c 0.6,-0.7 1.4,-1.3 2.4,-2 1,-0.7 2,-1.3 3.1,-1.9 1.1,-0.6 2.3,-1 3.6,-1.4 1.3,-0.4 2.6,-0.5 3.9,-0.5 2.8,0 5.1,0.5 7.1,1.4 2,0.9 3.5,2.3 4.7,4 1,1.5 1.6,3.3 1.9,5.4 L 52.8,39 h -0.2 z"
         inkscape:connector-curvature="0"
         style="fill:#1475cf" />
      <path
         id="path94"
         d="m 82.1,17.9 c -0.5,-0.1 -1.1,-0.2 -1.8,-0.2 -1.8,0 -3.3,0.4 -4.5,1.2 -1.1,0.8 -2.1,2.4 -2.8,4.9 l -1.7,5.9 h 6.5 l 1.6,5.1 -4.2,4.1 h -6.5 l -7.9,28 H 49.4 l 7.9,-28 H 52.9 L 52,39.5 c 0,0.2 0.1,0.5 0.1,0.7 0.2,2.3 -0.1,4.9 -0.9,7.7 -0.7,2.6 -1.8,5.1 -3.3,7.5 -1.5,2.4 -3.2,4.5 -5.1,6.3 -2,1.8 -4.2,3.3 -6.6,4.4 -2.4,1.1 -4.9,1.6 -7.6,1.6 -2.4,0 -4.5,-0.4 -6.4,-1.1 -1.9,-0.7 -3.2,-2 -4,-3.8 H 18 l -5,17.7 h 63.3 c 3.6,0 6.6,-2.9 6.6,-6.6 V 18.2 C 82.6,18.1 82.3,18 82.1,17.9"
         inkscape:connector-curvature="0"
         style="fill:#1c1275" />
      <path
         id="path96"
         d="m 277.6,68.5 h 0.8 c 0.4,0 0.6,-0.1 0.7,-0.2 0.1,-0.1 0.2,-0.2 0.2,-0.4 0,-0.1 0,-0.2 -0.1,-0.3 -0.1,-0.1 -0.1,-0.2 -0.3,-0.2 -0.1,0 -0.3,-0.1 -0.6,-0.1 h -0.7 z m -0.6,2.1 v -3.8 h 1.3 c 0.5,0 0.8,0 1,0.1 0.2,0.1 0.4,0.2 0.5,0.4 0.1,0.2 0.2,0.4 0.2,0.6 0,0.3 -0.1,0.5 -0.3,0.7 -0.2,0.2 -0.5,0.3 -0.8,0.3 0.1,0.1 0.2,0.1 0.3,0.2 0.2,0.2 0.3,0.4 0.6,0.8 l 0.5,0.7 h -0.8 L 279.2,70 c -0.3,-0.5 -0.5,-0.8 -0.6,-0.9 C 278.5,69 278.3,69 278.1,69 h -0.4 v 1.6 z m 1.6,-4.9 c -0.5,0 -1,0.1 -1.5,0.4 -0.5,0.3 -0.8,0.6 -1.1,1.1 -0.3,0.5 -0.4,1 -0.4,1.5 0,0.5 0.1,1 0.4,1.5 0.3,0.5 0.6,0.8 1.1,1.1 0.5,0.3 1,0.4 1.5,0.4 0.5,0 1,-0.1 1.5,-0.4 0.5,-0.3 0.8,-0.6 1.1,-1.1 0.3,-0.5 0.4,-1 0.4,-1.5 0,-0.5 -0.1,-1 -0.4,-1.5 -0.3,-0.5 -0.6,-0.8 -1.1,-1.1 -0.5,-0.3 -1,-0.4 -1.5,-0.4 z m 0,-0.6 c 0.6,0 1.2,0.2 1.8,0.5 0.6,0.3 1,0.7 1.3,1.3 0.3,0.6 0.5,1.2 0.5,1.8 0,0.6 -0.2,1.2 -0.5,1.8 -0.3,0.6 -0.8,1 -1.3,1.3 -0.6,0.3 -1.2,0.5 -1.8,0.5 -0.6,0 -1.2,-0.2 -1.8,-0.5 -0.6,-0.3 -1,-0.8 -1.3,-1.3 -0.3,-0.6 -0.5,-1.2 -0.5,-1.8 0,-0.6 0.2,-1.2 0.5,-1.8 0.3,-0.6 0.8,-1 1.3,-1.3 0.6,-0.4 1.2,-0.5 1.8,-0.5 z"
         inkscape:connector-curvature="0"
         style="fill:#2b40b5" />
    </g>
  </g>
</svg>
