<svg xmlns="http://www.w3.org/2000/svg" width="2400" height="1200" viewBox="0 0 635 317.5"><path style="fill:#000;stroke-width:.26458335" d="M0-20.5h635V297H0z" transform="translate(0 20.5)"/><g><path style="fill:#fffffd;fill-opacity:1;stroke-width:6.61458397" d="M140.985 147.7h132.292V121.24H140.985Zm13.23-19.844h13.229v13.229h-13.23Zm-13.23-85.99v26.458h132.292V41.866zm26.459 19.844h-13.23V48.48h13.23zm-26.459 46.302h132.292V81.553H140.985Zm13.23-19.844h13.229v13.23h-13.23Z" transform="matrix(1.5 0 0 1.5 6.804 16.576)"/><path style="fill:#0f0;fill-opacity:1;stroke:none;stroke-width:.38179374;stroke-miterlimit:4;stroke-dasharray:none;stroke-opacity:1" d="M154.214 48.481h13.229V61.71h-13.229zM154.214 88.168h13.229v13.229h-13.229zM154.214 127.856h13.229v13.229h-13.229z" transform="matrix(1.5 0 0 1.5 6.804 16.576)"/></g></svg>