<?xml version="1.0" encoding="UTF-8" standalone="no"?>
<!-- Created with Inkscape (http://www.inkscape.org/) -->

<svg
   width="2400"
   height="1200"
   viewBox="0 0 634.99999 317.50001"
   version="1.1"
   id="svg8"
   inkscape:version="1.1 (c4e8f9ed74, 2021-05-24)"
   sodipodi:docname="featured_raspberry_logo.svg"
   xmlns:inkscape="http://www.inkscape.org/namespaces/inkscape"
   xmlns:sodipodi="http://sodipodi.sourceforge.net/DTD/sodipodi-0.dtd"
   xmlns="http://www.w3.org/2000/svg"
   xmlns:svg="http://www.w3.org/2000/svg"
   xmlns:rdf="http://www.w3.org/1999/02/22-rdf-syntax-ns#"
   xmlns:cc="http://creativecommons.org/ns#"
   xmlns:dc="http://purl.org/dc/elements/1.1/">
  <defs
     id="defs2">
    <style
       id="style1508">.cls-1{fill:#6abf4b;}.cls-2{fill:#c31c4a;}.cls-3{fill:#1d1d1b;}.cls-4{fill:#1d1e1c;}</style>
  </defs>
  <sodipodi:namedview
     id="base"
     pagecolor="#ffffff"
     bordercolor="#666666"
     borderopacity="1.0"
     inkscape:pageopacity="0.0"
     inkscape:pageshadow="2"
     inkscape:zoom="0.35"
     inkscape:cx="1210"
     inkscape:cy="588.57143"
     inkscape:document-units="px"
     inkscape:current-layer="layer2"
     showgrid="false"
     units="px"
     inkscape:snap-page="true"
     inkscape:window-width="2560"
     inkscape:window-height="1375"
     inkscape:window-x="0"
     inkscape:window-y="0"
     inkscape:window-maximized="1"
     inkscape:snap-object-midpoints="true"
     inkscape:pagecheckerboard="0" />
  <metadata
     id="metadata5">
    <rdf:RDF>
      <cc:Work
         rdf:about="">
        <dc:format>image/svg+xml</dc:format>
        <dc:type
           rdf:resource="http://purl.org/dc/dcmitype/StillImage" />
        <dc:title />
      </cc:Work>
    </rdf:RDF>
  </metadata>
  <g
     inkscape:label="Background"
     inkscape:groupmode="layer"
     id="layer1"
     transform="translate(0,20.50002)">
    <rect
       style="fill:#ffffff;fill-opacity:1;stroke-width:0.264583"
       id="rect10"
       width="635"
       height="317.5"
       x="2.4999999e-06"
       y="-20.500019" />
  </g>
  <g
     inkscape:groupmode="layer"
     id="layer2"
     inkscape:label="Layer1">
    <g
       id="g1720"
       transform="matrix(0.96880996,0,0,0.96880996,228.9993,-21.327536)"
       style="stroke-width:1.03219">
      <path
         d="m 61.477355,103.94628 c -0.841375,0.0265 -1.74625,0.33073 -2.77548,1.12977 -2.516187,-0.95514 -4.958291,-1.28852 -7.14375,0.65881 -3.370792,-0.43127 -4.466167,0.45773 -5.291667,1.4949 -0.738187,-0.0132 -5.535083,-0.74613 -7.736417,2.48708 -5.527145,-0.64558 -7.273396,3.20146 -5.291666,6.78921 -1.132417,1.72773 -2.301875,3.42106 0.338666,6.7019 -0.933979,1.82827 -0.354541,3.81 1.852084,6.20977 -0.579438,2.57175 0.560916,4.38414 2.608791,5.79702 -0.383645,3.51631 3.272896,5.55625 4.365626,6.28915 0.410104,2.04787 1.285875,3.98197 5.461,5.04031 0.687916,3.05329 3.198812,3.57981 5.630333,4.23333 -8.035396,4.59846 -14.9225,10.65213 -14.877521,25.50054 l -1.177396,2.0664 c -9.210146,5.50598 -17.496896,23.24894 -4.537604,37.66344 0.846667,4.49791 2.264833,7.75229 3.529542,11.34004 1.89177,14.44625 14.229292,21.22223 17.483667,22.02127 4.7625,3.57717 9.847792,6.97177 16.721667,9.35038 6.479646,6.58283 13.49375,9.09108 20.555479,9.08579 0.103188,0 0.209021,0 0.312209,0 7.056437,0 14.075832,-2.50296 20.555482,-9.08579 6.87916,-2.38125 11.95123,-5.77321 16.72166,-9.35038 3.25438,-0.79375 15.5919,-7.56708 17.48367,-22.02127 1.26206,-3.58775 2.68288,-6.8289 3.52954,-11.34004 12.96459,-14.4145 4.67255,-32.14952 -4.54025,-37.66873 l -1.17739,-2.0664 c 0.045,-14.84842 -6.84213,-20.90208 -14.87752,-25.50054 2.43152,-0.64029 4.94241,-1.16681 5.63033,-4.2201 4.17777,-1.05834 5.0509,-3.00303 5.46894,-5.0509 1.09273,-0.7276 4.74927,-2.77283 4.36562,-6.28915 2.04788,-1.41287 3.18823,-3.22527 2.60879,-5.79437 2.19869,-2.39977 2.77813,-4.38415 1.85209,-6.20977 2.64583,-3.28084 1.46844,-4.98211 0.34131,-6.70454 1.97908,-3.58511 0.23283,-7.43215 -5.29167,-6.78921 -2.19868,-3.23057 -6.99293,-2.49767 -7.73641,-2.48179 -0.82815,-1.03717 -1.92352,-1.92617 -5.29167,-1.4949 -2.18281,-1.94733 -4.62227,-1.61396 -7.14375,-0.65881 -2.98979,-2.32305 -4.96888,-0.46038 -7.22842,0.24341 -3.61685,-1.16416 -4.445,0.43127 -6.223,1.0795 -3.94758,-0.8202 -5.14614,0.96838 -7.03791,2.85486 l -2.20134,-0.0423 c -5.963706,3.4634 -8.921748,10.49073 -9.969498,14.10759 -1.04775,-3.61686 -4.011083,-10.64419 -9.950979,-14.10759 l -2.201334,0.0423 c -1.894417,-1.88648 -3.092979,-3.67506 -7.040563,-2.85486 -1.778,-0.64823 -2.6035,-2.24366 -6.223,-1.0795 -1.484312,-0.46302 -2.846916,-1.42346 -4.452937,-1.37583 z"
         id="path1512"
         style="stroke-width:0.273101" />
      <path
         class="cls-1"
         d="m 49.743083,119.15188 c 15.79298,8.01953 24.976668,14.50711 30.006397,20.03161 -2.577042,10.17058 -16.01523,10.6336 -20.928542,10.34785 1.005417,-0.46037 1.852083,-1.01335 2.143125,-1.85208 -1.232958,-0.86254 -5.603875,-0.09 -8.657167,-1.778 1.172104,-0.24077 1.722438,-0.4736 2.270125,-1.32292 -2.883958,-0.90487 -5.990167,-1.68539 -7.815792,-3.18823 0.98425,0.0132 1.905,0.21961 3.193521,-0.66145 -2.582333,-1.37055 -5.339292,-2.45798 -7.479771,-4.55348 1.322917,-0.0318 2.775479,-0.0132 3.193521,-0.49477 a 28.784022,28.784022 0 0 1 -6.011333,-4.80219 c 1.870604,0.22225 2.645833,0.0317 3.1115,-0.29104 -1.785938,-1.80182 -4.048126,-3.32317 -5.127626,-5.55625 1.389063,0.47095 2.645834,0.65087 3.571876,-0.0397 -0.605896,-1.35202 -3.206751,-2.14577 -4.706938,-5.29167 1.463146,0.14023 3.010958,0.31486 3.320521,0 -0.677334,-2.71991 -1.852084,-4.24921 -2.981854,-5.82083 3.124729,-0.0476 7.863416,0 7.649104,-0.24871 l -1.934104,-1.94733 c 3.053291,-0.80963 6.178021,0.13229 8.4455,0.82814 1.018646,-0.79375 -0.01588,-1.79123 -1.259417,-2.81516 a 31.189084,31.189084 0 0 1 7.059084,1.74095 c 1.132416,-1.00806 -0.735542,-2.01612 -1.637771,-3.02154 4.008437,0.74877 5.707063,1.80182 7.395104,2.85486 1.225021,-1.15623 0.07144,-2.13784 -0.756708,-3.1459 3.037417,1.0795 4.579938,2.50296 6.212417,3.9079 0.555625,-0.73819 1.412875,-1.28059 0.378354,-3.06123 a 15.6845,15.6845 0 0 1 4.966229,4.26244 c 1.322917,-0.83344 0.79375,-1.97115 0.79375,-3.02155 2.230438,1.78594 3.645959,3.6883 5.37898,5.55625 0.34925,-0.2487 0.65352,-1.09802 0.923395,-2.4421 5.320771,5.08529 12.84023,17.89377 1.934105,22.97377 -9.278938,-7.55385 -20.36498,-13.03867 -32.65223,-17.14765 z"
         id="path1514"
         style="stroke-width:0.273101" />
      <path
         class="cls-1"
         d="m 133.39375,119.15188 c -15.79298,8.01953 -24.97402,14.50446 -30.00375,20.03161 2.57704,10.17058 16.01523,10.6336 20.92854,10.34785 -1.00806,-0.46037 -1.85208,-1.01335 -2.14312,-1.85208 1.23296,-0.86254 5.60387,-0.09 8.65717,-1.778 -1.17211,-0.24077 -1.72244,-0.4736 -2.27013,-1.32292 2.88396,-0.90487 5.99017,-1.68539 7.81579,-3.18823 -0.98425,0.0132 -1.905,0.21961 -3.19352,-0.66145 2.58233,-1.37055 5.33929,-2.45798 7.47977,-4.55348 -1.33614,-0.0318 -2.77548,-0.0132 -3.19352,-0.49477 a 28.765501,28.765501 0 0 0 6.00869,-4.80219 c -1.86796,0.22225 -2.64583,0.0317 -3.10886,-0.29104 1.78594,-1.80182 4.04813,-3.32317 5.12763,-5.55625 -1.38906,0.47095 -2.64583,0.65087 -3.57188,-0.0397 0.6059,-1.35202 3.20675,-2.14577 4.7043,-5.29167 -1.4605,0.14023 -3.00832,0.31486 -3.31788,0 0.67733,-2.72256 1.85208,-4.25185 2.98186,-5.83671 -3.12473,-0.045 -7.86078,0.0132 -7.64646,-0.2487 l 1.93146,-1.94469 c -3.0533,-0.80963 -6.17803,0.12964 -8.4455,0.82814 -1.01865,-0.79375 0.0185,-1.79387 1.25941,-2.81516 a 31.085897,31.085897 0 0 0 -7.05908,1.73831 c -1.13242,-1.00542 0.73554,-2.01348 1.64042,-3.02154 -4.01109,0.74877 -5.70971,1.80181 -7.40834,2.8575 -1.22502,-1.15623 -0.0688,-2.14048 0.75671,-3.1459 -3.01096,1.09009 -4.56935,2.51619 -6.20977,3.92113 -0.55563,-0.73819 -1.41023,-1.28059 -0.37835,-3.06388 a 15.724188,15.724188 0 0 0 -4.9583,4.26509 c -1.32291,-0.83344 -0.79375,-1.9738 -0.79375,-3.02155 -2.23308,1.78594 -3.6486,3.6883 -5.37898,5.55625 -0.34925,-0.26458 -0.65616,-1.10066 -0.92604,-2.4421 -5.320769,5.08529 -12.840227,17.89377 -1.93146,22.97112 9.2763,-7.54327 20.37292,-13.02279 32.65223,-17.13441 z"
         id="path1516"
         style="stroke-width:0.273101" />
      <path
         class="cls-2"
         d="m 110.66869,222.70187 c 0.0556,9.4906 -8.37142,17.22437 -18.817168,17.27464 -10.44575,0.0503 -18.962688,-7.60412 -19.01825,-17.09208 v -0.18256 c -0.05556,-9.48796 8.371416,-17.22173 18.817167,-17.272 10.445751,-0.0503 18.962691,7.60148 19.018251,17.09208 z"
         id="path1518"
         style="stroke-width:0.273101" />
      <path
         class="cls-2"
         d="m 81.172938,173.61901 c 7.836959,5.05883 9.260417,16.52323 3.15648,25.60902 -6.103938,9.08579 -17.391063,12.35075 -25.230668,7.29192 v 0 c -7.839604,-5.05619 -9.260417,-16.52323 -3.156479,-25.60902 6.103938,-9.08579 17.391063,-12.35075 25.230667,-7.29192 z"
         id="path1520"
         style="stroke-width:0.273101" />
      <path
         class="cls-2"
         d="m 102.32902,172.70355 c -7.836956,5.05884 -9.260415,16.52323 -3.156477,25.60902 6.103937,9.0858 17.391067,12.35075 25.230667,7.29192 v 0 c 7.8396,-5.05883 9.26042,-16.52323 3.15648,-25.60902 -6.10394,-9.08579 -17.39106,-12.35075 -25.23067,-7.29192 z"
         id="path1522"
         style="stroke-width:0.273101" />
      <path
         class="cls-2"
         d="m 42.480271,181.9428 c 8.466667,-2.23573 2.8575,34.4858 -4.029605,31.48542 -7.575021,-6.01398 -10.014479,-23.5876 4.029605,-31.48542 z"
         id="path1524"
         style="stroke-width:0.273101" />
      <path
         class="cls-2"
         d="m 140.28086,181.48507 c -8.46667,-2.23573 -2.8575,34.4858 4.0296,31.48542 7.57502,-6.00339 10.01448,-23.57702 -4.0296,-31.48542 z"
         id="path1526"
         style="stroke-width:0.273101" />
      <path
         class="cls-2"
         d="m 111.89636,154.08482 c 14.605,-2.42887 26.75731,6.11982 26.26783,21.71965 -0.4789,5.97958 -31.64681,-20.828 -26.26783,-21.71965 z"
         id="path1528"
         style="stroke-width:0.273101" />
      <path
         class="cls-2"
         d="m 71.544751,153.62709 c -14.607647,-2.42887 -26.757314,6.11982 -26.267834,21.71965 0.481541,5.97958 31.649459,-20.828 26.267834,-21.71965 z"
         id="path1530"
         style="stroke-width:0.273101" />
      <path
         class="cls-2"
         d="m 91.666314,149.98378 c -8.718021,-0.22489 -17.084147,6.37117 -17.102667,10.19704 -0.02646,4.64873 6.879166,9.40859 17.160875,9.525 10.488088,0.0741 17.182038,-3.81 17.213788,-8.60689 0.0397,-5.43454 -9.538225,-11.20246 -17.271996,-11.1125 z"
         id="path1532"
         style="stroke-width:0.273101" />
      <path
         class="cls-2"
         d="m 92.338355,245.31316 c 7.60148,-0.32808 17.798525,2.41035 17.819685,6.04308 0.12436,3.5269 -9.26041,11.49615 -18.322393,11.34269 -9.398,0.39687 -18.610792,-7.58296 -18.489084,-10.3505 -0.142875,-4.05342 11.440584,-7.22048 18.991792,-7.03527 z"
         id="path1534"
         style="stroke-width:0.273101" />
      <path
         class="cls-2"
         d="m 64.213146,223.78666 c 5.41073,6.42144 7.876646,17.70327 3.362855,21.02644 -4.273021,2.53735 -14.639397,1.49489 -22.021272,-8.94028 -4.971521,-8.75506 -4.331229,-17.66358 -0.841375,-20.27237 5.222875,-3.13267 13.290021,1.09802 19.499792,8.20208 z"
         id="path1536"
         style="stroke-width:0.273101" />
      <path
         class="cls-2"
         d="m 118.69086,221.75201 c -5.85523,6.75481 -9.1149,19.07382 -4.84452,23.03992 4.08252,3.0824 15.0442,2.64583 23.1431,-8.41375 5.87904,-7.43215 3.9079,-19.84375 0.55033,-23.14046 -4.99004,-3.80206 -12.15231,1.05833 -18.84891,8.51165 z"
         id="path1538"
         style="stroke-width:0.273101" />
    </g>
  </g>
</svg>
