<svg xmlns="http://www.w3.org/2000/svg" width="2400" height="1200" viewBox="0 0 635 317.5"><path style="fill:#000;stroke-width:.264583" d="M0-20.5h635V297H0z" transform="translate(0 20.5)"/><g style="fill:none;fill-rule:evenodd;stroke:none;stroke-width:.901742"><g style="fill:#fff;stroke-width:.901742"><path d="m340.288 69.38-.858.858 35.046 35.047c-4.955 7.737-7.81 17.24-7.81 28.048 0 30.048 22.06 50 50 50 10.442 0 20.061-2.786 28.015-7.843l35.226 35.225C461.655 234.822 432.653 250 400 250c-55.22 0-100-43.407-100-100 0-33.656 15.837-62.648 40.288-80.62zm16.67-9.897C369.996 53.38 384.592 50 400 50c55.22 0 100 43.407 100 100 0 15.566-3.388 30.134-9.448 43.076l-31.695-31.695c4.955-7.737 7.81-17.239 7.81-28.048 0-30.048-22.06-50-50-50-10.441 0-20.06 2.786-28.015 7.844zm59.709 103.85c-16.765 0-30-11.97-30-30 0-18.029 13.235-30 30-30 16.764 0 30 11.971 30 30 0 18.03-13.236 30-30 30z" style="stroke-width:.901742" transform="translate(168.045 39.687) scale(.79375)"/></g></g><path d="M313.907 128.323h2.711c.258.086.645.258 1.162.516 1.205.603 2.108 1.55 2.71 2.84.43.775.646 2.582.646 5.421v15.361h9.423c6.196 0 9.466.043 9.81.129 2.667.516 4.302 2.022 4.905 4.518a9.42 9.42 0 0 1 .129 1.549c0 2.667-1.205 4.518-3.614 5.55-.43.258-.904.43-1.42.517-.344.086-3.614.129-9.81.129h-9.423v9.552c0 6.712-.215 10.455-.646 11.23-.602 1.29-1.505 2.237-2.71 2.84-1.205.602-2.367.817-3.485.645-.43-.086-.904-.215-1.42-.388-.775-.258-1.506-.731-2.195-1.42-.688-.688-1.161-1.42-1.42-2.194-.258-.774-.387-4.432-.387-10.972v-9.293h-9.68l-9.553-.13-.516-.129c-2.84-.86-4.346-2.84-4.518-5.937 0-2.926 1.506-4.905 4.518-5.938l.516-.258H308.873v-9.294c0-6.54.13-10.197.388-10.972.258-.688.73-1.42 1.42-2.194.946-.86 2.022-1.42 3.226-1.678" style="font-style:normal;font-variant:normal;font-weight:400;font-stretch:normal;font-size:1000px;font-family:OCRA;-inkscape-font-specification:OCRA;fill:#fff;fill-opacity:1;stroke:none;stroke-width:.12908px;stroke-linecap:butt;stroke-linejoin:miter;stroke-opacity:1" transform="translate(-3.014)"/><g style="stroke-width:.901742"><path style="fill:#fff;stroke-width:.901742" d="m154.799 112.893-14.107 35.328 41.746 32.881z" transform="translate(35.733 45.09) scale(.74327)"/><path style="fill:#fff;stroke-width:.901742" d="M153 46.127A106.791 106.791 0 1 0 259.793 152.92 106.798 106.798 0 0 0 153 46.127Zm43.82 161.465c-2.08 0-3.678-.81-5.897-2.604l-55.117-44.53-18.468 46.268h-15.961l46.656-112.212a7.088 7.088 0 0 1 6.766-4.513 6.856 6.856 0 0 1 6.586 4.513l42.51 102.3a10.111 10.111 0 0 1 .728 3.15 7.624 7.624 0 0 1-7.803 7.628z" transform="translate(35.733 45.09) scale(.74327)"/></g></svg>