<svg xmlns="http://www.w3.org/2000/svg" width="2400" height="1200" viewBox="0 0 635 317.5" version="1.1" id="svg8"><defs id="defs2"><style id="style135">.a{fill:#88171a}.b{fill:#231f20}</style></defs><g id="layer1" transform="translate(0 20.5)"><path style="fill:#fff;stroke-width:.26458335" id="rect10" d="M0-20.5h635V297H0z"/></g><g id="layer2"><g id="g268" transform="matrix(.27798 0 0 .27798 56.968 112.448)"><path id="path141" d="M404.23 252.47 339.015 52.48h24.456l49.636 154.34 50.904-154.34h22.282l50.723 153.98 49.817-153.98h23.731L545.53 252.47h-18.115L474.7 91.43l-52.172 161.04h-18.296z" transform="translate(-1.54)" class="a" style="fill:#88171a"/><path id="path143" d="M606.1 252.47V97.4h24.637v155.07z" transform="translate(-1.54)" class="a" style="fill:#88171a"/><path id="path145" d="M687.85 184.9v67.57h-24.274V98.13h106.52q23.73 0 37.136 11.413 13.404 11.413 13.405 31.702a41.774 41.774 0 0 1-10.598 28.531q-10.597 12.05-27.625 14.764l42.933 67.932H799.08l-43.839-67.57h-67.389zm0-22.644h82.243q12.5 0 19.112-5.435 6.61-5.434 6.612-15.579 0-10.143-6.612-15.488-6.615-5.341-19.112-5.344H687.85v41.846z" transform="translate(-1.54)" class="a" style="fill:#88171a"/><path id="path147" d="M843.52 252.47V97.77h145.1v22.644H867.79v38.585h79.345v22.282H867.79v48.911h127.53v22.282H843.51Z" transform="translate(-1.54)" class="a" style="fill:#88171a"/><path id="path149" d="M1166 198.31v-29.347h-54.527v-23.006h79.345V206.1q-14.495 24.999-37.77 38.313-23.28 13.315-52.806 13.315-44.929 0-74.182-29.619-29.257-29.618-29.256-75.087 0-45.65 29.347-75.269 29.347-29.618 74.091-29.618 27.716 0 50.542 12.137a98.119 98.119 0 0 1 37.136 34.6l-20.833 14.854a68.382 68.382 0 0 0-27.173-28.079 78.549 78.549 0 0 0-39.672-10.145q-33.694 0-55.795 23.097-22.104 23.096-22.101 58.421 0 35.325 22.101 58.331 22.099 23.008 55.795 23.006 21.012 0 37.408-9.058 16.393-9.056 28.351-26.992z" transform="translate(-1.54)" class="a" style="fill:#88171a"/><path id="path151" d="M1217.9 98.133h24.274v99.09q0 22.282 10.507 30.071 10.504 7.79 41.665 7.79 31.338 0 41.846-7.79 10.504-7.786 10.507-30.071v-99.09h24.093v105.43q0 28.442-18.025 41.122-18.027 12.677-58.784 12.681-40.581 0-58.331-12.5-17.756-12.5-17.753-41.303V98.133Z" transform="translate(-1.54)" class="a" style="fill:#88171a"/><path id="path153" d="m1367 252.47 78.62-154.7h15.217l79.345 154.7h-25.905l-20.108-39.31h-81.7l-19.927 39.31zm55.976-59.78h60.505l-30.071-59.237z" transform="translate(-1.54)" class="a" style="fill:#88171a"/><path id="path155" d="M1567.1 184.9v67.57h-24.274V98.13h106.52q23.73 0 37.136 11.413 13.404 11.413 13.405 31.702a41.774 41.774 0 0 1-10.598 28.531q-10.597 12.05-27.625 14.764l42.933 67.932h-26.267l-43.839-67.57h-67.389zm0-22.644h82.243q12.5 0 19.112-5.435 6.61-5.434 6.612-15.579 0-10.143-6.612-15.488-6.615-5.341-19.112-5.344H1567.1v41.846z" transform="translate(-1.54)" class="a" style="fill:#88171a"/><path id="path157" d="M1791.8 97.771q37.86 0 61.048 21.647 23.186 21.65 23.188 56.248 0 34.964-22.735 55.886-22.736 20.922-61.501 20.923h-68.657v-154.7h68.657zm.362 22.282h-44.745v110.14h44.745q27.534 0 43.295-14.764 15.76-14.762 15.76-40.125 0-24.456-16.304-39.854-16.304-15.395-42.752-15.398z" transform="translate(-1.54)" class="a" style="fill:#88171a"/><path id="path159" d="M401.21 304.63v18.614h-6.347v-40.448h37.37v5.92H401.21v10.088h20.035v5.826H401.21z" transform="translate(-1.54)" class="b" style="fill:#231f20"/><path id="path161" d="m426.78 323.24 20.556-40.448h3.978l20.745 40.448h-6.773l-5.257-10.278h-21.36l-5.21 10.278h-6.68zm14.635-15.63h15.819l-7.862-15.488z" transform="translate(-1.54)" class="b" style="fill:#231f20"/><path id="path163" d="m476.56 318.08 3.079-5.305a35.512 35.512 0 0 0 9.093 4.358 31.144 31.144 0 0 0 9.426 1.563 15.505 15.505 0 0 0 8.714-2.203 6.583 6.583 0 0 0 3.316-5.66 5.506 5.506 0 0 0-3.031-5.138q-3.032-1.681-9.568-1.872-11.036-.142-15.156-2.557-4.12-2.416-4.12-8.005a9.785 9.785 0 0 1 4.523-8.383q4.522-3.173 12.149-3.173a35.061 35.061 0 0 1 10.112 1.468 37.803 37.803 0 0 1 9.449 4.357l-3.173 5.258a31.907 31.907 0 0 0-8.147-3.955 27.298 27.298 0 0 0-8.336-1.397 14.736 14.736 0 0 0-7.388 1.61 4.784 4.784 0 0 0-2.795 4.215 3.938 3.938 0 0 0 2.818 3.837q2.817 1.136 9.78 1.136 9.663 0 14.589 3.269 4.925 3.268 4.926 9.71a11.509 11.509 0 0 1-4.998 9.52q-4.997 3.788-12.953 3.788a41.784 41.784 0 0 1-11.675-1.681 40.763 40.763 0 0 1-10.633-4.76z" transform="translate(-1.54)" class="b" style="fill:#231f20"/><path id="path165" d="M539.6 323.24v-34.812h-17.051v-5.636h40.448v5.636h-17.098v34.812h-6.3z" transform="translate(-1.54)" class="b" style="fill:#231f20"/><path id="path167" d="M576.06 331.48a38.394 38.394 0 0 0 2.463-4.12 27.126 27.126 0 0 0 1.705-4.121h-.379a3.004 3.004 0 0 1-2.44-1.208 4.718 4.718 0 0 1-.97-3.055 4.83 4.83 0 0 1 1.16-3.339 3.738 3.738 0 0 1 2.913-1.303 3.786 3.786 0 0 1 3.221 1.729 7.9 7.9 0 0 1 1.231 4.665 11.548 11.548 0 0 1-1.8 5.708 34.646 34.646 0 0 1-5.351 6.702z" transform="translate(-1.54)" class="b" style="fill:#231f20"/><path id="path169" d="M639.67 323.24v-40.448h5.257l16.577 23.682 16.577-23.682h5.258v40.448h-6.3v-29.081l-15.535 22.498-15.488-22.498v29.081h-6.346z" transform="translate(-1.54)" class="b" style="fill:#231f20"/><path id="path171" d="M720.37 324.52q-10.799 0-17.761-6.11a20.39 20.39 0 0 1-.024-30.668q6.938-6.038 17.785-6.039 10.941 0 17.88 6.016a20.442 20.442 0 0 1-.024 30.715q-6.962 6.087-17.856 6.086zm0-5.92q8.1 0 13.214-4.381a14.671 14.671 0 0 0-.024-22.285q-5.14-4.405-13.19-4.405-8.052 0-13.144 4.38a14.764 14.764 0 0 0 0 22.31q5.091 4.381 13.144 4.38z" transform="translate(-1.54)" class="b" style="fill:#231f20"/><path id="path173" d="M775.46 282.79q9.899 0 15.961 5.66 6.062 5.66 6.063 14.706 0 9.142-5.944 14.611-5.945 5.471-16.08 5.47h-17.951V282.79h17.95zm.095 5.826h-11.7v28.797h11.7q7.199 0 11.32-3.86 4.12-3.86 4.12-10.491a13.686 13.686 0 0 0-4.262-10.42q-4.263-4.026-11.178-4.026z" transform="translate(-1.54)" class="b" style="fill:#231f20"/><path id="path175" d="M809.41 323.24v-40.448h37.938v5.92h-31.591V298.8h20.745v5.826h-20.745v12.788h33.344v5.826h-39.69z" transform="translate(-1.54)" class="b" style="fill:#231f20"/><path id="path177" d="M866.48 305.57v17.666h-6.347v-40.354h27.85q6.205 0 9.71 2.984a10.301 10.301 0 0 1 3.505 8.289 10.926 10.926 0 0 1-2.77 7.46 11.756 11.756 0 0 1-7.224 3.86l11.225 17.76h-6.867L884.1 305.57h-17.62zm0-5.92h21.503a7.693 7.693 0 0 0 4.997-1.421 4.972 4.972 0 0 0 1.729-4.073 4.905 4.905 0 0 0-1.73-4.05 7.79 7.79 0 0 0-4.996-1.397H866.48v10.94z" transform="translate(-1.54)" class="b" style="fill:#231f20"/><path id="path179" d="M914.65 323.24v-40.448h3.315l25.718 28.418v-28.418h6.205v40.448h-3.315l-25.671-28.323v28.323h-6.252z" transform="translate(-1.54)" class="b" style="fill:#231f20"/><path id="path181" d="M970.54 331.48a38.394 38.394 0 0 0 2.463-4.12 27.126 27.126 0 0 0 1.705-4.121h-.379a3.004 3.004 0 0 1-2.44-1.208 4.718 4.718 0 0 1-.97-3.055 4.83 4.83 0 0 1 1.16-3.339 3.738 3.738 0 0 1 2.913-1.303 3.786 3.786 0 0 1 3.221 1.729 7.9 7.9 0 0 1 1.231 4.665 11.548 11.548 0 0 1-1.8 5.708 34.646 34.646 0 0 1-5.351 6.702z" transform="translate(-1.54)" class="b" style="fill:#231f20"/><path id="path183" d="m1030.7 318.08 3.079-5.305a35.512 35.512 0 0 0 9.093 4.358 31.144 31.144 0 0 0 9.426 1.563 15.505 15.505 0 0 0 8.715-2.203 6.583 6.583 0 0 0 3.315-5.66 5.506 5.506 0 0 0-3.031-5.138q-3.032-1.681-9.568-1.872-11.036-.142-15.156-2.557-4.12-2.416-4.12-8.005a9.785 9.785 0 0 1 4.523-8.383q4.522-3.173 12.149-3.173a35.061 35.061 0 0 1 10.112 1.468 37.803 37.803 0 0 1 9.449 4.358l-3.173 5.257a31.907 31.907 0 0 0-8.147-3.955 27.298 27.298 0 0 0-8.336-1.397 14.736 14.736 0 0 0-7.388 1.61 4.784 4.784 0 0 0-2.795 4.215 3.938 3.938 0 0 0 2.819 3.837q2.816 1.137 9.78 1.137 9.662 0 14.588 3.268 4.925 3.268 4.926 9.71a11.509 11.509 0 0 1-4.997 9.52q-4.998 3.788-12.954 3.788a41.784 41.784 0 0 1-11.675-1.68 40.763 40.763 0 0 1-10.633-4.761z" transform="translate(-1.54)" class="b" style="fill:#231f20"/><path id="path185" d="M1084.1 323.24v-40.448h37.938v5.92h-31.591V298.8h20.745v5.826h-20.745v12.788h33.344v5.826h-39.69z" transform="translate(-1.54)" class="b" style="fill:#231f20"/><path id="path187" d="M1177.6 313.34a22.946 22.946 0 0 1-9.07 8.312 27.68 27.68 0 0 1-12.765 2.866q-10.657 0-17.548-6.039a20.531 20.531 0 0 1 0-30.69q6.89-6.087 17.548-6.087a28.416 28.416 0 0 1 12.03 2.487 21.89 21.89 0 0 1 8.715 7.033l-5.02 3.505a16.432 16.432 0 0 0-6.608-5.328 21.699 21.699 0 0 0-9.117-1.872 18.888 18.888 0 0 0-12.86 4.43 14.637 14.637 0 0 0 .025 22.212 18.906 18.906 0 0 0 12.835 4.429 20.434 20.434 0 0 0 9.52-2.132 20.208 20.208 0 0 0 7.246-6.63z" transform="translate(-1.54)" class="b" style="fill:#231f20"/><path id="path189" d="M1190.2 282.89h6.347v25.908q0 5.826 2.747 7.862 2.746 2.037 10.894 2.037 8.193 0 10.94-2.037 2.747-2.036 2.748-7.862V282.89h6.3v27.565q0 7.436-4.713 10.751-4.714 3.315-15.37 3.315-10.61 0-15.251-3.268-4.642-3.268-4.642-10.799V282.89z" transform="translate(-1.54)" class="b" style="fill:#231f20"/><path id="path191" d="M1252.4 305.57v17.666h-6.347v-40.354h27.85q6.205 0 9.71 2.984a10.301 10.301 0 0 1 3.505 8.289 10.926 10.926 0 0 1-2.77 7.46 11.756 11.756 0 0 1-7.224 3.86l11.225 17.76h-6.868l-11.462-17.666H1252.4zm0-5.92h21.503a7.693 7.693 0 0 0 4.997-1.421 4.972 4.972 0 0 0 1.729-4.073 4.905 4.905 0 0 0-1.73-4.05 7.79 7.79 0 0 0-4.996-1.397H1252.4v10.94z" transform="translate(-1.54)" class="b" style="fill:#231f20"/><path id="path193" d="M1300.5 323.24v-40.448h37.938v5.92h-31.591V298.8h20.745v5.826h-20.745v12.788h33.344v5.826h-39.69z" transform="translate(-1.54)" class="b" style="fill:#231f20"/><path id="path195" d="M1403 323.24h-3.268l-20.32-40.448h6.727l15.204 30.265 14.966-30.265h6.963z" transform="translate(-1.54)" class="b" style="fill:#231f20"/><path id="path197" d="M1439.6 305.57v17.666h-6.347v-40.448h29.413q6.252 0 9.734 2.96a10.32 10.32 0 0 1 3.48 8.313 10.819 10.819 0 0 1-3.457 8.288 12.805 12.805 0 0 1-9.094 3.22H1439.6zm0-5.92h23.066a7.61 7.61 0 0 0 4.95-1.421 5.69 5.69 0 0 0 .07-8.1 7.072 7.072 0 0 0-4.736-1.42h-23.35v10.94z" transform="translate(-1.54)" class="b" style="fill:#231f20"/><path id="path199" d="M1486.8 323.24v-40.448h3.315l25.718 28.418v-28.418h6.205v40.448h-3.315l-25.671-28.323v28.323h-6.252z" transform="translate(-1.54)" class="b" style="fill:#231f20"/><path id="path201" d="M1581.6 323.24v-34.812h-17.051v-5.636h40.448v5.636h-17.098v34.812h-6.3z" transform="translate(-1.54)" class="b" style="fill:#231f20"/><path id="path203" d="M1613.3 282.89h6.347v25.908q0 5.826 2.747 7.862 2.746 2.037 10.894 2.037 8.193 0 10.94-2.037 2.747-2.036 2.748-7.862V282.89h6.3v27.565q0 7.436-4.713 10.751-4.714 3.315-15.37 3.315-10.61 0-15.251-3.268-4.642-3.268-4.642-10.799V282.89z" transform="translate(-1.54)" class="b" style="fill:#231f20"/><path id="path205" d="M1669.2 323.24v-40.448h3.315l25.718 28.418v-28.418h6.205v40.448h-3.315l-25.671-28.323v28.323h-6.252z" transform="translate(-1.54)" class="b" style="fill:#231f20"/><path id="path207" d="M1720.3 323.24v-40.448h3.315l25.718 28.418v-28.418h6.205v40.448h-3.315l-25.671-28.323v28.323h-6.252z" transform="translate(-1.54)" class="b" style="fill:#231f20"/><path id="path209" d="M1771.3 323.24v-40.448h37.938v5.92h-31.591V298.8h20.745v5.826h-20.745v12.788h33.344v5.826h-39.69z" transform="translate(-1.54)" class="b" style="fill:#231f20"/><path id="path211" d="M1822 323.24v-40.448h6.347v34.623h30.028v5.826H1822z" transform="translate(-1.54)" class="b" style="fill:#231f20"/><path id="path213" d="M301.28 145.56S308.22 0 148.24 0C6.76 0 2.34 139.63 2.34 139.63S-18.471 300 151.5 300c163.02 0 149.78-154.44 149.78-154.44Zm-197.8-50.863c30.017-18.364 68.366-7.14 82.735 20.476 2.723 5.234 3.07 13.291 1.345 18.782-5.955 18.956-20.014 29.587-39.312 34.103 5.689-4.87 10.218-10.394 11.659-18.025a26.402 26.402 0 0 0-4.543-20.956 26.76 26.76 0 0 0-30.81-9.39c-11.882 4.512-18.39 15.355-17.217 28.684 1.09 12.38 10.484 20.405 28.061 23.453-2.627 1.39-4.65 2.414-6.63 3.517a63.918 63.918 0 0 0-20.544 17.868c-1.784 2.408-3.01 2.602-5.727.941-35.338-21.61-37.609-75.844.983-99.453zm-26.449 133.53c-5.677 1.441-11.178 3.574-16.981 5.478 2.839-19.152 25.265-36.789 44.23-34.777a48.881 48.881 0 0 0-9.242 25.893c-6.302 1.161-12.241 1.942-18.007 3.405zm120.79-186.98c5.61.206 11.23.12 16.844.254a29.052 29.052 0 0 1 4.167.58 40.607 40.607 0 0 1-4.235 5.434c-2.007 1.87-4.275 3.698-7.166.856-.696-.684-2.339-.527-3.55-.543-5.581-.073-11.171-.252-16.745-.041a104.04 104.04 0 0 0-14.425 1.473c-.894.16-2.23 3.131-1.82 4.227.97 2.585 2.384 5.436 4.479 7.09 7.74 6.11 15.972 11.595 23.748 17.663 7.556 5.897 14.589 12.358 18.875 21.253 5.584 11.59 5.747 23.743 3.338 35.95-4.02 20.378-14.333 37.261-31.032 49.524-6.728 4.941-15.06 7.746-22.767 11.295-6.778 3.123-13.755 5.812-20.549 8.901-12.249 5.57-19.133 18.865-17.108 32.688 1.859 12.685 12.987 23.271 25.735 25.456 15.292 2.622 31.071-7.316 34.812-22.86 4.207-17.478-5.29-33.083-23.065-37.813-.782-.208-1.568-.405-3.2-.827 4.754-2.124 8.86-3.638 12.652-5.724q9.922-5.46 19.481-11.562c1.874-1.2 2.887-1.2 4.485.182 12.225 10.57 19.518 23.718 21.563 39.84 3.385 26.683-9.247 51.197-33.072 63.761-36.86 19.44-81.965-2.686-90.106-43.552-6.973-35.003 17.73-66.754 47.462-72.884 12.787-2.636 24.48-7.96 33.57-17.807 5.866-6.354 8.709-11.806 9.678-14.266a39.565 39.565 0 0 0 2.72-14.469 33.867 33.867 0 0 0-2.965-12.398c-3.104-7.075-14.995-18.33-17.939-20.704l-28-21.92c-.987-.813-2.099-.754-4.508-.591-2.86.194-10.175.599-13.33-.228 2.552-1.933 9.513-4.746 12.501-7.007-9.073-6.13-19.43-3.916-28.94-5.747 2.199-4.095 13.08-10.39 19.27-11.09a91.533 91.533 0 0 0-1.688-10.282c-.378-1.391-1.931-2.74-3.287-3.535-3.286-1.927-6.769-3.517-10.549-5.433a21.936 21.936 0 0 1 11.332-3.505 42.316 42.316 0 0 1 11.348 1.105c6.743 1.54 12.124.535 17.488-4.048-4.222-1.7-8.443-3.253-12.538-5.09a123.04 123.04 0 0 1-11.779-6.159c10.622 1.476 20.896 5.459 31.757 4.004q.14-.74.278-1.481l-25.23-5.873c15.04-1.376 29.043-1.604 42.302 4.855 3.73 1.817 7.635 3.321 11.21 5.397 1.745 1.012 2.92 3.008 4.35 4.56 1.137 1.232 2.05 2.883 3.446 3.626 5.3 2.818 11.134 2.929 17.078 2.787l.131-1.993c5.982 1.87 12.715 8.768 12.704 13.806-9.69 0-19.374-.037-29.056.054-1.035.01-2.062.766-3.093 1.175.98.571 1.942 1.6 2.942 1.637z" transform="translate(-1.54)" class="a" style="fill:#88171a"/><path id="path215" d="M185.32 26.906a1.48 1.48 0 0 0-.19 2.369 2.233 2.233 0 0 0 3.073.822c.933-.471 1.848-.972 2.975-1.567-.908-.775-1.636-1.415-2.386-2.032-1.318-1.086-2.41-.404-3.472.408z" transform="translate(-1.54)" class="a" style="fill:#88171a"/><g id="g219" transform="translate(293.8 179.57)" style="stroke-width:1px"><path id="path217" d="M1566.2-95.856h-1.24c-7.56.08-11.84 6.64-11.84 13 0 6.16 3.92 12.32 12.2 12.32h.56c8.6-.24 12.36-6.16 12.36-12.24v-.72c-.28-6.36-4.84-12.36-12.04-12.36zm-5.52 5.16v14.44h1.8v-12.96h3.4c1.88 0 2.8 1.16 2.8 2.32 0 1.4-1.36 3-3.8 3-.36 0-.84-.08-1.28-.16l5.44 7.8h2.36l-4.92-6.64c2.4-.44 4-2.36 4-4.24 0-1.76-1.52-3.56-4.88-3.56zm-3.44.28c2.52-2.72 5.16-3.72 8.24-3.72h1.28c5.48.24 9.44 5.8 9.44 11.16 0 .76-.08 1.64-.24 2.36-.84 4.92-5.12 8.36-10.08 8.36-.12 0-.36.04-.48.04-6.28 0-10.28-5.68-10.28-11.36 0-.48.08-1.12.12-1.64 0 0 .28-3.12 2-5.2z"/></g></g></g></svg>