<svg xmlns="http://www.w3.org/2000/svg" width="2400" height="1200" viewBox="0 0 635 317.5"><path d="M0-20.5h635V297H0z" style="fill:#000;stroke-width:.264583" transform="translate(0 20.5)"/><g style="fill:none;fill-rule:evenodd;stroke:none;stroke-width:.901742"><g style="fill:#fff;stroke-width:.901742"><path d="m340.288 69.38-.858.858 35.046 35.047c-4.955 7.737-7.81 17.24-7.81 28.048 0 30.048 22.06 50 50 50 10.442 0 20.061-2.786 28.015-7.843l35.226 35.225C461.655 234.822 432.653 250 400 250c-55.22 0-100-43.407-100-100 0-33.656 15.837-62.648 40.288-80.62zm16.67-9.897C369.996 53.38 384.592 50 400 50c55.22 0 100 43.407 100 100 0 15.566-3.388 30.134-9.448 43.076l-31.695-31.695c4.955-7.737 7.81-17.239 7.81-28.048 0-30.048-22.06-50-50-50-10.441 0-20.06 2.786-28.015 7.844zm59.709 103.85c-16.765 0-30-11.97-30-30 0-18.029 13.235-30 30-30 16.764 0 30 11.971 30 30 0 18.03-13.236 30-30 30z" style="stroke-width:.901742" transform="translate(0 39.687) scale(.79375)"/></g></g></svg>