<svg xmlns="http://www.w3.org/2000/svg" width="2400" height="1200" viewBox="0 0 635 317.5"><path style="fill:#000;stroke-width:.26458335" d="M0-20.5h635V297H0z" transform="translate(0 20.5)"/><path transform="translate(0 20.5)" d="M382.323 112.144c-5.997-30.427-32.72-53.269-64.823-53.269-13.053 0-25.135 3.792-35.366 10.319L295.01 82.07a48.229 48.229 0 0 1 22.49-5.556c26.811 0 48.507 21.696 48.507 48.507v4.41h13.229c14.64 0 26.458 11.818 26.458 26.458 0 9.966-5.644 18.609-13.758 23.107l12.788 12.788c11.201-8.026 18.61-21.079 18.61-35.895 0-23.284-18.08-42.157-41.011-43.745zM238.125 70.076l24.254 24.165c-28.135 1.233-50.712 24.342-50.712 52.828 0 29.193 23.724 52.917 52.916 52.917h103.452l17.64 17.639 11.2-11.2-147.55-147.55Zm41.716 41.716 70.556 70.555h-85.814c-19.49 0-35.277-15.787-35.277-35.278 0-19.49 15.786-35.277 35.277-35.277z" style="fill:#fff;fill-opacity:1;stroke-width:8.81944561"/></svg>