<svg width="2400" height="1200" viewBox="0 0 635 317.5" xmlns="http://www.w3.org/2000/svg"><path style="fill:#fff;fill-opacity:1;stroke-width:.264583" d="M0-20.5h635V297H0z" transform="translate(0 20.5)"/><path d="M224.682 112.806v-2.103c0-25.343 18.317-46.96 43.291-51.122 16.207-2.752 33.356 2.636 45.176 14.474l4.351 4.343 4.024-4.343c12.147-11.838 28.97-17.226 45.503-14.474 24.98 4.162 43.29 25.779 43.29 51.122v2.103c0 15.047-6.236 29.44-17.258 39.702l-65.516 61.165a14.717 14.717 0 0 1-10.043 3.952 14.717 14.717 0 0 1-10.043-3.952l-65.52-61.165a54.29 54.29 0 0 1-17.255-39.702z" style="fill:red;fill-opacity:1;stroke-width:.264582" transform="translate(0 20.5)"/></svg>