<svg width="2400" height="1200" viewBox="0 0 635 317.5" xmlns="http://www.w3.org/2000/svg"><path style="fill:#fff;stroke-width:.26458335" d="M0-20.5h635V297H0z" transform="translate(0 20.5)"/><g style="stroke-width:.676192"><g style="stroke-width:.488038"><path d="M58.503 44.524h-8.35v-4.287a6.217 6.217 0 0 0-6.21-6.21 6.217 6.217 0 0 0-6.21 6.21v4.287h-8.35v-4.287c0-8.028 6.531-14.559 14.559-14.559 8.028 0 14.559 6.531 14.559 14.559v4.287z" style="fill:#ffa400;stroke-width:.488038" transform="translate(217.032 62.965) scale(2.28629)"/></g><path d="M131.268 154.355h-55.43a4.314 4.314 0 0 0-4.303 4.302v41.006a4.314 4.314 0 0 0 4.302 4.302h55.431a4.314 4.314 0 0 0 4.303-4.302v-41.004a4.314 4.314 0 0 0-4.303-4.304zm-24.905 26.923v5.556a2.81 2.81 0 0 1-5.619 0v-5.555a5.696 5.696 0 0 1-2.895-4.96 5.704 5.704 0 0 1 11.406 0 5.692 5.692 0 0 1-2.892 4.959z" style="fill:#003a70;stroke-width:.754495" transform="translate(164.36 -63.513) scale(1.47887)"/><path d="M70.22 148.242H56.842a3.927 3.927 0 1 1 0-7.854H70.22a3.927 3.927 0 1 1 0 7.854zm9.42-21.041c-.876 0-1.76-.292-2.492-.893l-10.58-8.7a3.927 3.927 0 0 1 4.989-6.066l10.58 8.7a3.926 3.926 0 0 1-2.497 6.96zm23.913-9.248a3.926 3.926 0 0 1-3.926-3.926v-13.481a3.926 3.926 0 1 1 7.853 0v13.48a3.927 3.927 0 0 1-3.927 3.927z" style="fill:#ffa400;stroke-width:.754495" transform="translate(164.36 -63.513) scale(1.47887)"/><g style="stroke-width:.488038"><path d="M59.411 26.959a2.54 2.54 0 0 1-1.615-4.502l6.844-5.627a2.54 2.54 0 0 1 3.227 3.924l-6.844 5.627a2.529 2.529 0 0 1-1.612.578z" style="fill:#ffa400;stroke-width:.488038" transform="translate(217.032 62.965) scale(2.28629)"/></g><path d="M150.264 148.242H136.76a3.927 3.927 0 1 1 0-7.854h13.503a3.927 3.927 0 1 1 0 7.854z" style="fill:#ffa400;stroke-width:.754495" transform="translate(164.36 -63.513) scale(1.47887)"/></g></svg>