<svg xmlns="http://www.w3.org/2000/svg" width="2400" height="1200" viewBox="0 0 635 317.5" version="1.1" id="svg8"><defs id="defs2"><style id="style881">.cls-2{fill:#d0202e}</style></defs><g id="layer1" transform="translate(0 20.5)"><path style="fill:#000;stroke-width:.26458335" id="rect10" d="M0-20.5h635V297H0z"/></g><g id="layer2"><g id="g944" transform="matrix(1.27339 0 0 1.27339 508.77 258.843)"><path id="path903" d="M-164.735-140.938s18.551 16.188 16.026 30.628c-1.117 6.475-9.632 16.965-5.034 27.002 4.856 10.814 7.51 31.68-14.764 26.29-21.984-5.326-20.284-32.247-3.95-46.46 16.334-14.214 10.96-30.256 7.722-37.46z" class="cls-2" style="fill:#d0202e;stroke-width:1.6188221"/><path id="path905" d="M-147.85-92.276c-1.247 10.96 10.861 21.854 1.246 36.698-6.654 10.248 3.561 24.687 16.69 22.049 14.407-2.866 17.985-11.963 17.58-22.534-.502-13.436-5.828-17.16-17.71-27.245-12.853-10.91-2.93-31.502-2.93-31.502s-13.452 10.49-14.877 22.534z" class="cls-2" style="fill:#d0202e;stroke-width:1.6188221"/><path id="path907" d="M-186.913-60.175c4.063 5.002 11.914 10.878 26.97 11.218 4.565.098 1.003 8.58 10.117 16.189a25.901 25.901 0 0 0 24.17 4.646c3.237-1.23 6.474-2.429 4.014.647-10.7 13.712-29.285 12.854-42.527 7.884-15.75-5.893-19.733-17.467-22.307-24.687-2.784-7.803-1.36-17.079-.437-15.897z" class="cls-2" style="fill:#d0202e;stroke-width:1.6188221"/></g></g></svg>