<svg width="2400" height="1200" viewBox="0 0 635 317.5" xmlns="http://www.w3.org/2000/svg"><path style="fill:#000002;fill-opacity:1;stroke-width:.264583" d="M0-20.5h635V297H0z" transform="translate(0 20.5)"/><path d="M380.072 93.745H254.928a16.852 16.852 0 0 0-16.803 16.802v96.406a16.852 16.852 0 0 0 16.803 16.802h125.144a16.852 16.852 0 0 0 16.803-16.802v-96.406a16.852 16.852 0 0 0-16.803-16.802Zm-74.867 94.541-30.541 17.749a8.172 8.172 0 1 1-8.212-14.132l30.54-17.748a8.172 8.172 0 1 1 8.213 14.131zm12.015-27.04h-.037a8.172 8.172 0 0 1-8.136-8.209l.153-35.183a8.173 8.173 0 0 1 8.171-8.137h.037a8.172 8.172 0 0 1 8.136 8.208l-.153 35.184a8.173 8.173 0 0 1-8.171 8.136zm54.038 41.806a8.169 8.169 0 0 1-11.163 2.991l-30.586-17.659a8.172 8.172 0 0 1 8.172-14.154l30.586 17.658a8.172 8.172 0 0 1 2.991 11.164z" style="fill:#fffffd;fill-opacity:1;stroke-width:.264583"/></svg>