<svg xmlns="http://www.w3.org/2000/svg" width="2400" height="1200" viewBox="0 0 635 317.5"><defs><linearGradient id="b" x1="0" x2="1" y1="0" y2="0" gradientTransform="scale(890.7) rotate(-50.29 5.34 -2.377)" gradientUnits="userSpaceOnUse" spreadMethod="pad"><stop offset="0" style="stop-opacity:1;stop-color:#5b95d6"/><stop offset="1" style="stop-opacity:1;stop-color:#5946a6"/></linearGradient><clipPath id="a" clipPathUnits="userSpaceOnUse"><path d="M3654.35 2275.54c136.79 0 247.69 110.89 247.69 247.69 0 136.79-110.9 247.69-247.69 247.69-136.8 0-247.69-110.9-247.69-247.69 0-136.8 110.89-247.69 247.69-247.69z"/></clipPath></defs><path d="M0-20.5h635V297H0z" style="fill:#fff;fill-opacity:1;stroke-width:.264583" transform="translate(0 20.5)"/><path d="M340.594 232.927v-6.282a11.202 11.202 0 0 0 10.498-15.527 11.206 11.206 0 0 0-10.498-6.877v-6.275a17.476 17.476 0 1 1 0 34.952v.01" style="fill:#1c1a19;fill-opacity:1;fill-rule:nonzero;stroke:none;stroke-width:.0352778" transform="matrix(4.54067 0 0 4.54067 -1248.861 -819.522)"/><g clip-path="url(#a)" transform="matrix(.16018 0 0 -.16018 -287.708 562.997)"><path d="M3654.35 2275.54c136.79 0 247.69 110.89 247.69 247.69 0 136.79-110.9 247.69-247.69 247.69-136.8 0-247.69-110.9-247.69-247.69 0-136.8 110.89-247.69 247.69-247.69" style="fill:url(#b);fill-opacity:1;fill-rule:nonzero;stroke:none"/></g></svg>