<svg xmlns="http://www.w3.org/2000/svg" width="600" height="600" viewBox="0 0 158.75 158.75"><path style="fill:#000;stroke-width:.26458335" d="M0-20.5h635V297H0z" transform="translate(-238.125 -58.875)"/><path d="M326.32 79.375h-17.64v88.194h17.64zm42.597 19.138-12.523 12.524c13.934 11.2 22.842 28.398 22.842 47.713 0 34.131-27.605 61.736-61.736 61.736s-61.736-27.605-61.736-61.736c0-19.315 8.908-36.513 22.754-47.801l-12.435-12.436c-17.11 14.552-27.958 36.072-27.958 60.237 0 43.833 35.542 79.375 79.375 79.375s79.375-35.542 79.375-79.375c0-24.165-10.848-45.685-27.958-60.237z" style="fill:#fffff3;fill-opacity:1;stroke-width:8.81944466" transform="translate(-238.125 -79.375)"/></svg>