<?xml version="1.0" encoding="UTF-8" standalone="no"?>
<!-- Created with Inkscape (http://www.inkscape.org/) -->

<svg
   xmlns:dc="http://purl.org/dc/elements/1.1/"
   xmlns:cc="http://creativecommons.org/ns#"
   xmlns:rdf="http://www.w3.org/1999/02/22-rdf-syntax-ns#"
   xmlns:svg="http://www.w3.org/2000/svg"
   xmlns="http://www.w3.org/2000/svg"
   xmlns:sodipodi="http://sodipodi.sourceforge.net/DTD/sodipodi-0.dtd"
   xmlns:inkscape="http://www.inkscape.org/namespaces/inkscape"
   width="2400"
   height="1200"
   viewBox="0 0 634.99999 317.50001"
   version="1.1"
   id="svg8"
   inkscape:version="0.92.5 (2060ec1f9f, 2020-04-08)"
   sodipodi:docname="featured_generic_router.svg"
   inkscape:export-filename="/home/logan/Downloads/featured_images/completed_files_png/featured_generic_router.png"
   inkscape:export-xdpi="96"
   inkscape:export-ydpi="96">
  <defs
     id="defs2" />
  <sodipodi:namedview
     id="base"
     pagecolor="#ffffff"
     bordercolor="#666666"
     borderopacity="1.0"
     inkscape:pageopacity="0.0"
     inkscape:pageshadow="2"
     inkscape:zoom="0.35"
     inkscape:cx="525.71429"
     inkscape:cy="680.90573"
     inkscape:document-units="px"
     inkscape:current-layer="layer2"
     showgrid="false"
     units="px"
     inkscape:snap-page="true"
     inkscape:window-width="1920"
     inkscape:window-height="1015"
     inkscape:window-x="0"
     inkscape:window-y="0"
     inkscape:window-maximized="1"
     inkscape:snap-object-midpoints="true" />
  <metadata
     id="metadata5">
    <rdf:RDF>
      <cc:Work
         rdf:about="">
        <dc:format>image/svg+xml</dc:format>
        <dc:type
           rdf:resource="http://purl.org/dc/dcmitype/StillImage" />
        <dc:title />
      </cc:Work>
    </rdf:RDF>
  </metadata>
  <g
     inkscape:label="Background"
     inkscape:groupmode="layer"
     id="layer1"
     transform="translate(0,20.50002)">
    <rect
       style="fill:#000000;stroke-width:0.26458335"
       id="rect10"
       width="635"
       height="317.5"
       x="0"
       y="-20.500019" />
  </g>
  <g
     inkscape:groupmode="layer"
     id="layer2"
     inkscape:label="Layer1">
    <path
       inkscape:connector-curvature="0"
       d="m 389.81983,104.95133 7.05567,-7.055652 C 384.52816,85.54834 368.65316,79.375001 352.77817,79.375001 c -15.87501,0 -31.75,6.173339 -44.09734,18.520677 l 7.05567,7.055652 c 10.58334,-9.701322 23.81233,-14.992991 37.04167,-14.992991 13.22899,0 26.45833,5.291669 37.04166,14.992991 z m -7.93768,7.05535 c -7.93732,-7.93735 -18.52066,-12.347002 -29.10399,-12.347002 -10.58334,0 -21.16665,4.409652 -29.10433,12.347002 l 7.05568,7.05567 c 6.17365,-6.17367 14.11099,-8.81934 22.04865,-8.81934 7.93732,0 15.875,2.64667 22.04866,8.81934 z m -2.64665,55.56266 h -17.63901 v -35.27767 h -17.63866 v 35.27767 h -88.19467 c -9.70134,0 -17.63866,7.93733 -17.63866,17.639 v 35.27767 c 0,9.70132 7.93732,17.63899 17.63867,17.63899 H 379.2355 c 9.70134,0 17.63898,-7.93767 17.63898,-17.63899 v -35.27767 c 0,-9.70167 -7.93765,-17.639 -17.63898,-17.639 z m -97.01399,44.09733 h -17.63867 v -17.639 h 17.63867 z m 30.868,0 h -17.63869 v -17.639 h 17.63869 z m 30.86833,0 h -17.63901 v -17.639 h 17.63901 z"
       id="path4"
       style="fill:#ffffff;fill-opacity:1;stroke-width:8.81944466" />
  </g>
</svg>
