<svg xmlns="http://www.w3.org/2000/svg" width="2400" height="1200" viewBox="0 0 635 317.5"><path style="fill:#fff;fill-opacity:1;stroke-width:.264583" d="M0-20.5h635V297H0z" transform="translate(0 20.5)"/><g style="stroke-width:.988417"><g style="clip-rule:nonzero;fill:none;fill-rule:nonzero;stroke:#fff;stroke-width:12.3207;stroke-linecap:round;stroke-linejoin:round;stroke-miterlimit:4"><path style="fill:#000;stroke:#000;stroke-width:36.9621;stroke-linecap:butt;stroke-linejoin:miter" d="M323.205 324.227c2.833-23.601 1.984-27.062 19.563-23.239l4.463.392c13.517.615 31.199-2.174 41.587-7 22.362-10.376 35.622-27.7 13.572-23.148-50.297 10.376-53.755-6.655-53.755-6.655 53.111-78.803 75.313-178.836 56.149-203.322-52.27-66.789-142.748-35.206-144.262-34.386l-.482.089c-9.938-2.062-21.06-3.294-33.554-3.496-22.761-.374-40.032 5.967-53.133 15.904 0 0-161.408-66.498-153.899 83.628 1.597 31.936 45.777 241.655 98.47 178.31 19.259-23.163 37.871-42.748 37.871-42.748 9.242 6.14 20.307 9.272 31.912 8.147l.897-.765c-.281 2.876-.157 5.689.359 9.019-13.572 15.167-9.584 17.83-36.723 23.416-27.457 5.659-11.326 15.734-.797 18.367 12.768 3.193 42.305 7.716 62.268-20.224l-.795 3.188c5.325 4.26 4.965 30.619 5.72 49.452.756 18.834 2.017 36.409 5.856 46.771 3.839 10.36 8.369 37.05 44.036 29.406 29.809-6.388 52.6-15.582 54.677-101.107" transform="matrix(.35683 0 0 .357 63.668 79.298)"/><path style="fill:#336791;stroke:none;stroke-width:12.3207" d="M402.395 271.23c-50.302 10.376-53.76-6.655-53.76-6.655 53.111-78.808 75.313-178.843 56.153-203.326-52.27-66.785-142.752-35.2-144.262-34.38l-.486.087c-9.938-2.063-21.06-3.292-33.56-3.496-22.761-.373-40.026 5.967-53.127 15.902 0 0-161.411-66.495-153.904 83.63 1.597 31.938 45.776 241.657 98.471 178.312 19.26-23.163 37.869-42.748 37.869-42.748 9.243 6.14 20.308 9.272 31.908 8.147l.901-.765c-.28 2.876-.152 5.689.361 9.019-13.575 15.167-9.586 17.83-36.723 23.416-27.459 5.659-11.328 15.734-.796 18.367 12.768 3.193 42.307 7.716 62.266-20.224l-.796 3.188c5.319 4.26 9.054 27.711 8.428 48.969-.626 21.259-1.044 35.854 3.147 47.254 4.191 11.4 8.368 37.05 44.042 29.406 29.809-6.388 45.256-22.942 47.405-50.555 1.525-19.631 4.976-16.729 5.194-34.28l2.768-8.309c3.192-26.611.507-35.196 18.872-31.203l4.463.392c13.517.615 31.208-2.174 41.591-7 22.358-10.376 35.618-27.7 13.573-23.148z" stroke="none" transform="matrix(.35683 0 0 .357 63.668 79.298)"/><path d="M215.866 286.484c-1.385 49.516.348 99.377 5.193 111.495 4.848 12.118 15.223 35.688 50.9 28.045 29.806-6.39 40.651-18.756 45.357-46.051 3.466-20.082 10.148-75.854 11.005-87.281M173.104 38.256S11.583-27.76 19.092 122.365c1.597 31.938 45.779 241.664 98.473 178.316 19.256-23.166 36.671-41.335 36.671-41.335M260.349 26.207c-5.591 1.753 89.848-34.889 144.087 34.417 19.159 24.484-3.043 124.519-56.153 203.329" style="stroke-width:12.3207" transform="matrix(.35683 0 0 .357 63.668 79.298)"/><path style="stroke-width:12.3207;stroke-linejoin:bevel" d="M348.282 263.953s3.461 17.036 53.764 6.653c22.04-4.552 8.776 12.774-13.577 23.155-18.345 8.514-59.474 10.696-60.146-1.069-1.729-30.355 21.647-21.133 19.96-28.739-1.525-6.85-11.979-13.573-18.894-30.338-6.037-14.633-82.796-126.849 21.287-110.183 3.813-.789-27.146-99.002-124.553-100.599-97.385-1.597-94.19 119.762-94.19 119.762" transform="matrix(.35683 0 0 .357 63.668 79.298)"/><path d="M188.604 274.334c-13.577 15.166-9.584 17.829-36.723 23.417-27.459 5.66-11.326 15.733-.797 18.365 12.768 3.195 42.307 7.718 62.266-20.229 6.078-8.509-.036-22.086-8.385-25.547-4.034-1.671-9.428-3.765-16.361 3.994z" style="stroke-width:12.3207" transform="matrix(.35683 0 0 .357 63.668 79.298)"/><path d="M187.715 274.069c-1.368-8.917 2.93-19.528 7.536-31.942 6.922-18.626 22.893-37.255 10.117-96.339-9.523-44.029-73.396-9.163-73.436-3.193-.039 5.968 2.889 30.26-1.067 58.548-5.162 36.913 23.488 68.132 56.479 64.938" style="stroke-width:12.3207" transform="matrix(.35683 0 0 .357 63.668 79.298)"/><path style="fill:#fff;stroke-width:4.10687;stroke-linecap:butt;stroke-linejoin:miter" d="M172.517 141.7c-.288 2.039 3.733 7.48 8.976 8.207 5.234.73 9.714-3.522 9.998-5.559.284-2.039-3.732-4.285-8.977-5.015-5.237-.731-9.719.333-9.996 2.367z" transform="matrix(.35683 0 0 .357 63.668 79.298)"/><path style="fill:#fff;stroke-width:2.05344;stroke-linecap:butt;stroke-linejoin:miter" d="M331.941 137.543c.284 2.039-3.732 7.48-8.976 8.207-5.238.73-9.718-3.522-10.005-5.559-.277-2.039 3.74-4.285 8.979-5.015 5.239-.73 9.718.333 10.002 2.368z" transform="matrix(.35683 0 0 .357 63.668 79.298)"/><path d="M350.676 123.432c.863 15.994-3.445 26.888-3.988 43.914-.804 24.748 11.799 53.074-7.191 81.435" style="stroke-width:12.3207" transform="matrix(.35683 0 0 .357 63.668 79.298)"/></g></g><path d="M488.937 107.823h2.71c.259.086.646.258 1.162.516 1.205.603 2.109 1.55 2.711 2.84.43.775.645 2.582.645 5.421v15.361h9.423c6.196 0 9.466.043 9.81.129 2.668.516 4.303 2.022 4.905 4.518a9.42 9.42 0 0 1 .13 1.549c0 2.667-1.205 4.518-3.615 5.55-.43.258-.903.43-1.42.517-.344.086-3.614.129-9.81.129h-9.423v9.552c0 6.712-.215 10.455-.645 11.23-.602 1.29-1.506 2.237-2.71 2.84-1.205.602-2.367.817-3.486.645-.43-.086-.903-.215-1.42-.388-.774-.258-1.506-.731-2.194-1.42-.689-.688-1.162-1.42-1.42-2.194s-.387-4.432-.387-10.972v-9.293h-9.681l-9.552-.13-.516-.129c-2.84-.86-4.346-2.84-4.518-5.937 0-2.926 1.506-4.905 4.518-5.938l.516-.258h19.232v-9.294c0-6.54.13-10.197.388-10.972.258-.688.731-1.42 1.42-2.194.947-.86 2.022-1.42 3.227-1.678" style="font-style:normal;font-variant:normal;font-weight:400;font-stretch:normal;font-size:1000px;font-family:OCRA;-inkscape-font-specification:OCRA;fill:#000;fill-opacity:1;stroke:none;stroke-width:.12908px;stroke-linecap:butt;stroke-linejoin:miter;stroke-opacity:1" transform="translate(-175.303 20.5)"/><g style="stroke-width:.817692"><path fill="#ffa400" d="M344.592 276.957h-58.997v-30.291c0-24.191-19.685-43.876-43.876-43.876s-43.876 19.685-43.876 43.876v30.291h-58.997v-30.291c0-56.724 46.149-102.873 102.873-102.873 56.724 0 102.873 46.149 102.873 102.873z" style="stroke-width:.66862" transform="matrix(.32357 0 0 .32357 418.233 75.143)"/><path fill="#003a70" d="M368.389 276.957h-253.34c-10.816 0-19.665 8.85-19.665 19.665v187.406c0 10.816 8.849 19.666 19.665 19.666h253.34c10.816 0 19.665-8.85 19.665-19.666V296.622c0-10.816-8.849-19.665-19.665-19.665zm-113.83 123.044v25.393c0 7.087-5.749 12.837-12.837 12.837s-12.837-5.749-12.837-12.837v-25.389c-7.897-4.481-13.233-12.947-13.233-22.674 0-14.396 11.671-26.067 26.067-26.067s26.067 11.671 26.067 26.067c0 9.727-5.335 18.192-13.227 22.67z" style="stroke-width:.66862" transform="matrix(.32357 0 0 .32357 418.233 75.143)"/><path fill="#ffa400" d="M89.367 249.016H28.235c-9.911 0-17.948-8.036-17.948-17.948s8.036-17.948 17.948-17.948h61.132c9.911 0 17.948 8.036 17.948 17.948s-8.037 17.948-17.948 17.948zM132.43 152.854c-4.01 0-8.048-1.338-11.389-4.085l-48.356-39.761c-7.656-6.296-8.758-17.606-2.462-25.262 6.294-7.654 17.601-8.762 25.262-2.464l48.356 39.761c7.656 6.296 8.758 17.606 2.462 25.262-3.547 4.315-8.69 6.549-13.873 6.549zM241.718 110.588c-9.911 0-17.948-8.036-17.948-17.948V31.027c0-9.912 8.036-17.948 17.948-17.948 9.911 0 17.948 8.036 17.948 17.948V92.64c-.001 9.912-8.037 17.948-17.948 17.948z" style="stroke-width:.66862" transform="matrix(.32357 0 0 .32357 418.233 75.143)"/><g style="stroke-width:.817692"><path fill="#ffa400" d="M351.008 152.854c-5.186 0-10.326-2.233-13.873-6.55-6.296-7.656-5.194-18.966 2.462-25.262l48.356-39.761c7.664-6.299 18.971-5.19 25.262 2.464 6.296 7.656 5.194 18.966-2.462 25.262l-48.356 39.761a17.881 17.881 0 0 1-11.389 4.086z" style="stroke-width:.66862" transform="matrix(.32357 0 0 .32357 418.233 75.143)"/></g><path fill="#ffa400" d="M455.203 249.016H393.49c-9.911 0-17.948-8.036-17.948-17.948s8.036-17.948 17.948-17.948h61.713c9.911 0 17.948 8.036 17.948 17.948-.001 9.912-8.037 17.948-17.948 17.948z" style="stroke-width:.66862" transform="matrix(.32357 0 0 .32357 418.233 75.143)"/></g></svg>