<?xml version="1.0" encoding="UTF-8" standalone="no"?>
<!-- Created with Inkscape (http://www.inkscape.org/) -->

<svg
   width="2400"
   height="1200"
   viewBox="0 0 634.99999 317.50001"
   version="1.1"
   id="svg8"
   xmlns="http://www.w3.org/2000/svg"
   xmlns:svg="http://www.w3.org/2000/svg"
   xmlns:rdf="http://www.w3.org/1999/02/22-rdf-syntax-ns#"
   xmlns:cc="http://creativecommons.org/ns#"
   xmlns:dc="http://purl.org/dc/elements/1.1/">
  <defs
     id="defs2">
    <linearGradient
       x1="0%"
       y1="100%"
       x2="100%"
       y2="0%"
       id="linearGradient-1">
      <stop
         stop-color="#1B660F"
         offset="0%"
         id="stop1342" />
      <stop
         stop-color="#6CAE3E"
         offset="100%"
         id="stop1344" />
    </linearGradient>
    <linearGradient
       x1="0%"
       y1="100%"
       x2="100%"
       y2="0%"
       id="linearGradient-1-3">
      <stop
         stop-color="#4D27A8"
         offset="0%"
         id="stop1593" />
      <stop
         stop-color="#A166FF"
         offset="100%"
         id="stop1595" />
    </linearGradient>
  </defs>
  <metadata
     id="metadata5">
    <rdf:RDF>
      <cc:Work
         rdf:about="">
        <dc:format>image/svg+xml</dc:format>
        <dc:type
           rdf:resource="http://purl.org/dc/dcmitype/StillImage" />
      </cc:Work>
    </rdf:RDF>
  </metadata>
  <g
     id="layer1"
     transform="translate(0,20.50002)">
    <rect
       style="fill:#ffffff;fill-opacity:1;stroke-width:0.264583"
       id="rect10"
       width="635"
       height="317.5"
       x="2.4999999e-06"
       y="-20.500019" />
  </g>
  <g
     id="layer2">
    <g
       id="g2652"
       transform="translate(-28.124896)">
      <g
         id="Icon-Service/48/Amazon-Simple-Storage-Service_48"
         transform="matrix(3.6079547,0,0,3.6079547,423.5095,72.158367)"
         fill="#ffffff"
         style="fill:#000000;fill-opacity:1;fill-rule:evenodd;stroke:none;stroke-width:0.00782224">
        <path
           d="m 39.7588,25.9482 0.234,-1.817 c 2.173,1.254 2.849,1.99 3.044,2.293 -0.324,0.061 -1.205,0.085 -3.278,-0.476 z m -17.259,-12.948 c -10.375,0 -17.118,-2.512 -17.5,-4.304 v -0.185 c 0.349,-1.119 6.14,-4.511 17.5,-4.511 11.34,0 17.132,3.381 17.5,4.505 v 0.111 c -0.276,1.83 -7.039,4.384 -17.5,4.384 z m 15.318,12.362 c -4.765,-1.565 -10.906,-4.383 -13.224,-5.474 -0.059,-1.102 -0.966,-1.982 -2.082,-1.982 -1.154,0 -2.094,0.939 -2.094,2.094 0,1.154 0.94,2.094 2.094,2.094 0.457,0 0.877,-0.152 1.221,-0.401 2.399,1.129 8.886,4.105 13.825,5.687 l -1.721,13.344 c -0.254,1.628 -4.918,3.276 -13.34,3.276 -8.425,0 -13.092,-1.648 -13.342,-3.249 l -3.72,-28.937 c 3.51,2.101 10.314,3.186 17.065,3.186 6.75,0 13.554,-1.085 17.065,-3.185 z m 4.182,-16.862 c 0,-3.069 -8.339,-6.5 -19.5,-6.5 -11.161,0 -19.5,3.431 -19.5,6.5 v 0.543 l 4.174,31.99 c 0.701,4.483 10.949,4.967 15.323,4.967 4.372,0 14.616,-0.484 15.321,-4.993 l 1.683,-13.06 c 1.277,0.332 2.311,0.509 3.115,0.508 0.99,0 1.657,-0.252 2.081,-0.758 0.35,-0.416 0.488,-0.941 0.388,-1.476 -0.228,-1.221 -1.682,-2.509 -4.715,-4.177 l -0.1,-0.055 1.73,-12.945 z"
           id="Amazon-Simple-Storage-Service-Icon_48_Squid"
           style="fill:#000000;fill-opacity:1;stroke-width:0.0733336" />
      </g>
      <path
         d="m 217.56355,199.36046 c -4.07213,0 -7.38373,-3.3116 -7.38373,-7.38371 0,-4.07213 3.3116,-7.38372 7.38373,-7.38372 4.07211,0 7.38371,3.31159 7.38371,7.38372 0,4.07211 -3.3116,7.38371 -7.38371,7.38371 z m 0,-22.15116 c -8.14426,0 -14.76745,6.6232 -14.76745,14.76745 0,8.14424 6.62319,14.76744 14.76745,14.76744 8.14423,0 14.76743,-6.6232 14.76743,-14.76744 0,-8.14425 -6.6232,-14.76745 -14.76743,-14.76745 z M 147.41819,158.75 c -4.07213,0 -7.38372,-3.31159 -7.38372,-7.38372 0,-4.07213 3.31159,-7.38372 7.38372,-7.38372 4.07213,0 7.38373,3.31159 7.38373,7.38372 0,4.07213 -3.3116,7.38372 -7.38373,7.38372 z m 0,-22.15117 c -8.14425,0 -14.76745,6.6232 -14.76745,14.76745 0,8.14424 6.6232,14.76743 14.76745,14.76743 8.14424,0 14.76744,-6.62319 14.76744,-14.76743 0,-8.14425 -6.6232,-14.76745 -14.76744,-14.76745 z m 84.503,76.14093 c -0.81591,-1.90868 -1.67241,-3.80261 -2.59907,-5.65962 l -6.60474,3.30422 c 1.01157,2.02683 1.93454,4.10903 2.80582,6.19863 -3.08641,2.20405 -6.32417,4.14597 -9.70222,5.81469 1.3143,-3.23038 2.45879,-6.51614 3.4925,-10.0714 l -7.08837,-2.06006 c -1.80901,6.20233 -3.94659,11.54444 -6.90378,17.27421 -6.74504,2.08591 -13.77803,3.20085 -20.98453,3.20085 -11.20481,0 -21.90382,-2.53261 -31.85707,-7.47232 -5.05046,-12.40835 -7.50555,-23.78297 -7.50555,-34.76626 0,-4.76988 0.83066,-8.72386 1.78685,-13.30178 0.23628,-1.12232 0.47256,-2.2631 0.70884,-3.4408 l -7.24712,-1.42506 c -0.22519,1.14816 -0.45778,2.25941 -0.68668,3.34851 -1.0005,4.77358 -1.94561,9.28503 -1.94561,14.81913 0,9.28503 1.60964,18.77312 4.85849,28.77806 -18.76205,-13.40145 -30.10344,-35.07269 -30.10344,-58.53076 0,-0.4098 0.0369,-0.83805 0.0443,-1.25154 6.01773,-1.33645 11.48538,-2.01945 17.87599,-2.1782 l -0.18459,-7.38003 c -6.0362,0.14764 -11.48169,0.76422 -17.13393,1.89023 3.38913,-27.32346 22.33207,-50.541564 48.58489,-59.309744 5.72238,2.94981 9.95694,5.55626 14.07337,8.67956 l 4.46345,-5.88481 c -2.57691,-1.94931 -5.20552,-3.71032 -8.11471,-5.45289 4.05367,-0.70513 8.18486,-1.10387 12.38251,-1.10387 9.34779,0 18.57745,1.82379 27.13148,5.3126 -1.87178,0.56854 -3.79892,1.19616 -5.92912,1.96407 l 2.51046,6.944384 c 5.14276,-1.857014 9.17427,-2.997794 13.46791,-3.806304 21.51616,12.995354 34.81055,36.350054 34.81055,61.576544 0,20.88117 -8.84201,40.30034 -24.40689,53.98976 z M 223.13086,89.523926 c -11.7475,-6.64167 -25.16371,-10.14893 -38.79406,-10.14893 -7.78244,0 -15.41721,1.11125 -22.6791,3.30422 -31.87553,9.48438 -54.59894,38.155374 -56.52977,71.256594 -0.12919,1.58382 -0.16613,3.19715 -0.16613,4.81419 0,29.32814 16.06697,56.14213 41.91738,69.97921 11.46323,6.14695 24.41796,9.3958 37.45762,9.3958 8.83093,0 17.4588,-1.43984 25.61043,-4.2715 8.29561,-2.79473 16.00791,-6.94069 22.92276,-12.31604 19.60009,-15.16617 30.84181,-38.052 30.84181,-62.78747 0,-28.67838 -15.55381,-55.20808 -40.58094,-69.226074 z m -17.07116,87.356804 -5.09845,5.34212 C 189.95581,171.72688 178.97251,164.8268 166.38328,160.50363 l 2.3997,-6.985 c 13.63035,4.68129 25.47754,12.10561 37.27672,23.3621 z m 0.22151,-55.55144 c 10.4775,15.97838 16.37709,33.5221 17.53265,52.14386 l -7.36896,0.45777 c -1.07801,-17.3259 -6.5715,-33.65868 -16.33648,-48.55534 z m -44.27648,16.36602 -6.19495,-4.02043 c 5.69655,-8.77186 10.58088,-14.58285 16.84596,-20.0468 l 4.85111,5.56732 c -5.71131,4.98033 -10.2043,10.34091 -15.50212,18.49991 z m 29.71578,-38.015074 c 4.07213,0 7.38372,3.311604 7.38372,7.383714 0,4.07212 -3.31159,7.38372 -7.38372,7.38372 -4.07211,0 -7.38371,-3.3116 -7.38371,-7.38372 0,-4.07211 3.3116,-7.383714 7.38371,-7.383714 z m 0,22.151164 c 8.14425,0 14.76745,-6.6232 14.76745,-14.76745 0,-8.144244 -6.6232,-14.767444 -14.76745,-14.767444 -8.14424,0 -14.76743,6.6232 -14.76743,14.767444 0,8.14425 6.62319,14.76745 14.76743,14.76745 z"
         id="Amazon-CloudFront_Icon_48_Squid"
         fill="#ffffff"
         style="fill:#000000;fill-opacity:1;fill-rule:evenodd;stroke:none;stroke-width:0.0282224" />
      <path
         id="text7752"
         d="m 346.22639,128.32292 h 2.71068 c 0.25812,0.0861 0.64536,0.25822 1.16172,0.51631 1.20471,0.60245 2.10828,1.54904 2.7107,2.83976 0.43021,0.77456 0.64535,2.58169 0.64541,5.42137 -6e-5,0.25823 -6e-5,2.19443 0,5.80862 v 9.55193 h 9.42284 c 6.1958,5e-5 9.46582,0.0432 9.81011,0.12907 2.66758,0.51638 4.3026,2.02233 4.90504,4.51783 0.086,0.51635 0.129,1.03269 0.12907,1.54896 -7e-5,2.66769 -1.20481,4.51784 -3.61423,5.55045 -0.43035,0.25821 -0.90364,0.43031 -1.41988,0.51632 -0.34429,0.0861 -3.61431,0.12912 -9.81011,0.12908 h -9.42284 v 9.55194 c -6e-5,6.7122 -0.2152,10.45553 -0.64541,11.22996 -0.60242,1.29084 -1.50599,2.23744 -2.7107,2.83977 -1.20478,0.60242 -2.36649,0.81753 -3.48515,0.64542 -0.43031,-0.086 -0.90362,-0.21511 -1.41989,-0.38723 -0.77452,-0.25817 -1.50597,-0.73145 -2.19435,-1.41991 -0.68848,-0.68839 -1.16178,-1.41984 -1.4199,-2.19435 -0.25818,-0.77447 -0.38727,-4.43173 -0.38724,-10.97182 v -9.29378 h -9.68102 l -9.55194,-0.12908 -0.5163,-0.12909 c -2.83979,-0.86048 -4.34573,-2.83971 -4.51782,-5.93768 -1e-5,-2.92577 1.50592,-4.90501 4.51782,-5.93769 l 0.5163,-0.25817 h 9.55194 9.68102 v -9.29377 c -3e-5,-6.54 0.12906,-10.19727 0.38724,-10.97181 0.25812,-0.68836 0.73142,-1.41982 1.4199,-2.19438 0.94653,-0.86046 2.02221,-1.41981 3.22699,-1.67803"
         style="font-style:normal;font-variant:normal;font-weight:normal;font-stretch:normal;font-size:1000px;font-family:OCRA;-inkscape-font-specification:OCRA;fill:#000000;fill-opacity:1;stroke:none;stroke-width:0.12908px;stroke-linecap:butt;stroke-linejoin:miter;stroke-opacity:1" />
    </g>
  </g>
</svg>
