<svg width="2400" height="1200" viewBox="0 0 635 317.5" xmlns="http://www.w3.org/2000/svg"><defs><clipPath clipPathUnits="userSpaceOnUse" id="a"><path style="fill:#e57000;fill-opacity:1;fill-rule:evenodd;stroke:none" transform="matrix(.7345 .67862 -.78497 .61953 0 0)" d="M-83-347.714h436.402v326.41H-83z"/></clipPath></defs><g style="display:inline"><path style="fill:#fff;fill-opacity:1;stroke-width:.264583" d="M0-20.5h635V297H0z" transform="translate(0 20.5)"/></g><g style="display:inline"><g style="fill:#000;stroke-width:.198399"><g style="font-style:normal;font-variant:normal;font-weight:400;font-stretch:normal;font-size:144px;line-height:125%;font-family:Helion;-inkscape-font-specification:Helion;letter-spacing:0;word-spacing:0;fill:#000;fill-opacity:1;stroke:none;stroke-width:.198399" clip-path="url(#a)" transform="matrix(-.3181 0 0 .3181 405.395 81.558)"><path d="M276.304 226.623 466.892 17.021C459.5 9.628 450.888 3.819 441.058-.405c-9.83-4.225-20.392-6.377-31.684-6.459-11.993.092-22.98 2.468-32.963 7.129-9.982 4.661-18.655 11.059-26.017 19.193l-74.09 80.915L202.7 19.458c-7.627-8.134-16.502-14.532-26.627-19.193-10.124-4.661-21.071-7.037-32.84-7.129-11.293.082-21.854 2.234-31.684 6.459-9.83 4.224-18.442 10.033-25.835 17.426l190.594 209.597" style="fill:#000;fill-opacity:1;stroke-width:.198399"/></g><g transform="matrix(.3181 0 0 -.3181 229.606 235.942)" clip-path="url(#a)" style="font-style:normal;font-variant:normal;font-weight:400;font-stretch:normal;font-size:144px;line-height:125%;font-family:Helion;-inkscape-font-specification:Helion;letter-spacing:0;word-spacing:0;fill:#000;fill-opacity:1;stroke:none;stroke-width:.198399"><path style="fill:#000;fill-opacity:1;stroke-width:.198399" d="M276.304 226.623 466.892 17.021C459.5 9.628 450.888 3.819 441.058-.405c-9.83-4.225-20.392-6.377-31.684-6.459-11.993.092-22.98 2.468-32.963 7.129-9.982 4.661-18.655 11.059-26.017 19.193l-74.09 80.915L202.7 19.458c-7.627-8.134-16.502-14.532-26.627-19.193-10.124-4.661-21.071-7.037-32.84-7.129-11.293.082-21.854 2.234-31.684 6.459-9.83 4.224-18.442 10.033-25.835 17.426l190.594 209.597"/></g><path style="font-style:normal;font-variant:normal;font-weight:400;font-stretch:normal;font-size:1059.61px;line-height:125%;font-family:Helion;-inkscape-font-specification:Helion;letter-spacing:0;word-spacing:0;fill:#e57000;fill-opacity:1;stroke:none;stroke-width:.198399" d="m1160.63 988.205-143.267-157.112c-8.333-8.887-18.03-15.877-29.093-20.97-11.063-5.093-23.024-7.69-35.884-7.79-12.338.09-23.877 2.442-34.618 7.057-10.74 4.616-20.15 10.963-28.227 19.04l145.397 159.778-145.397 159.777c8.077 8.333 17.486 14.835 28.227 19.507 10.74 4.67 22.28 7.045 34.618 7.123 12.894-.1 24.921-2.696 36.084-7.79 11.162-5.092 20.793-12.082 28.893-20.97l143.266-157.65M1192.62 988.205l143.267-157.112c8.333-8.887 18.03-15.877 29.093-20.97 11.063-5.093 23.024-7.69 35.883-7.79 12.339.09 23.878 2.442 34.619 7.057 10.74 4.616 20.15 10.963 28.227 19.04l-145.397 159.778 145.397 159.777c-8.077 8.333-17.486 14.835-28.227 19.507-10.74 4.67-22.28 7.045-34.618 7.123-12.894-.1-24.921-2.696-36.084-7.79-11.162-5.092-20.793-12.082-28.893-20.97l-143.266-157.65" transform="matrix(.31877 0 0 .31877 -57.572 -156.259)"/></g></g></svg>