<?xml version="1.0" encoding="UTF-8" standalone="no"?>
<!-- Created with Inkscape (http://www.inkscape.org/) -->

<svg
   xmlns:dc="http://purl.org/dc/elements/1.1/"
   xmlns:cc="http://creativecommons.org/ns#"
   xmlns:rdf="http://www.w3.org/1999/02/22-rdf-syntax-ns#"
   xmlns:svg="http://www.w3.org/2000/svg"
   xmlns="http://www.w3.org/2000/svg"
   xmlns:sodipodi="http://sodipodi.sourceforge.net/DTD/sodipodi-0.dtd"
   xmlns:inkscape="http://www.inkscape.org/namespaces/inkscape"
   width="2400"
   height="1200"
   viewBox="0 0 634.99999 317.50001"
   version="1.1"
   id="svg8"
   inkscape:version="0.92.5 (2060ec1f9f, 2020-04-08)"
   sodipodi:docname="featured_rclone_logo.svg"
   inkscape:export-filename="/home/logan/Downloads/featured_images/completed_files_png/featured_rclone_logo.png"
   inkscape:export-xdpi="96"
   inkscape:export-ydpi="96">
  <defs
     id="defs2">
    <clipPath
       id="_clip1">
      <rect
         x="14"
         y="579"
         width="257"
         height="84"
         id="rect4" />
    </clipPath>
    <clipPath
       id="clipPath110">
      <rect
         x="14"
         y="579"
         width="257"
         height="84"
         id="rect108" />
    </clipPath>
  </defs>
  <sodipodi:namedview
     id="base"
     pagecolor="#ffffff"
     bordercolor="#666666"
     borderopacity="1.0"
     inkscape:pageopacity="0.0"
     inkscape:pageshadow="2"
     inkscape:zoom="0.35"
     inkscape:cx="1014.5722"
     inkscape:cy="609.47716"
     inkscape:document-units="px"
     inkscape:current-layer="layer2"
     showgrid="false"
     units="px"
     inkscape:snap-page="true"
     inkscape:window-width="1920"
     inkscape:window-height="1015"
     inkscape:window-x="0"
     inkscape:window-y="0"
     inkscape:window-maximized="1"
     inkscape:snap-object-midpoints="true" />
  <metadata
     id="metadata5">
    <rdf:RDF>
      <cc:Work
         rdf:about="">
        <dc:format>image/svg+xml</dc:format>
        <dc:type
           rdf:resource="http://purl.org/dc/dcmitype/StillImage" />
        <dc:title />
      </cc:Work>
    </rdf:RDF>
  </metadata>
  <g
     inkscape:label="Background"
     inkscape:groupmode="layer"
     id="layer1"
     transform="translate(0,20.50002)">
    <rect
       style="fill:#000000;stroke-width:0.26458335"
       id="rect10"
       width="635"
       height="317.5"
       x="0"
       y="-20.500019" />
  </g>
  <g
     inkscape:groupmode="layer"
     id="layer2"
     inkscape:label="Layer1">
    <g
       id="g871"
       transform="matrix(1.3517319,0,0,1.3517319,154.32806,-54.742767)">
      <g
         transform="matrix(1.7756768,0,0,1.7756761,177.57737,206.94764)"
         id="g9"
         style="clip-rule:evenodd;fill-rule:evenodd;stroke-linejoin:round;stroke-miterlimit:1.41420996">
        <path
           inkscape:connector-curvature="0"
           d="m 0,-26.524 c -2.206,-3.821 -5.416,-6.701 -9.105,-8.499 -0.472,2.52 -1.365,5.004 -2.718,7.348 l -2.135,3.705 c 1.422,0.79 2.66,1.953 3.533,3.465 2.565,4.442 1.042,10.124 -3.401,12.689 -4.442,2.565 -10.124,1.043 -12.689,-3.4 l -4.308,-7.45 h -6.952 l -3.476,6.02 4.311,7.449 C -31.05,5.004 -18.007,8.499 -7.806,2.609 2.394,-3.28 5.889,-16.323 0,-26.524"
           style="fill:#70caf2;fill-rule:nonzero"
           id="path7" />
      </g>
      <g
         transform="matrix(1.7756768,0,0,1.7756761,139.64182,158.81737)"
         id="g13"
         style="clip-rule:evenodd;fill-rule:evenodd;stroke-linejoin:round;stroke-miterlimit:1.41420996">
        <path
           inkscape:connector-curvature="0"
           d="m 0,-30.703 c -10.201,-5.889 -23.244,-2.394 -29.133,7.806 -2.207,3.821 -3.095,8.041 -2.808,12.135 2.418,-0.851 5.016,-1.32 7.723,-1.32 l 4.275,-0.004 c -0.027,-1.626 0.362,-3.28 1.234,-4.791 2.566,-4.443 8.247,-5.966 12.69,-3.4 4.443,2.565 5.965,8.246 3.4,12.689 L -6.916,-0.132 -3.441,5.889 3.511,5.888 7.806,-1.57 C 13.696,-11.77 10.201,-24.814 0,-30.703"
           style="fill:#b4e3f9;fill-rule:nonzero"
           id="path11" />
      </g>
      <g
         transform="matrix(1.7756768,0,0,1.7756761,108.90754,158.06074)"
         id="g17"
         style="clip-rule:evenodd;fill-rule:evenodd;stroke-linejoin:round;stroke-miterlimit:1.41420996">
        <path
           inkscape:connector-curvature="0"
           d="m 0,23.335 -2.142,-3.701 c -1.395,0.837 -3.021,1.327 -4.766,1.327 -5.131,0 -9.29,-4.159 -9.29,-9.29 0,-5.13 4.159,-9.289 9.29,-9.289 l 8.605,-0.006 3.477,-6.02 -3.477,-6.02 -8.606,0.008 c -11.779,0 -21.327,9.549 -21.327,21.327 0,11.779 9.548,21.328 21.327,21.328 4.411,0 8.508,-1.34 11.909,-3.633 C 3.054,27.697 1.353,25.678 0,23.335"
           style="fill:#3f79ad;fill-rule:nonzero"
           id="path15" />
      </g>
    </g>
  </g>
</svg>
