<svg xmlns="http://www.w3.org/2000/svg" width="2400" height="1200" viewBox="0 0 635 317.5"><path style="fill:#000;stroke-width:.26458335" d="M0-20.5h635V297H0z" transform="translate(0 20.5)"/><path d="m389.82 104.951 7.056-7.055c-12.348-12.348-28.223-18.521-44.098-18.521s-31.75 6.173-44.097 18.52l7.056 7.056c10.583-9.701 23.812-14.993 37.041-14.993 13.23 0 26.459 5.292 37.042 14.993zm-7.938 7.056c-7.937-7.938-18.52-12.347-29.104-12.347-10.583 0-21.166 4.41-29.104 12.347l7.056 7.055c6.173-6.173 14.11-8.819 22.048-8.819 7.937 0 15.875 2.647 22.049 8.82zm-2.646 55.562h-17.64v-35.277h-17.638v35.277h-88.195c-9.701 0-17.639 7.938-17.639 17.64v35.277c0 9.701 7.938 17.639 17.64 17.639h123.471c9.702 0 17.64-7.938 17.64-17.639v-35.278c0-9.701-7.938-17.639-17.64-17.639zm-97.014 44.098h-17.64v-17.64h17.64zm30.868 0h-17.64v-17.64h17.64zm30.868 0h-17.64v-17.64h17.64z" style="fill:#fff;fill-opacity:1;stroke-width:8.81944466"/></svg>