<svg xmlns="http://www.w3.org/2000/svg" width="2400" height="1200" viewBox="0 0 635 317.5" version="1.1" id="svg8"><defs id="defs2"><style id="style187">.cls-1{fill:#fff}</style></defs><g id="layer1" transform="translate(0 20.5)"><path style="fill:#000;stroke-width:.26458335" id="rect10" d="M0-20.5h635V297H0z"/></g><g id="layer2"><g id="g110" transform="matrix(1.10545 0 0 1.10545 -14.136 -2.097)"><path id="path83" d="M186.708 172.895a3.43 3.43 0 0 1-2.87-1.219l-32.583-40.578v41.39h-7.43v-50.966a3.768 3.768 0 0 1 3.801-3.653 3.462 3.462 0 0 1 2.95 1.3l32.5 40.497v-41.228h7.43v50.885a3.646 3.646 0 0 1-3.798 3.572" class="cls-1" style="fill:#fff"/><path id="path85" d="M248.165 173.381a67.665 67.665 0 0 1-22.455-4.057l1.773-5.844a73.169 73.169 0 0 0 20.682 3.49c9.37 0 14.266-3.165 14.266-7.628 0-4.059-3.8-6.087-16.884-11.931-13.083-5.844-18.232-9.576-18.232-16.882 0-9.168 7.429-12.904 21.44-12.904a87.83 87.83 0 0 1 19.924 2.6l-1.182 6.004a89.362 89.362 0 0 0-18.572-2.191c-9.875 0-13.928 1.784-13.928 6.25 0 4.381 2.954 6.247 16.798 12.335 14.604 6.412 18.318 9.659 18.318 16.311 0 9.66-9.626 14.447-21.948 14.447" class="cls-1" style="fill:#fff"/><path id="rect87" class="cls-1" style="fill:#fff" d="M305.315 118.437h7.68v54.051h-7.68z"/><path id="path89" d="M378.337 147.979h-19.08v18.343h19.08c6.5 0 10.466-3.896 10.466-9.334 0-5.113-4.134-9.01-10.466-9.01m-3.717-23.372h-15.363v17.287h15.363c6.163 0 10.638-3.734 10.638-8.928 0-5.113-3.883-8.36-10.638-8.36m3.8 47.884h-22.96a3.734 3.734 0 0 1-3.882-3.653v-46.744a3.785 3.785 0 0 1 3.883-3.653h18.993c11.648 0 18.57 5.437 18.57 13.96 0 4.623-2.87 8.926-7.262 11.442 6.503 1.866 10.89 6.979 10.89 13.147 0 8.602-7.51 15.501-18.231 15.501" class="cls-1" style="fill:#fff"/><path id="path91" d="M433.543 172.49a3.765 3.765 0 0 1-3.796-3.654V118.44h7.68v47.477h30.558v6.573h-34.442z" class="cls-1" style="fill:#fff"/><path id="path93" d="M520.349 173.381c-15.702 0-25.157-5.519-25.157-16.636 0-5.275 3.126-10.307 9.202-12.66-4.895-2.922-7.426-7.062-7.426-11.607 0-10.063 8.19-14.853 23.55-14.853a95.987 95.987 0 0 1 18.488 1.868l-.845 6.005a121.218 121.218 0 0 0-18.234-1.54c-9.961 0-15.28 2.595-15.28 8.845 0 4.95 4.898 8.847 11.399 8.847h13.166a3.128 3.128 0 1 1 0 6.248h-14.178c-7.43 0-12.156 3.489-12.156 8.847 0 7.873 7.681 10.226 17.304 10.226a89.052 89.052 0 0 0 18.063-1.947l1.099 5.923a78.75 78.75 0 0 1-18.995 2.434" class="cls-1" style="fill:#fff"/><path id="path95" d="m86.66 128.575 13.454 31.922-20.317-15.388zm23.901 39.277-20.691-47.88a3.345 3.345 0 0 0-3.21-2.11 3.453 3.453 0 0 0-3.29 2.11l-22.714 52.517h7.769l8.992-21.651 26.83 20.838a4.446 4.446 0 0 0 2.87 1.219 3.646 3.646 0 0 0 3.799-3.57 4.624 4.624 0 0 0-.355-1.473" class="cls-1" style="fill:#fff"/></g></g></svg>