<?xml version="1.0" encoding="UTF-8" standalone="no"?>
<!-- Created with Inkscape (http://www.inkscape.org/) -->

<svg
   xmlns:dc="http://purl.org/dc/elements/1.1/"
   xmlns:cc="http://creativecommons.org/ns#"
   xmlns:rdf="http://www.w3.org/1999/02/22-rdf-syntax-ns#"
   xmlns:svg="http://www.w3.org/2000/svg"
   xmlns="http://www.w3.org/2000/svg"
   xmlns:sodipodi="http://sodipodi.sourceforge.net/DTD/sodipodi-0.dtd"
   xmlns:inkscape="http://www.inkscape.org/namespaces/inkscape"
   width="2400"
   height="1200"
   viewBox="0 0 634.99999 317.50001"
   version="1.1"
   id="svg8"
   inkscape:version="0.92.5 (2060ec1f9f, 2020-04-08)"
   sodipodi:docname="featured_generic_lock_no_white.svg"
   inkscape:export-filename="/home/logan/Downloads/featured_images/completed_files_png/featured_generic_lock_no_white.png"
   inkscape:export-xdpi="96"
   inkscape:export-ydpi="96">
  <defs
     id="defs2" />
  <sodipodi:namedview
     id="base"
     pagecolor="#ffffff"
     bordercolor="#666666"
     borderopacity="1.0"
     inkscape:pageopacity="0.0"
     inkscape:pageshadow="2"
     inkscape:zoom="0.35"
     inkscape:cx="608.90684"
     inkscape:cy="697.29791"
     inkscape:document-units="px"
     inkscape:current-layer="layer2"
     showgrid="false"
     units="px"
     inkscape:snap-page="true"
     inkscape:window-width="1920"
     inkscape:window-height="1015"
     inkscape:window-x="0"
     inkscape:window-y="0"
     inkscape:window-maximized="1"
     inkscape:snap-object-midpoints="true" />
  <metadata
     id="metadata5">
    <rdf:RDF>
      <cc:Work
         rdf:about="">
        <dc:format>image/svg+xml</dc:format>
        <dc:type
           rdf:resource="http://purl.org/dc/dcmitype/StillImage" />
        <dc:title />
      </cc:Work>
    </rdf:RDF>
  </metadata>
  <g
     inkscape:label="Background"
     inkscape:groupmode="layer"
     id="layer1"
     transform="translate(0,20.50002)">
    <rect
       style="fill:#000000;stroke-width:0.26458335"
       id="rect10"
       width="635"
       height="317.5"
       x="0"
       y="-20.500019" />
  </g>
  <g
     inkscape:groupmode="layer"
     id="layer2"
     inkscape:label="Layer1">
    <path
       transform="translate(0,20.50002)"
       inkscape:connector-curvature="0"
       d="M 382.44255,208.82006 261.36099,87.738503 l -8.80355,8.803278 14.72031,14.720309 c -4.47377,2.45452 -7.50429,7.14348 -7.50429,12.55542 v 72.15859 c 0,7.93738 6.49414,14.4315 14.43151,14.4315 h 86.59006 c 1.66089,0 3.24733,-0.35999 4.76258,-0.86454 l 8.08166,8.08192 z M 295.13112,94.954255 c 0,-12.339157 10.02999,-22.369144 22.36888,-22.369144 12.33914,0 22.36914,10.029987 22.36914,22.369144 v 14.431775 h -39.25407 l 74.61172,74.61173 v -60.18025 c 0,-7.93737 -6.49411,-14.43148 -14.43176,-14.43148 h -7.21575 V 94.954255 c 0,-19.915718 -16.16358,-36.079278 -36.07928,-36.079278 -18.47246,0 -33.48131,13.926673 -35.6462,31.749773 l 13.27732,13.27705 z"
       id="path4"
       style="fill:#ffffff;fill-opacity:1;stroke-width:7.21583939" />
  </g>
</svg>
