<svg xmlns="http://www.w3.org/2000/svg" width="2400" height="1200" viewBox="0 0 635 317.5"><path style="fill:#000;stroke-width:.26458335" d="M0-20.5h635V297H0z" transform="translate(0 20.5)"/><g style="clip-rule:evenodd;fill-rule:evenodd;stroke-linejoin:round;stroke-miterlimit:1.41420996"><path d="M0-26.524a21.222 21.222 0 0 0-9.105-8.499 23.22 23.22 0 0 1-2.718 7.348l-2.135 3.705a9.237 9.237 0 0 1 3.533 3.465c2.565 4.442 1.042 10.124-3.401 12.689a9.29 9.29 0 0 1-12.689-3.4l-4.308-7.45h-6.952l-3.476 6.02 4.311 7.449C-31.05 5.004-18.007 8.499-7.806 2.609 2.394-3.28 5.889-16.323 0-26.524" style="fill:#70caf2;fill-rule:nonzero" transform="matrix(2.40024 0 0 2.40024 394.365 224.995)"/></g><g style="clip-rule:evenodd;fill-rule:evenodd;stroke-linejoin:round;stroke-miterlimit:1.41420996"><path d="M0-30.703c-10.201-5.889-23.244-2.394-29.133 7.806a21.218 21.218 0 0 0-2.808 12.135 23.218 23.218 0 0 1 7.723-1.32l4.275-.004a9.239 9.239 0 0 1 1.234-4.791c2.566-4.443 8.247-5.966 12.69-3.4a9.289 9.289 0 0 1 3.4 12.689L-6.916-.132l3.475 6.021 6.952-.001L7.806-1.57c5.89-10.2 2.395-23.244-7.806-29.133" style="fill:#b4e3f9;fill-rule:nonzero" transform="matrix(2.40024 0 0 2.40024 343.086 159.936)"/></g><g style="clip-rule:evenodd;fill-rule:evenodd;stroke-linejoin:round;stroke-miterlimit:1.41420996"><path d="m0 23.335-2.142-3.701a9.23 9.23 0 0 1-4.766 1.327 9.29 9.29 0 1 1 0-18.579l8.605-.006 3.477-6.02-3.477-6.02-8.606.008c-11.779 0-21.327 9.549-21.327 21.327 0 11.779 9.548 21.328 21.327 21.328A21.23 21.23 0 0 0 5 29.366a23.234 23.234 0 0 1-5-6.031" style="fill:#3f79ad;fill-rule:nonzero" transform="matrix(2.40024 0 0 2.40024 301.542 158.913)"/></g></svg>