<?xml version="1.0" encoding="UTF-8" standalone="no"?>
<svg
   xmlns:dc="http://purl.org/dc/elements/1.1/"
   xmlns:cc="http://creativecommons.org/ns#"
   xmlns:rdf="http://www.w3.org/1999/02/22-rdf-syntax-ns#"
   xmlns:svg="http://www.w3.org/2000/svg"
   xmlns="http://www.w3.org/2000/svg"
   xmlns:sodipodi="http://sodipodi.sourceforge.net/DTD/sodipodi-0.dtd"
   xmlns:inkscape="http://www.inkscape.org/namespaces/inkscape"
   width="2400"
   height="1200"
   viewBox="0 0 634.99999 317.50001"
   version="1.1"
   id="svg8"
   inkscape:version="1.0.2 (e86c870879, 2021-01-15)"
   sodipodi:docname="featured_hugo_logo.svg">
  <defs
     id="defs2" />
  <sodipodi:namedview
     id="base"
     pagecolor="#ffffff"
     bordercolor="#666666"
     borderopacity="1.0"
     inkscape:pageopacity="0.0"
     inkscape:pageshadow="2"
     inkscape:zoom="0.24748737"
     inkscape:cx="1636.2979"
     inkscape:cy="895.39207"
     inkscape:document-units="px"
     inkscape:current-layer="layer2"
     showgrid="false"
     units="px"
     inkscape:snap-page="true"
     inkscape:window-width="2560"
     inkscape:window-height="1375"
     inkscape:window-x="0"
     inkscape:window-y="0"
     inkscape:window-maximized="1"
     inkscape:snap-object-midpoints="true"
     inkscape:document-rotation="0" />
  <metadata
     id="metadata5">
    <rdf:RDF>
      <cc:Work
         rdf:about="">
        <dc:format>image/svg+xml</dc:format>
        <dc:type
           rdf:resource="http://purl.org/dc/dcmitype/StillImage" />
        <dc:title />
      </cc:Work>
    </rdf:RDF>
  </metadata>
  <g
     inkscape:label="Background"
     inkscape:groupmode="layer"
     id="layer1"
     transform="translate(0,20.50002)">
    <rect
       style="fill:#ffffff;fill-opacity:1;stroke-width:0.264583"
       id="rect10"
       width="635"
       height="317.5"
       x="2.4999999e-06"
       y="-20.500019" />
  </g>
  <g
     inkscape:groupmode="layer"
     id="layer2"
     inkscape:label="Layer1"
     style="display:inline">
    <g
       style="fill-rule:evenodd;stroke-width:19.7841"
       id="g957"
       transform="matrix(0.35821227,0,0,0.363985,49.98887,87.515924)">
      <path
         fill="#ebb951"
         stroke="#fcd804"
         d="m 1345.211,24.704 112.262,64.305 a 43,43 0 0 1 21.627,37.312 v 142.237 a 40,40 0 0 1 -20.702,35.037 l -120.886,66.584 a 42,42 0 0 1 -41.216,-0.389 l -106.242,-61.155 a 57,57 0 0 1 -28.564,-49.4 V 138.71 a 64,64 0 0 1 31.172,-54.939 l 98.01,-58.564 a 54,54 0 0 1 54.54,-0.503 z"
         id="path934"
         style="stroke-width:12.6539" />
      <path
         fill="#33ba91"
         stroke="#00a88a"
         d="m 958.07,22.82 117.31,66.78 a 41,41 0 0 1 20.72,35.64 v 139.5 A 45,45 0 0 1 1073,304.06 L 955.68,369.4 a 44,44 0 0 1 -43.54,-0.41 l -105.82,-61.6 a 56,56 0 0 1 -27.83,-48.4 V 140.07 a 68,68 0 0 1 33.23,-58.44 l 98.06,-58.35 a 48,48 0 0 1 48.3,-0.46 z"
         id="path936"
         style="stroke-width:12.6539" />
      <path
         fill="#0594cb"
         stroke="#0083c0"
         d="m 575.26,20.97 117.23,68.9 a 40,40 0 0 1 19.73,34.27 l 0.73,138.67 a 48,48 0 0 1 -24.64,42.2 L 573.18,369.12 A 45,45 0 0 1 528.65,368.7 L 422.82,307.1 A 55,55 0 0 1 395.49,259.57 V 136.52 a 63,63 0 0 1 29.87,-53.59 l 99.3,-61.4 a 49,49 0 0 1 50.6,-0.56 z"
         id="path938"
         style="stroke-width:12.6539" />
      <path
         fill="#ff4088"
         stroke="#c9177e"
         d="m 195.81,24.13 114.41,66.54 a 44,44 0 0 1 21.88,38.04 v 136.43 a 48,48 0 0 1 -24.45,41.82 L 194.1,370.9 a 49,49 0 0 1 -48.48,-0.23 L 41.05,310.48 A 53,53 0 0 1 14.49,264.55 V 135.08 a 55,55 0 0 1 26.1,-46.8 l 102.8,-63.46 a 51,51 0 0 1 52.42,-0.69 z"
         id="path940"
         style="stroke-width:12.6539" />
      <path
         fill="#ffffff"
         d="m 1320.72,89.15 c 58.79,0 106.52,47.73 106.52,106.51 0,58.8 -47.73,106.52 -106.52,106.52 -58.78,0 -106.52,-47.73 -106.52,-106.52 0,-58.78 47.74,-106.51 106.52,-106.51 z m 0,39.57 c 36.95,0 66.94,30 66.94,66.94 a 66.97,66.97 0 0 1 -66.94,66.94 c -36.95,0 -66.94,-29.99 -66.94,-66.94 a 66.97,66.97 0 0 1 66.93,-66.94 z m -283.8,65.31 c 0,47.18 -8.94,60.93 -26.81,80.58 -17.87,19.65 -41.57,27.57 -71.1,27.57 -27,0 -48.75,-9.58 -67.61,-26.23 -20.88,-18.45 -36.08,-47.04 -36.08,-78.95 0,-31.37 11.72,-58.48 32.49,-78.67 18.22,-17.67 45.34,-29.18 73.3,-29.18 33.77,0 68.83,15.98 90.44,47.53 L 999.82,163.5 C 986.37,138.47 966.88,130.04 939,129.24 c -30.83,-0.88 -64.77,28.53 -62.25,67.75 1.4,21.94 11.65,59.65 60.96,66.57 25.9,3.63 55.36,-24.02 55.36,-39.04 H 944.4 v -37.5 h 92.5 V 194 Z M 474.32,99.38 h 42.29 v 112.17 c 0,17.8 0.49,29.33 1.47,34.61 1.69,8.48 4.81,14.37 11.17,19.5 6.37,5.13 13.8,6.59 24.84,6.59 11.2,0 14.96,-1.74 20.66,-6.6 5.69,-4.85 9.12,-9.46 10.28,-16.53 1.15,-7.07 3.07,-18.8 3.07,-35.18 V 99.38 h 42.28 v 108.78 c 0,24.86 -1.07,42.43 -3.21,52.69 -2.14,10.27 -6.08,18.93 -11.82,26 -5.74,7.06 -13.42,12.69 -23.03,16.88 -9.62,4.19 -22.16,6.28 -37.65,6.28 -18.7,0 -32.87,-2.28 -42.52,-6.85 -9.66,-4.57 -17.3,-10.5 -22.9,-17.8 -5.61,-7.3 -9.3,-14.95 -11.08,-22.96 -2.58,-11.86 -3.88,-29.38 -3.88,-52.55 V 99.38 Z M 93.91,299.92 V 92.7 h 43.35 v 75.48 h 71.92 V 92.7 h 43.48 v 207.22 h -43.48 v -90.61 h -71.92 v 90.61 z"
         id="path942"
         style="stroke-width:12.6539" />
    </g>
  </g>
</svg>
