<svg width="2400" height="1200" viewBox="0 0 635 317.5" xml:space="preserve" xmlns="http://www.w3.org/2000/svg"><g style="display:inline"><path style="fill:#fff;fill-opacity:1;stroke-width:.264583" d="M0-20.5h635V297H0z" transform="translate(0 20.5)"/></g><g style="display:inline"><path d="M317.5 79.375c-43.842 0-79.375 35.533-79.375 79.375s35.533 79.375 79.375 79.375 79.375-35.527 79.375-79.375-35.52-79.375-79.375-79.375zm-13.408 33.377-7.58-7.58 7.58-7.58 22.027 22.026-7.58 7.587-7.177-7.183-8.03 8.036-7.223-7.23 8.03-8.03zm-23.336-7.362 7.587 7.58-7.587 7.568-7.574-7.58zm-22.92 38.074-7.587-7.58 7.581-7.58 7.58 7.58zm15.101 15.366-7.739-7.74 7.58-7.58 7.588 7.58 7.818-7.818-7.428-7.409-7.574-7.6 7.58-7.58 15.016 15.009 7.56-7.568 7.025 7.025-7.805 7.812-22.741 22.747zm24.646 22.529a2.315 2.315 0 0 1-3.267 0l-10.451-10.438a2.315 2.315 0 0 1 0-3.268l44.106-44.112a2.315 2.315 0 0 1 3.274 0l10.431 10.437a2.315 2.315 0 0 1 0 3.268zm71.577 23.76c-1.587 1.64-3.043 3.392-5.027 4.63-2.15 1.35-6.29.992-8.07-.88-.84-.886-1.74-1.72-2.593-2.58-5.8-5.794-11.569-11.609-17.396-17.377-1.813-1.8-2.864-3.922-2.295-6.383.252-1.037.887-2.117 1.707-3.334-1.502-1.487-3.486-3.631-5.054-5.305a11.159 11.159 0 0 1-1.97-2.778c-1.56-3.3-.635-6.164 1.8-8.665 2.792-2.844 5.643-5.655 8.467-8.48l14.804-14.79c.297-.29.595-.555.86-.86.695-.86.695-1.712.05-2.58-.2-.264-.45-.497-.695-.74-2.64-2.638-5.272-5.271-7.911-7.89-.225-.25-.495-.463-.74-.703-.608-.542-1.555-.51-2.235-.025-.475.345-.913.76-1.468 1.23l-3.631-3.539c2.387-3.968 7.693-4.835 11.053-1.707a186.223 186.223 0 0 1 9.644 9.617 7.488 7.488 0 0 1-.225 10.293l-4.882 4.881-18.68 18.667a10.021 10.021 0 0 0-.562.595c-1.052 1.157-1.085 2.242.02 3.373 1.64 1.708 3.334 3.367 5.133 5.18 1.523-1.086 3.023-1.72 4.802-1.693 2.018.025 3.658.807 5.054 2.202 3.44 3.46 6.899 6.9 10.345 10.346 3.069 3.069 6.026 6.23 9.22 9.161 2.594 2.38 3.473 7.038.483 10.14z" style="stroke-width:.264583"/></g></svg>