<svg width="2400" height="1200" viewBox="0 0 635 317.5" xmlns="http://www.w3.org/2000/svg"><path style="fill:#fff;fill-opacity:1;stroke-width:.264583" d="M0-20.5h635V297H0z" transform="translate(0 20.5)"/><g style="fill:#000;fill-opacity:1;fill-rule:evenodd;stroke:none;stroke-width:.00782224"><path d="m39.759 25.948.234-1.817c2.173 1.254 2.849 1.99 3.044 2.293-.324.061-1.205.085-3.278-.476zM22.499 13C12.126 13 5.383 10.488 5 8.696v-.185c.35-1.119 6.14-4.51 17.5-4.51C33.84 4 39.633 7.38 40 8.504v.111C39.725 10.446 32.962 13 22.5 13zm15.319 12.362c-4.765-1.565-10.906-4.383-13.224-5.474a2.09 2.09 0 0 0-2.082-1.982A2.097 2.097 0 0 0 20.418 20c0 1.154.94 2.094 2.094 2.094.457 0 .877-.152 1.22-.4 2.4 1.128 8.887 4.104 13.826 5.686l-1.721 13.344C35.583 42.352 30.919 44 22.497 44c-8.425 0-13.092-1.648-13.342-3.249l-3.72-28.937C8.945 13.915 15.749 15 22.5 15c6.75 0 13.554-1.085 17.065-3.185zM42 8.5C42 5.431 33.66 2 22.5 2 11.339 2 3 5.431 3 8.5v.543l4.174 31.99C7.874 45.516 18.123 46 22.497 46c4.372 0 14.616-.484 15.32-4.993l1.684-13.06c1.277.332 2.31.51 3.115.508.99 0 1.657-.252 2.08-.758.35-.416.489-.94.389-1.476-.228-1.22-1.682-2.509-4.715-4.177l-.1-.055L42 9.044z" style="fill:#000;fill-opacity:1;stroke-width:.0733336" transform="matrix(3.60795 0 0 3.60795 395.385 72.158)" fill="#fff"/></g><path d="M217.564 199.36c-4.073 0-7.384-3.311-7.384-7.383s3.311-7.384 7.384-7.384c4.072 0 7.383 3.312 7.383 7.384 0 4.072-3.311 7.383-7.383 7.383zm0-22.15c-8.145 0-14.768 6.622-14.768 14.767 0 8.144 6.623 14.767 14.768 14.767 8.144 0 14.767-6.623 14.767-14.767 0-8.145-6.623-14.768-14.767-14.768zm-70.146-18.46c-4.072 0-7.384-3.312-7.384-7.384 0-4.072 3.312-7.383 7.384-7.383 4.072 0 7.384 3.311 7.384 7.383s-3.312 7.384-7.384 7.384zm0-22.151c-8.144 0-14.767 6.623-14.767 14.767 0 8.145 6.623 14.768 14.767 14.768 8.144 0 14.768-6.623 14.768-14.768 0-8.144-6.624-14.767-14.768-14.767zm84.503 76.14a105.816 105.816 0 0 0-2.599-5.659l-6.605 3.304c1.012 2.027 1.935 4.11 2.806 6.199a70.132 70.132 0 0 1-9.702 5.815 101.99 101.99 0 0 0 3.492-10.072l-7.088-2.06c-1.809 6.203-3.946 11.545-6.904 17.274-6.745 2.086-13.778 3.201-20.984 3.201-11.205 0-21.904-2.532-31.857-7.472-5.05-12.408-7.506-23.783-7.506-34.766 0-4.77.83-8.724 1.787-13.302.236-1.122.473-2.263.709-3.44l-7.247-1.426a251.25 251.25 0 0 1-.687 3.349c-1 4.773-1.946 9.285-1.946 14.819 0 9.285 1.61 18.773 4.859 28.778a71.834 71.834 0 0 1-30.103-58.531c0-.41.036-.838.044-1.252 6.018-1.336 11.485-2.019 17.876-2.178l-.185-7.38c-6.036.148-11.481.764-17.134 1.89 3.39-27.323 22.332-50.541 48.585-59.31 5.723 2.95 9.957 5.557 14.074 8.68l4.463-5.885a89.318 89.318 0 0 0-8.115-5.452c4.054-.706 8.185-1.104 12.383-1.104a71.91 71.91 0 0 1 27.131 5.312 120.268 120.268 0 0 0-5.929 1.964l2.51 6.945c5.143-1.857 9.175-2.998 13.469-3.807 21.516 12.996 34.81 36.35 34.81 61.577 0 20.881-8.842 40.3-24.407 53.99zm-8.79-123.215c-11.748-6.642-25.164-10.149-38.794-10.149-7.783 0-15.417 1.111-22.68 3.304-31.875 9.485-54.598 38.156-56.53 71.257-.128 1.584-.165 3.197-.165 4.814a79.25 79.25 0 0 0 41.917 69.98c11.463 6.146 24.418 9.395 37.458 9.395 8.83 0 17.459-1.44 25.61-4.271a77.668 77.668 0 0 0 22.923-12.317c19.6-15.166 30.842-38.052 30.842-62.787 0-28.678-15.554-55.208-40.581-69.226zM206.06 176.88l-5.099 5.342c-11.005-10.496-21.988-17.396-34.578-21.72l2.4-6.984c13.63 4.68 25.478 12.105 37.277 23.362zm.221-55.552c10.478 15.979 16.377 33.522 17.533 52.144l-7.37.458c-1.077-17.326-6.57-33.659-16.336-48.555zm-44.276 16.366-6.195-4.02c5.696-8.772 10.58-14.583 16.846-20.047l4.85 5.567c-5.71 4.98-10.203 10.341-15.501 18.5zM191.72 99.68c4.072 0 7.383 3.312 7.383 7.384 0 4.072-3.311 7.384-7.383 7.384-4.073 0-7.384-3.312-7.384-7.384 0-4.072 3.311-7.384 7.384-7.384zm0 22.151c8.144 0 14.767-6.623 14.767-14.767 0-8.144-6.623-14.767-14.767-14.767-8.145 0-14.768 6.623-14.768 14.767 0 8.144 6.623 14.767 14.768 14.767z" fill="#fff" style="fill:#000;fill-opacity:1;fill-rule:evenodd;stroke:none;stroke-width:.0282224" transform="translate(-28.125)"/><path d="M346.226 128.323h2.711c.258.086.645.258 1.162.516 1.205.603 2.108 1.55 2.71 2.84.43.775.646 2.582.646 5.421v15.361h9.423c6.196 0 9.466.043 9.81.129 2.667.516 4.302 2.022 4.905 4.518a9.42 9.42 0 0 1 .129 1.549c0 2.667-1.205 4.518-3.614 5.55-.43.258-.904.43-1.42.517-.344.086-3.614.129-9.81.129h-9.423v9.552c0 6.712-.215 10.455-.646 11.23-.602 1.29-1.506 2.237-2.71 2.84-1.205.602-2.367.817-3.485.645-.43-.086-.904-.215-1.42-.388-.775-.258-1.506-.731-2.195-1.42-.688-.688-1.161-1.42-1.42-2.194-.258-.774-.387-4.432-.387-10.972v-9.293h-9.68l-9.553-.13-.516-.129c-2.84-.86-4.346-2.84-4.518-5.937 0-2.926 1.506-4.905 4.518-5.938l.516-.258H341.192v-9.294c0-6.54.13-10.197.388-10.972.258-.688.73-1.42 1.42-2.194.946-.86 2.022-1.42 3.226-1.678" style="font-style:normal;font-variant:normal;font-weight:400;font-stretch:normal;font-size:1000px;font-family:OCRA;-inkscape-font-specification:OCRA;fill:#000;fill-opacity:1;stroke:none;stroke-width:.12908px;stroke-linecap:butt;stroke-linejoin:miter;stroke-opacity:1" transform="translate(-28.125)"/></svg>