<svg xmlns="http://www.w3.org/2000/svg" width="2400" height="1200" viewBox="0 0 635 317.5" version="1.1" id="svg8"><defs id="defs2"><style id="style74">.cls-1{fill:#231f20}</style></defs><g id="layer1" transform="translate(0 20.5)"><path style="fill:#000;stroke-width:.26458335" id="rect10" d="M0-20.5h635V297H0z"/></g><g id="layer2"><g id="g117" transform="matrix(1.02379 0 0 1.02379 167.203 79.377)" style="fill:#fff;fill-opacity:1"><path id="path78" transform="translate(-100.52 -46.81)" d="M218.1 110.73c1.28-8 4.25-18.59 10.81-27.7 8.9-12.14 23.66-22.63 52.73-22.55l2.91-13.61c-34.2-1.08-55.37 12.14-66.71 28.21-8.9 12.48-12.24 26-13.5 35.65z" class="cls-1" style="fill:#fff;fill-opacity:1"/><path id="path80" transform="translate(-100.52 -46.81)" d="M242.74 110.73a38.36 38.36 0 0 1 5.67-12.1c5-6.83 12.86-12.88 28.11-14.07l3-13.84c-20.94.53-34.68 9.31-42.13 20a54 54 0 0 0-8.65 20" class="cls-1" style="fill:#fff;fill-opacity:1"/><path id="line82" class="cls-1" style="fill:#fff;fill-opacity:1" d="M128.17 63.92h14.05"/><path id="path84" transform="translate(-100.52 -46.81)" d="m270.82 110.69 3.05-13.82c-8.49.65-13.4 4.45-16.75 9.33a25.1 25.1 0 0 0-2.67 4.49z" class="cls-1" style="fill:#fff;fill-opacity:1"/><path id="path86" transform="translate(-100.52 -46.81)" d="M362.26 110.69h-14.68l3.12-13.82s11.3 2.54 11.56 13.82z" class="cls-1" style="fill:#fff;fill-opacity:1"/><path id="path88" transform="translate(-100.52 -46.81)" d="M133.67 96.94 118 170.74c-2.74 13 1.15 18.73 11.1 18.73s16.3-5.77 19-18.73l15.71-73.8h16.43l-15.44 72.51c-5.05 23.77-18.73 32.42-38.33 32.42-19.75 0-29.69-8.65-24.65-32.42l15.43-72.51z" class="cls-1" style="fill:#fff;fill-opacity:1"/><path id="path90" transform="translate(-100.52 -46.81)" d="M186.83 122.31h14.7l-1.89 9.08h.44a28.25 28.25 0 0 1 22.21-11.09c11.81 0 18.15 5.33 14.84 21l-12.4 58.52h-15.57l11.25-53.19c2.15-10.08 0-14-7.78-14-6.34 0-13.4 5-15.57 15.14l-11.1 52h-15.57z" class="cls-1" style="fill:#fff;fill-opacity:1"/><path id="path92" transform="translate(-100.52 -46.81)" d="M253 122.31h15.56l-16.42 77.55h-15.61z" class="cls-1" style="fill:#fff;fill-opacity:1"/><path id="path94" transform="translate(-100.52 -46.81)" d="M286.15 96.94h52.53l-3 13.84h-36.13l-6.05 28.54h36.17l-2.87 13.83h-36.18l-9.95 46.71h-16.43z" class="cls-1" style="fill:#fff;fill-opacity:1"/><path id="path96" transform="translate(-100.52 -46.81)" d="M345.25 122.31h15.57l-16.43 77.55h-15.56z" class="cls-1" style="fill:#fff;fill-opacity:1"/><path id="path98" transform="translate(-100.52 -46.81)" d="M383.58 118.48a10.77 10.77 0 1 1 10.54-10.77 10.37 10.37 0 0 1-10.54 10.77zm0-19.67c-4.66 0-8.29 3.66-8.29 8.9 0 4.9 3.17 8.9 8.29 8.9 4.61 0 8.24-3.63 8.24-8.9 0-5.27-3.63-8.9-8.24-8.9zm-2.13 15.06h-2V102H384c2.88 0 4.35 1 4.35 3.43 0 2.16-1.32 3.05-3.11 3.25l3.34 5.24h-2.21l-3.08-5.09h-1.85zm2.19-6.76c1.47 0 2.76-.15 2.76-1.87 0-1.44-1.41-1.62-2.59-1.62h-2.36v3.49z" class="cls-1" style="fill:#fff;fill-opacity:1"/></g></g></svg>