<svg xmlns="http://www.w3.org/2000/svg" width="2400" height="1200" viewBox="0 0 635 317.5"><path style="fill:#000;stroke-width:.26458335" d="M0-20.5h635V297H0z" transform="translate(0 20.5)"/><path transform="translate(0 20.5)" d="M341.312 58.875h-71.437a15.768 15.768 0 0 0-14.605 9.684l-23.971 55.96a15.683 15.683 0 0 0-1.111 5.793v15.875c0 8.732 7.143 15.875 15.875 15.875h50.085l-7.54 36.275-.237 2.54c0 3.254 1.349 6.27 3.492 8.414l8.414 8.334 52.308-52.308c2.857-2.858 4.604-6.826 4.604-11.192V74.75c0-8.731-7.144-15.875-15.875-15.875zm31.75 0v95.25h31.75v-95.25Z" style="fill:#fff;fill-opacity:1;stroke-width:7.93749571"/></svg>