<svg width="2400" height="1200" viewBox="0 0 635 317.5" xmlns="http://www.w3.org/2000/svg"><defs><radialGradient id="a" cy=".808" r="38.33" fx="19.946" fy=".808" gradientTransform="scale(1.0002 .9998)" cx="19.946" gradientUnits="userSpaceOnUse"><stop offset="0%" stop-color="#20C6B7"/><stop offset="100%" stop-color="#4D9ABF"/></radialGradient></defs><g style="display:inline"><path style="fill:#fff;fill-opacity:1;stroke-width:.264583" d="M0-20.5h635V297H0z" transform="translate(0 20.5)"/></g><g style="display:inline"><g style="stroke-width:.0638332"><path d="m28.6 14.1.7-4.8 3.6 3.6-3.7 1.6H29a1.7 1.7 0 0 0-.5-.4zm5.2-.3 4 4c.7.7 1.1 1.1 1.3 1.6v.2l-9.2-4h-.1zm5.2 7c-.2.4-.6.8-1.3 1.5l-4.3 4.3-5.7-1.1-.1-.1a1.7 1.7 0 0 0-.7-1.2V24l1-6.5.1-.2a1.7 1.7 0 0 0 1.2-.6h.1l9.7 4zm-6.7 6.9-7.1 7.1 1.2-7.5v-.1a1.9 1.9 0 0 0 .8-.5zm-8.7 8.7-.8.8-9-13V24l.1-.1.1-.1h.1l10 2v.1a1.8 1.8 0 0 0 1 1.2.2.2 0 0 0 0 .1l-1.5 9zM22 38c-.6.6-1 1-1.4 1a2 2 0 0 1-1.2 0c-.5 0-.9-.5-1.7-1.3l-9-9 2.4-3.6h.1a2.4 2.4 0 0 0 1.6-.1h.1l9 13zM7.9 28l-2.1-2.1 4-1.7h.1a3 3 0 0 0 .2.2L8 28Zm-3-3-2.6-2.6-1-1 8 1.6v.1L4.8 25Zm-4-5a2 2 0 0 1 0-.5c.2-.5.6-.9 1.4-1.7l3.3-3.3a2175.5 2175.5 0 0 0 4.6 6.7s.1 0 0 0l-.3.6h-.1L.8 20Zm5.6-6.4L11 9l3.3 1.4 2.3 1c.1 0 0 0 0 .1a2 2 0 0 0 .6 1.8v.1l-4.6 7.1h-.1a2.3 2.3 0 0 0-.6 0 3 3 0 0 0-.5 0l-4.9-7zM12 8l5.8-5.8C18.5 1.5 19 1 19.4.9a2 2 0 0 1 1.2 0c.5.2.9.6 1.7 1.4l1.2 1.2-4.1 6.4c0 .1-.1.1-.1 0a2.1 2.1 0 0 0-2 .5L11.8 8Zm12.5-3.7 3.8 3.8-.9 5.7v.1a1.8 1.8 0 0 0-.6.3.1.1 0 0 1-.1 0L20.8 12l-.1-.1a2.2 2.2 0 0 0-.3-1l4-6.4zm-4 8.6 5.5 2.3h.1a.1.1 0 0 1 0 .1v.5H26L13.9 21h-.1l4.5-7h.5a2 2 0 0 0 1.7-1zm-6.2 9.2L26.5 17l.2.1.1.1-1 6.5-.1.1a1.7 1.7 0 0 0-1.4.9h-.1l-9.8-2-.2-.5z" fill="url(#a)" style="fill:url(#a);stroke-width:.00963743" transform="matrix(4.1449 0 0 4.1449 234.81 76.06)"/></g></g></svg>