<?xml version="1.0" encoding="UTF-8" standalone="no"?>
<svg
   xmlns:dc="http://purl.org/dc/elements/1.1/"
   xmlns:cc="http://creativecommons.org/ns#"
   xmlns:rdf="http://www.w3.org/1999/02/22-rdf-syntax-ns#"
   xmlns:svg="http://www.w3.org/2000/svg"
   xmlns="http://www.w3.org/2000/svg"
   xmlns:sodipodi="http://sodipodi.sourceforge.net/DTD/sodipodi-0.dtd"
   xmlns:inkscape="http://www.inkscape.org/namespaces/inkscape"
   width="2400"
   height="1200"
   viewBox="0 0 634.99999 317.50001"
   version="1.1"
   id="svg8"
   inkscape:version="1.0.1 (3bc2e813f5, 2020-09-07)"
   sodipodi:docname="featured_ubiquiti_edgemax.svg"
   inkscape:export-filename="/home/logan/Documents/Miscellaneous/blog_featured_images/completed_files_png/featured_ubiquiti_edgemax.png"
   inkscape:export-xdpi="96"
   inkscape:export-ydpi="96">
  <defs
     id="defs2">
    <style
       id="style877">.cls-1{fill:#231f20;}</style>
  </defs>
  <sodipodi:namedview
     id="base"
     pagecolor="#ffffff"
     bordercolor="#666666"
     borderopacity="1.0"
     inkscape:pageopacity="0.0"
     inkscape:pageshadow="2"
     inkscape:zoom="0.35"
     inkscape:cx="653.59962"
     inkscape:cy="594.44837"
     inkscape:document-units="px"
     inkscape:current-layer="layer2"
     showgrid="false"
     units="px"
     inkscape:snap-page="true"
     inkscape:window-width="2560"
     inkscape:window-height="1375"
     inkscape:window-x="0"
     inkscape:window-y="0"
     inkscape:window-maximized="1"
     inkscape:snap-object-midpoints="true"
     inkscape:document-rotation="0" />
  <metadata
     id="metadata5">
    <rdf:RDF>
      <cc:Work
         rdf:about="">
        <dc:format>image/svg+xml</dc:format>
        <dc:type
           rdf:resource="http://purl.org/dc/dcmitype/StillImage" />
        <dc:title></dc:title>
      </cc:Work>
    </rdf:RDF>
  </metadata>
  <g
     inkscape:label="Background"
     inkscape:groupmode="layer"
     id="layer1"
     transform="translate(0,20.50002)">
    <rect
       style="fill:#000000;stroke-width:0.26458335"
       id="rect10"
       width="635"
       height="317.5"
       x="0"
       y="-20.500019" />
  </g>
  <g
     inkscape:groupmode="layer"
     id="layer2"
     inkscape:label="Layer1">
    <g
       id="g917"
       transform="matrix(0.96120831,0,0,0.96120831,111.00986,79.823605)"
       style="fill:#ffffff;fill-opacity:1;stroke:#0f0000;stroke-opacity:1">
      <path
         id="path881"
         transform="translate(-35.04,-38.03)"
         d="m 344.15,91.38 c -1.16,-6.47 -7,-11.78 -16.28,-15.62 a 77.54,77.54 0 0 0 -19.57,-21 h 0.07 c -4.24,-9 -10.08,-14.85 -17.36,-16.33 -4.55,-0.93 -9.31,-0.07 -14.1,2.31 A 81.63,81.63 0 0 0 248.78,39.87 85.18,85.18 0 0 0 232,44 c -17.6,0.64 -31,5.48 -34.82,13.84 A 18.63,18.63 0 0 0 195.69,69.4 74.54,74.54 0 0 0 182,95.22 a 129.94,129.94 0 0 0 -13.26,9.34 108.81,108.81 0 0 1 12.92,-8.09 75.94,75.94 0 0 0 -2.66,20.35 14.14,14.14 0 0 0 1.86,1.45 l 2.44,2 A 67,67 0 0 1 188.54,93 c 4.29,-2.06 8.82,-4 13.5,-5.84 a 4.48,4.48 0 0 0 1.21,1.47 5.15,5.15 0 0 0 5.77,0.22 141.93,141.93 0 0 0 21.21,14.83 6,6 0 0 0 3.13,6.61 c -0.62,2.18 -1.67,6.1 -1.67,6.1 0,0 -0.17,0.71 -0.42,1.78 0.49,0.08 1.94,0.55 2.51,0.67 0.29,-1.25 0.49,-2.09 0.49,-2.09 L 236,110.9 a 6.05,6.05 0 0 0 4.08,-1.67 c 4.1,2.22 8.31,4.4 12.53,6.53 l 0.77,-2.79 c -3.83,-2.15 -7.73,-4.31 -11.6,-6.47 0,-0.16 0.09,-0.31 0.13,-0.48 a 6.09,6.09 0 0 0 -2.35,-6.36 c 1.81,-5.2 3.75,-10.17 5.8,-14.86 a 12.75,12.75 0 0 0 4.52,0.71 A 12.39,12.39 0 0 0 262.14,73 l -0.06,-0.78 c 3.71,-0.4 7.4,-0.7 11.05,-0.9 l 2.6,-0.12 c 22.76,-0.93 41.89,2.33 53.57,8.49 a 67.78,67.78 0 0 1 6.16,12.1 73.65,73.65 0 0 0 -4.94,-11.44 c 6.13,3.5 10,7.85 10.86,12.85 1.11,6.17 -2.48,14.62 -9.63,21.08 8.72,-7.17 13.71,-15.61 12.4,-22.9 z m -52.7,-51.15 c 6.55,1.34 11.85,6.26 15.9,13.77 a 80.3,80.3 0 0 0 -27.28,-12.6 19.78,19.78 0 0 1 11.38,-1.17 z m -38.57,5.26 A 87.26,87.26 0 0 1 269.82,45.32 77.17,77.17 0 0 0 254.89,62.2 12.91,12.91 0 0 0 249.26,61 12.43,12.43 0 0 0 237,73.58 c 0,0.2 0,0.38 0,0.58 a 217.25,217.25 0 0 0 -25.6,7.23 4.36,4.36 0 0 0 -1.1,-1.3 5.24,5.24 0 0 0 -6.19,0 31.28,31.28 0 0 1 -4.14,-6 80.14,80.14 0 0 1 52.91,-28.6 z m 6.69,24.78 c -1.12,0.13 -2.26,0.26 -3.38,0.41 A 7,7 0 0 0 254,67.84 c 0.57,-1 1.14,-1.88 1.72,-2.79 a 10.32,10.32 0 0 1 3.85,5.22 z m -16.9,4.93 a 7,7 0 0 0 2.65,3.69 c -0.48,1 -0.95,2 -1.42,3 a 10.22,10.22 0 0 1 -4.48,-6 z M 252,66.73 a 7.31,7.31 0 0 0 -2.58,-0.41 7.09,7.09 0 0 0 -7,6.7 l -3.32,0.69 c 0,-0.06 0,-0.12 0,-0.18 a 10.36,10.36 0 0 1 10.24,-10.45 10.85,10.85 0 0 1 4.42,0.85 c -0.62,0.91 -1.22,1.85 -1.76,2.8 z M 199.48,58.2 c 3.77,-8.19 15.58,-13 31.72,-13.93 a 82.52,82.52 0 0 0 -33.39,22.64 17.26,17.26 0 0 1 1.67,-8.71 z M 189.4,91 a 76,76 0 0 1 8.88,-14.76 36.62,36.62 0 0 0 4,5.81 5.54,5.54 0 0 0 -0.8,3.18 Q 195.11,88 189.4,91 Z m 47.68,7.67 a 6,6 0 0 0 -5.4,2 159,159 0 0 1 -20.59,-13.88 5.56,5.56 0 0 0 0.95,-3.34 253.57,253.57 0 0 1 25.33,-7.17 12.33,12.33 0 0 0 5.68,7.4 q -3.2,7.14 -5.97,15 z M 260,73 a 10.32,10.32 0 0 1 -10.23,10.43 10.69,10.69 0 0 1 -3.63,-0.55 c 0.46,-1 0.91,-2 1.37,-3 a 7.13,7.13 0 0 0 2.18,0.28 7.06,7.06 0 0 0 7,-7.13 2.28,2.28 0 0 1 0,-0.26 c 1.1,-0.15 2.2,-0.27 3.3,-0.4 C 260,72.65 260,72.85 260,73 Z m 15.75,-4 c -0.89,0 -1.78,0.08 -2.67,0.13 -3.76,0.2 -7.57,0.49 -11.41,0.9 a 12.31,12.31 0 0 0 -4.81,-6.69 c 5.05,-7.63 10.42,-13.67 15.88,-17.7 21.26,2.58 40.81,13 53.35,29.43 C 313.76,70.4 296.08,68.16 275.75,69 Z"
         class="cls-1"
         inkscape:connector-curvature="0"
         style="fill:#ffffff;fill-opacity:1;stroke:#0f0000;stroke-opacity:1" />
      <path
         id="path883"
         transform="translate(-35.04,-38.03)"
         d="m 349.43,102.45 h 21.88 l -3.83,78.33 h -15.29 l 1.73,-24.56 h -16.09 l -11.2,24.56 H 310.24 Z M 343.14,145 h 11.67 l 2.24,-30.7 v 0 z"
         class="cls-1"
         inkscape:connector-curvature="0"
         style="fill:#ffffff;fill-opacity:1;stroke:#0f0000;stroke-opacity:1" />
      <path
         id="path885"
         transform="translate(-35.04,-38.03)"
         d="M 396,119.08"
         class="cls-1"
         inkscape:connector-curvature="0"
         style="fill:#ffffff;fill-opacity:1;stroke:#0f0000;stroke-opacity:1" />
      <path
         id="path887"
         transform="translate(-35.04,-38.03)"
         d="m 446.59,102.45 h -17.52 l -17.57,25.84 -4.42,-25.84 h -27.57 c 0,0 -0.84,0.58 0.83,0.8 3.66,0.5 12.34,2.82 13.07,7.72 v 0 l 6,28 -31.93,41.86 h 18.09 l 19.43,-27.98 5,27.93 h 15.3 L 417.12,142 Z"
         class="cls-1"
         inkscape:connector-curvature="0"
         style="fill:#ffffff;fill-opacity:1;stroke:#0f0000;stroke-opacity:1" />
      <path
         id="path889"
         transform="translate(-35.04,-38.03)"
         d="m 318.17,102.45 h -12 l -27.34,57.62 7.29,-57.62 h -40.58 c 0,0 -0.84,0.58 0.82,0.8 4,0.54 13.79,3.21 13.09,9 l -21,68.56 h 14.73 l 19.38,-67.33 -7.92,67.33 h 16.66 l 31.8,-66 -20.34,66 h 14.77 l 22.72,-78.33 z"
         class="cls-1"
         inkscape:connector-curvature="0"
         style="fill:#ffffff;fill-opacity:1;stroke:#0f0000;stroke-opacity:1" />
      <path
         id="path891"
         transform="translate(-35.04,-38.03)"
         d="m 58.45,102.46 h 42.88 l -3.21,10.67 H 67.91 l -6.48,22 h 28.44 l -3.1,10.67 H 58.33 l -7.52,25.33 h 31.1 l -3.1,10.66 H 35 Z"
         class="cls-1"
         inkscape:connector-curvature="0"
         style="fill:#ffffff;fill-opacity:1;stroke:#0f0000;stroke-opacity:1" />
      <path
         id="path893"
         transform="translate(-35.04,-38.03)"
         d="m 117.8,174.45 h -0.22 c -2.65,3.89 -7.17,8.89 -15.72,8.89 -14,0 -16.15,-11.67 -10,-32.22 7.74,-26.55 18.3,-30.66 27.41,-30.66 6.44,0 10.4,3.22 11.07,8.56 h 0.22 l 7.85,-26.56 h 12 L 127,181.78 H 115.64 Z M 120,130 c -6.89,0 -11,5.56 -15.67,21.67 -4,13.55 -4.82,22.1 3.51,22.1 8.33,0 12.58,-8.44 16.41,-21.21 C 128.45,138.24 129.24,130 120,130 Z"
         class="cls-1"
         inkscape:connector-curvature="0"
         style="fill:#ffffff;fill-opacity:1;stroke:#0f0000;stroke-opacity:1" />
      <path
         id="path895"
         transform="translate(-35.04,-38.03)"
         d="m 146.54,186.89 c -1.08,3.67 1.3,7.11 6.63,7.11 6.22,0 11.36,-4.33 13.37,-11.22 l 2.9,-9.66 h -0.22 a 20.41,20.41 0 0 1 -16,8.22 c -14,0 -13.86,-13.78 -9.08,-30.11 4,-13.1 11.08,-30.77 28.08,-30.77 7,0 10.73,4.55 10.49,8.89 h 0.22 l 2.16,-7.33 h 11.33 l -16.67,56.87 c -4.31,14.55 -13.14,23.33 -29.25,23.33 -17.77,0 -16.69,-10.44 -15.29,-15.33 z m 12.91,-15.11 c 9.33,0 13.85,-11.77 16.63,-21.21 2.8,-9.78 4.8,-20.56 -3.53,-20.56 -8.67,0 -12.73,8.89 -16,20 -3.04,10.22 -5.99,21.77 2.9,21.77 z"
         class="cls-1"
         inkscape:connector-curvature="0"
         style="fill:#ffffff;fill-opacity:1;stroke:#0f0000;stroke-opacity:1" />
      <path
         id="path897"
         transform="translate(-35.04,-38.03)"
         d="m 206.49,153.46 -1,3.44 c -2.43,8 -4.38,18.22 4.62,18.22 8.55,0 12.35,-9.78 13.42,-13.33 h 11.37 c -3.9,13.21 -14.32,21.55 -27.32,21.55 -9.77,0 -21,-2.89 -12.93,-30.55 4.63,-15.67 12.88,-32.33 31.65,-32.33 16.67,0 18.18,10 13.25,26.66 l -1.85,6.34 z m 21.67,-8.23 0.93,-3.22 c 2.28,-7.55 1.54,-13.33 -5.24,-13.33 -7.67,0 -12.28,7.55 -14.59,15.33 l -0.32,1.22 z"
         class="cls-1"
         inkscape:connector-curvature="0"
         style="fill:#ffffff;fill-opacity:1;stroke:#0f0000;stroke-opacity:1" />
      <path
         id="path899"
         transform="translate(-35.04,-38.03)"
         d="m 456.81,118.9 a 8.26,8.26 0 1 1 8.08,-8.26 7.95,7.95 0 0 1 -8.08,8.26 z m 0,-15.08 c -3.58,0 -6.36,2.81 -6.36,6.82 0,3.76 2.43,6.83 6.36,6.83 3.53,0 6.31,-2.78 6.31,-6.83 0,-4.05 -2.78,-6.82 -6.31,-6.82 z m -1.63,11.55 h -1.5 v -9.14 h 3.46 c 2.21,0 3.34,0.77 3.34,2.63 a 2.34,2.34 0 0 1 -2.39,2.49 l 2.56,4 H 459 l -2.36,-3.91 h -1.41 z m 1.67,-5.19 c 1.13,0 2.12,-0.11 2.12,-1.43 0,-1.11 -1.08,-1.24 -2,-1.24 h -1.81 v 2.67 z"
         class="cls-1"
         inkscape:connector-curvature="0"
         style="fill:#ffffff;fill-opacity:1;stroke:#0f0000;stroke-opacity:1" />
    </g>
  </g>
</svg>
