<svg width="2400" height="1200" viewBox="0 0 635 317.5" xmlns="http://www.w3.org/2000/svg"><path style="fill:#000;fill-opacity:1;stroke-width:.264583" d="M0-20.5h635V297H0z" transform="translate(0 20.5)"/><path d="M384.342 112.796h-33.421v-16.71c0-9.275-7.436-16.711-16.71-16.711h-33.422a16.653 16.653 0 0 0-16.71 16.71v16.711h-33.421c-9.274 0-16.627 7.436-16.627 16.71l-.084 91.908c0 9.275 7.437 16.711 16.71 16.711h133.685c9.274 0 16.71-7.436 16.71-16.71v-91.908c0-9.275-7.436-16.711-16.71-16.711zm-50.132 0h-33.42v-16.71h33.42z" style="fill:#fff;fill-opacity:1;stroke:none;stroke-width:.264582;stroke-opacity:1"/></svg>