<?xml version="1.0" encoding="UTF-8" standalone="no"?>
<!-- Created with Inkscape (http://www.inkscape.org/) -->

<svg
   xmlns:dc="http://purl.org/dc/elements/1.1/"
   xmlns:cc="http://creativecommons.org/ns#"
   xmlns:rdf="http://www.w3.org/1999/02/22-rdf-syntax-ns#"
   xmlns:svg="http://www.w3.org/2000/svg"
   xmlns="http://www.w3.org/2000/svg"
   xmlns:sodipodi="http://sodipodi.sourceforge.net/DTD/sodipodi-0.dtd"
   xmlns:inkscape="http://www.inkscape.org/namespaces/inkscape"
   width="2400"
   height="1200"
   viewBox="0 0 634.99999 317.50001"
   version="1.1"
   id="svg8"
   inkscape:version="0.92.5 (2060ec1f9f, 2020-04-08)"
   sodipodi:docname="featured_generic_cloud_no_white.svg"
   inkscape:export-filename="/home/logan/Downloads/featured_images/completed_files_png/featured_generic_cloud_no_white.png"
   inkscape:export-xdpi="96"
   inkscape:export-ydpi="96">
  <defs
     id="defs2" />
  <sodipodi:namedview
     id="base"
     pagecolor="#ffffff"
     bordercolor="#666666"
     borderopacity="1.0"
     inkscape:pageopacity="0.0"
     inkscape:pageshadow="2"
     inkscape:zoom="0.35"
     inkscape:cx="147.47827"
     inkscape:cy="711.58362"
     inkscape:document-units="px"
     inkscape:current-layer="layer2"
     showgrid="false"
     units="px"
     inkscape:snap-page="true"
     inkscape:window-width="1920"
     inkscape:window-height="1015"
     inkscape:window-x="0"
     inkscape:window-y="0"
     inkscape:window-maximized="1"
     inkscape:snap-object-midpoints="true" />
  <metadata
     id="metadata5">
    <rdf:RDF>
      <cc:Work
         rdf:about="">
        <dc:format>image/svg+xml</dc:format>
        <dc:type
           rdf:resource="http://purl.org/dc/dcmitype/StillImage" />
        <dc:title />
      </cc:Work>
    </rdf:RDF>
  </metadata>
  <g
     inkscape:label="Background"
     inkscape:groupmode="layer"
     id="layer1"
     transform="translate(0,20.50002)">
    <rect
       style="fill:#000000;stroke-width:0.26458335"
       id="rect10"
       width="635"
       height="317.5"
       x="0"
       y="-20.500019" />
  </g>
  <g
     inkscape:groupmode="layer"
     id="layer2"
     inkscape:label="Layer1">
    <path
       transform="translate(0,20.50002)"
       inkscape:connector-curvature="0"
       d="m 382.323,112.14432 c -5.99733,-30.427006 -32.72032,-53.26934 -64.82301,-53.26934 -13.05265,0 -25.13533,3.792332 -35.366,10.318654 l 12.87634,12.876336 c 6.703,-3.52767 14.37567,-5.556333 22.48966,-5.556333 26.81101,0 48.50702,21.696008 48.50702,48.507003 v 4.40967 H 379.236 c 14.64034,0 26.45834,11.81834 26.45834,26.45833 0,9.966 -5.64433,18.60934 -13.75834,23.107 l 12.78834,12.78834 c 11.20066,-8.02566 18.60899,-21.07867 18.60899,-35.89534 0,-23.28332 -18.07966,-42.15666 -41.01033,-43.74432 z m -144.19801,-42.068686 24.25366,24.16534 c -28.13432,1.233338 -50.71198,24.341676 -50.71198,52.828346 0,29.19233 23.72433,52.91667 52.91666,52.91667 h 103.45201 l 17.639,17.63899 L 396.875,206.42432 249.32565,58.87498 Z m 41.71601,41.716006 70.55566,70.55533 h -85.81333 c -19.49101,0 -35.27768,-15.78666 -35.27768,-35.27765 0,-19.49101 15.78667,-35.27768 35.27768,-35.27768 z"
       id="path4-3"
       style="fill:#ffffff;fill-opacity:1;stroke-width:8.81944561" />
  </g>
</svg>
