<svg xmlns="http://www.w3.org/2000/svg" viewBox="0 0 635 317.5" height="1200" width="2400"><path style="fill:#000;stroke-width:.26458335" d="M0-20.5h635V297H0z" transform="translate(0 20.5)"/><path style="fill:#fff;fill-opacity:1;stroke-width:.264583" class="st0" d="M390.307 149.435c-.262-2.668-.7-5.73-1.574-9.14a55.93 55.93 0 0 0-4.11-10.933 60.882 60.882 0 0 0-7.654-11.72 56.431 56.431 0 0 0-4.155-4.462c2.23-8.877-2.711-16.574-2.711-16.574-8.528-.525-13.95 2.667-15.963 4.11-.35-.13-.656-.306-1.005-.437-1.444-.568-2.93-1.137-4.505-1.618a74.404 74.404 0 0 0-4.723-1.312 60.575 60.575 0 0 0-4.898-.962c-.306-.044-.569-.087-.875-.131-3.717-11.895-14.388-16.881-14.388-16.881-11.939 7.566-14.17 18.15-14.17 18.15s-.043.218-.13.611c-.657.175-1.313.394-1.969.569-.918.262-1.836.612-2.711.962-.918.35-1.793.7-2.711 1.093a66.877 66.877 0 0 0-5.336 2.624 72.99 72.99 0 0 0-4.985 3.105l-.438-.175c-16.53-6.297-31.181 1.269-31.181 1.269-1.356 17.58 6.604 28.645 8.178 30.656-.394 1.094-.744 2.187-1.093 3.28a75.853 75.853 0 0 0-2.712 12.29c-.087.611-.175 1.224-.219 1.836-15.306 7.566-19.81 23.003-19.81 23.003 12.726 14.65 27.595 15.57 27.595 15.57l.044-.045a67.199 67.199 0 0 0 6.516 9.578 63.861 63.861 0 0 0 3.236 3.63c-4.636 13.295.656 24.315.656 24.315 14.17.525 23.485-6.21 25.453-7.74 1.399.48 2.842.918 4.285 1.268a62.601 62.601 0 0 0 13.295 1.968c1.093.044 2.23.087 3.324.044h1.575l.699-.044v.044c6.691 9.533 18.411 10.889 18.411 10.889 8.353-8.79 8.834-17.537 8.834-19.417v-.788a48.492 48.492 0 0 0 4.986-3.98 53.676 53.676 0 0 0 8.703-10.189l.656-1.05c9.446.525 16.137-5.86 16.137-5.86-1.574-9.84-7.172-14.65-8.353-15.569 0 0-.044-.043-.131-.087-.087-.044-.087-.087-.087-.087-.044-.044-.132-.088-.219-.132l.131-1.793c.088-1.05.088-2.143.088-3.192V174.319l-.044-.656-.044-.875c0-.306-.044-.568-.087-.83-.044-.263-.044-.57-.088-.832l-.087-.83-.131-.831c-.175-1.094-.35-2.143-.613-3.237a42.991 42.991 0 0 0-4.81-11.895 40.157 40.157 0 0 0-8.003-9.534 40.258 40.258 0 0 0-10.103-6.516 39.819 39.819 0 0 0-11.152-3.149 34.866 34.866 0 0 0-5.641-.306h-1.4l-.7.044c-.262 0-.524.044-.743.044-.962.087-1.924.218-2.842.393-3.761.7-7.304 2.056-10.409 3.936-3.105 1.88-5.816 4.199-8.003 6.823a31.215 31.215 0 0 0-5.073 8.571 30.162 30.162 0 0 0-2.012 9.184c-.043.744-.043 1.53-.043 2.274v.569l.043.612c.044.35.044.744.088 1.093.131 1.531.437 3.018.83 4.417a24.28 24.28 0 0 0 3.762 7.61c1.618 2.187 3.586 3.98 5.641 5.423a23.594 23.594 0 0 0 6.473 3.061c2.186.656 4.373.918 6.429.918h1.137c.13 0 .262 0 .393-.043.219 0 .437-.044.656-.044.044 0 .131 0 .175-.044l.219-.044c.131 0 .262-.044.393-.044.263-.043.481-.087.744-.13.262-.045.48-.088.7-.176.48-.087.918-.262 1.355-.393.875-.306 1.75-.656 2.493-1.05.787-.394 1.487-.875 2.187-1.312.175-.131.393-.262.568-.437.7-.569.831-1.618.263-2.318a1.612 1.612 0 0 0-2.056-.394l-.525.263c-.612.306-1.224.568-1.88.787-.656.219-1.356.394-2.056.525-.35.044-.7.087-1.093.131-.175 0-.35.044-.568.044h-1.05c-.219 0-.437 0-.656-.044h-.262c-.088 0-.22 0-.307-.044-.218-.044-.393-.044-.612-.087a17.01 17.01 0 0 1-4.767-1.4 16.705 16.705 0 0 1-4.417-2.886 16.754 16.754 0 0 1-3.455-4.33 16.65 16.65 0 0 1-1.88-5.422c-.131-.963-.219-1.968-.175-2.93 0-.263.044-.525.044-.788v-.35c0-.13.044-.262.044-.393.043-.525.13-1.05.218-1.575.744-4.198 2.843-8.309 6.079-11.414a24.407 24.407 0 0 1 2.624-2.143 18.09 18.09 0 0 1 2.974-1.705c1.05-.481 2.099-.875 3.236-1.181 1.093-.306 2.23-.481 3.411-.612a22.266 22.266 0 0 1 1.75-.088h1.355l.481.044c1.269.087 2.493.262 3.718.569 2.449.524 4.854 1.443 7.084 2.667 4.461 2.493 8.266 6.342 10.584 10.977 1.18 2.318 2.011 4.81 2.405 7.391.087.656.175 1.312.219 1.968l.043.481.044.481v1.88c0 .307-.044.832-.044 1.138-.043.7-.13 1.443-.218 2.143-.088.7-.219 1.4-.35 2.099-.131.7-.306 1.4-.481 2.055a36.597 36.597 0 0 1-1.312 4.067 35.617 35.617 0 0 1-4.111 7.479 33.813 33.813 0 0 1-13.207 10.802c-2.624 1.18-5.38 2.055-8.222 2.492-1.4.263-2.843.394-4.286.438H328.95c-.787 0-1.53-.044-2.317-.131-3.062-.22-6.08-.788-9.053-1.619-2.93-.83-5.773-2.011-8.484-3.41-5.38-2.887-10.234-6.823-13.995-11.59a45.089 45.089 0 0 1-4.898-7.61 45.193 45.193 0 0 1-3.236-8.352 46.172 46.172 0 0 1-1.487-8.79l-.044-.57V160.937c.044-1.443.175-2.973.35-4.46s.437-3.018.744-4.505a55.203 55.203 0 0 1 1.093-4.46c.83-2.93 1.88-5.773 3.105-8.441 2.493-5.335 5.729-10.102 9.621-13.907.962-.962 1.968-1.837 3.018-2.712a44.623 44.623 0 0 1 3.28-2.361c1.093-.744 2.274-1.4 3.455-2.012.568-.306 1.18-.612 1.793-.874l.918-.394.918-.394a35.581 35.581 0 0 1 3.805-1.355c.306-.088.656-.175.962-.306.306-.088.656-.175.962-.263.656-.175 1.312-.35 1.968-.48.306-.088.656-.132 1.006-.22.35-.087.656-.13 1.006-.218.35-.044.656-.132 1.006-.175l.48-.088.526-.087c.35-.044.656-.087 1.006-.131.393-.044.743-.088 1.137-.131.306-.044.83-.088 1.137-.132.218-.044.48-.044.7-.087l.48-.044.22-.044h.262c.393-.044.743-.044 1.137-.087l.568-.044h.438c.306 0 .656-.044.962-.044a56.374 56.374 0 0 1 3.848 0c2.537.088 5.03.394 7.435.831 4.854.919 9.402 2.45 13.557 4.505 4.154 2.011 7.828 4.504 11.064 7.216.219.175.394.35.613.524.174.175.393.35.568.525.394.35.744.7 1.137 1.05.394.35.744.7 1.093 1.05.35.35.7.7 1.05 1.093 1.356 1.443 2.624 2.886 3.761 4.373a56.434 56.434 0 0 1 5.554 8.703l.263.525.262.524c.175.35.35.7.481 1.05.175.35.306.656.481 1.006.131.35.306.656.437 1.006.525 1.312 1.05 2.58 1.444 3.76a75.102 75.102 0 0 1 1.53 5.117c.131.613.7 1.006 1.312.919a1.206 1.206 0 0 0 1.137-1.225c.044-1.574 0-3.455-.218-5.598z"/></svg>