<?xml version="1.0" encoding="UTF-8" standalone="no"?>
<!-- Created with Inkscape (http://www.inkscape.org/) -->

<svg
   xmlns:dc="http://purl.org/dc/elements/1.1/"
   xmlns:cc="http://creativecommons.org/ns#"
   xmlns:rdf="http://www.w3.org/1999/02/22-rdf-syntax-ns#"
   xmlns:svg="http://www.w3.org/2000/svg"
   xmlns="http://www.w3.org/2000/svg"
   xmlns:sodipodi="http://sodipodi.sourceforge.net/DTD/sodipodi-0.dtd"
   xmlns:inkscape="http://www.inkscape.org/namespaces/inkscape"
   width="2400"
   height="1200"
   viewBox="0 0 634.99999 317.50001"
   version="1.1"
   id="svg8"
   inkscape:version="0.92.5 (2060ec1f9f, 2020-04-08)"
   sodipodi:docname="featured_ubiquiti_unifi.svg"
   inkscape:export-filename="/home/logan/Downloads/featured_images/completed_files_png/featured_ubiquiti_unifi.png"
   inkscape:export-xdpi="96"
   inkscape:export-ydpi="96">
  <defs
     id="defs2">
    <style
       id="style74">.cls-1{fill:#231f20;}</style>
  </defs>
  <sodipodi:namedview
     id="base"
     pagecolor="#ffffff"
     bordercolor="#666666"
     borderopacity="1.0"
     inkscape:pageopacity="0.0"
     inkscape:pageshadow="2"
     inkscape:zoom="0.35"
     inkscape:cx="327.42933"
     inkscape:cy="589.47716"
     inkscape:document-units="px"
     inkscape:current-layer="layer2"
     showgrid="false"
     units="px"
     inkscape:snap-page="true"
     inkscape:window-width="1920"
     inkscape:window-height="1015"
     inkscape:window-x="0"
     inkscape:window-y="0"
     inkscape:window-maximized="1"
     inkscape:snap-object-midpoints="true" />
  <metadata
     id="metadata5">
    <rdf:RDF>
      <cc:Work
         rdf:about="">
        <dc:format>image/svg+xml</dc:format>
        <dc:type
           rdf:resource="http://purl.org/dc/dcmitype/StillImage" />
        <dc:title />
      </cc:Work>
    </rdf:RDF>
  </metadata>
  <g
     inkscape:label="Background"
     inkscape:groupmode="layer"
     id="layer1"
     transform="translate(0,20.50002)">
    <rect
       style="fill:#000000;stroke-width:0.26458335"
       id="rect10"
       width="635"
       height="317.5"
       x="0"
       y="-20.500019" />
  </g>
  <g
     inkscape:groupmode="layer"
     id="layer2"
     inkscape:label="Layer1">
    <g
       id="g117"
       transform="matrix(1.0237853,0,0,1.0237853,167.20307,79.376851)"
       style="fill:#ffffff;fill-opacity:1">
      <path
         id="path78"
         transform="translate(-100.52,-46.81)"
         d="m 218.1,110.73 c 1.28,-8 4.25,-18.59 10.81,-27.7 8.9,-12.14 23.66,-22.63 52.73,-22.55 l 2.91,-13.61 c -34.2,-1.08 -55.37,12.14 -66.71,28.21 -8.9,12.48 -12.24,26 -13.5,35.65 z"
         class="cls-1"
         inkscape:connector-curvature="0"
         style="fill:#ffffff;fill-opacity:1" />
      <path
         id="path80"
         transform="translate(-100.52,-46.81)"
         d="m 242.74,110.73 a 38.36,38.36 0 0 1 5.67,-12.1 c 5,-6.83 12.86,-12.88 28.11,-14.07 l 3,-13.84 c -20.94,0.53 -34.68,9.31 -42.13,20 a 54,54 0 0 0 -8.65,20"
         class="cls-1"
         inkscape:connector-curvature="0"
         style="fill:#ffffff;fill-opacity:1" />
      <line
         id="line82"
         y2="63.919998"
         x2="142.22"
         y1="63.919998"
         x1="128.17"
         class="cls-1"
         style="fill:#ffffff;fill-opacity:1" />
      <path
         id="path84"
         transform="translate(-100.52,-46.81)"
         d="m 270.82,110.69 3.05,-13.82 c -8.49,0.65 -13.4,4.45 -16.75,9.33 a 25.1,25.1 0 0 0 -2.67,4.49 z"
         class="cls-1"
         inkscape:connector-curvature="0"
         style="fill:#ffffff;fill-opacity:1" />
      <path
         id="path86"
         transform="translate(-100.52,-46.81)"
         d="m 362.26,110.69 h -14.68 l 3.12,-13.82 c 0,0 11.3,2.54 11.56,13.82 z"
         class="cls-1"
         inkscape:connector-curvature="0"
         style="fill:#ffffff;fill-opacity:1" />
      <path
         id="path88"
         transform="translate(-100.52,-46.81)"
         d="M 133.67,96.94 118,170.74 c -2.74,13 1.15,18.73 11.1,18.73 9.95,0 16.3,-5.77 19,-18.73 l 15.71,-73.8 h 16.43 l -15.44,72.51 c -5.05,23.77 -18.73,32.42 -38.33,32.42 -19.75,0 -29.69,-8.65 -24.65,-32.42 l 15.43,-72.51 z"
         class="cls-1"
         inkscape:connector-curvature="0"
         style="fill:#ffffff;fill-opacity:1" />
      <path
         id="path90"
         transform="translate(-100.52,-46.81)"
         d="m 186.83,122.31 h 14.7 l -1.89,9.08 h 0.44 a 28.25,28.25 0 0 1 22.21,-11.09 c 11.81,0 18.15,5.33 14.84,21 l -12.4,58.52 h -15.57 l 11.25,-53.19 c 2.15,-10.08 0,-14 -7.78,-14 -6.34,0 -13.4,5 -15.57,15.14 l -11.1,52 h -15.57 z"
         class="cls-1"
         inkscape:connector-curvature="0"
         style="fill:#ffffff;fill-opacity:1" />
      <path
         id="path92"
         transform="translate(-100.52,-46.81)"
         d="m 253,122.31 h 15.56 l -16.42,77.55 h -15.61 z"
         class="cls-1"
         inkscape:connector-curvature="0"
         style="fill:#ffffff;fill-opacity:1" />
      <path
         id="path94"
         transform="translate(-100.52,-46.81)"
         d="m 286.15,96.94 h 52.53 l -3,13.84 h -36.13 l -6.05,28.54 h 36.17 l -2.87,13.83 h -36.18 l -9.95,46.71 h -16.43 z"
         class="cls-1"
         inkscape:connector-curvature="0"
         style="fill:#ffffff;fill-opacity:1" />
      <path
         id="path96"
         transform="translate(-100.52,-46.81)"
         d="m 345.25,122.31 h 15.57 l -16.43,77.55 h -15.56 z"
         class="cls-1"
         inkscape:connector-curvature="0"
         style="fill:#ffffff;fill-opacity:1" />
      <path
         id="path98"
         transform="translate(-100.52,-46.81)"
         d="m 383.58,118.48 a 10.77,10.77 0 1 1 10.54,-10.77 10.37,10.37 0 0 1 -10.54,10.77 z m 0,-19.67 c -4.66,0 -8.29,3.66 -8.29,8.9 0,4.9 3.17,8.9 8.29,8.9 4.61,0 8.24,-3.63 8.24,-8.9 0,-5.27 -3.63,-8.9 -8.24,-8.9 z m -2.13,15.06 h -2 V 102 H 384 c 2.88,0 4.35,1 4.35,3.43 0,2.16 -1.32,3.05 -3.11,3.25 l 3.34,5.24 h -2.21 l -3.08,-5.09 h -1.85 z m 2.19,-6.76 c 1.47,0 2.76,-0.15 2.76,-1.87 0,-1.44 -1.41,-1.62 -2.59,-1.62 h -2.36 v 3.49 z"
         class="cls-1"
         inkscape:connector-curvature="0"
         style="fill:#ffffff;fill-opacity:1" />
    </g>
  </g>
</svg>
