<svg width="2400" height="1200" viewBox="0 0 635 317.5" xmlns="http://www.w3.org/2000/svg"><path style="fill:#000;fill-opacity:1;stroke-width:.264583" d="M0-20.5h635V297H0z" transform="translate(0 20.5)"/><path d="M318.507 124.988c-6.27 0-15.977-7.13-26.2-6.872-13.485.162-25.855 7.817-32.813 19.928-14.001 24.31-3.607 60.216 10.05 79.973 6.7 9.62 14.604 20.444 25.083 20.1 10.05-.429 13.83-6.528 26.028-6.528 12.112 0 15.547 6.528 26.2 6.27 10.822-.162 17.694-9.792 24.309-19.499 7.645-11.167 10.823-21.99 10.994-22.591-.26-.098-21.045-8.075-21.302-32.126-.163-20.101 16.406-29.722 17.18-30.151-9.45-13.83-23.966-15.376-29.035-15.72-13.228-1.032-24.31 7.216-30.494 7.216zm22.334-20.273c5.584-6.7 9.277-16.063 8.246-25.34-7.988.344-17.61 5.326-23.364 12.026-5.154 5.927-9.62 15.462-8.418 24.567 8.847.689 17.953-4.552 23.536-11.253" fill="#fff" style="stroke-width:.264583;stroke:none;stroke-opacity:1"/></svg>