<?xml version="1.0"?>
<svg width="187" height="228"
     xmlns="http://www.w3.org/2000/svg"
     shape-rendering="crispEdges">
<polygon points="90,109 81,103 86,115" style="fill:rgb(113,66,78)"/>
<polygon points="81,103 76,106 86,115" style="fill:rgb(131,81,89)"/>
<polygon points="92,98 83,97 81,103" style="fill:rgb(195,130,115)"/>
<polygon points="81,103 80,94 76,106" style="fill:rgb(165,102,101)"/>
<polygon points="90,109 94,102 81,103" style="fill:rgb(121,71,81)"/>
<polygon points="74,120 85,122 86,115" style="fill:rgb(185,124,115)"/>
<polygon points="86,115 109,119 90,109" style="fill:rgb(132,77,90)"/>
<polygon points="90,109 109,119 94,102" style="fill:rgb(102,59,74)"/>
<polygon points="76,106 73,117 86,115" style="fill:rgb(125,76,87)"/>
<polygon points="94,102 92,98 81,103" style="fill:rgb(159,95,95)"/>
<polygon points="73,117 74,120 86,115" style="fill:rgb(164,112,109)"/>
<polygon points="91,79 80,94 83,97" style="fill:rgb(219,150,123)"/>
<polygon points="83,97 80,94 81,103" style="fill:rgb(218,155,131)"/>
<polygon points="66,104 67,112 76,106" style="fill:rgb(118,70,79)"/>
<polygon points="76,106 67,112 73,117" style="fill:rgb(101,60,75)"/>
<polygon points="73,117 70,124 74,120" style="fill:rgb(123,82,84)"/>
<polygon points="80,94 66,104 76,106" style="fill:rgb(138,80,83)"/>
<polygon points="61,120 70,124 73,117" style="fill:rgb(96,61,74)"/>
<polygon points="74,120 79,137 85,122" style="fill:rgb(156,104,101)"/>
<polygon points="78,87 76,90 80,94" style="fill:rgb(205,131,115)"/>
<polygon points="80,94 76,90 66,104" style="fill:rgb(172,105,97)"/>
<polygon points="91,79 78,87 80,94" style="fill:rgb(199,130,115)"/>
<polygon points="58,103 59,112 66,104" style="fill:rgb(155,104,101)"/>
<polygon points="66,104 59,112 67,112" style="fill:rgb(157,106,105)"/>
<polygon points="67,112 61,120 73,117" style="fill:rgb(113,73,84)"/>
<polygon points="58,103 66,104 76,90" style="fill:rgb(185,122,105)"/>
<polygon points="59,112 61,120 67,112" style="fill:rgb(128,85,91)"/>
<polygon points="57,103 58,103 59,76" style="fill:rgb(161,94,89)"/>
<polygon points="50,102 57,103 53,76" style="fill:rgb(202,140,125)"/>
<polygon points="58,103 57,103 59,112" style="fill:rgb(125,74,79)"/>
<polygon points="105,134 109,119 85,122" style="fill:rgb(134,86,91)"/>
<polygon points="85,122 109,119 86,115" style="fill:rgb(155,95,103)"/>
<polygon points="94,102 98,85 92,98" style="fill:rgb(183,113,108)"/>
<polygon points="61,120 62,127 70,124" style="fill:rgb(81,46,66)"/>
<polygon points="70,124 79,137 74,120" style="fill:rgb(120,79,83)"/>
<polygon points="51,144 62,127 27,117" style="fill:rgb(109,67,85)"/>
<polygon points="27,117 61,120 59,112" style="fill:rgb(91,61,76)"/>
<polygon points="111,87 98,85 94,102" style="fill:rgb(168,105,101)"/>
<polygon points="92,98 91,79 83,97" style="fill:rgb(229,164,136)"/>
<polygon points="68,134 79,137 70,124" style="fill:rgb(83,55,72)"/>
<polygon points="62,127 68,134 70,124" style="fill:rgb(70,41,63)"/>
<polygon points="109,119 114,112 94,102" style="fill:rgb(103,61,75)"/>
<polygon points="98,85 91,79 92,98" style="fill:rgb(191,119,108)"/>
<polygon points="68,134 70,137 79,137" style="fill:rgb(84,60,73)"/>
<polygon points="69,138 70,137 68,134" style="fill:rgb(157,132,130)"/>
<polygon points="91,79 87,77 78,87" style="fill:rgb(155,92,96)"/>
<polygon points="59,76 58,103 76,90" style="fill:rgb(218,157,126)"/>
<polygon points="67,139 69,138 68,134" style="fill:rgb(214,184,178)"/>
<polygon points="70,137 78,146 79,137" style="fill:rgb(81,48,62)"/>
<polygon points="111,87 100,81 98,85" style="fill:rgb(143,87,90)"/>
<polygon points="98,85 100,81 91,79" style="fill:rgb(166,97,98)"/>
<polygon points="93,73 82,72 87,77" style="fill:rgb(144,87,94)"/>
<polygon points="114,112 115,100 94,102" style="fill:rgb(135,83,90)"/>
<polygon points="78,146 91,141 79,137" style="fill:rgb(85,56,69)"/>
<polygon points="79,137 91,141 85,122" style="fill:rgb(127,85,89)"/>
<polygon points="91,141 105,134 85,122" style="fill:rgb(112,72,85)"/>
<polygon points="109,119 114,122 114,112" style="fill:rgb(98,60,73)"/>
<polygon points="105,134 114,122 109,119" style="fill:rgb(97,62,74)"/>
<polygon points="114,112 127,105 115,100" style="fill:rgb(155,100,95)"/>
<polygon points="63,75 76,90 78,87" style="fill:rgb(171,108,98)"/>
<polygon points="57,103 50,102 59,112" style="fill:rgb(115,66,75)"/>
<polygon points="66,139 67,139 68,134" style="fill:rgb(231,200,191)"/>
<polygon points="69,138 78,146 70,137" style="fill:rgb(137,99,96)"/>
<polygon points="66,139 68,134 62,127" style="fill:rgb(100,67,77)"/>
<polygon points="65,145 66,139 56,147" style="fill:rgb(82,64,69)"/>
<polygon points="70,149 78,146 69,138" style="fill:rgb(178,139,118)"/>
<polygon points="115,100 111,87 94,102" style="fill:rgb(160,97,97)"/>
<polygon points="93,73 87,77 91,79" style="fill:rgb(171,107,109)"/>
<polygon points="87,77 82,72 78,87" style="fill:rgb(108,58,78)"/>
<polygon points="103,64 93,73 100,81" style="fill:rgb(140,85,88)"/>
<polygon points="100,81 93,73 91,79" style="fill:rgb(170,105,104)"/>
<polygon points="70,149 69,138 67,139" style="fill:rgb(216,187,158)"/>
<polygon points="82,72 71,73 78,87" style="fill:rgb(88,50,70)"/>
<polygon points="71,73 63,75 78,87" style="fill:rgb(130,80,83)"/>
<polygon points="56,147 66,139 51,144" style="fill:rgb(122,96,106)"/>
<polygon points="66,139 65,145 67,139" style="fill:rgb(208,185,171)"/>
<polygon points="126,123 124,115 114,122" style="fill:rgb(97,69,78)"/>
<polygon points="114,122 124,115 114,112" style="fill:rgb(125,85,89)"/>
<polygon points="115,100 125,82 111,87" style="fill:rgb(169,104,100)"/>
<polygon points="63,75 59,76 76,90" style="fill:rgb(194,135,112)"/>
<polygon points="91,141 103,146 105,134" style="fill:rgb(73,48,68)"/>
<polygon points="105,134 118,135 114,122" style="fill:rgb(70,46,65)"/>
<polygon points="92,150 103,146 91,141" style="fill:rgb(67,41,64)"/>
<polygon points="91,154 92,150 78,146" style="fill:rgb(107,73,85)"/>
<polygon points="78,146 92,150 91,141" style="fill:rgb(65,39,62)"/>
<polygon points="65,145 70,149 67,139" style="fill:rgb(247,224,198)"/>
<polygon points="45,79 41,102 50,102" style="fill:rgb(250,216,179)"/>
<polygon points="50,102 40,103 59,112" style="fill:rgb(102,58,73)"/>
<polygon points="103,146 118,135 105,134" style="fill:rgb(74,46,66)"/>
<polygon points="124,115 127,105 114,112" style="fill:rgb(143,96,97)"/>
<polygon points="33,101 40,103 41,102" style="fill:rgb(134,105,101)"/>
<polygon points="41,102 40,103 50,102" style="fill:rgb(201,153,151)"/>
<polygon points="118,135 126,123 114,122" style="fill:rgb(75,51,66)"/>
<polygon points="124,115 131,111 127,105" style="fill:rgb(112,74,80)"/>
<polygon points="59,69 53,76 59,76" style="fill:rgb(94,55,60)"/>
<polygon points="59,76 53,76 57,103" style="fill:rgb(113,53,58)"/>
<polygon points="59,69 59,76 63,75" style="fill:rgb(208,162,139)"/>
<polygon points="120,144 120,136 118,135" style="fill:rgb(153,112,106)"/>
<polygon points="118,135 127,125 126,123" style="fill:rgb(95,69,69)"/>
<polygon points="80,159 91,154 78,146" style="fill:rgb(136,98,100)"/>
<polygon points="92,150 91,154 103,146" style="fill:rgb(113,76,89)"/>
<polygon points="120,144 126,135 120,136" style="fill:rgb(163,127,108)"/>
<polygon points="93,73 83,63 82,72" style="fill:rgb(132,79,85)"/>
<polygon points="82,72 83,63 71,73" style="fill:rgb(106,68,78)"/>
<polygon points="64,65 59,69 63,75" style="fill:rgb(201,153,132)"/>
<polygon points="83,60 83,63 103,64" style="fill:rgb(169,107,102)"/>
<polygon points="120,136 127,125 118,135" style="fill:rgb(133,96,96)"/>
<polygon points="131,112 131,111 124,115" style="fill:rgb(115,84,85)"/>
<polygon points="51,144 66,139 62,127" style="fill:rgb(109,71,86)"/>
<polygon points="65,145 64,158 70,149" style="fill:rgb(225,212,181)"/>
<polygon points="70,149 80,159 78,146" style="fill:rgb(162,124,109)"/>
<polygon points="64,65 63,75 71,73" style="fill:rgb(143,93,86)"/>
<polygon points="131,112 124,115 126,123" style="fill:rgb(92,65,67)"/>
<polygon points="127,125 131,112 126,123" style="fill:rgb(118,96,85)"/>
<polygon points="27,117 62,127 61,120" style="fill:rgb(102,63,79)"/>
<polygon points="83,63 64,65 71,73" style="fill:rgb(109,67,74)"/>
<polygon points="134,98 130,96 127,105" style="fill:rgb(137,80,82)"/>
<polygon points="127,105 130,96 115,100" style="fill:rgb(178,117,107)"/>
<polygon points="103,64 83,63 93,73" style="fill:rgb(151,91,94)"/>
<polygon points="53,68 53,76 59,69" style="fill:rgb(81,55,65)"/>
<polygon points="51,66 45,79 53,76" style="fill:rgb(241,224,189)"/>
<polygon points="53,76 45,79 50,102" style="fill:rgb(238,198,170)"/>
<polygon points="103,64 100,81 111,87" style="fill:rgb(107,64,77)"/>
<polygon points="83,63 83,60 64,65" style="fill:rgb(158,103,98)"/>
<polygon points="121,63 103,64 111,87" style="fill:rgb(93,57,74)"/>
<polygon points="130,96 125,82 115,100" style="fill:rgb(192,123,112)"/>
<polygon points="120,136 126,135 127,125" style="fill:rgb(166,133,117)"/>
<polygon points="127,125 134,111 131,112" style="fill:rgb(183,160,136)"/>
<polygon points="120,144 118,135 103,146" style="fill:rgb(133,94,96)"/>
<polygon points="126,135 129,130 127,125" style="fill:rgb(216,187,162)"/>
<polygon points="74,160 80,159 70,149" style="fill:rgb(187,167,144)"/>
<polygon points="131,112 134,111 131,111" style="fill:rgb(185,161,149)"/>
<polygon points="131,111 135,108 127,105" style="fill:rgb(111,77,76)"/>
<polygon points="134,130 134,111 127,125" style="fill:rgb(224,204,158)"/>
<polygon points="109,154 103,146 91,154" style="fill:rgb(132,90,99)"/>
<polygon points="109,154 120,144 103,146" style="fill:rgb(126,89,93)"/>
<polygon points="51,66 53,68 52,60" style="fill:rgb(211,197,175)"/>
<polygon points="45,79 33,101 41,102" style="fill:rgb(243,223,180)"/>
<polygon points="40,103 27,117 59,112" style="fill:rgb(83,55,76)"/>
<polygon points="134,111 135,108 131,111" style="fill:rgb(143,120,108)"/>
<polygon points="130,96 131,85 125,82" style="fill:rgb(188,127,116)"/>
<polygon points="138,105 145,108 144,106" style="fill:rgb(188,169,146)"/>
<polygon points="135,108 134,98 127,105" style="fill:rgb(128,80,81)"/>
<polygon points="91,166 109,154 91,154" style="fill:rgb(131,98,102)"/>
<polygon points="64,158 65,145 63,158" style="fill:rgb(168,163,169)"/>
<polygon points="64,158 74,160 70,149" style="fill:rgb(210,199,169)"/>
<polygon points="63,158 65,145 56,147" style="fill:rgb(53,44,58)"/>
<polygon points="126,135 131,132 129,130" style="fill:rgb(212,187,164)"/>
<polygon points="129,130 134,130 127,125" style="fill:rgb(228,205,166)"/>
<polygon points="133,153 131,132 126,135" style="fill:rgb(215,201,167)"/>
<polygon points="63,166 63,158 57,172" style="fill:rgb(90,85,96)"/>
<polygon points="80,169 80,159 74,160" style="fill:rgb(195,181,155)"/>
<polygon points="121,63 104,60 103,64" style="fill:rgb(144,93,91)"/>
<polygon points="103,64 104,60 83,60" style="fill:rgb(170,107,106)"/>
<polygon points="134,90 131,85 130,96" style="fill:rgb(133,78,79)"/>
<polygon points="125,82 125,67 111,87" style="fill:rgb(135,85,84)"/>
<polygon points="59,59 53,68 59,69" style="fill:rgb(70,43,57)"/>
<polygon points="53,68 51,66 53,76" style="fill:rgb(204,185,169)"/>
<polygon points="23,105 27,104 22,104" style="fill:rgb(159,135,120)"/>
<polygon points="61,60 59,69 64,65" style="fill:rgb(198,150,133)"/>
<polygon points="82,55 61,60 64,65" style="fill:rgb(217,160,131)"/>
<polygon points="134,98 134,90 130,96" style="fill:rgb(122,63,70)"/>
<polygon points="141,93 134,90 134,98" style="fill:rgb(152,82,85)"/>
<polygon points="104,60 82,55 83,60" style="fill:rgb(183,118,108)"/>
<polygon points="83,60 82,55 64,65" style="fill:rgb(190,130,113)"/>
<polygon points="138,153 133,131 131,132" style="fill:rgb(84,67,75)"/>
<polygon points="131,132 133,131 129,130" style="fill:rgb(137,115,84)"/>
<polygon points="138,105 135,108 145,108" style="fill:rgb(169,134,119)"/>
<polygon points="135,108 138,105 134,98" style="fill:rgb(153,105,96)"/>
<polygon points="133,131 134,130 129,130" style="fill:rgb(189,167,136)"/>
<polygon points="59,46 59,59 61,60" style="fill:rgb(116,78,79)"/>
<polygon points="61,60 59,59 59,69" style="fill:rgb(144,104,100)"/>
<polygon points="27,104 20,102 22,104" style="fill:rgb(110,89,75)"/>
<polygon points="33,101 27,117 40,103" style="fill:rgb(95,62,78)"/>
<polygon points="27,104 27,117 33,101" style="fill:rgb(102,73,73)"/>
<polygon points="63,166 64,158 63,158" style="fill:rgb(160,156,157)"/>
<polygon points="84,167 91,166 80,159" style="fill:rgb(153,133,130)"/>
<polygon points="80,159 91,166 91,154" style="fill:rgb(131,101,103)"/>
<polygon points="84,167 80,159 80,169" style="fill:rgb(184,168,163)"/>
<polygon points="65,166 74,160 64,158" style="fill:rgb(200,194,162)"/>
<polygon points="131,74 131,85 138,76" style="fill:rgb(85,48,61)"/>
<polygon points="131,74 130,74 131,85" style="fill:rgb(139,97,96)"/>
<polygon points="131,85 130,74 125,82" style="fill:rgb(185,132,117)"/>
<polygon points="59,59 52,60 53,68" style="fill:rgb(63,46,59)"/>
<polygon points="51,66 20,50 45,79" style="fill:rgb(239,229,188)"/>
<polygon points="51,59 52,60 52,57" style="fill:rgb(112,97,82)"/>
<polygon points="138,76 131,85 134,90" style="fill:rgb(106,55,65)"/>
<polygon points="130,74 125,67 125,82" style="fill:rgb(176,122,110)"/>
<polygon points="131,74 125,67 130,74" style="fill:rgb(173,122,112)"/>
<polygon points="125,67 121,63 111,87" style="fill:rgb(112,72,81)"/>
<polygon points="80,39 61,45 82,55" style="fill:rgb(226,161,126)"/>
<polygon points="84,167 92,168 91,166" style="fill:rgb(145,131,134)"/>
<polygon points="91,166 92,168 109,154" style="fill:rgb(165,147,144)"/>
<polygon points="52,57 52,60 59,59" style="fill:rgb(54,34,50)"/>
<polygon points="52,60 51,59 51,66" style="fill:rgb(140,124,109)"/>
<polygon points="143,95 134,98 138,105" style="fill:rgb(189,131,115)"/>
<polygon points="143,95 141,93 134,98" style="fill:rgb(185,123,110)"/>
<polygon points="63,158 56,147 57,172" style="fill:rgb(47,42,65)"/>
<polygon points="63,166 65,166 64,158" style="fill:rgb(135,131,133)"/>
<polygon points="84,167 92,170 92,168" style="fill:rgb(141,131,139)"/>
<polygon points="74,174 80,169 74,160" style="fill:rgb(210,200,171)"/>
<polygon points="57,172 56,147 30,156" style="fill:rgb(59,51,73)"/>
<polygon points="65,166 74,174 74,160" style="fill:rgb(210,200,163)"/>
<polygon points="145,108 135,108 134,111" style="fill:rgb(123,99,83)"/>
<polygon points="27,104 33,101 20,102" style="fill:rgb(90,67,60)"/>
<polygon points="27,104 23,105 27,117" style="fill:rgb(222,198,169)"/>
<polygon points="59,46 52,57 59,59" style="fill:rgb(72,48,61)"/>
<polygon points="20,102 33,101 18,100" style="fill:rgb(159,141,109)"/>
<polygon points="144,106 143,95 138,105" style="fill:rgb(231,196,162)"/>
<polygon points="140,76 138,76 134,90" style="fill:rgb(140,88,97)"/>
<polygon points="146,111 145,108 134,111" style="fill:rgb(127,111,92)"/>
<polygon points="144,106 170,107 143,95" style="fill:rgb(229,210,170)"/>
<polygon points="80,169 92,170 84,167" style="fill:rgb(99,90,98)"/>
<polygon points="92,168 117,167 109,154" style="fill:rgb(165,152,146)"/>
<polygon points="117,167 133,153 120,144" style="fill:rgb(181,169,153)"/>
<polygon points="33,101 45,79 18,100" style="fill:rgb(239,226,179)"/>
<polygon points="23,105 7,103 27,117" style="fill:rgb(231,211,161)"/>
<polygon points="146,114 146,111 134,111" style="fill:rgb(195,175,146)"/>
<polygon points="145,108 170,107 144,106" style="fill:rgb(190,171,141)"/>
<polygon points="134,130 146,114 134,111" style="fill:rgb(223,203,155)"/>
<polygon points="140,76 134,90 141,93" style="fill:rgb(161,95,92)"/>
<polygon points="131,74 130,61 125,67" style="fill:rgb(169,117,109)"/>
<polygon points="125,67 130,61 121,63" style="fill:rgb(172,123,111)"/>
<polygon points="18,100 1,99 9,101" style="fill:rgb(166,144,131)"/>
<polygon points="22,104 7,103 23,105" style="fill:rgb(175,155,125)"/>
<polygon points="142,76 140,76 141,93" style="fill:rgb(181,132,108)"/>
<polygon points="132,60 130,61 131,74" style="fill:rgb(126,87,93)"/>
<polygon points="142,76 141,93 143,95" style="fill:rgb(213,163,138)"/>
<polygon points="74,175 74,174 71,177" style="fill:rgb(129,117,103)"/>
<polygon points="79,185 96,178 92,170" style="fill:rgb(34,33,64)"/>
<polygon points="18,100 20,50 1,99" style="fill:rgb(238,226,177)"/>
<polygon points="20,102 7,103 22,104" style="fill:rgb(129,106,93)"/>
<polygon points="117,167 120,144 109,154" style="fill:rgb(173,156,148)"/>
<polygon points="120,144 133,153 126,135" style="fill:rgb(201,185,158)"/>
<polygon points="133,131 150,147 134,130" style="fill:rgb(162,147,126)"/>
<polygon points="134,130 151,146 146,114" style="fill:rgb(226,208,159)"/>
<polygon points="64,175 74,174 65,166" style="fill:rgb(220,212,175)"/>
<polygon points="74,174 74,175 80,169" style="fill:rgb(145,138,135)"/>
<polygon points="132,60 131,74 142,64" style="fill:rgb(69,46,66)"/>
<polygon points="121,63 113,35 104,60" style="fill:rgb(176,109,104)"/>
<polygon points="105,179 117,167 92,168" style="fill:rgb(168,162,157)"/>
<polygon points="103,179 92,168 92,170" style="fill:rgb(105,103,115)"/>
<polygon points="144,65 142,76 187,85" style="fill:rgb(221,202,163)"/>
<polygon points="142,64 131,74 138,76" style="fill:rgb(66,45,63)"/>
<polygon points="61,45 61,60 82,55" style="fill:rgb(220,158,128)"/>
<polygon points="61,45 59,46 61,60" style="fill:rgb(159,114,98)"/>
<polygon points="52,57 52,45 51,59" style="fill:rgb(145,129,110)"/>
<polygon points="80,39 82,55 85,36" style="fill:rgb(201,135,112)"/>
<polygon points="63,166 64,175 65,166" style="fill:rgb(177,167,155)"/>
<polygon points="30,156 56,147 51,144" style="fill:rgb(97,72,91)"/>
<polygon points="138,156 136,153 133,153" style="fill:rgb(122,115,124)"/>
<polygon points="133,153 136,153 131,132" style="fill:rgb(165,155,147)"/>
<polygon points="26,148 27,148 27,117" style="fill:rgb(147,117,104)"/>
<polygon points="27,117 27,148 51,144" style="fill:rgb(108,69,85)"/>
<polygon points="57,172 64,175 63,166" style="fill:rgb(117,107,108)"/>
<polygon points="142,64 138,76 140,76" style="fill:rgb(97,73,73)"/>
<polygon points="130,61 130,48 121,63" style="fill:rgb(172,120,108)"/>
<polygon points="64,175 71,177 74,174" style="fill:rgb(220,212,186)"/>
<polygon points="79,185 92,170 80,169" style="fill:rgb(44,42,68)"/>
<polygon points="0,144 26,148 27,117" style="fill:rgb(240,225,172)"/>
<polygon points="27,148 30,156 51,144" style="fill:rgb(99,67,87)"/>
<polygon points="138,156 138,153 136,153" style="fill:rgb(97,91,109)"/>
<polygon points="136,153 138,153 131,132" style="fill:rgb(123,111,116)"/>
<polygon points="85,36 82,55 104,60" style="fill:rgb(188,117,106)"/>
<polygon points="79,185 80,169 74,175" style="fill:rgb(47,43,69)"/>
<polygon points="26,154 30,156 27,148" style="fill:rgb(103,80,77)"/>
<polygon points="61,40 59,46 61,45" style="fill:rgb(133,90,82)"/>
<polygon points="61,40 52,45 59,46" style="fill:rgb(73,47,57)"/>
<polygon points="59,46 52,45 52,57" style="fill:rgb(66,49,56)"/>
<polygon points="134,173 138,156 133,153" style="fill:rgb(124,120,130)"/>
<polygon points="138,153 147,150 133,131" style="fill:rgb(65,53,72)"/>
<polygon points="85,36 78,37 80,39" style="fill:rgb(180,124,109)"/>
<polygon points="80,39 71,36 61,45" style="fill:rgb(235,185,147)"/>
<polygon points="71,36 61,40 61,45" style="fill:rgb(178,133,117)"/>
<polygon points="101,181 103,179 96,178" style="fill:rgb(71,68,87)"/>
<polygon points="96,178 103,179 92,170" style="fill:rgb(43,42,66)"/>
<polygon points="117,167 122,172 133,153" style="fill:rgb(162,153,146)"/>
<polygon points="19,158 26,154 18,157" style="fill:rgb(141,134,113)"/>
<polygon points="26,148 26,154 27,148" style="fill:rgb(115,84,80)"/>
<polygon points="17,170 57,180 57,172" style="fill:rgb(43,41,68)"/>
<polygon points="113,35 85,36 104,60" style="fill:rgb(173,105,101)"/>
<polygon points="103,179 105,179 92,168" style="fill:rgb(126,124,135)"/>
<polygon points="144,65 140,76 142,76" style="fill:rgb(184,162,147)"/>
<polygon points="144,65 142,64 140,76" style="fill:rgb(133,115,107)"/>
<polygon points="132,60 130,48 130,61" style="fill:rgb(125,86,90)"/>
<polygon points="105,179 122,172 117,167" style="fill:rgb(174,165,158)"/>
<polygon points="78,37 71,36 80,39" style="fill:rgb(214,163,140)"/>
<polygon points="74,35 71,36 78,37" style="fill:rgb(170,125,102)"/>
<polygon points="103,179 101,181 105,179" style="fill:rgb(107,103,108)"/>
<polygon points="105,179 112,185 122,172" style="fill:rgb(171,162,156)"/>
<polygon points="92,201 101,181 96,178" style="fill:rgb(91,91,113)"/>
<polygon points="85,36 74,35 78,37" style="fill:rgb(151,97,85)"/>
<polygon points="187,85 142,76 143,95" style="fill:rgb(224,205,163)"/>
<polygon points="7,103 9,101 1,99" style="fill:rgb(99,76,66)"/>
<polygon points="18,100 9,101 20,102" style="fill:rgb(102,82,65)"/>
<polygon points="163,162 147,150 138,156" style="fill:rgb(55,51,75)"/>
<polygon points="138,156 147,150 138,153" style="fill:rgb(57,50,74)"/>
<polygon points="169,113 169,110 146,111" style="fill:rgb(159,138,122)"/>
<polygon points="64,175 66,183 71,177" style="fill:rgb(207,200,174)"/>
<polygon points="71,177 79,185 74,175" style="fill:rgb(81,77,96)"/>
<polygon points="57,172 57,180 64,175" style="fill:rgb(122,114,122)"/>
<polygon points="17,170 57,172 30,156" style="fill:rgb(52,47,71)"/>
<polygon points="61,40 58,30 52,45" style="fill:rgb(68,42,56)"/>
<polygon points="71,36 67,35 61,40" style="fill:rgb(126,86,77)"/>
<polygon points="74,35 67,35 71,36" style="fill:rgb(88,56,64)"/>
<polygon points="57,180 66,183 64,175" style="fill:rgb(153,145,136)"/>
<polygon points="66,183 79,185 71,177" style="fill:rgb(105,99,113)"/>
<polygon points="147,150 149,148 133,131" style="fill:rgb(98,85,83)"/>
<polygon points="146,111 169,110 145,108" style="fill:rgb(119,97,85)"/>
<polygon points="149,148 150,147 133,131" style="fill:rgb(130,115,102)"/>
<polygon points="133,47 132,60 141,52" style="fill:rgb(66,45,62)"/>
<polygon points="133,47 130,48 132,60" style="fill:rgb(117,75,78)"/>
<polygon points="1,102 7,103 1,99" style="fill:rgb(106,83,73)"/>
<polygon points="9,101 7,103 20,102" style="fill:rgb(97,75,61)"/>
<polygon points="150,147 151,146 134,130" style="fill:rgb(191,176,148)"/>
<polygon points="141,52 132,60 142,64" style="fill:rgb(63,48,62)"/>
<polygon points="130,48 113,35 121,63" style="fill:rgb(182,119,104)"/>
<polygon points="57,180 64,186 66,183" style="fill:rgb(157,150,139)"/>
<polygon points="66,183 77,189 79,185" style="fill:rgb(132,126,129)"/>
<polygon points="61,198 64,186 57,180" style="fill:rgb(160,155,150)"/>
<polygon points="123,35 113,35 130,48" style="fill:rgb(196,137,119)"/>
<polygon points="85,36 90,29 74,35" style="fill:rgb(101,61,73)"/>
<polygon points="64,186 77,189 66,183" style="fill:rgb(159,152,144)"/>
<polygon points="79,185 90,201 96,178" style="fill:rgb(34,32,64)"/>
<polygon points="109,30 90,29 85,36" style="fill:rgb(120,73,88)"/>
<polygon points="65,21 58,30 67,35" style="fill:rgb(64,46,55)"/>
<polygon points="144,51 141,52 142,64" style="fill:rgb(97,80,75)"/>
<polygon points="18,157 26,154 26,148" style="fill:rgb(226,210,180)"/>
<polygon points="26,154 19,158 30,156" style="fill:rgb(94,84,81)"/>
<polygon points="106,194 112,185 101,181" style="fill:rgb(152,149,147)"/>
<polygon points="101,181 112,185 105,179" style="fill:rgb(123,119,119)"/>
<polygon points="122,172 134,173 133,153" style="fill:rgb(146,139,140)"/>
<polygon points="9,160 18,157 8,159" style="fill:rgb(147,133,119)"/>
<polygon points="127,197 134,173 122,172" style="fill:rgb(146,141,143)"/>
<polygon points="164,158 150,147 149,148" style="fill:rgb(122,113,101)"/>
<polygon points="164,158 165,156 150,147" style="fill:rgb(140,132,116)"/>
<polygon points="150,147 165,156 151,146" style="fill:rgb(185,175,146)"/>
<polygon points="131,201 137,172 134,173" style="fill:rgb(86,83,106)"/>
<polygon points="134,173 137,172 138,156" style="fill:rgb(80,78,101)"/>
<polygon points="18,100 45,79 20,50" style="fill:rgb(239,229,183)"/>
<polygon points="7,103 0,144 27,117" style="fill:rgb(237,220,163)"/>
<polygon points="67,35 58,30 61,40" style="fill:rgb(71,44,62)"/>
<polygon points="20,50 51,66 51,59" style="fill:rgb(236,224,184)"/>
<polygon points="57,29 58,30 65,21" style="fill:rgb(104,81,67)"/>
<polygon points="124,31 109,30 113,35" style="fill:rgb(179,126,112)"/>
<polygon points="113,35 109,30 85,36" style="fill:rgb(152,94,98)"/>
<polygon points="123,35 130,48 125,36" style="fill:rgb(151,102,98)"/>
<polygon points="20,50 51,59 52,45" style="fill:rgb(231,216,174)"/>
<polygon points="1,99 0,104 1,102" style="fill:rgb(107,84,75)"/>
<polygon points="1,102 0,104 7,103" style="fill:rgb(167,143,131)"/>
<polygon points="144,65 144,51 142,64" style="fill:rgb(167,147,137)"/>
<polygon points="141,52 142,42 133,47" style="fill:rgb(66,51,62)"/>
<polygon points="187,57 144,51 144,65" style="fill:rgb(216,195,154)"/>
<polygon points="125,36 130,48 133,47" style="fill:rgb(123,81,83)"/>
<polygon points="142,42 125,36 133,47" style="fill:rgb(75,50,63)"/>
<polygon points="65,21 67,35 74,35" style="fill:rgb(58,38,59)"/>
<polygon points="58,30 57,29 52,45" style="fill:rgb(118,95,80)"/>
<polygon points="169,113 146,111 146,114" style="fill:rgb(205,184,155)"/>
<polygon points="175,125 169,113 146,114" style="fill:rgb(221,203,157)"/>
<polygon points="175,125 146,114 151,146" style="fill:rgb(225,208,159)"/>
<polygon points="78,195 80,195 77,189" style="fill:rgb(99,94,106)"/>
<polygon points="77,189 80,195 79,185" style="fill:rgb(122,113,127)"/>
<polygon points="68,202 78,195 77,189" style="fill:rgb(135,129,128)"/>
<polygon points="68,202 77,189 64,186" style="fill:rgb(182,173,155)"/>
<polygon points="125,29 107,26 109,30" style="fill:rgb(117,78,81)"/>
<polygon points="109,30 107,26 90,29" style="fill:rgb(90,56,78)"/>
<polygon points="90,29 65,21 74,35" style="fill:rgb(62,41,63)"/>
<polygon points="124,31 113,35 123,35" style="fill:rgb(189,136,116)"/>
<polygon points="169,113 170,108 169,110" style="fill:rgb(164,144,126)"/>
<polygon points="169,110 170,107 145,108" style="fill:rgb(144,123,104)"/>
<polygon points="170,108 170,107 169,110" style="fill:rgb(175,156,134)"/>
<polygon points="28,36 20,50 52,45" style="fill:rgb(226,208,162)"/>
<polygon points="125,29 124,31 125,36" style="fill:rgb(99,69,74)"/>
<polygon points="125,36 124,31 123,35" style="fill:rgb(132,86,77)"/>
<polygon points="92,201 106,194 101,181" style="fill:rgb(115,116,127)"/>
<polygon points="112,185 127,197 122,172" style="fill:rgb(152,147,142)"/>
<polygon points="143,42 142,42 144,51" style="fill:rgb(174,155,127)"/>
<polygon points="144,51 142,42 141,52" style="fill:rgb(127,110,100)"/>
<polygon points="145,42 143,42 144,51" style="fill:rgb(196,177,152)"/>
<polygon points="142,42 125,29 125,36" style="fill:rgb(68,47,61)"/>
<polygon points="65,19 65,21 78,7" style="fill:rgb(147,119,107)"/>
<polygon points="57,29 28,36 52,45" style="fill:rgb(220,197,152)"/>
<polygon points="134,20 125,29 142,42" style="fill:rgb(73,55,62)"/>
<polygon points="124,31 125,29 109,30" style="fill:rgb(151,106,99)"/>
<polygon points="9,160 17,170 19,158" style="fill:rgb(69,60,78)"/>
<polygon points="19,158 17,170 30,156" style="fill:rgb(63,59,73)"/>
<polygon points="9,160 19,158 18,157" style="fill:rgb(100,89,84)"/>
<polygon points="4,154 18,157 26,148" style="fill:rgb(238,226,175)"/>
<polygon points="0,104 0,144 7,103" style="fill:rgb(235,217,162)"/>
<polygon points="4,154 8,159 18,157" style="fill:rgb(223,211,178)"/>
<polygon points="9,160 2,162 17,170" style="fill:rgb(66,56,75)"/>
<polygon points="158,28 145,42 187,57" style="fill:rgb(204,181,141)"/>
<polygon points="136,19 134,20 142,42" style="fill:rgb(133,110,97)"/>
<polygon points="0,144 4,154 26,148" style="fill:rgb(235,220,175)"/>
<polygon points="29,18 28,36 57,29" style="fill:rgb(217,193,146)"/>
<polygon points="55,201 61,198 57,180" style="fill:rgb(94,91,108)"/>
<polygon points="72,211 90,201 80,195" style="fill:rgb(33,33,63)"/>
<polygon points="80,195 90,201 79,185" style="fill:rgb(37,35,64)"/>
<polygon points="83,8 65,21 90,29" style="fill:rgb(62,43,63)"/>
<polygon points="65,21 65,19 57,29" style="fill:rgb(142,118,95)"/>
<polygon points="0,144 2,152 4,154" style="fill:rgb(162,146,124)"/>
<polygon points="4,154 2,162 8,159" style="fill:rgb(217,205,184)"/>
<polygon points="8,159 2,162 9,160" style="fill:rgb(121,109,113)"/>
<polygon points="72,211 80,195 78,195" style="fill:rgb(58,58,78)"/>
<polygon points="90,201 92,201 96,178" style="fill:rgb(70,69,93)"/>
<polygon points="166,155 175,125 151,146" style="fill:rgb(227,212,163)"/>
<polygon points="187,112 187,109 170,108" style="fill:rgb(142,126,109)"/>
<polygon points="170,108 187,109 170,107" style="fill:rgb(183,165,143)"/>
<polygon points="164,158 147,150 163,162" style="fill:rgb(64,59,75)"/>
<polygon points="164,158 149,148 147,150" style="fill:rgb(87,79,81)"/>
<polygon points="163,162 138,156 137,172" style="fill:rgb(47,42,73)"/>
<polygon points="61,198 68,202 64,186" style="fill:rgb(180,174,155)"/>
<polygon points="98,210 97,203 92,213" style="fill:rgb(125,122,131)"/>
<polygon points="175,160 166,155 174,162" style="fill:rgb(148,139,126)"/>
<polygon points="165,156 166,155 151,146" style="fill:rgb(200,190,156)"/>
<polygon points="92,201 97,203 106,194" style="fill:rgb(126,127,137)"/>
<polygon points="187,189 163,162 137,172" style="fill:rgb(39,36,68)"/>
<polygon points="97,203 92,201 92,213" style="fill:rgb(110,109,125)"/>
<polygon points="127,197 112,185 106,194" style="fill:rgb(165,156,150)"/>
<polygon points="174,162 166,155 165,156" style="fill:rgb(155,146,129)"/>
<polygon points="61,198 64,207 68,202" style="fill:rgb(167,161,151)"/>
<polygon points="50,205 55,201 57,180" style="fill:rgb(53,52,78)"/>
<polygon points="0,144 2,162 2,152" style="fill:rgb(89,72,70)"/>
<polygon points="2,152 2,162 4,154" style="fill:rgb(183,168,153)"/>
<polygon points="17,170 13,182 57,180" style="fill:rgb(42,40,67)"/>
<polygon points="125,29 110,15 107,26" style="fill:rgb(70,41,61)"/>
<polygon points="107,26 110,15 90,29" style="fill:rgb(55,35,60)"/>
<polygon points="124,13 110,15 125,29" style="fill:rgb(78,57,69)"/>
<polygon points="112,205 127,197 106,194" style="fill:rgb(168,160,152)"/>
<polygon points="58,208 64,207 61,198" style="fill:rgb(132,126,128)"/>
<polygon points="68,202 72,211 78,195" style="fill:rgb(115,115,123)"/>
<polygon points="98,210 112,205 97,203" style="fill:rgb(154,149,151)"/>
<polygon points="97,203 112,205 106,194" style="fill:rgb(140,139,140)"/>
<polygon points="110,15 83,8 90,29" style="fill:rgb(51,36,59)"/>
<polygon points="51,8 29,18 57,29" style="fill:rgb(210,185,140)"/>
<polygon points="64,207 69,209 68,202" style="fill:rgb(172,164,160)"/>
<polygon points="0,176 13,182 17,170" style="fill:rgb(48,43,67)"/>
<polygon points="55,201 58,208 61,198" style="fill:rgb(104,100,117)"/>
<polygon points="13,182 50,205 57,180" style="fill:rgb(34,32,63)"/>
<polygon points="64,207 53,214 69,209" style="fill:rgb(146,143,142)"/>
<polygon points="92,213 92,201 90,201" style="fill:rgb(43,41,69)"/>
<polygon points="83,8 78,7 65,21" style="fill:rgb(94,67,70)"/>
<polygon points="50,205 58,208 55,201" style="fill:rgb(92,91,109)"/>
<polygon points="136,19 142,42 143,42" style="fill:rgb(145,124,106)"/>
<polygon points="80,3 79,5 83,8" style="fill:rgb(159,135,126)"/>
<polygon points="69,227 72,211 69,209" style="fill:rgb(111,108,123)"/>
<polygon points="69,209 72,211 68,202" style="fill:rgb(137,133,138)"/>
<polygon points="187,112 169,113 187,115" style="fill:rgb(185,166,143)"/>
<polygon points="187,112 170,108 169,113" style="fill:rgb(138,120,104)"/>
<polygon points="170,107 187,85 143,95" style="fill:rgb(224,209,168)"/>
<polygon points="145,42 136,19 143,42" style="fill:rgb(182,159,132)"/>
<polygon points="169,113 175,125 187,115" style="fill:rgb(217,199,155)"/>
<polygon points="132,202 131,201 130,213" style="fill:rgb(67,66,86)"/>
<polygon points="128,214 131,201 127,197" style="fill:rgb(137,134,139)"/>
<polygon points="127,197 131,201 134,173" style="fill:rgb(118,115,128)"/>
<polygon points="187,115 175,125 185,159" style="fill:rgb(224,207,159)"/>
<polygon points="185,159 175,125 166,155" style="fill:rgb(225,211,164)"/>
<polygon points="85,4 83,8 89,2" style="fill:rgb(88,68,71)"/>
<polygon points="83,8 79,5 78,7" style="fill:rgb(165,138,128)"/>
<polygon points="78,7 51,8 65,19" style="fill:rgb(201,172,137)"/>
<polygon points="134,20 124,13 125,29" style="fill:rgb(84,63,71)"/>
<polygon points="158,28 136,19 145,42" style="fill:rgb(202,176,138)"/>
<polygon points="134,20 127,12 124,13" style="fill:rgb(123,97,90)"/>
<polygon points="72,211 92,213 90,201" style="fill:rgb(29,29,63)"/>
<polygon points="98,210 109,212 112,205" style="fill:rgb(162,155,150)"/>
<polygon points="0,20 0,46 28,36" style="fill:rgb(223,202,155)"/>
<polygon points="28,36 0,46 20,50" style="fill:rgb(229,209,164)"/>
<polygon points="20,50 0,46 1,99" style="fill:rgb(236,222,175)"/>
<polygon points="1,99 0,46 0,104" style="fill:rgb(200,180,153)"/>
<polygon points="174,162 164,158 163,162" style="fill:rgb(66,61,77)"/>
<polygon points="174,162 165,156 164,158" style="fill:rgb(104,96,94)"/>
<polygon points="187,174 174,162 163,162" style="fill:rgb(58,52,72)"/>
<polygon points="130,213 131,201 128,214" style="fill:rgb(83,80,97)"/>
<polygon points="131,201 132,202 137,172" style="fill:rgb(60,58,83)"/>
<polygon points="89,2 83,8 110,15" style="fill:rgb(64,45,63)"/>
<polygon points="85,4 80,3 83,8" style="fill:rgb(133,112,106)"/>
<polygon points="50,1 51,8 78,7" style="fill:rgb(189,160,127)"/>
<polygon points="51,8 57,29 65,19" style="fill:rgb(208,182,141)"/>
<polygon points="50,1 78,7 50,0" style="fill:rgb(175,145,126)"/>
<polygon points="93,228 109,212 98,210" style="fill:rgb(167,162,152)"/>
<polygon points="187,109 187,85 170,107" style="fill:rgb(219,206,166)"/>
<polygon points="136,19 127,12 134,20" style="fill:rgb(165,138,121)"/>
<polygon points="126,6 89,2 110,15" style="fill:rgb(85,60,69)"/>
<polygon points="85,4 84,0 80,3" style="fill:rgb(82,56,58)"/>
<polygon points="2,162 0,176 17,170" style="fill:rgb(55,47,71)"/>
<polygon points="52,219 53,214 50,205" style="fill:rgb(86,87,107)"/>
<polygon points="0,144 0,176 2,162" style="fill:rgb(59,45,59)"/>
<polygon points="126,6 110,15 124,13" style="fill:rgb(94,70,76)"/>
<polygon points="126,6 84,0 89,2" style="fill:rgb(105,81,81)"/>
<polygon points="89,2 84,0 85,4" style="fill:rgb(75,52,60)"/>
<polygon points="50,0 78,7 79,5" style="fill:rgb(177,149,129)"/>
<polygon points="50,205 53,214 58,208" style="fill:rgb(117,116,130)"/>
<polygon points="58,208 53,214 64,207" style="fill:rgb(129,128,131)"/>
<polygon points="72,211 91,228 92,213" style="fill:rgb(29,30,62)"/>
<polygon points="52,219 50,205 48,228" style="fill:rgb(49,51,77)"/>
<polygon points="139,11 127,8 127,12" style="fill:rgb(157,130,123)"/>
<polygon points="127,12 127,8 124,13" style="fill:rgb(155,129,124)"/>
<polygon points="187,57 145,42 144,51" style="fill:rgb(210,188,146)"/>
<polygon points="137,5 126,6 127,8" style="fill:rgb(92,65,65)"/>
<polygon points="139,11 127,12 136,19" style="fill:rgb(184,154,131)"/>
<polygon points="127,8 126,6 124,13" style="fill:rgb(122,94,94)"/>
<polygon points="154,19 139,11 136,19" style="fill:rgb(190,161,131)"/>
<polygon points="50,0 79,5 80,3" style="fill:rgb(139,111,103)"/>
<polygon points="51,8 34,5 29,18" style="fill:rgb(206,179,139)"/>
<polygon points="187,164 175,160 174,162" style="fill:rgb(128,116,107)"/>
<polygon points="187,164 185,159 175,160" style="fill:rgb(181,165,144)"/>
<polygon points="175,160 185,159 166,155" style="fill:rgb(210,197,163)"/>
<polygon points="128,214 112,205 109,212" style="fill:rgb(166,160,149)"/>
<polygon points="128,214 127,197 112,205" style="fill:rgb(162,158,149)"/>
<polygon points="187,166 187,164 174,162" style="fill:rgb(110,95,96)"/>
<polygon points="128,214 125,228 127,227" style="fill:rgb(120,114,126)"/>
<polygon points="84,0 50,0 80,3" style="fill:rgb(85,57,61)"/>
<polygon points="43,0 34,5 51,8" style="fill:rgb(194,166,130)"/>
<polygon points="93,228 98,210 92,213" style="fill:rgb(133,131,136)"/>
<polygon points="154,13 166,13 155,10" style="fill:rgb(119,90,85)"/>
<polygon points="158,28 154,19 136,19" style="fill:rgb(197,170,135)"/>
<polygon points="48,228 50,205 5,208" style="fill:rgb(25,23,58)"/>
<polygon points="59,228 69,227 69,209" style="fill:rgb(154,146,148)"/>
<polygon points="43,0 51,8 50,1" style="fill:rgb(183,156,127)"/>
<polygon points="29,18 0,20 28,36" style="fill:rgb(219,194,148)"/>
<polygon points="187,85 187,57 144,65" style="fill:rgb(216,199,157)"/>
<polygon points="50,0 43,0 50,1" style="fill:rgb(141,114,94)"/>
<polygon points="155,10 137,5 139,11" style="fill:rgb(96,74,69)"/>
<polygon points="139,11 137,5 127,8" style="fill:rgb(101,77,72)"/>
<polygon points="126,6 137,5 84,0" style="fill:rgb(132,107,98)"/>
<polygon points="187,166 174,162 187,174" style="fill:rgb(71,61,79)"/>
<polygon points="185,159 187,164 187,115" style="fill:rgb(222,206,158)"/>
<polygon points="187,174 163,162 187,189" style="fill:rgb(41,40,67)"/>
<polygon points="59,228 69,209 53,214" style="fill:rgb(152,148,147)"/>
<polygon points="154,13 154,19 165,17" style="fill:rgb(180,151,121)"/>
<polygon points="154,19 154,13 139,11" style="fill:rgb(176,149,123)"/>
<polygon points="70,228 91,228 72,211" style="fill:rgb(28,27,62)"/>
<polygon points="91,228 93,228 92,213" style="fill:rgb(95,92,116)"/>
<polygon points="69,227 70,228 72,211" style="fill:rgb(75,71,92)"/>
<polygon points="59,228 70,228 69,227" style="fill:rgb(81,78,97)"/>
<polygon points="48,228 59,228 52,219" style="fill:rgb(90,91,109)"/>
<polygon points="52,219 59,228 53,214" style="fill:rgb(98,99,111)"/>
<polygon points="0,0 29,18 34,5" style="fill:rgb(206,180,139)"/>
<polygon points="0,0 0,20 29,18" style="fill:rgb(212,186,145)"/>
<polygon points="165,17 154,19 158,28" style="fill:rgb(194,167,131)"/>
<polygon points="154,13 155,10 139,11" style="fill:rgb(139,112,105)"/>
<polygon points="187,189 137,172 132,202" style="fill:rgb(33,31,63)"/>
<polygon points="187,27 165,17 158,28" style="fill:rgb(190,165,128)"/>
<polygon points="5,208 50,205 13,182" style="fill:rgb(30,27,60)"/>
<polygon points="128,214 127,227 130,213" style="fill:rgb(90,85,96)"/>
<polygon points="187,228 187,189 132,202" style="fill:rgb(30,29,61)"/>
<polygon points="125,228 128,214 109,212" style="fill:rgb(161,154,144)"/>
<polygon points="93,228 125,228 109,212" style="fill:rgb(179,172,154)"/>
<polygon points="0,176 5,208 13,182" style="fill:rgb(39,34,63)"/>
<polygon points="168,9 166,13 187,16" style="fill:rgb(105,81,81)"/>
<polygon points="165,17 166,13 154,13" style="fill:rgb(160,131,114)"/>
<polygon points="155,10 168,9 137,5" style="fill:rgb(116,91,84)"/>
<polygon points="187,228 132,202 130,213" style="fill:rgb(29,27,61)"/>
<polygon points="187,16 166,13 165,17" style="fill:rgb(156,128,109)"/>
<polygon points="166,13 168,9 155,10" style="fill:rgb(92,64,71)"/>
<polygon points="187,57 187,27 158,28" style="fill:rgb(197,173,134)"/>
<polygon points="43,0 0,0 34,5" style="fill:rgb(191,160,127)"/>
<polygon points="187,27 187,16 165,17" style="fill:rgb(177,151,124)"/>
<polygon points="187,16 187,11 168,9" style="fill:rgb(101,80,74)"/>
<polygon points="168,9 187,0 137,5" style="fill:rgb(183,157,133)"/>
<polygon points="187,11 187,9 168,9" style="fill:rgb(149,126,111)"/>
<polygon points="137,5 187,0 84,0" style="fill:rgb(189,164,138)"/>
<polygon points="0,176 0,228 5,208" style="fill:rgb(25,21,56)"/>
<polygon points="5,208 0,228 48,228" style="fill:rgb(22,20,55)"/>
<polygon points="187,9 187,0 168,9" style="fill:rgb(178,153,130)"/>
<polygon points="125,228 187,228 127,227" style="fill:rgb(66,62,81)"/>
<polygon points="127,227 187,228 130,213" style="fill:rgb(28,27,59)"/>
</svg>