<?xml version="1.0" encoding="UTF-8" standalone="no"?>
<svg
   width="60"
   height="40"
   viewBox="0 0 230.88327 171.32"
   fill="none"
   version="1.1"
   id="svg17"
   xmlns="http://www.w3.org/2000/svg"
   xmlns:svg="http://www.w3.org/2000/svg">
  <defs
     id="defs4">
    <style
       id="style2" />
  </defs>
  <g
     class="acg-logo-cloud"
     fill="#f68922"
     id="g14"
     transform="translate(3.4313178,19.885684)">
    <path
       d="m 76.47,96.84 c -0.08,0.28 -0.16,0.55 -0.25,0.82 l 3,1 a 38.26,38.26 0 0 0 1.45,-6.68 L 77.41,92 a 35.25,35.25 0 0 1 -0.94,4.84 z M 77.41,72.39 A 36.65,36.65 0 0 0 74,66.47 l -2.56,1.8 a 33.42,33.42 0 0 1 3.12,5.43 z M 69.57,61.27 a 37.17,37.17 0 0 0 -5.3,-4.3 l -1.74,2.6 a 34.6,34.6 0 0 1 4.86,3.94 z m 4.09,42.64 -0.15,0.28 h -0.05 l -0.78,-0.83 -0.07,-0.07 h -0.16 l -0.06,-0.07 -0.07,-0.09 -0.1,-0.11 -0.08,-0.09 -0.08,-0.09 v -0.06 H 71 v -0.06 c -0.46,-0.55 -0.9,-1.11 -1.34,-1.68 L 67,101.83 a 62.2,62.2 0 0 0 4.3,5 l 1.47,-1.4 c -0.55,0.9 -1.09,1.82 -1.72,2.67 l -0.23,0.31 h -0.29 l 2.45,2 a 37.92,37.92 0 0 0 3.74,-5.71 z m -12.84,13.4 1.59,2.7 A 36.79,36.79 0 0 0 68,116 l -2.06,-2.36 a 33.76,33.76 0 0 1 -5.12,3.67 z M 153,39.62 a 44.38,44.38 0 0 1 5.82,-2.21 l 0.22,-0.06 -1,-3.43 -0.22,0.06 a 47.56,47.56 0 0 0 -6.31,2.39 l -0.2,0.1 1.51,3.25 z m -5.91,3.38 0.11,-0.1 h 0.19 v -0.11 l 0.32,-0.19 -2,-3 -0.19,0.13 a 47.32,47.32 0 0 0 -5.36,4.08 l -0.17,0.15 2.37,2.68 0.17,-0.14 c 0.26,-0.24 0.53,-0.46 0.8,-0.69 l 0.09,-0.08 h 0.06 l 0.1,-0.14 0.17,-0.1 v -0.07 l 0.2,-0.06 v -0.12 h 0.21 v -0.1 l 0.27,-0.11 v -0.07 h 0.08 v -0.07 h 0.15 v -0.11 h 0.1 l 0.32,-0.25 0.11,-0.07 h 0.06 l 0.07,-0.06 0.11,-0.07 0.08,-0.06 c 0,0 0.06,-0.05 0,-0.05 h 0.13 l 0.2,-0.12 H 146 v -0.12 h 0.24 v -0.09 l 0.38,-0.27 z m -2.79,1.75 z m 0,0 z m 0.5,-0.39 z m 0,0 z m 2,-1.44 z m 0.21,-0.14 z m -12.56,13.3 0.12,-0.2 a 44.38,44.38 0 0 1 3.08,-4.3 l 0.07,-0.13 h 0.12 V 51.36 H 138 v -0.14 l 0.12,-0.16 h 0.12 v -0.13 l 0.14,-0.14 -2.75,-2.33 -0.14,0.17 a 46.47,46.47 0 0 0 -4,5.44 l -0.12,0.19 2.89,1.74 z m -4.88,11.4 v -0.26 l 0.05,-0.19 a 46.18,46.18 0 0 1 2,-5.65 l 0.09,-0.2 -3.27,-1.45 -0.09,0.21 a 46.48,46.48 0 0 0 -2.26,6.35 l -0.06,0.22 3.23,0.89 z M 128,79.57 V 76.6 c 0.06,-1.06 0.16,-2.15 0.29,-3.22 v -0.22 l -3.54,-0.44 v 0.22 a 44.62,44.62 0 0 0 -0.32,3.7 c 0,1 -0.06,2 0,3 v 0.23 l 3.58,-0.07 z m 2.08,12.43 -0.06,-0.21 a 43,43 0 0 1 -1.45,-6.06 v -0.22 l -3.32,0.54 h -0.22 v 0.22 a 47,47 0 0 0 1.57,6.56 l 0.07,0.21 3.19,-1 z m 4.37,9.44 v -0.06 h -0.06 l -0.11,-0.17 -0.07,-0.09 v -0.18 h -0.07 l -0.07,-0.09 h -0.05 v -0.15 h -0.06 v -0.11 h -0.08 l -0.36,-0.64 -0.2,-0.33 -0.18,-0.29 L 133,99 v -0.51 h -0.09 c -0.15,-0.29 -0.29,-0.57 -0.43,-0.86 l -0.1,-0.21 -3.38,1.58 0.09,0.2 a 47.33,47.33 0 0 0 3.38,5.83 l 0.12,0.19 3,-2 -0.13,-0.19 c -0.35,-0.53 -0.68,-1.03 -1.01,-1.59 z m -0.12,0 h 0.07 l -0.14,0.09 z m -0.12,0 h -0.05 z m -0.38,-0.6 z m -1,-1.82 z m 19.86,18.75 -0.15,-0.07 v -0.08 h -0.2 l -0.22,-0.11 v -0.09 H 152 v -0.05 h -0.29 l -0.19,-0.1 v -0.1 h -0.2 V 117 h -0.16 l -0.19,-0.09 v -0.08 h -0.17 l -0.14,-0.15 h -0.28 l -0.33,-0.18 -0.18,-0.18 h -0.22 l -0.82,-0.49 -1.84,3.07 0.19,0.11 a 46.46,46.46 0 0 0 6,3 l 0.21,0.09 1.38,-3.3 -0.2,-0.09 c -0.7,-0.4 -1.3,-0.66 -1.88,-0.94 z m -1.27,-0.45 v 0.06 z m -0.26,-0.1 z M 170.53,62.09 V 66 l 3.13,0.14 c 0,-0.9 0.06,-1.82 0.06,-2.73 0,-1.29 0,-2.59 -0.13,-3.87 z M 65.94,94.75 A 53.1,53.1 0 0 1 63,89.21 l -2.85,1.31 a 59.14,59.14 0 0 0 3.08,5.84 z m 98.06,-2.44 2.77,1.48 a 60.36,60.36 0 0 0 2.78,-6 l -2.91,-1.16 A 52.34,52.34 0 0 1 164,92.31 Z m 0.78,-51.62 v 0.07 h 0.06 v 0.07 c 0.44,0.91 0.86,1.83 1.25,2.76 l 2.89,-1.21 a 60.34,60.34 0 0 0 -2.9,-5.94 l -2.73,1.53 c 0.44,0.8 0.87,1.61 1.28,2.43 z M 57.92,66.58 v -1.26 h -3.13 v 0.91 c 0,1.9 0.09,3.81 0.27,5.69 l 3.11,-0.3 C 58,69.64 58,68.12 57.92,66.58 Z m 110.73,14.12 3,0.83 a 59.05,59.05 0 0 0 1.38,-6.47 L 170,74.58 a 58.83,58.83 0 0 1 -1.35,6.12 z M 55.26,58.26 l 3.1,0.39 a 57.13,57.13 0 0 1 1.13,-6.16 l -3.05,-0.73 c -0.09,0.38 -0.13,0.78 -0.21,1.17 a 36.7,36.7 0 0 0 -4.45,-1.34 l -0.69,3 a 34.08,34.08 0 0 1 4.57,1.42 c -0.12,0.79 -0.31,1.51 -0.4,2.25 z m 33.58,57.81 H 88.5 l -1.44,2.79 a 61.38,61.38 0 0 0 6,2.69 l 1.11,-2.92 a 57.25,57.25 0 0 1 -5.37,-2.38 z m 79.55,-66.16 c 0.38,1.34 0.72,2.7 1,4.07 v 0.15 c 0.06,0.32 0.12,0.63 0.17,0.95 l 3.09,-0.54 a 61.46,61.46 0 0 0 -1.52,-6.44 l -3,0.89 z m -9.04,49.71 c -0.7,0.92 -1.43,1.82 -2.19,2.69 l 2.37,2 a 58.29,58.29 0 0 0 4,-5.23 l -2.58,-1.77 c -0.65,1.01 -1.12,1.69 -1.6,2.31 z m -8.52,9.05 -0.13,0.11 -0.11,0.09 h -0.06 l -0.08,0.06 h -0.06 l -0.07,0.06 -0.08,0.06 -0.08,0.07 -0.09,0.07 -0.08,0.06 q -0.92,0.73 -1.86,1.44 l 1.86,2.51 a 58.6,58.6 0 0 0 5.09,-4.21 l -2.13,-2.3 c -0.95,0.95 -1.53,1.47 -2.12,1.98 z m -8.95,6.22 2.12,-2.59 -0.17,-0.14 c -0.75,-0.62 -1.49,-1.26 -2.17,-1.9 h -0.06 v -0.11 h -0.18 l -0.05,-0.17 h -0.13 v -0.11 h -0.12 l -0.08,-0.08 c -0.61,-0.59 -1.19,-1.19 -1.73,-1.78 l -0.15,-0.17 -2.48,2.16 -0.16,0.15 0.15,0.16 a 47.48,47.48 0 0 0 4.89,4.64 l 0.1,0.08 c -0.93,0.51 -1.86,1 -2.82,1.5 h -0.41 l -1.46,0.67 1.26,2.87 a 59.26,59.26 0 0 0 5.89,-3 l -1.57,-2.71 c -0.23,0.31 -0.46,0.41 -0.67,0.53 z M 81.76,111.8 h -0.33 c -1,-0.76 -2.08,-1.56 -3.07,-2.38 h -0.15 l -2,2.4 a 60.19,60.19 0 0 0 5.29,4 l 1.73,-2.61 -1.34,-0.92 z m 2.45,-53 v 2.4 h 3.13 a 24.72,24.72 0 0 0 -1,-7.09 l -3,0.88 a 20.63,20.63 0 0 1 0.87,3.81 z M 77,81 c 0,0.12 0,0.24 0.07,0.36 v 0.34 c 0.15,0.86 0.26,1.71 0.34,2.57 a 0.28,0.28 0 0 1 0,0.09 0.76,0.76 0 0 1 0,0.15 v 0.33 l 3.12,-0.2 A 37.86,37.86 0 0 0 80,80.28 c -0.15,-0.81 -0.32,-1.6 -0.52,-2.38 l -1.89,0.47 -1.36,-1.69 -0.63,0.48 H 75.39 A 21.44,21.44 0 0 1 71,80.78 l 1.17,2.9 A 24.54,24.54 0 0 0 77,81 Z m 1.35,-34.77 h 0.72 c 0.39,0.49 0.75,1 1.09,1.52 l 2.63,-1.71 a 24.53,24.53 0 0 0 -4.75,-5.36 l -2,2.4 a 21.11,21.11 0 0 1 1.62,1.51 z M 63,85.48 c 0.75,0 1.5,0 2.24,-0.11 L 65,82.26 c -0.51,0 -1,0.07 -1.53,0.08 H 62 c -0.53,0 -1.07,-0.14 -1.61,-0.21 Q 59.67,79.79 59.16,77.36 L 56,78 a 61.41,61.41 0 0 0 1.71,6.39 L 58.22,84.22 58.1,85 A 24.49,24.49 0 0 0 63,85.48 Z M 83.35,67.41 v 0.05 C 83.26,67.73 83.17,68 83.07,68.28 H 83.01 L 82.95,68.4 A 21.14,21.14 0 0 1 80.63,73 l 2.6,1.76 a 25.32,25.32 0 0 0 2.46,-4.63 c 0.24,-0.6 0.46,-1.2 0.65,-1.81 l -3,-0.94 z M 39,65.71 a 24.45,24.45 0 0 0 2.38,6.75 L 44.18,71 A 21.86,21.86 0 0 1 42.1,65.11 Z m 9.81,11.21 h -0.43 l -2.22,2.2 a 24.16,24.16 0 0 0 5.73,4.3 l 1.49,-2.76 a 20.55,20.55 0 0 1 -4,-2.82 z"
       id="path10" />
    <path
       d="m 173.59,26.07 q -1.23,-0.06 -2.46,-0.06 c -1.46,0 -2.93,0.06 -4.38,0.18 A 65.65,65.65 0 0 0 58.75,30.61 30.76,30.76 0 0 0 37,44.9 43.79,43.79 0 0 0 0,88 c 0,23.68 19.36,43.16 43.2,43.56 h 129.1 a 52.74,52.74 0 0 0 1.28,-105.42 z m -1.38,96 h -40.33 l -0.79,-2.54 -1,0.3 h -0.29 c -1.56,0.44 -3.15,0.82 -4.76,1.13 l 0.19,1 h -6.38 v -0.18 c -0.88,0.07 -1.78,0.12 -2.68,0.15 h -9.89 l 0.08,-0.55 c -0.84,-0.12 -1.67,-0.26 -2.49,-0.41 h -0.66 c -1,-0.2 -2,-0.43 -3,-0.69 l -0.46,1.78 H 55.94 L 55.16,120 a 33.26,33.26 0 0 1 -5,1.4 h -0.44 l -0.45,0.08 h -0.09 l 0.1,0.58 H 43.57 C 24.89,121.92 9.39,106.67 9.39,88 a 34.21,34.21 0 0 1 30.28,-34 24.49,24.49 0 0 0 -1,4.54 l 3.12,0.32 v -0.75 c 0.14,-0.73 0.32,-1.46 0.53,-2.18 v -0.16 h 0.09 a 21.28,21.28 0 0 1 18.32,-15.89 60.15,60.15 0 0 0 -2.38,5.55 l 2.94,1.07 q 0.95,-2.59 2.13,-5 v -0.08 l 0.19,-0.39 -1.91,-0.94 c 0.4,0 0.79,-0.1 1.21,-0.1 h 1.28 c 0.41,-0.78 0.86,-1.54 1.31,-2.3 l -0.27,2.42 a 20.69,20.69 0 0 1 3.83,0.79 h 0.58 l 0.69,0.26 H 71 l 0.41,0.17 1.23,-2.88 -0.5,-0.2 A 24.24,24.24 0 0 0 66,36.8 c 0.64,-1.08 1.32,-2.13 2,-3.15 0.28,-0.39 0.56,-0.78 0.85,-1.16 a 56.14,56.14 0 0 1 89,-2.3 l 0.56,0.7 a 54.55,54.55 0 0 1 3.82,5.43 43.14,43.14 0 0 1 8.85,-0.92 c 0.68,0 1.35,0 2,0.05 a 43.35,43.35 0 0 1 -0.95,86.65 z"
       id="path12" />
  </g>
</svg>
