<?xml version="1.0" encoding="UTF-8" standalone="no"?>
<!-- Created with Inkscape (http://www.inkscape.org/) -->

<svg
   version="1.1"
   id="svg2"
   xml:space="preserve"
   width="286"
   height="286"
   viewBox="0 0 286 286"
   xmlns="http://www.w3.org/2000/svg"
   xmlns:svg="http://www.w3.org/2000/svg"><defs
     id="defs6" /><g
     id="g8"
     transform="matrix(1.3333333,0,0,-1.3333333,-49.927462,329.60266)"><g
       id="g10"
       transform="scale(0.1)"><path
         d="m 886.594,589.84 c -26.891,18.359 -32.614,53.012 -14.43,79.629 18.008,26.371 52.32,34.441 80.266,15.351 17.008,-11.609 23.238,-24.558 26.308,-39.031 l -18.605,-4.879 c -2.703,11.891 -7.461,21.91 -18.008,29.11 -17.66,12.058 -40.352,6.3 -52.773,-11.899 -12.422,-18.191 -9.719,-41.68 7.945,-53.75 11.336,-7.742 21.734,-8.082 34.683,-6.09 l 3.215,-17.66 c -16.465,-3.449 -31.332,-2.582 -48.601,9.219"
         style="fill:#e32124;fill-opacity:1;fill-rule:nonzero;stroke:none"
         id="path12" /><path
         d="m 1067.31,597.09 -56.1,29.101 -13.382,-25.781 49.732,-25.801 -8.09,-15.589 -49.728,25.8 -13.816,-26.629 56.814,-29.472 -8.08,-15.59 -74.246,38.512 51.446,99.179 73.53,-38.148 -8.08,-15.582"
         style="fill:#e32124;fill-opacity:1;fill-rule:nonzero;stroke:none"
         id="path14" /><path
         d="m 1131.71,571.352 -26.77,10.019 -13.15,-35.141 26.92,-10.07 c 13.15,-4.93 24.1,-1.18 28.13,9.578 4.31,11.524 -1.53,20.524 -15.13,25.614 z m -10.93,-96.153 -12.06,46.121 -23.03,8.61 -13.66,-36.481 -18.39,6.883 39.18,104.668 46.65,-17.461 c 24.07,-9.008 34.12,-27.258 26.45,-47.75 -6.49,-17.34 -20.72,-23.949 -36.89,-22.5 l 13.43,-50.199 -21.68,8.109"
         style="fill:#e32124;fill-opacity:1;fill-rule:nonzero;stroke:none"
         id="path16" /><path
         d="m 1215.61,448.371 -19.23,4.699 22.21,90.871 -34.43,8.418 4.32,17.68 88.08,-21.527 -4.32,-17.684 -34.42,8.41 -22.21,-90.867"
         style="fill:#e32124;fill-opacity:1;fill-rule:nonzero;stroke:none"
         id="path18" /><path
         d="m 1314.19,543.27 -17.44,-110.372 -19.4,3.063 17.44,110.371 19.4,-3.062"
         style="fill:#e32124;fill-opacity:1;fill-rule:nonzero;stroke:none"
         id="path20" /><path
         d="m 1421.77,515.191 -63.36,4.649 -2.24,-30.41 56.21,-4.121 -1.31,-17.84 -56.2,4.133 -3.33,-45.383 -19.59,1.441 8.18,111.449 82.95,-6.089 -1.31,-17.829"
         style="fill:#e32124;fill-opacity:1;fill-rule:nonzero;stroke:none"
         id="path22" /><path
         d="m 1461.53,534.129 1.81,-111.738 -19.63,-0.321 -1.82,111.739 19.64,0.32"
         style="fill:#e32124;fill-opacity:1;fill-rule:nonzero;stroke:none"
         id="path24" /><path
         d="m 1572.3,524.352 -62.94,-5.872 2.7,-28.921 55.78,5.203 1.63,-17.481 -55.78,-5.203 2.79,-29.879 63.72,5.942 1.63,-17.481 -83.27,-7.762 -10.37,111.243 82.48,7.691 1.63,-17.48"
         style="fill:#e32124;fill-opacity:1;fill-rule:nonzero;stroke:none"
         id="path26" /><path
         d="m 1633.79,535.988 -21.5,-4.758 16.41,-74.179 21.5,4.75 c 22.91,5.07 34.46,23.808 29.7,45.308 -4.75,21.512 -23.2,33.942 -46.11,28.879 z m 20.28,-91.636 -40.68,-9 -24.13,109.089 40.67,9 c 34.29,7.579 63.18,-10.711 70.01,-41.57 6.83,-30.851 -11.59,-59.941 -45.87,-67.519"
         style="fill:#e32124;fill-opacity:1;fill-rule:nonzero;stroke:none"
         id="path28" /><path
         d="m 1764.54,512.691 c -7.73,-2.742 -16.38,1.321 -19.15,9.149 -2.77,7.82 1.42,16.422 9.15,19.148 7.82,2.762 16.48,-1.289 19.25,-9.109 2.77,-7.828 -1.42,-16.418 -9.25,-19.188"
         style="fill:#e32124;fill-opacity:1;fill-rule:nonzero;stroke:none"
         id="path30" /><path
         d="m 1891.7,525.922 c -29.22,-14.391 -62.2,-2.352 -76.45,26.578 -14.11,28.648 -4.27,62.5 26.09,77.449 18.47,9.11 32.82,8.172 46.93,3.731 l -4.9,-18.61 c -11.68,3.5 -22.74,4.282 -34.2,-1.371 -19.19,-9.449 -25.32,-32.051 -15.59,-51.808 9.73,-19.762 31.53,-28.961 50.72,-19.512 12.32,6.07 17.72,14.961 22.37,27.223 l 16.95,-5.891 c -5.09,-16.031 -13.16,-28.551 -31.92,-37.789"
         style="fill:#e32124;fill-opacity:1;fill-rule:nonzero;stroke:none"
         id="path32" /><path
         d="m 1974.14,686.91 -52.9,-34.57 15.89,-24.32 46.89,30.652 9.61,-14.692 -46.89,-30.652 16.41,-25.117 53.57,35.019 9.61,-14.699 -70.01,-45.75 -61.11,93.508 69.33,45.32 9.6,-14.699"
         style="fill:#e32124;fill-opacity:1;fill-rule:nonzero;stroke:none"
         id="path34" /><path
         d="m 1447.26,2376.97 c -526.217,0 -954.322,-428.11 -954.322,-954.32 0,-264.64 105.82,-510.67 297.964,-692.779 l 10.453,-9.91 10.583,9.777 c 27.632,25.532 56.687,49.141 86.878,70.953 146.344,-129.203 338.334,-207.839 548.444,-207.839 209.96,0 401.82,78.539 548.13,207.578 30.04,-21.731 58.97,-45.258 86.52,-70.719 l 10.58,-9.781 10.45,9.922 c 192.57,182.488 298.63,428.528 298.63,692.798 0,526.21 -428.1,954.32 -954.31,954.32"
         style="fill:#ffffff;fill-opacity:1;fill-rule:nonzero;stroke:none"
         id="path36" /><path
         d="m 2092.07,762.078 c -23.65,21.211 -48.24,41.004 -73.55,59.57 159.07,151.282 258.54,364.682 258.54,601.002 0,457.55 -372.25,829.8 -829.8,829.8 -457.561,0 -829.815,-372.25 -829.815,-829.8 0,-236.19 99.356,-449.47 258.262,-600.728 C 850.238,803.27 825.52,783.391 801.781,762.109 622.352,937.32 523.719,1171.31 523.719,1422.65 c 0,509.24 414.297,923.54 923.541,923.54 509.23,0 923.53,-414.3 923.53,-923.54 0,-250.99 -98.86,-484.978 -278.72,-660.572 z m -525.38,203.16 V 796.582 c 0,-24.094 -19.59,-43.691 -43.68,-43.691 h -196.04 v 212.347 z m -64.61,30.782 h -112.85 v 43.8 c 0,37.07 22.82,62.96 55.49,62.96 33.24,0 57.36,-26.48 57.36,-62.96 z m -853.853,426.63 c 0,440.58 358.443,799.02 799.033,799.02 440.58,0 799.02,-358.44 799.02,-799.02 0,-229.74 -97.59,-436.99 -253.33,-582.888 -118.51,81.148 -252.99,134.226 -395.48,156.258 h -64.61 v 43.8 c 0,53.43 -37.89,93.74 -88.14,93.74 -49.98,0 -86.27,-39.42 -86.27,-93.74 v -43.8 h -62.26 C 1154,973.898 1019.53,920.77 901.309,840 745.715,985.879 648.227,1193.04 648.227,1422.65 Z M 1447.26,623.629 c -199.63,0 -382.24,73.75 -522.44,195.223 111.63,74.976 238.19,124.808 371.37,146.347 v -243.09 h 226.82 c 41.05,0 74.46,33.403 74.46,74.473 v 168.637 c 133.31,-21.438 260.01,-71.309 371.94,-146.61 -140.16,-121.328 -322.66,-194.98 -522.15,-194.98 z m 0,1753.341 c -526.217,0 -954.322,-428.11 -954.322,-954.32 0,-264.64 105.82,-510.67 297.964,-692.779 l 10.453,-9.91 10.583,9.777 c 27.632,25.532 56.687,49.141 86.878,70.953 146.344,-129.203 338.334,-207.839 548.444,-207.839 209.96,0 401.82,78.539 548.13,207.578 30.04,-21.731 58.97,-45.258 86.52,-70.719 l 10.58,-9.781 10.45,9.922 c 192.57,182.488 298.63,428.528 298.63,692.798 0,526.21 -428.1,954.32 -954.31,954.32"
         style="fill:#626e79;fill-opacity:1;fill-rule:nonzero;stroke:none"
         id="path38" /><path
         d="m 1446.83,840.578 c 13.71,0 24.83,11.121 24.83,24.832 0,13.711 -11.12,24.828 -24.83,24.828 -13.71,0 -24.83,-11.117 -24.83,-24.828 0,-13.711 11.12,-24.832 24.83,-24.832"
         style="fill:#626e79;fill-opacity:1;fill-rule:nonzero;stroke:none"
         id="path40" /><path
         d="m 1208.65,1865.83 c -35.21,0 -62.85,24.74 -62.85,56.62 0,31.9 27.64,56.88 62.85,56.88 35.21,0 62.82,-24.98 62.82,-56.88 0,-31.88 -27.61,-56.62 -62.82,-56.62 m 0,90.66 c -22.38,0 -39.99,-15 -39.99,-34.04 0,-19.04 17.61,-33.78 39.99,-33.78 22.38,0 39.99,14.74 39.99,33.78 0,19.04 -17.61,34.04 -39.99,34.04"
         style="fill:#e32124;fill-opacity:1;fill-rule:nonzero;stroke:none"
         id="path42" /><path
         d="m 1433.27,1865.83 c -12.61,0 -22.82,10.45 -22.82,23.32 v 47.11 c 0,11.19 -9.78,20.24 -21.91,20.24 -11.9,0 -21.66,-9.05 -21.66,-20.24 v -70.43 c -12.63,0 -22.85,10.23 -22.85,22.84 v 47.59 c 0,11.19 -9.75,20.24 -21.87,20.24 -11.92,0 -21.69,-9.05 -21.69,-20.24 v -47.37 c 0,-12.61 -10.2,-23.06 -22.83,-23.06 v 70.43 c 0,23.79 19.99,43.07 44.52,43.07 13.29,0 25.21,-5.46 33.3,-14.28 8.08,8.82 19.99,14.28 33.08,14.28 24.74,0 44.73,-19.28 44.73,-43.07 v -70.43"
         style="fill:#e32124;fill-opacity:1;fill-rule:nonzero;stroke:none"
         id="path44" /><path
         d="m 1507.52,1866.06 c -5.96,0 -11.67,0.46 -16.91,1.67 -11.9,3.34 -18.8,15.69 -15.69,27.61 0.46,1.42 0.94,2.84 1.43,4.04 l 0.21,0.23 c 6.43,-7.15 16.91,-10.72 30.96,-10.72 20.95,0 37.35,14.75 37.35,33.33 0,19.28 -16.4,34.5 -37.35,34.5 -19.76,0 -39.52,-10.94 -39.52,-34.99 v -74 c 0,-12.37 -10.45,-22.38 -22.85,-22.38 l 0.01,96.38 c 0,33.33 26.19,57.84 62.36,57.84 15.95,0 30.92,-5.95 42.34,-16.41 11.45,-10.72 17.86,-25.25 17.86,-40.94 0,-31.43 -26.41,-56.16 -60.2,-56.16"
         style="fill:#e32124;fill-opacity:1;fill-rule:nonzero;stroke:none"
         id="path46" /><path
         d="m 1670.46,2001 h -48.9 v -135.16 h -0.95 c -12.13,0 -21.9,10.44 -21.9,22.82 V 2001 h -48.91 c -12.37,0 -22.36,10.22 -22.36,22.6 h 165.63 c 0,-12.38 -9.99,-22.6 -22.61,-22.6"
         style="fill:#e32124;fill-opacity:1;fill-rule:nonzero;stroke:none"
         id="path48" /><path
         d="m 1866.08,1880.19 -12.14,26.08 h -81.15 l -11.96,-26.84 c -5.65,-10.79 -20.73,-13.96 -32.26,-13.96 l 66.16,145.04 c 3.75,8.32 10.4,13.08 18.13,13.08 7.69,0 14.55,-4.76 18.31,-13.08 l 65.39,-143.28 c -12.31,-1.17 -25.71,2.49 -30.48,12.96 m -50.64,119.84 -32.49,-71.39 h 61.27 l -32.72,71.63 3.94,-0.24"
         style="fill:#e32124;fill-opacity:1;fill-rule:nonzero;stroke:none"
         id="path50" /><path
         d="m 1120.17,1981 c -12.38,13.08 -30.46,21.64 -50.46,21.64 -35.44,-0.01 -64.25,-25.69 -64.25,-57.34 0,-31.65 28.81,-57.58 64.25,-57.58 16.91,0 32.85,6.42 44.98,16.65 8.34,6.91 20.7,6.42 28.81,-0.48 -6.2,-9.51 -14.52,-17.84 -24.75,-24.26 -14.53,-9.29 -31.43,-14.05 -49.04,-14.05 -47.82,0 -86.612,35.7 -86.612,79.72 0,44.03 38.792,79.72 86.612,79.72 34.04,0 64.98,-18.56 78.78,-47.11 -8.81,-5.72 -20.95,-5 -28.32,3.09"
         style="fill:#e32124;fill-opacity:1;fill-rule:nonzero;stroke:none"
         id="path52" /><path
         d="m 1905.19,1874.55 c -6.63,0 -12,4.84 -12,10.78 0,5.94 5.37,10.87 12,10.87 6.62,0 12.03,-4.93 12.03,-10.87 0,-5.94 -5.41,-10.78 -12.03,-10.78 m 0,19.12 c -5.27,0 -9.49,-3.75 -9.49,-8.34 0,-4.59 4.22,-8.33 9.49,-8.33 5.28,0 9.58,3.74 9.58,8.33 0,4.59 -4.3,8.34 -9.58,8.34 m 4.43,-9.36 c -0.31,-0.2 -0.69,-0.34 -1.1,-0.45 0,0 0.73,-0.91 3.01,-3.62 l -0.42,-0.36 c -0.97,-0.78 -2.41,-0.67 -3.21,0.25 -2.51,3 -2.77,3.36 -2.77,3.36 h -2.88 v 0.82 c 0.12,1.07 1.05,2.01 2.22,2.01 h 1.4 c 1,0 1.77,0.18 2.27,0.48 0.44,0.19 0.56,0.5 0.56,0.94 0,0.35 0,1.34 -2.83,1.34 h -3.93 v -7.51 c 0,-1.19 -1.03,-2.18 -2.3,-2.18 h -0.57 v 10.43 c 0.06,1.16 1.02,2.07 2.21,2.13 h 4.59 c 5.16,0 5.71,-2.94 5.71,-4.21 0,-1.49 -0.76,-2.71 -1.96,-3.43"
         style="fill:#e32124;fill-opacity:1;fill-rule:nonzero;stroke:none"
         id="path54" /><path
         d="m 1700.33,2023.53 v -135.58 c 0,-12.14 10.48,-22.14 22.85,-22.14 v 135.6 c 0,12.12 -10.49,22.12 -22.85,22.12"
         style="fill:#e32124;fill-opacity:1;fill-rule:nonzero;stroke:none"
         id="path56" /><path
         d="M 2434.66,1763.65 H 375.602 v -498.9 c 0,-46.12 37.519,-83.64 83.64,-83.64 H 2518.31 v 498.88 c 0,46.13 -37.53,83.66 -83.65,83.66"
         style="fill:#e32124;fill-opacity:1;fill-rule:nonzero;stroke:none"
         id="path58" /><path
         d="m 798.273,1486.67 c 54.657,-13.3 83.09,-32.87 83.09,-76.07 0,-48.74 -38.035,-77.54 -92.32,-77.54 -39.512,0 -76.805,13.65 -107.824,41.35 l 27.328,32.49 c 24.742,-21.42 49.484,-33.6 81.605,-33.6 28.063,0 45.789,12.93 45.789,32.86 0,18.84 -10.339,28.8 -58.347,39.88 -55.016,13.29 -86.035,29.55 -86.035,77.55 0,45.05 36.925,75.34 88.254,75.34 37.667,0 67.578,-11.45 93.796,-32.51 l -24.375,-34.33 c -23.265,17.35 -46.523,26.58 -70.156,26.58 -26.594,0 -42.098,-13.66 -42.098,-31.02 0,-20.3 11.817,-29.17 61.293,-40.98"
         style="fill:#ffffff;fill-opacity:1;fill-rule:nonzero;stroke:none"
         id="path60" /><path
         d="m 1052.57,1447.9 c -2.95,28.8 -19.93,51.32 -49.48,51.32 -27.32,0 -46.524,-21.05 -50.586,-51.32 z M 1009,1368.87 c 21.79,0 37.3,8.13 52.81,23.26 l 26.21,-23.26 c -18.46,-22.16 -43.94,-36.56 -79.76,-36.56 -56.498,0 -100.069,40.99 -100.069,101.55 0,56.13 39.512,101.92 95.269,101.92 62.04,0 93.43,-48.75 93.43,-105.25 0,-4.06 -0.37,-7.75 -0.74,-12.19 H 952.871 c 5.172,-31.75 27.328,-49.47 56.129,-49.47"
         style="fill:#ffffff;fill-opacity:1;fill-rule:nonzero;stroke:none"
         id="path62" /><path
         d="m 1221.01,1332.31 c -57.97,0 -100.81,45.42 -100.81,101.18 0,55.75 42.84,102.29 101.18,102.29 36.92,0 59.82,-13.67 77.92,-33.6 l -27.7,-29.92 c -13.66,14.41 -28.06,24.37 -50.59,24.37 -32.5,0 -56.13,-28.07 -56.13,-62.4 0,-35.08 24.01,-63.14 58.35,-63.14 21.05,0 36.56,9.97 50.58,24.37 l 26.96,-26.59 c -19.2,-21.41 -41.72,-36.56 -79.76,-36.56"
         style="fill:#ffffff;fill-opacity:1;fill-rule:nonzero;stroke:none"
         id="path64" /><path
         d="m 1455.85,1531.71 h 44.68 v -194.97 h -44.68 v 30.29 c -12.56,-18.48 -30.65,-34.35 -60.93,-34.35 -43.95,0 -69.42,29.54 -69.42,74.96 v 124.07 h 44.68 v -110.77 c 0,-30.29 15.13,-47.64 41.73,-47.64 25.84,0 43.94,18.1 43.94,48.37 v 110.04"
         style="fill:#ffffff;fill-opacity:1;fill-rule:nonzero;stroke:none"
         id="path66" /><path
         d="m 1590.94,1336.74 h -44.68 v 194.97 h 44.68 v -43.94 c 12.19,29.17 34.71,49.11 69.05,47.63 v -47.27 h -2.58 c -39.15,0 -66.47,-25.47 -66.47,-77.16 v -74.23"
         style="fill:#ffffff;fill-opacity:1;fill-rule:nonzero;stroke:none"
         id="path68" /><path
         d="m 1686.5,1336.74 v 194.97 h 44.69 v -194.97 z m -1.84,224.89 v 42.47 h 48.01 v -42.47 h -48.01"
         style="fill:#ffffff;fill-opacity:1;fill-rule:nonzero;stroke:none"
         id="path70" /><path
         d="m 1830.21,1397.66 c 0,-17.35 8.86,-24.36 24,-24.36 9.97,0 18.83,2.21 27.7,6.65 v -36.55 c -11.08,-6.28 -23.64,-9.98 -40.25,-9.98 -32.87,0 -56.13,14.4 -56.13,57.23 v 102.66 h -24.74 v 38.4 h 24.74 v 53.55 h 44.68 v -53.55 h 52.43 v -38.4 h -52.43 v -95.65"
         style="fill:#ffffff;fill-opacity:1;fill-rule:nonzero;stroke:none"
         id="path72" /><path
         d="m 2024.55,1331.2 c -15.51,-39.88 -32.86,-54.64 -64.25,-54.64 -18.84,0 -32.5,4.42 -46.16,11.81 l 15.14,33.24 c 8.12,-4.44 16.99,-7.39 26.22,-7.39 12.56,0 20.31,5.54 27.69,22.52 l -81.24,194.97 h 47.64 l 55.39,-144.75 50.59,144.75 h 46.53 l -77.55,-200.51"
         style="fill:#ffffff;fill-opacity:1;fill-rule:nonzero;stroke:none"
         id="path74" /><path
         d="m 2191.33,1557.56 h 42.09 v -70.53 h 70.9 v -40.62 h -70.9 v -70.52 h -42.09 v 70.52 h -70.9 v 40.62 h 70.9 v 70.53"
         style="fill:#ffffff;fill-opacity:1;fill-rule:nonzero;stroke:none"
         id="path76" /><path
         d="m 2091.46,773.461 c -6.63,0 -12.01,4.84 -12.01,10.789 0,5.93 5.38,10.859 12.01,10.859 6.62,0 12.03,-4.929 12.03,-10.859 0,-5.949 -5.41,-10.781 -12.03,-10.789 m 0,19.121 c -5.28,0 -9.5,-3.742 -9.5,-8.332 0,-4.602 4.22,-8.34 9.5,-8.34 5.28,0 9.57,3.738 9.57,8.34 0,4.59 -4.29,8.332 -9.57,8.332 m 4.42,-9.352 c -0.31,-0.199 -0.68,-0.339 -1.09,-0.449 0,0 0.72,-0.91 3,-3.621 l -0.42,-0.359 c -0.96,-0.789 -2.41,-0.68 -3.21,0.25 -2.51,2.988 -2.76,3.359 -2.76,3.359 h -2.88 v 0.82 c 0.11,1.071 1.05,2 2.22,2 h 1.39 c 1,0 1.77,0.192 2.27,0.489 0.44,0.191 0.56,0.5 0.56,0.929 0,0.364 0,1.34 -2.83,1.34 h -3.92 v -7.5 c 0,-1.199 -1.04,-2.187 -2.31,-2.187 h -0.56 v 10.429 c 0.05,1.168 1.02,2.079 2.2,2.141 h 4.59 c 5.16,0 5.72,-2.941 5.72,-4.223 0,-1.488 -0.76,-2.707 -1.97,-3.418"
         style="fill:#626e79;fill-opacity:1;fill-rule:nonzero;stroke:none"
         id="path78" /></g></g></svg>
