<?xml version="1.0" encoding="UTF-8" standalone="no"?>
<!-- Created with Inkscape (http://www.inkscape.org/) -->

<svg
   version="1.0"
   width="560"
   height="560"
   id="svg2"
   xmlns="http://www.w3.org/2000/svg"
   xmlns:svg="http://www.w3.org/2000/svg">
  <defs
     id="defs4" />
  <g
     transform="matrix(1.552943,0,0,1.552943,1.3802846,1.3764022)"
     id="g3056">
    <g
       id="g3058">
      <circle
         cx="178.755"
         cy="179.10201"
         r="176.55299"
         style="fill:#ffffff"
         id="circle3060" />
      <path
         d="m 293.496,194.116 -8.784,2.705 1.987,0.811 -3.076,1.948 c 0.327,-1.792 0.645,-3.589 0.894,-5.405 l 4.814,-4.023 0.112,2.119 5.42,-7.407 -8.35,3.833 2.056,0.537 -3.838,3.213 c 0.273,-2.217 0.464,-4.448 0.61,-6.694 l 4.741,-5.249 0.4,2.09 4.38,-8.066 -7.778,4.912 2.139,0.239 -3.784,4.077 c 0.034,-1.411 0.078,-2.808 0.078,-4.219 0,-10.581 -1.558,-20.796 -4.443,-30.449 -4.8,0.444 -9.614,-1.089 -11.924,-1.533 6.147,3.604 8.276,7.5 9.189,11.978 -4.917,1.099 -11.494,-0.513 -15.098,-3.33 3.525,3.076 5.747,7.92 5.903,12.915 -5.073,0.254 -9.756,-2.119 -13.198,-5.576 2.207,2.466 5,8.701 4.346,13.14 -4.243,-0.454 -9.214,-3.232 -11.934,-6.543 2.251,4.961 3.32,8.984 3.047,13.428 -4.204,-0.796 -7.397,-1.987 -11.167,-5.591 1.816,4.531 2.485,9.092 2.075,12.832 -4.858,-1.719 -8.091,-3.667 -10.83,-8.242 1.46,4.043 2.407,9.341 1.401,12.441 -4.116,-1.235 -6.841,-3.716 -8.975,-7.92 2.114,4.463 1.846,9.648 1.143,12.334 -1.729,-0.337 -3.984,-1.533 -5.161,-2.856 -0.073,0.815 -0.132,1.597 -0.166,2.358 -0.22,3.018 -0.811,5.845 -1.797,8.438 0.342,0.371 1.157,1.323 1.182,1.362 2.163,2.324 5.127,4.536 7.461,5.278 -1.011,0.146 -2.393,1.011 -3.784,1.172 1.543,1.748 4.688,2.139 6.631,4.126 -1.509,0.181 -1.865,1.274 -3.706,1.069 3.506,2.71 6.719,2.798 8.511,3.013 0.728,0.078 3.086,0.303 4.58,0.068 2.114,-0.322 4.292,0.728 5.137,1.216 1.299,0.762 1.23,2.549 0.972,3.457 -0.156,0.537 -0.386,1.182 -1.362,1.685 -0.557,0.166 -0.923,0.215 -0.356,-0.205 0.508,-0.371 0.972,-2.637 -0.2,-3.525 -0.859,-0.625 -2.07,-1.143 -3.496,-1.069 -1.582,0.073 -3.999,0.205 -5.171,0.098 -1.069,-0.122 -1.743,1.289 -1.895,1.885 -0.381,1.411 -0.82,3.154 -2.856,2.29 -2.505,-1.436 -6.064,-1.313 -10.156,-2.969 0.576,1.255 0.332,2.349 0.957,3.755 -3.647,-0.898 -4.57,-2.754 -8.047,-3.975 0.581,1.265 0.41,2.256 1.196,3.447 -2.925,-0.508 -5.654,-3.145 -9.722,-4.229 -0.132,0.039 -0.244,0.093 -0.366,0.117 -1.479,0.444 -2.842,0.864 -4.077,1.26 2.881,3.262 5.264,7.266 6.377,12.109 0,0 -2.031,0.059 -5.034,-0.986 0.859,2.646 1.387,5.483 1.436,8.521 0,0 -2.28,-0.42 -5.41,-2.363 0.288,2.876 0.186,5.869 -0.415,8.94 0,0 -2.637,-1.089 -5.752,-4.253 -0.361,2.969 -1.099,5.962 -2.373,8.95 0,0 -2.417,-1.636 -4.883,-5.449 -1.016,2.974 -2.446,5.894 -4.404,8.682 0,0 -2.627,-2.764 -4.409,-8.33 -2.373,3.569 -4.634,5.098 -4.634,5.098 -1.274,-2.988 -2.021,-5.981 -2.383,-8.965 -3.11,3.179 -5.747,4.268 -5.747,4.268 -0.61,-3.071 -0.708,-6.064 -0.43,-8.94 -3.12,1.943 -5.42,2.363 -5.42,2.363 0.054,-3.037 0.581,-5.874 1.46,-8.521 -3.022,1.045 -5.049,0.986 -5.049,0.986 1.147,-4.941 4.385,-10.024 6.563,-12.305 -1.069,-0.342 -2.212,-0.684 -3.457,-1.064 -0.117,-0.024 -0.229,-0.078 -0.371,-0.117 -4.063,1.084 -6.782,3.721 -9.722,4.229 0.776,-1.191 0.625,-2.183 1.196,-3.447 -3.462,1.221 -4.399,3.076 -8.027,3.975 0.605,-1.406 0.361,-2.5 0.957,-3.755 -3.384,1.655 -8.008,2.803 -10.054,3.242 -2.271,0.469 -2.402,-2.905 -3.145,-3.652 -0.317,-0.322 -2.144,-0.454 -2.905,-0.337 -1.128,0.19 -3.311,0.093 -4.941,0.063 -1.641,-0.034 -2.769,0.449 -3.613,1.104 -1.206,0.869 -0.635,3.228 -0.117,3.613 0.562,0.405 0.215,0.352 -0.347,0.2 -0.967,-0.498 -1.216,-1.152 -1.372,-1.689 -0.239,-0.889 -0.332,-2.686 0.986,-3.428 0.83,-0.513 3.022,-1.558 5.142,-1.23 1.484,0.229 3.838,0 4.551,-0.083 0.718,-0.083 6.006,-1.035 9.497,-3.745 -1.831,0.205 -2.188,-0.889 -3.711,-1.069 1.963,-1.987 5.103,-2.378 6.641,-4.126 -1.377,-0.161 -2.598,-1.265 -3.608,-1.421 3.081,-1.709 5.122,-2.705 7.295,-5.029 0.024,-0.039 0.835,-0.952 1.157,-1.328 -0.981,-2.593 -1.587,-5.454 -1.797,-8.472 -0.049,-0.737 -0.098,-1.494 -0.151,-2.271 -0.752,0.835 -2.305,1.675 -4.824,2.583 -1.177,-2.861 -0.615,-8.198 0.889,-12.334 -2.153,4.209 -4.57,6.948 -8.696,8.179 -1.006,-3.086 -0.4,-8.472 1.04,-12.515 -2.734,4.575 -5.659,6.899 -10.532,8.618 -0.41,-3.735 -0.02,-8.677 1.782,-13.208 -3.76,3.604 -6.958,4.795 -11.172,5.591 -0.259,-4.443 0.815,-8.467 3.047,-13.428 -2.695,3.311 -8.306,5.576 -12.549,6.03 0.327,-3.853 3.027,-9.121 4.6,-12.207 -3.989,2.861 -8.237,4.912 -12.832,5.156 0.576,-4.37 2.529,-9.097 5.898,-12.915 -3.96,2.935 -10,4.517 -14.551,3.896 1.099,-4.795 4.053,-9.468 8.032,-11.978 -2.31,0.459 -6.494,1.411 -11.313,0.967 -2.837,9.502 -4.39,19.556 -4.429,29.961 -2.407,-1.89 -4.087,-2.368 -5.732,-3.999 0.303,2.256 0.601,3.486 0.845,6.27 0.444,5.02 2.354,7.891 5.503,9.692 0.142,1.426 0.327,2.837 0.537,4.253 -2.329,-1.489 -5.459,-2.417 -9.58,-2.368 2.505,8.169 6.094,8.779 10.898,9.546 0.166,0.752 0.347,1.494 0.522,2.236 -2.559,-0.669 -5.64,-0.679 -9.136,0.288 2.417,3.755 5.771,6.016 11.123,6.821 0.01,0.034 0.024,0.059 0.044,0.093 -3.296,-0.264 -6.86,0.225 -9.712,1.67 4.063,3.496 8.057,4.829 11.86,4.424 0.195,0.508 0.391,1.006 0.596,1.504 -3.008,0.796 -5.664,2.354 -7.148,3.809 3.169,1.001 6.421,1.533 9.36,1.23 0.02,0.073 0.063,0.142 0.088,0.215 -1.719,1.318 -3.213,3.447 -4.15,6.772 2.261,-0.562 4.58,-0.718 6.89,-1.377 0.459,0.864 0.933,1.704 1.426,2.539 -1.221,2.319 -1.646,5.229 -0.933,8.462 1.943,-0.459 3.54,-1.211 4.868,-2.183 0.454,0.674 0.913,1.333 1.392,2.007 -0.488,3.701 0.366,7.422 2.563,9.902 1.03,-1.157 1.855,-2.271 2.515,-3.335 19.453,23.306 48.721,38.13 81.445,38.13 45.659,0 84.575,-28.848 99.541,-69.292 l 4.819,-2.09 -0.366,2.109 6.953,-6.016 -9.004,1.865 1.895,0.977 -3.706,1.528 c 0.649,-1.86 1.26,-3.765 1.812,-5.669 l 5.278,-2.925 -0.186,2.144 6.387,-6.631 -8.794,2.661 1.982,0.83 -4.229,2.319 c 0.566,-2.065 1.079,-4.17 1.514,-6.274 l 4.019,-2.549 -0.171,2.124 6.34,-6.647"
         style="fill:#2b5283"
         id="path3062" />
      <path
         d="m 288.423,114.966 c -2.012,0.688 -4.019,1.24 -5.967,1.67 11.172,18.291 17.598,39.78 17.598,62.783 0,66.616 -54.009,120.62 -120.61,120.62 -66.626,0 -120.62,-54.004 -120.62,-120.62 0,-24.014 7.007,-46.382 19.097,-65.181 -1.914,-0.547 -3.799,-1.279 -5.679,-2.178 -12.285,19.507 -19.399,42.607 -19.399,67.358 0,69.907 56.689,126.597 126.602,126.597 69.902,0 126.587,-56.689 126.587,-126.597 -0.002,-23.539 -6.418,-45.575 -17.609,-64.452"
         style="fill:#9e2935"
         id="path3064" />
      <path
         d="m 109.302,81.265 c 19.771,-14.146 43.979,-22.48 70.142,-22.48 29.204,0 56.001,10.396 76.875,27.681 2.349,-0.669 4.644,-1.279 6.992,-1.875 -22.339,-19.766 -51.704,-31.768 -83.867,-31.768 -28.848,0 -55.444,9.653 -76.729,25.898 1.006,0.366 2.021,0.732 3.052,1.128 1.211,0.468 2.402,0.937 3.535,1.416"
         style="fill:#9e2935"
         id="path3066" />
      <path
         d="M 179.409,347.725 C 86.47,347.725 11.118,272.359 11.118,179.419 11.118,86.47 86.47,11.123 179.409,11.123 c 92.949,0 168.301,75.347 168.301,168.296 0,92.939 -75.352,168.306 -168.301,168.306 M 179.409,0 C 80.327,0 0,80.337 0,179.419 c 0,99.087 80.327,179.414 179.409,179.414 99.092,0 179.419,-80.327 179.419,-179.414 C 358.828,80.337 278.501,0 179.409,0 Z"
         style="fill:#afafaf"
         id="path3068" />
      <path
         d="m 136.118,143.452 c -2.544,-1.309 -4.775,-2.827 -7.178,-5.015 -7.695,-7.021 -9.521,-14.39 -7.236,-22.856 1.348,-5.059 3.408,-7.588 2.705,-12.856 -0.405,-3.008 -2.544,-5.439 -4.673,-7.485 C 114.59,90.299 108.486,87.247 99.472,84.2 93.896,82.33 77.704,77.301 70.566,70.836 c -1.631,4.756 1.821,11.074 5.952,11.914 -3.652,0.371 -6.758,2.271 -8.208,4.336 2.754,3.188 8.242,6.504 12.773,6.597 -2.09,1.396 -4.658,4.37 -5.503,6.04 3.921,2.09 10.181,3.843 14.99,3.496 -2.026,1.621 -3.779,3.682 -4.917,5.566 3.242,1.484 9.575,3.628 15.596,4.077 -2.222,1.094 -5.386,4.883 -7.021,7.217 3.389,1.509 10.723,2.422 15.273,2.886 -3.257,1.709 -6.665,5.122 -8.54,8.213 3.301,1.582 9.507,3.35 14.575,3.179 -2.505,2.407 -4.15,5.317 -5.093,8.13 3.833,0.791 7.861,0.806 12.544,0.176 -2.837,3.599 -3.975,8.354 -4.37,11.738 3.799,-0.098 8.843,-0.972 12.402,-3.101 -0.771,2.905 -0.605,6.841 0.654,9.614 1.494,-0.342 3.228,-0.962 5.117,-1.978 -0.262,-5.411 -0.506,-10.933 -0.672,-15.484"
         style="fill:#2b5283"
         id="path3070" />
      <path
         d="m 290.732,79.556 c -7.153,6.475 -18.584,8.208 -30.581,12.173 -9.038,2.974 -14.648,4.722 -22.739,11.172 -2.31,1.841 -4.512,4.546 -4.263,9.194 0.273,5.161 1.108,7.388 1.255,14.604 0.093,5.151 -1.685,9.302 -3.853,11.738 -2.28,2.593 -5.244,4.839 -7.91,6.23 -0.151,4.385 -0.352,8.804 -0.596,13.931 1.88,1.025 4.282,1.973 5.781,2.314 1.24,-2.773 1.416,-6.709 0.64,-9.614 3.564,2.129 8.618,3.003 12.412,3.101 -0.405,-3.384 -1.538,-8.14 -4.375,-11.738 4.668,0.63 8.706,0.615 12.544,-0.176 -0.957,-2.813 -2.607,-5.723 -5.107,-8.13 5.083,0.171 11.274,-1.597 14.58,-3.179 -1.875,-3.091 -5.273,-6.504 -8.53,-8.213 4.546,-0.464 12.085,-1.348 15.469,-2.861 -1.636,-2.324 -5.02,-6.147 -7.217,-7.241 6.016,-0.449 12.334,-2.593 15.601,-4.077 -1.147,-1.885 -2.905,-3.945 -4.907,-5.566 5.64,-0.366 11.05,-1.406 14.966,-3.496 -0.85,-1.67 -3.403,-4.644 -5.493,-6.04 12.099,-3.374 12.299,-9.41 12.323,-14.126"
         style="fill:#2b5283"
         id="path3072" />
      <path
         d="M 239.868,92.329 C 222.72,80.425 201.885,73.428 179.409,73.428 c -20.469,0 -39.609,5.825 -55.82,15.869 4.204,3.271 6.699,6.733 7.319,10.322 0.522,3.14 0.884,6.934 -0.928,12.466 -1.924,5.869 -2.983,11.899 1.357,18.022 4.307,6.099 9.912,8.726 14.546,9.614 6.084,-1.064 12.813,-1.934 19.531,-2.471 0.864,-2.847 3.447,-5.313 6.055,-7.324 3.765,-2.939 2.939,-5.498 2.051,-7.49 -0.708,-1.563 -2.051,-2.822 -3.994,-3.828 -1.694,-0.874 -7.91,-1.533 -7.734,2.451 -1.021,-1.445 -1.841,-3.389 -1.24,-5.874 0.83,-3.472 6.499,-4.346 7.91,-4.248 -1.094,-0.923 -0.42,-2.407 2.061,-3.101 3.018,-0.835 5.869,-0.962 8.638,-0.889 5.679,0.137 6.567,1.533 9.453,4.087 3.472,3.091 8.076,4.165 9.883,2.3 -1.304,2.959 -5.43,4.531 -8.081,4.077 1.294,4.092 1.758,7.646 2.217,11.948 0.215,1.953 0.625,5.234 1.152,7.915 7.603,0.63 15.259,1.675 21.919,2.954 2.759,-0.801 5.625,-2.417 8.179,-5.386 2.446,-2.813 4.688,-6.392 3.76,-15.381 -0.264,-2.534 -1.523,-9.004 -1.348,-12.041 0.394,-6.912 5.521,-11.414 13.573,-15.091"
         style="fill:#2b5283"
         id="path3074" />
      <path
         d="m 169.414,111.265 c 1.045,0.796 1.66,0.903 2.007,0.82 0.034,0.2 0.396,0.439 0.464,0.522 0.225,0.195 0.352,0.381 0.405,0.596 0.474,-0.2 1.743,-0.718 2.905,-1.118 1.162,-0.439 2.778,-0.903 2.778,-0.903 -5.014,-1.065 -5.776,0.464 -8.559,0.083"
         style="fill:#2b5283"
         id="path3076" />
      <path
         d="m 319.844,131.958 c 6.255,-2.739 9.082,-9.727 6.44,-15.752 -2.637,-6.03 -9.678,-8.633 -15.928,-5.889 -6.255,2.734 -9.136,9.692 -6.494,15.728 2.632,6.02 9.732,8.652 15.982,5.913 m -7.456,-17.026 c 4.941,-2.173 10.601,-1.177 12.031,2.095 1.455,3.311 -1.646,8.145 -6.602,10.308 -4.966,2.178 -10.649,1.196 -12.1,-2.114 -1.42,-3.268 1.676,-8.107 6.671,-10.289 z"
         style="fill:#2b5283"
         id="path3078" />
      <polyline
         style="fill:#2b5283"
         points="311.104,148.257 308.721,138.823 310.171,138.442 310.845,141.084 330.806,136.021     330.122,133.384 331.587,133.018 335.21,147.3 336.182,147.046 336.65,148.926 331.133,150.322 330.669,148.486 333.169,147.852     331.338,140.649 323.159,142.729 324.58,148.271 326.934,147.671 327.432,149.531 320.615,151.26 320.107,149.395     322.529,148.784 321.123,143.242 311.978,145.566 312.559,147.876 311.104,148.257   "
         id="polyline3080" />
      <path
         d="m 32.007,122.944 -0.859,2.881 12.881,3.838 c 3.882,1.162 5.913,3.232 6.416,6.543 0.234,1.704 0.103,3.506 -0.41,5.283 -1.665,5.542 -5.786,8.228 -10.518,6.831 l -13.828,-4.131 -0.786,2.603 -1.445,-0.435 2.866,-9.58 1.431,0.425 -0.757,2.573 12.773,3.813 c 3.467,1.025 5.22,0.879 6.675,-0.591 0.645,-0.703 1.191,-1.631 1.489,-2.661 1.235,-4.106 -0.479,-7.222 -4.673,-8.477 l -12.744,-3.809 -0.845,2.852 -1.479,-0.43 2.378,-7.949 1.435,0.421"
         style="fill:#2b5283"
         id="path3082" />
      <path
         d="m 54.663,128.525 c -0.527,1.206 -1.919,1.777 -3.149,1.279 -1.211,-0.513 -1.792,-1.924 -1.279,-3.14 0.513,-1.221 1.929,-1.802 3.135,-1.294 1.225,0.514 1.796,1.915 1.293,3.155"
         style="fill:#2b5283"
         id="path3084" />
      <path
         d="m 59.106,118.315 -0.952,1.709 -5.61,-3.159 0.967,-1.704 2.3,1.299 c 1.904,-0.781 2.905,-1.602 3.774,-3.13 1.079,-1.934 0.708,-3.984 -0.898,-4.897 -1.416,-0.791 -2.9,-0.439 -6.406,1.406 -3.657,1.963 -4.175,2.163 -5.566,2.451 -1.343,0.264 -2.813,-0.024 -4.189,-0.796 -3.433,-1.943 -4.292,-5.742 -2.144,-9.536 0.688,-1.221 1.416,-2.085 2.568,-2.983 l -0.923,-0.527 0.942,-1.675 5.327,2.988 -0.947,1.685 -2.158,-1.211 c -1.563,0.845 -2.349,1.504 -2.988,2.661 -0.913,1.616 -0.469,3.506 0.986,4.331 1.26,0.708 2.427,0.425 6.025,-1.499 1.738,-0.913 2.803,-1.494 3.247,-1.689 0.908,-0.449 1.948,-0.708 3.091,-0.767 1.304,-0.054 2.48,0.254 3.696,0.923 3.555,1.997 4.595,5.991 2.549,9.639 -1.021,1.802 -2.129,2.91 -3.784,3.867 l 1.093,0.614"
         style="fill:#2b5283"
         id="path3086" />
      <path
         d="m 68.486,102.119 c 0,1.309 -1.04,2.349 -2.344,2.349 -1.304,0 -2.329,-1.04 -2.329,-2.349 0,-1.294 1.025,-2.334 2.329,-2.334 1.304,0 2.344,1.04 2.344,2.334"
         style="fill:#2b5283"
         id="path3088" />
      <polyline
         style="fill:#2b5283"
         points="123.794,56.138 108.657,63.936 107.983,62.588 110.396,61.353 100.962,43.052 98.55,44.292     97.866,42.954 110.962,36.211 110.503,35.327 112.207,34.443 114.819,39.487 113.135,40.352 111.958,38.071 105.347,41.47     109.204,48.975 114.297,46.353 113.169,44.194 114.883,43.281 118.105,49.551 116.406,50.454 115.264,48.232 110.171,50.85     114.219,58.701 121.118,55.146 119.912,52.798 121.606,51.924 123.794,56.138   "
         id="polyline3090" />
      <path
         d="m 138.359,50.874 -9.834,3.271 -0.483,-1.431 2.583,-0.854 -6.489,-19.546 -2.573,0.854 -0.474,-1.431 10.288,-3.398 c 4.199,-1.406 7.798,0.234 9.087,4.141 1.24,3.696 -1.016,7.832 -4.99,9.141 -0.576,0.2 -0.962,0.288 -1.899,0.42 l -0.547,-1.675 c 0.469,-0.044 0.649,-0.107 0.947,-0.19 2.31,-0.767 3.052,-2.871 2.041,-5.884 -1.045,-3.193 -2.861,-4.448 -5.308,-3.628 l -2.036,0.679 6.333,19.072 2.871,-0.957 0.483,1.416"
         style="fill:#2b5283"
         id="path3092" />
      <path
         d="m 167.412,42.939 -1.489,0.249 -12.642,-20.986 -2.139,0.376 -5.186,24.087 -2.192,0.376 0.264,1.475 7.29,-1.265 -0.259,-1.479 -2.817,0.493 1.304,-6.099 8.56,-1.484 3.179,5.322 -2.48,0.42 0.259,1.484 8.599,-1.489 -0.251,-1.48 m -17.392,-5.073 2.026,-9.429 4.873,8.232 z"
         style="fill:#2b5283"
         id="path3094" />
      <path
         d="m 192.104,42.954 h -1.484 c -0.708,0 -1.138,-0.322 -1.973,-1.577 l -5.039,-7.813 c 3.359,-1.035 5.005,-3.086 5.015,-6.313 0,-1.899 -0.557,-3.433 -1.733,-4.629 -1.279,-1.279 -3.008,-1.753 -6.069,-1.768 l -10.552,-0.01 v 1.494 l 2.71,0.015 -0.034,20.586 -2.734,-0.005 -0.015,1.489 10.029,0.024 v -1.494 h -2.69 l 0.024,-9.019 0.972,0.024 5.342,8.403 c 1.216,1.89 1.567,2.104 3.677,2.109 l 4.536,0.015 0.018,-1.531 M 177.598,22.866 h 2.231 c 2.549,0.005 4.028,1.646 4.019,4.521 0,2.808 -1.709,4.78 -4.175,4.78 l -2.104,-0.024 z"
         style="fill:#2b5283"
         id="path3096" />
      <polyline
         style="fill:#2b5283"
         points="208.276,47.319 196.914,45.4 197.173,43.931 200.581,44.492 203.916,24.795 197.827,23.77     197.324,26.694 195.381,26.362 196.396,20.371 198.345,20.693 198.179,21.685 214.868,24.507 215.054,23.525 216.982,23.843     215.972,29.834 214.019,29.517 214.531,26.597 208.462,25.562 205.132,45.264 208.516,45.835 208.276,47.319   "
         id="polyline3098" />
      <polyline
         style="fill:#2b5283"
         points="241.685,58.604 231.768,54.756 232.31,53.359 235.117,54.468 240.703,40.054 227.119,53.34     225.229,34.395 219.751,48.501 222.563,49.575 222.017,50.986 214.307,48.003 214.854,46.597 217.646,47.676 225.103,28.481     222.305,27.397 222.842,25.986 228.74,28.286 230.63,46.841 243.623,34.048 250.195,36.597 249.663,38.013 246.86,36.929     239.424,56.123 242.236,57.202 241.685,58.604   "
         id="polyline3100" />
      <polyline
         style="fill:#2b5283"
         points="259.087,69.995 244.746,60.83 245.562,59.565 247.837,61.03 258.931,43.662 256.646,42.222     257.437,40.942 269.858,48.872 270.386,48.027 272.017,49.063 268.97,53.867 267.368,52.842 268.755,50.679 262.49,46.665     257.949,53.779 262.769,56.865 264.072,54.814 265.723,55.815 261.924,61.758 260.288,60.747 261.621,58.628 256.812,55.562     252.061,62.998 258.584,67.173 260.015,64.951 261.655,65.986 259.087,69.995   "
         id="polyline3102" />
      <path
         d="M 95.918,70.986 93.584,72.685 81.973,56.88 84.41,55.073 c 3.379,-2.471 8.916,-0.962 12.026,3.276 3.335,4.527 3.115,9.971 -0.518,12.637 m 4.585,-15.625 C 96.587,50.034 89.312,48.999 83.862,53.003 l -8.989,6.597 0.884,1.216 2.192,-1.616 12.168,16.567 c 0.576,0.229 1.157,0.435 1.724,0.649 l 5.952,-4.38 c 2.822,-2.07 4.307,-4.351 4.844,-7.422 0.566,-3.325 -0.191,-6.601 -2.134,-9.253 z"
         style="fill:#2b5283"
         id="path3104" />
      <path
         d="m 289.526,65.093 -1.006,1.118 2.09,1.885 -10.103,11.089 2.549,-19.985 -5.249,-4.8 -1.016,1.113 1.909,1.733 -0.396,2.114 -12.646,13.867 -2.183,-2.002 -1.025,1.108 5.972,5.449 1.016,-1.113 -2.08,-1.904 10.522,-11.543 -2.261,18.34 c 2.188,-0.576 4.531,-1.187 7.036,-1.89 0.225,-0.063 0.405,-0.127 0.615,-0.171 l 8.989,-9.878 2.236,2.017 1.011,-1.099 -5.98,-5.448"
         style="fill:#2b5283"
         id="path3106" />
      <path
         d="m 313.594,91.089 -0.791,0.601 -10.288,-13.462 0.796,-0.615 -1.191,-1.567 -4.834,3.701 1.191,1.567 2.363,-1.807 3.75,4.917 -15.879,12.144 -0.815,-1.084 c -0.464,0.254 -0.918,0.483 -1.392,0.674 l 5.894,7.7 1.201,-0.913 -2.08,-2.715 15.874,-12.153 3.735,4.902 -2.358,1.802 1.187,1.553 4.829,-3.687 -1.192,-1.558"
         style="fill:#2b5283"
         id="path3108" />
      <path
         d="m 209.077,336.567 -1.919,0.42 -1.382,-6.279 1.924,-0.425 0.557,2.583 c 1.851,0.898 3.135,1.104 4.863,0.728 2.158,-0.474 3.442,-2.104 3.042,-3.921 -0.342,-1.567 -1.602,-2.476 -5.308,-3.867 -3.896,-1.401 -4.395,-1.66 -5.532,-2.515 -1.099,-0.82 -1.86,-2.104 -2.197,-3.647 -0.84,-3.843 1.436,-7.017 5.703,-7.954 1.353,-0.298 2.49,-0.313 3.94,-0.059 l -0.234,-1.05 1.885,-0.405 1.309,5.977 -1.885,0.415 -0.532,-2.397 c -1.68,-0.64 -2.686,-0.781 -3.979,-0.503 -1.812,0.405 -2.939,2.012 -2.583,3.643 0.317,1.392 1.309,2.09 5.127,3.506 1.846,0.674 2.988,1.079 3.433,1.274 0.928,0.391 1.831,0.991 2.622,1.807 0.913,0.947 1.475,2.021 1.777,3.394 0.864,3.979 -1.421,7.402 -5.518,8.301 -2.017,0.435 -3.579,0.337 -5.381,-0.254 l 0.268,1.228"
         style="fill:#2b5283"
         id="path3110" />
      <polyline
         style="fill:#2b5283"
         points="245.42,325.132 229.58,331.357 229.033,329.956 231.558,328.955 224.033,309.79 221.499,310.796     220.962,309.399 234.678,304.004 234.302,303.066 236.099,302.363 238.179,307.656 236.411,308.35 235.483,305.957     228.53,308.677 231.631,316.533 236.953,314.434 236.074,312.178 237.876,311.436 240.43,317.988 238.652,318.745 237.72,316.406     232.407,318.486 235.635,326.709 242.847,323.872 241.885,321.421 243.691,320.718 245.42,325.132   "
         id="polyline3112" />
      <path
         d="m 269.248,310.625 c -2.017,2.524 -3.433,3.848 -5.757,5.249 -6.44,3.906 -13.672,2.358 -17.358,-3.721 -3.657,-6.025 -1.782,-13.296 4.36,-17.031 1.973,-1.206 3.506,-1.768 5.757,-2.085 l -0.781,-1.274 1.685,-1.025 3.311,5.479 -1.675,1.021 -1.191,-1.963 c -2.49,-0.151 -3.677,0.103 -5.283,1.074 -4.248,2.583 -5.068,7.925 -1.982,13.003 3.003,4.946 8.599,6.826 12.822,4.268 1.523,-0.938 2.427,-1.934 3.325,-3.696 l -1.416,-2.314 1.714,-1.035 2.469,4.05"
         style="fill:#2b5283"
         id="path3114" />
      <path
         d="m 280.01,273.73 -2.227,2.021 9.058,9.932 c 2.729,2.988 3.403,5.796 2.124,8.892 -0.674,1.592 -1.709,3.071 -3.076,4.312 -4.277,3.921 -9.194,4.082 -12.524,0.459 l -9.736,-10.674 -2.007,1.821 -1.001,-1.104 7.383,-6.743 1.016,1.108 -1.982,1.797 8.994,9.863 c 2.427,2.661 4.014,3.442 6.006,2.935 0.933,-0.273 1.865,-0.771 2.656,-1.509 3.174,-2.881 3.306,-6.455 0.356,-9.678 l -8.96,-9.819 -2.188,2.002 -1.03,-1.143 6.108,-5.586 1.03,1.114"
         style="fill:#2b5283"
         id="path3116" />
      <polyline
         style="fill:#2b5283"
         points="320.156,252.876 315.396,261.675 314.067,260.957 315.366,258.56 297.256,248.76     295.947,251.152 294.658,250.43 299.409,241.631 300.728,242.354 299.438,244.697 317.563,254.507 318.833,252.158     320.156,252.876   "
         id="polyline3118" />
      <polyline
         style="fill:#2b5283"
         points="329.297,231.475 325.234,242.251 323.838,241.714 325.054,238.472 306.353,231.431     304.16,237.212 306.953,238.257 306.25,240.107 300.566,237.959 301.245,236.123 302.202,236.47 308.169,220.62 307.231,220.269     307.925,218.418 313.613,220.566 312.92,222.412 310.142,221.357 307.974,227.109 326.68,234.155 327.886,230.947     329.297,231.475   "
         id="polyline3120" />
      <polyline
         style="fill:#2b5283"
         points="335.625,205.171 333.706,214.995 332.222,214.707 332.744,212.08 323.071,210.181     311.172,215.073 310.742,217.29 309.268,216.982 311.191,207.163 312.661,207.461 312.148,210.059 320.801,206.592     314.043,200.405 313.452,203.384 311.987,203.101 313.584,194.917 315.044,195.21 314.561,197.739 323.032,205.469     333.628,207.549 334.15,204.888 335.625,205.171   "
         id="polyline3122" />
      <path
         d="m 286.772,265.488 1.338,-1.812 c 1.509,-2.051 3.716,-2.231 6.006,-0.527 2.261,1.689 2.852,4.199 1.372,6.182 l -1.25,1.689 -7.466,-5.532 m 24.791,0.264 -0.884,1.187 c -0.43,0.571 -0.942,0.737 -2.446,0.64 l -9.287,-0.576 c 1.182,-3.306 0.488,-5.874 -2.085,-7.793 -1.528,-1.123 -3.105,-1.587 -4.756,-1.343 -1.807,0.269 -3.188,1.367 -5.029,3.848 l -6.279,8.467 1.191,0.889 1.636,-2.178 16.528,12.271 -1.616,2.178 1.201,0.898 5.972,-8.042 -1.211,-0.889 -1.597,2.163 -7.227,-5.391 0.566,-0.767 9.941,0.708 c 2.241,0.151 2.632,-0.015 3.896,-1.704 l 2.7,-3.652 z"
         style="fill:#2b5283"
         id="path3124" />
      <polyline
         style="fill:#2b5283"
         points="28.247,227.285 25.854,217.554 27.319,217.202 27.969,219.81 37.09,217.578 34.326,206.299     25.2,208.521 25.84,211.128 24.39,211.475 22.012,201.763 23.457,201.406 24.116,204.048 44.121,199.16 43.481,196.514     44.927,196.167 47.295,205.884 45.835,206.235 45.2,203.638 36.387,205.786 39.155,217.075 47.974,214.917 47.319,212.31     48.799,211.963 51.167,221.68 49.712,222.041 49.063,219.409 29.058,224.287 29.717,226.938 28.247,227.285   "
         id="polyline3126" />
      <path
         d="m 49.58,249.644 c 6.226,-2.827 8.95,-9.839 6.226,-15.83 -2.739,-5.991 -9.814,-8.506 -16.025,-5.669 -6.201,2.837 -8.999,9.829 -6.27,15.82 2.719,5.991 9.858,8.515 16.069,5.679 m -7.705,-16.919 c 4.917,-2.241 10.586,-1.333 12.065,1.929 1.499,3.281 -1.538,8.164 -6.445,10.41 -4.956,2.246 -10.64,1.338 -12.129,-1.943 -1.484,-3.267 1.553,-8.136 6.509,-10.396 z"
         style="fill:#2b5283"
         id="path3128" />
      <polyline
         style="fill:#2b5283"
         points="58.662,283.613 52.432,275.015 53.638,274.136 55.405,276.567 67.905,267.495 49.287,271.279     57.964,254.351 45.718,263.223 47.495,265.659 46.274,266.543 41.416,259.863 42.632,258.979 44.404,261.406 61.06,249.297     59.297,246.875 60.518,246.001 64.224,251.108 55.762,267.744 73.604,264.014 77.773,269.746 76.548,270.625 74.785,268.198     58.115,280.298 59.888,282.729 58.662,283.613   "
         id="polyline3130" />
      <polyline
         style="fill:#2b5283"
         points="77.266,301.899 64.741,290.366 65.767,289.272 67.769,291.094 81.724,275.962 79.727,274.111     80.737,273.018 91.587,282.998 92.241,282.256 93.687,283.569 89.829,287.744 88.428,286.465 90.166,284.585 84.702,279.531     78.984,285.732 83.188,289.604 84.844,287.817 86.279,289.106 81.504,294.287 80.073,293.008 81.753,291.157 77.554,287.29     71.563,293.774 77.271,299.038 79.063,297.095 80.479,298.398 77.266,301.899   "
         id="polyline3132" />
      <polyline
         style="fill:#2b5283"
         points="98.55,316.494 84.541,307.07 85.391,305.83 87.646,307.354 99.136,290.254 96.885,288.745     97.725,287.495 106.03,293.076 105.186,294.331 102.974,292.832 91.812,309.419 98.13,313.682 99.604,311.479 101.206,312.563     98.55,316.494   "
         id="polyline3134" />
      <path
         d="m 124.321,327.446 -1.367,-0.62 1.396,-24.463 -1.982,-0.903 -17.861,16.973 -2.017,-0.918 -0.62,1.362 6.729,3.066 0.635,-1.362 -2.617,-1.187 4.526,-4.312 7.9,3.594 -0.386,6.196 -2.266,-1.03 -0.635,1.357 7.939,3.613 0.626,-1.366 m -11.508,-13.994 6.997,-6.636 -0.615,9.541 z"
         style="fill:#2b5283"
         id="path3136" />
      <polyline
         style="fill:#2b5283"
         points="149.058,335.894 146.626,335.308 138.604,315.361 134.971,330.557 137.715,331.221     137.368,332.676 129.512,330.806 129.858,329.331 132.739,330.024 137.119,311.772 136.421,309.736 133.916,309.141     134.263,307.671 141.196,309.331 148.613,328.057 152.109,313.491 149.36,312.827 149.707,311.367 157.578,313.247     157.212,314.712 154.282,314.009 149.058,335.894   "
         id="polyline3138" />
      <path
         d="m 171.382,337.651 c 3.501,0.127 6.069,-0.737 8.398,-2.803 2.515,-2.28 3.955,-5.293 4.077,-8.584 0.234,-6.611 -4.834,-11.938 -11.592,-12.183 l -11.147,-0.415 -0.044,1.514 2.715,0.088 -0.747,20.576 -2.715,-0.093 -0.049,1.504 11.104,0.396 m -2.73,-20.903 3.022,0.122 c 4.189,0.156 7.598,4.785 7.422,10.029 -0.215,5.61 -3.77,9.736 -8.252,9.58 l -2.905,-0.107 z"
         style="fill:#2b5283"
         id="path3140" />
      <path
         d="m 179.404,232.734 h -1.133 c -0.571,-3.569 -3.164,-5.771 -6.938,-6.929 -2.871,-0.894 -7.031,-2.246 -15.938,-4.971 -10.327,-3.174 -15.596,-11.484 -16.309,-21.914 -1.001,-14.751 -2.471,-40.669 -3.022,-57.168 11.655,-2.856 28.857,-5.103 43.34,-5.103 14.487,0 31.68,2.246 43.34,5.103 -0.527,16.499 -2.031,42.417 -3.018,57.168 -0.718,10.43 -5.981,18.74 -16.309,21.914 -8.911,2.725 -13.066,4.077 -15.938,4.971 -3.784,1.157 -6.377,3.359 -6.934,6.929 h -1.141"
         style="fill:#ffffff"
         id="path3142" />
      <path
         d="m 176.455,195.078 -2.114,-1.06 -1.362,-3.56 -3.091,-1.353 -3.486,-3.11 -2.07,2.28 -3.091,0.728 -1.646,2.603 -2.485,2.642 -3.384,1.802 -2.339,3.96 -1.328,1.753 -2.28,1.782 -1.265,-1.338 -1.353,1.289 -1.689,3.13 c -0.889,-2.339 -1.426,-4.15 -1.694,-7.891 -0.498,-6.934 -1.001,-15.635 -1.489,-24.546 11.436,-2.466 25.991,-4.097 37.808,-4.209 v 27.007 c -0.543,-0.327 -1.085,-0.586 -1.642,-1.909"
         style="fill:#2973a2"
         id="path3144" />
      <path
         d="m 178.096,208.086 h -34.009 c 0.503,1.055 1.074,2.031 1.738,2.959 2.446,3.438 5.933,5.977 10.356,7.334 6.001,1.841 9.834,3.047 12.622,3.936 l 3.33,1.04 c 2.72,0.84 4.624,2.07 5.962,3.418 v -18.687"
         style="fill:#639130"
         id="path3146" />
      <path
         d="m 214.009,194.941 c 0.933,-0.742 2.002,-1.606 3.413,-2.119 0.2,-3.179 0.405,-6.572 0.62,-10.088 -0.376,0.254 -0.767,0.576 -1.25,0.957 -1.621,1.313 -3.647,2.964 -7.217,2.964 -3.34,0 -5.508,-1.338 -7.246,-2.412 -1.411,-0.874 -2.549,-1.558 -4.214,-1.558 -1.836,0 -3.413,0.938 -5.093,1.948 -1.812,1.074 -3.857,2.3 -6.362,2.3 -2.568,0 -4.424,-0.791 -5.942,-1.616 v 9.546 c 0.342,0.195 0.679,0.4 1.006,0.601 1.523,0.938 2.842,1.748 4.937,1.748 1.294,0 2.578,-0.771 4.092,-1.685 2.017,-1.201 4.312,-2.568 7.363,-2.568 2.9,0 4.819,1.167 6.533,2.212 1.514,0.947 2.837,1.743 4.927,1.743 1.996,0 3.085,-0.864 4.433,-1.973"
         style="fill:#2b5283"
         id="path3148" />
      <path
         d="m 186.66,216.704 c -2.568,0 -4.424,-0.781 -5.942,-1.626 v 11.689 c 1.333,-1.343 3.232,-2.573 5.967,-3.413 l 3.315,-1.04 c 2.793,-0.889 6.606,-2.095 12.627,-3.936 1.753,-0.542 3.364,-1.26 4.824,-2.163 -2.188,-0.4 -3.779,-1.377 -5.122,-2.202 -1.411,-0.874 -2.549,-1.563 -4.214,-1.563 -1.836,0 -3.413,0.952 -5.093,1.953 -1.811,1.071 -3.857,2.301 -6.362,2.301"
         style="fill:#2b5283"
         id="path3150" />
      <path
         d="m 214.009,180.259 c 1.113,-0.894 2.461,-1.968 4.312,-2.393 0.073,-1.216 0.142,-2.446 0.21,-3.677 -11.436,-2.466 -25.977,-4.097 -37.813,-4.209 v 10.2 c 0.342,0.205 0.679,0.396 1.006,0.605 1.523,0.928 2.842,1.753 4.937,1.753 1.294,0 2.578,-0.791 4.092,-1.689 2.017,-1.221 4.312,-2.583 7.363,-2.583 2.9,0 4.819,1.196 6.533,2.222 1.514,0.942 2.837,1.748 4.927,1.748 1.996,0 3.085,-0.869 4.433,-1.977"
         style="fill:#2973a2"
         id="path3152" />
      <path
         d="m 180.718,200 v 9.946 c 0.342,0.19 0.679,0.405 1.006,0.601 1.523,0.938 2.842,1.753 4.937,1.753 1.294,0 2.578,-0.781 4.092,-1.68 2.017,-1.206 4.312,-2.578 7.363,-2.578 2.9,0 4.819,1.177 6.533,2.212 1.514,0.947 2.837,1.753 4.927,1.753 1.626,0 2.642,-0.581 3.701,-1.382 2.183,-3.232 3.452,-7.236 3.76,-11.89 0.005,-0.205 0.024,-0.396 0.039,-0.581 -0.093,0.063 -0.186,0.146 -0.283,0.22 -1.621,1.313 -3.647,2.944 -7.217,2.944 -3.34,0 -5.508,-1.318 -7.246,-2.383 -1.411,-0.889 -2.549,-1.577 -4.214,-1.577 -1.836,0 -3.413,0.942 -5.093,1.963 -1.812,1.074 -3.857,2.295 -6.362,2.295 -2.569,0 -4.425,-0.781 -5.943,-1.616"
         style="fill:#2973a2"
         id="path3154" />
      <path
         d="m 140.137,171.587 c -0.542,-9.932 -1.016,-19.937 -1.313,-27.822 12.065,-2.744 28.032,-4.551 40.581,-4.551 12.549,0 28.54,1.807 40.576,4.551 -0.273,7.886 -0.757,17.891 -1.309,27.822 -11.357,-2.397 -26.377,-4.189 -39.268,-4.189 -12.881,-0.001 -27.905,1.791 -39.267,4.189"
         style="fill:#2b5283"
         id="path3156" />
      <polyline
         style="fill:#ffffff"
         points="148.057,150.322 148.496,148.184 146.514,147.28 148.677,147.051 148.896,144.883     149.785,146.88 151.895,146.44 150.293,147.9 151.387,149.8 149.502,148.691 148.057,150.322   "
         id="polyline3158" />
      <polyline
         style="fill:#ffffff"
         points="161.289,148.569 159.458,147.378 157.93,148.95 158.477,146.831 156.548,145.845     158.696,145.703 159.028,143.545 159.814,145.576 161.958,145.229 160.288,146.626 161.289,148.569   "
         id="polyline3160" />
      <polyline
         style="fill:#ffffff"
         points="171.216,147.798 169.453,146.519 167.856,148.003 168.511,145.918 166.626,144.834     168.784,144.81 169.229,142.661 169.912,144.741 172.061,144.502 170.313,145.796 171.216,147.798   "
         id="polyline3162" />
      <polyline
         style="fill:#ffffff"
         points="181.138,147.583 179.453,146.211 177.778,147.583 178.545,145.542 176.719,144.336     178.892,144.453 179.453,142.339 180.005,144.453 182.173,144.336 180.371,145.542 181.138,147.583   "
         id="polyline3164" />
      <polyline
         style="fill:#ffffff"
         points="209.399,148.716 207.524,149.814 208.604,147.915 206.997,146.455 209.116,146.904     210.01,144.888 210.22,147.065 212.388,147.3 210.396,148.208 210.854,150.342 209.399,148.716   "
         id="polyline3166" />
      <polyline
         style="fill:#ffffff"
         points="198.604,146.626 196.919,145.234 199.053,145.591 199.858,143.545 200.181,145.703     202.349,145.835 200.41,146.831 200.967,148.95 199.424,147.378 197.603,148.579 198.604,146.626   "
         id="polyline3168" />
      <polyline
         style="fill:#ffffff"
         points="188.589,145.806 186.855,144.502 189.009,144.751 189.688,142.666 190.132,144.824     192.295,144.834 190.4,145.928 191.06,148.018 189.463,146.519 187.7,147.798 188.589,145.806   "
         id="polyline3170" />
      <polyline
         style="fill:#ffffff"
         points="149.502,166.392 149.946,164.258 147.983,163.34 150.132,163.135 150.386,160.962     151.255,162.969 153.364,162.544 151.758,163.989 152.813,165.889 150.942,164.771 149.502,166.392   "
         id="polyline3172" />
      <polyline
         style="fill:#ffffff"
         points="162.373,164.771 160.552,163.564 159.014,165.112 159.57,163.008 157.651,161.997 159.81,161.88     160.151,159.722 160.938,161.777 163.071,161.436 161.382,162.813 162.373,164.771   "
         id="polyline3174" />
      <polyline
         style="fill:#ffffff"
         points="171.919,164.077 170.146,162.788 168.555,164.272 169.214,162.178 167.339,161.089     169.502,161.084 169.937,158.936 170.61,161.011 172.778,160.767 171.025,162.075 171.919,164.077   "
         id="polyline3176" />
      <polyline
         style="fill:#ffffff"
         points="181.47,163.901 179.78,162.52 178.101,163.901 178.882,161.841 177.061,160.645 179.214,160.762     179.78,158.647 180.337,160.762 182.5,160.645 180.688,161.841 181.47,163.901   "
         id="polyline3178" />
      <polyline
         style="fill:#ffffff"
         points="208.613,164.893 206.738,166.006 207.822,164.102 206.211,162.642 208.325,163.066     209.204,161.084 209.429,163.247 211.592,163.467 209.614,164.375 210.073,166.519 208.613,164.893   "
         id="polyline3180" />
      <polyline
         style="fill:#ffffff"
         points="198.188,162.891 196.504,161.509 198.647,161.841 199.424,159.805 199.756,161.973     201.929,162.085 199.99,163.081 200.537,165.195 199.014,163.643 197.188,164.844 198.188,162.891   "
         id="polyline3182" />
      <polyline
         style="fill:#ffffff"
         points="188.53,162.109 186.807,160.811 188.96,161.05 189.639,158.979 190.078,161.113 192.256,161.157     190.352,162.217 191.001,164.307 189.409,162.827 187.651,164.106 188.53,162.109   "
         id="polyline3184" />
      <polyline
         style="fill:#ffffff"
         points="154.233,156.909 154.741,154.78 152.793,153.818 154.961,153.657 155.249,151.484     156.06,153.506 158.184,153.135 156.548,154.546 157.578,156.479 155.732,155.327 154.233,156.909   "
         id="polyline3186" />
      <polyline
         style="fill:#ffffff"
         points="144.741,158.418 145.181,156.265 143.184,155.381 145.332,155.137 145.547,152.964     146.445,154.946 148.569,154.512 146.963,155.972 148.057,157.876 146.177,156.772 144.741,158.418   "
         id="polyline3188" />
      <polyline
         style="fill:#ffffff"
         points="167.08,155.571 165.298,154.316 163.716,155.845 164.341,153.73 162.422,152.69 164.6,152.637     164.976,150.474 165.708,152.539 167.856,152.246 166.143,153.589 167.08,155.571   "
         id="polyline3190" />
      <polyline
         style="fill:#ffffff"
         points="176.592,155.112 174.863,153.774 173.228,155.215 173.94,153.149 172.085,152.007     174.238,152.051 174.741,149.922 175.366,152.007 177.524,151.846 175.742,153.101 176.592,155.112   "
         id="polyline3192" />
      <polyline
         style="fill:#ffffff"
         points="186.108,155.239 184.463,153.794 182.744,155.117 183.584,153.101 181.816,151.846     183.97,152.017 184.595,149.927 185.088,152.065 187.256,152.017 185.4,153.159 186.108,155.239   "
         id="polyline3194" />
      <polyline
         style="fill:#ffffff"
         points="213.174,156.841 211.26,157.905 212.388,156.045 210.825,154.541 212.925,155.029     213.843,153.037 214.019,155.215 216.177,155.498 214.17,156.348 214.58,158.511 213.174,156.841   "
         id="polyline3196" />
      <polyline
         style="fill:#ffffff"
         points="202.793,154.609 201.128,153.198 203.262,153.574 204.102,151.553 204.38,153.73     206.533,153.892 204.595,154.839 205.098,156.968 203.613,155.381 201.753,156.558 202.793,154.609   "
         id="polyline3198" />
      <polyline
         style="fill:#ffffff"
         points="193.188,153.633 191.479,152.285 193.633,152.573 194.355,150.518 194.741,152.661     196.914,152.754 195,153.774 195.596,155.884 194.033,154.37 192.256,155.605 193.188,153.633   "
         id="polyline3200" />
      <path
         d="m 82.769,203.828 c 3.198,-4.546 9.214,-5.527 6.499,-17.734 -6.822,2.983 -10,11.489 -6.499,17.734"
         style="fill:#ffffff"
         id="path3202" />
      <path
         d="m 82.324,173.311 c -2.188,0.903 -5.278,3.936 -6.67,7.935 2.295,2.651 3.267,5.908 3.164,8.867 4.175,-3.824 5.625,-10.421 3.506,-16.802"
         style="fill:#ffffff"
         id="path3204" />
      <path
         d="m 86.372,215.537 c 0.278,0.039 0.21,0.01 -0.098,-0.088 -3.208,-1.787 -5.474,-2.407 -9.878,-1.812 4.131,0.303 7.027,0.88 9.976,1.9"
         style="fill:#ffffff"
         id="path3206" />
      <path
         d="m 99.775,230.361 c -0.039,0.093 -0.083,0.19 -0.107,0.288 -0.117,4.937 3.047,10.435 -2.612,18.232 -0.273,0.933 -0.645,2.949 2.266,-0.508 5.741,-6.815 0.859,-12.377 0.453,-18.012"
         style="fill:#ffffff"
         id="path3208" />
      <path
         d="m 88.345,238.086 c 0.474,-3.076 2.515,-6.743 5.513,-9.214 2.085,-1.729 3.267,-2.363 1.519,-0.527 -2.652,2.768 -5.733,7.265 -7.032,9.741"
         style="fill:#ffffff"
         id="path3210" />
      <path
         d="m 94.897,246.47 c -1.147,-2.891 -0.146,-7.534 1.094,-10.581 0.869,-2.09 3.008,-5.273 3.687,-5.571 -2.373,3.652 -4.907,13.349 -4.781,16.152"
         style="fill:#ffffff"
         id="path3212" />
      <path
         d="m 85.283,206.138 c -0.215,-1.094 -1.279,-1.812 -2.368,-1.582 -1.099,0.22 -1.807,1.279 -1.582,2.373 0.22,1.099 1.294,1.802 2.373,1.592 1.094,-0.22 1.812,-1.285 1.577,-2.383"
         style="fill:#ffffff"
         id="path3214" />
      <path
         d="m 102.881,208.901 c 0.073,-3.018 -0.391,-6.133 -0.044,-9.658 -6.011,4.395 -8.066,12.095 -5.571,17.471 -0.259,-0.039 -0.513,-0.054 -0.781,0.015 -1.133,0.229 -1.86,1.328 -1.636,2.471 0.225,1.118 1.333,1.855 2.476,1.626 1.128,-0.225 1.87,-1.333 1.636,-2.461 -0.132,-0.576 -0.459,-1.055 -0.918,-1.343 -0.996,-4.761 -0.176,-10.713 2.319,-13.218 -0.771,2.979 -2.192,9.224 -1.279,14.98 0.986,-1.123 1.724,-2.202 2.271,-3.286 0.117,0.918 0.327,1.851 0.708,2.837 0.137,-4.585 1.665,-9.116 6.426,-12.28 -3.486,4.419 -5.479,9.58 -5.894,13.472 2.529,-3.218 8.281,-4.175 8.696,-16.772 -2.916,0.883 -6.407,3.002 -8.409,6.146"
         style="fill:#ffffff"
         id="path3216" />
      <path
         d="m 106.855,221.86 c -0.249,-1.201 -1.387,-1.968 -2.573,-1.724 -1.196,0.244 -1.958,1.387 -1.719,2.593 0.239,1.182 1.406,1.934 2.588,1.694 1.187,-0.248 1.949,-1.386 1.704,-2.563"
         style="fill:#ffffff"
         id="path3218" />
      <path
         d="m 106.094,228.491 c -0.244,-1.191 -1.401,-1.958 -2.588,-1.729 -1.172,0.244 -1.948,1.392 -1.704,2.578 0.234,1.191 1.387,1.953 2.588,1.724 1.181,-0.234 1.948,-1.411 1.704,-2.573"
         style="fill:#ffffff"
         id="path3220" />
      <path
         d="m 93.418,196.167 c -4.453,3.716 -5.698,8.379 -5.215,12.48 -0.186,-0.02 -0.356,-0.02 -0.522,0.01 -0.938,0.195 -1.528,1.084 -1.343,2.002 0.19,0.918 1.089,1.523 1.997,1.328 0.215,-0.039 0.4,-0.127 0.566,-0.225 0.415,1.187 0.981,2.275 1.621,3.213 -0.391,-1.377 -0.679,-2.896 -0.835,-4.453 0.01,-0.176 0.024,-0.361 -0.02,-0.527 0,-0.049 -0.024,-0.078 -0.034,-0.117 -0.234,-3.481 0.313,-7.09 2.236,-9.692 -0.596,3.813 -1.494,11.152 -0.64,15.723 1.305,-4.864 8.312,-7.008 2.189,-19.742"
         style="fill:#ffffff"
         id="path3222" />
      <path
         d="m 111.211,224.819 c -0.2,-0.903 -1.084,-1.509 -2.021,-1.323 -0.913,0.186 -1.514,1.084 -1.338,1.997 0.21,0.928 1.094,1.523 2.017,1.338 0.927,-0.195 1.518,-1.099 1.342,-2.012"
         style="fill:#ffffff"
         id="path3224" />
      <path
         d="m 101.792,224.507 c -0.176,-0.85 -0.991,-1.401 -1.846,-1.23 -0.85,0.171 -1.396,0.996 -1.23,1.846 0.166,0.845 1.001,1.396 1.846,1.23 0.845,-0.166 1.391,-1.006 1.23,-1.846"
         style="fill:#ffffff"
         id="path3226" />
      <path
         d="m 80.327,202.915 c -0.117,-0.693 -0.737,-1.191 -1.406,-1.191 -2.207,-2.988 -5.381,-6.182 -10.669,-6.719 2.9,1.357 7.256,4.038 10.273,6.758 -0.718,0.19 -1.187,0.894 -1.064,1.646 0.142,0.786 0.889,1.313 1.694,1.187 0.772,-0.143 1.314,-0.89 1.172,-1.681"
         style="fill:#ffffff"
         id="path3228" />
      <path
         d="m 80.396,192.896 c -0.2,-0.991 -1.172,-1.631 -2.168,-1.421 -0.034,0.005 -0.078,0.01 -0.122,0.034 -1.206,-4.692 -2.358,-8.335 -7.671,-11.987 2.651,3.418 5.732,8.384 7.461,12.051 -0.791,0.327 -1.279,1.177 -1.104,2.056 0.195,0.996 1.167,1.636 2.168,1.44 0.986,-0.206 1.631,-1.173 1.436,-2.173"
         style="fill:#ffffff"
         id="path3230" />
      <path
         d="m 85.786,211.299 c -0.132,-0.776 -0.869,-1.313 -1.675,-1.182 -0.386,0.068 -0.718,0.278 -0.923,0.576 -4.697,-4.16 -7.935,-4.185 -10.415,-4.297 1.494,0.532 6.87,2.08 10.293,4.502 -0.142,0.259 -0.195,0.566 -0.142,0.889 0.127,0.801 0.898,1.338 1.675,1.206 0.792,-0.146 1.334,-0.889 1.187,-1.694"
         style="fill:#ffffff"
         id="path3232" />
      <path
         d="m 89.736,217.183 c -0.22,-1.133 -1.333,-1.865 -2.466,-1.646 -1.123,0.229 -1.86,1.333 -1.636,2.471 0.229,1.138 1.333,1.87 2.471,1.631 1.133,-0.22 1.856,-1.343 1.631,-2.456"
         style="fill:#ffffff"
         id="path3234" />
      <path
         d="m 92.783,220.786 c -0.132,-0.796 -0.879,-1.318 -1.665,-1.187 -0.508,0.078 -0.908,0.4 -1.089,0.83 -4.097,-0.537 -8.55,0.029 -12.3,2.114 4.199,-0.972 8.594,-1.875 12.188,-1.885 0.02,0 0.02,0 0.024,0 -0.054,0.195 -0.063,0.4 -0.044,0.61 0.156,0.781 0.908,1.333 1.694,1.191 0.806,-0.125 1.329,-0.887 1.192,-1.673"
         style="fill:#ffffff"
         id="path3236" />
      <path
         d="m 96.997,223.237 c -0.2,-1.03 -1.206,-1.689 -2.236,-1.475 -1.011,0.186 -1.685,1.187 -1.484,2.207 -0.039,0 -0.068,-0.015 -0.132,-0.024 -3.027,-0.103 -8.076,0.693 -11.172,4.365 3.174,-1.87 8.228,-3.794 11.265,-4.209 0.02,0.01 0.054,0 0.083,0 0.254,0.952 1.211,1.558 2.192,1.367 1.02,-0.209 1.679,-1.205 1.484,-2.231"
         style="fill:#ffffff"
         id="path3238" />
      <path
         d="m 123.545,232.759 c 8.643,6.509 13.55,15.542 14.8,22.808 -1.084,-0.796 -3.125,-1.621 -4.375,-1.387 -1.123,-7.671 -5.122,-13.877 -11.401,-18.911 0.258,-1.163 0.624,-1.963 0.976,-2.51"
         style="fill:#ffffff"
         id="path3240" />
      <path
         d="m 116.943,239.512 c 2.051,0.815 3.081,0.513 3.608,-0.22 1.094,-1.543 0.566,-3.613 -0.127,-3.965 0.156,0.63 0.127,1.289 -0.02,2.041 -0.112,0.605 -0.425,1.606 -1.558,1.475 -0.605,-0.073 -1.724,-0.371 -2.383,-0.815 -0.469,-0.327 -0.469,-1.143 -0.2,-1.841 0.127,-0.327 0.278,-0.825 0.698,-1.172 -0.698,0.166 -1.118,0.527 -1.67,0.957 -0.547,0.425 -1.357,0.508 -1.826,0.01 -0.576,-0.645 -0.942,-1.133 -1.138,-1.558 -0.474,-1.108 0.957,-1.938 1.792,-2.373 -1.445,0.015 -1.694,0.562 -2.842,0.366 -1.182,-0.195 -1.479,-2.07 -1.475,-2.69 0,-0.454 0.562,-0.894 1.23,-1.06 0.649,-0.142 1.426,-0.083 1.851,-0.044 -0.068,-0.283 -0.103,-0.645 -0.098,-1.016 -1.167,-0.269 -3.447,0.122 -3.877,0.767 -0.542,0.83 -0.4,1.255 0.034,2.72 0.43,1.411 0.762,1.914 1.675,2.051 0.249,0.034 0.742,0.098 1.289,-0.107 -0.288,0.181 -0.479,0.342 -0.62,0.713 -0.161,0.371 -0.415,1.001 0.708,2.344 0.962,1.167 1.914,1.611 2.705,1.177 0.454,-0.254 0.625,-0.532 0.835,-0.752 -0.127,0.303 -0.259,0.649 -0.327,0.986 -0.212,1.141 0.647,1.591 1.736,2.006"
         style="fill:#ffffff"
         id="path3242" />
      <path
         d="m 115.439,230.532 c 0.581,-0.737 2.007,-0.83 2.813,-0.317 -0.547,1.035 -0.601,2.754 -0.298,3.599 -2.031,-0.313 -2.397,-2.261 -2.515,-3.282"
         style="fill:#ffffff"
         id="path3244" />
      <path
         d="m 118.628,230.415 c 1.196,-0.088 1.646,-0.688 1.855,-1.274 0.215,-0.566 0.854,-0.923 0.874,-0.049 0.005,0.879 0.01,1.274 -0.483,1.509 -0.503,0.253 -1.392,0.322 -2.246,-0.186"
         style="fill:#ffffff"
         id="path3246" />
      <path
         d="m 119.238,232.305 c -0.112,0.64 -0.342,1.255 -0.747,1.841 -0.308,0.439 -0.742,0.698 -1.06,0.986 0.552,0.41 1.333,0.649 1.987,0.62 0.64,-0.039 0.679,-0.122 0.64,-0.376 -0.146,-1.094 -0.576,-2.642 -0.82,-3.071"
         style="fill:#ffffff"
         id="path3248" />
      <path
         d="m 239.644,229.473 c 0.557,1.03 0.596,2.769 0.293,3.599 2.051,-0.322 2.402,-2.261 2.529,-3.276 -0.596,-0.743 -2.012,-0.826 -2.822,-0.323"
         style="fill:#ffffff"
         id="path3250" />
      <path
         d="m 239.272,229.678 c -1.191,-0.093 -1.641,-0.684 -1.855,-1.255 -0.22,-0.581 -0.859,-0.947 -0.864,-0.059 -0.01,0.874 -0.02,1.26 0.474,1.494 0.497,0.254 1.381,0.318 2.245,-0.18"
         style="fill:#ffffff"
         id="path3252" />
      <path
         d="m 239.399,233.389 c -0.396,-0.571 -0.625,-1.187 -0.742,-1.826 -0.249,0.435 -0.664,1.978 -0.82,3.071 -0.034,0.254 -0.02,0.352 0.64,0.376 0.659,0.029 1.44,-0.195 1.982,-0.61 -0.322,-0.279 -0.747,-0.547 -1.06,-1.011"
         style="fill:#ffffff"
         id="path3254" />
      <path
         d="m 274.917,200.977 2.061,0.576 -31.069,24.536 h 0.005 l -0.732,0.591 c -0.034,0.005 -0.088,0.005 -0.127,0.024 0.024,0.347 0,0.698 -0.059,1.016 0.435,-0.024 1.035,-0.024 1.553,0.112 0.674,0.186 1.216,0.63 1.196,1.079 0,0.625 -0.347,2.495 -1.528,2.666 -1.162,0.156 -1.392,-0.391 -2.837,-0.449 0.806,0.459 2.236,1.313 1.704,2.412 -0.2,0.439 -0.566,0.908 -1.172,1.533 -0.469,0.488 -1.284,0.386 -1.816,-0.063 -0.532,-0.439 -0.947,-0.815 -1.641,-1.001 0.42,0.356 0.552,0.854 0.664,1.196 0.244,0.684 0.229,1.509 -0.244,1.821 -0.684,0.42 -1.802,0.688 -2.412,0.747 -1.123,0.107 -1.421,-0.908 -1.519,-1.509 -0.122,-0.752 -0.127,-1.426 0.049,-2.046 -0.713,0.347 -1.299,2.383 -0.234,3.965 0.488,0.742 1.504,1.055 3.579,0.332 1.104,-0.396 1.992,-0.815 1.797,-1.973 -0.054,-0.356 -0.176,-0.684 -0.293,-1.001 0.215,0.234 0.352,0.513 0.796,0.781 0.806,0.449 1.753,0.029 2.759,-1.108 1.133,-1.304 0.908,-1.953 0.771,-2.324 -0.137,-0.371 -0.327,-0.537 -0.605,-0.713 0.537,0.225 1.006,0.166 1.27,0.127 0.933,-0.103 1.27,-0.596 1.738,-1.987 0.488,-1.455 0.63,-1.88 0.107,-2.72 -0.22,-0.356 -0.962,-0.645 -1.797,-0.806 l 30.83,-24.316 0.073,2.144 5.542,-7.339 -8.409,3.697"
         style="fill:#ffffff"
         id="path3256" />
      <path
         d="m 258.35,208.521 21.89,-27.72 0.581,2.065 3.672,-8.418 -7.325,5.552 2.153,0.083 -19.834,25.127 c -1.538,2.349 -3.193,4.854 -4.746,7.197 l 0.029,0.029 c 1.177,-1.279 2.369,-2.582 3.58,-3.915"
         style="fill:#ffffff"
         id="path3258" />
      <path
         d="m 255.742,216.763 c 1.836,-1.46 3.745,-2.969 5.625,-4.463 l 18.232,-16.87 0.269,2.129 4.912,-7.764 -8.071,4.37 2.095,0.405 -18.301,16.948 c -1.631,1.812 -3.242,3.575 -4.761,5.245"
         style="fill:#ffffff"
         id="path3260" />
      <path
         d="m 276.001,212.783 -25.688,12.861 c -0.444,0.356 -0.811,0.645 -1.035,0.825 0.181,0.142 0.322,0.303 0.444,0.483 0.054,0.078 0.088,0.156 0.127,0.229 l 26.67,-13.34 -0.361,2.104 6.914,-6.05 -8.989,1.914 1.918,0.974"
         style="fill:#ffffff"
         id="path3262" />
      <path
         d="m 237.197,239.98 c -0.391,-0.127 -0.728,-0.317 -1.016,-0.576 l -4.595,9.526 0.024,0.015 -1.675,0.557 -5.444,10.425 2.642,-0.796 0.947,2.583 5.151,-10.571 -0.605,-1.699 4.571,-9.464"
         style="fill:#ffffff"
         id="path3264" />
      <path
         d="m 255.088,221.89 c 1.768,-0.889 3.799,-1.914 5.859,-2.954 l 17.08,-11.143 -0.112,2.139 6.157,-6.812 -8.696,2.935 1.997,0.752 -18.564,12.144 c -1.324,1.039 -2.574,2.026 -3.721,2.939"
         style="fill:#ffffff"
         id="path3266" />
      <path
         d="m 235.103,237.437 c -0.137,-0.513 -0.176,-1.04 -0.137,-1.563 l -6.094,6.655 -1.802,0.146 -0.156,0.151 v 0.01 l -8.481,8.481 0.4,-0.024 -0.039,0.024 0.112,-0.024 2.085,-0.098 0.371,2.075 7.031,-9.243 1.357,-0.293 5.353,-6.297"
         style="fill:#ffffff"
         id="path3268" />
      <path
         d="m 246.343,224.175 c 0.742,-0.581 1.821,-1.436 3.11,-2.456 l 29.976,-32.754 0.41,2.095 4.292,-8.12 -7.705,4.99 2.124,0.234 -31.372,34.321 c -0.298,0.616 -0.572,1.182 -0.835,1.69"
         style="fill:#ffffff"
         id="path3270" />
      <path
         d="m 219.521,246.582 11.167,-7.866 c 1.274,-1.406 2.686,-2.915 3.174,-3.457 l -13.945,9.209 0.01,0.01 -1.748,-0.361 -1.016,0.64 -8.945,5.586 2.51,0.518 0.308,1.895 7.207,-6.235 1.278,0.061"
         style="fill:#ffffff"
         id="path3272" />
      <path
         d="m 210.278,247.607 4.473,-2.788 4.165,-2.837 1.426,0.269 c 0,0 10.171,-6.27 12.642,-7.886 0.132,-0.093 0.205,-0.142 0.205,-0.142 0.029,-0.01 0.049,-0.029 0.078,-0.044 l -13.34,6.65 -1.704,-0.527 -10.62,5.049 2.393,0.879 0.282,1.377"
         style="fill:#ffffff"
         id="path3274" />
      <path
         d="m 260.625,185.952 2.1,-0.371 -19.18,38.867 c 0.146,0.083 0.293,0.161 0.396,0.215 0.225,0.132 0.415,0.298 0.571,0.479 l 19.268,-39.033 0.991,1.895 1.865,-8.994 -6.011,6.942"
         style="fill:#ffffff"
         id="path3276" />
      <path
         d="m 262.915,192.5 2.144,-0.112 -12.036,18.296 c -1.416,2.861 -2.788,5.645 -3.999,8.076 0.063,-0.068 0.122,-0.132 0.176,-0.205 l 16.855,-25.503 0.732,2.002 2.964,-8.706 -6.836,6.152"
         style="fill:#ffffff"
         id="path3278" />
    </g>
  </g>
</svg>
