<?xml version="1.0" encoding="UTF-8" standalone="no"?>
<svg
   id="Penn_State_Logo"
   data-name="Penn State Logo"
   viewBox="0 0 82.000003 81.999999"
   version="1.1"
   width="82"
   height="82"
   xmlns="http://www.w3.org/2000/svg"
   xmlns:svg="http://www.w3.org/2000/svg"
   xmlns:rdf="http://www.w3.org/1999/02/22-rdf-syntax-ns#"
   xmlns:cc="http://creativecommons.org/ns#"
   xmlns:dc="http://purl.org/dc/elements/1.1/">
  <defs
     id="defs4">
    <style
       id="style2">.cls-1{fill:#fff;}.cls-2{fill:#1e407c;}.cls-3{fill:#8cbee6;}</style>
  </defs>
  <title
     id="title6">PSU_VER1_RGB_REV_2C</title>
  <g
     id="_Group_"
     data-name="&lt;Group&gt;"
     transform="translate(-43.61,0.17)">
    <g
       id="_Group_2"
       data-name="&lt;Group&gt;">
      <path
         id="_Compound_Path_"
         data-name="&lt;Compound Path&gt;"
         class="cls-1"
         d="m 121.31,114.74 c -16.37,-9.73 -37,-23.88 -37,-48.85 V 39.51 c 7.55,-2.86 19.21,-6.43 37,-6.43 18,0 30.35,3.89 37,6.43 v 26.38 c 0,25.18 -21.44,39.7 -37,48.85 z"
         transform="translate(-36.7,-33.08)" />
    </g>
    <g
       id="_Group_3"
       data-name="&lt;Group&gt;">
      <path
         id="_Compound_Path_2"
         data-name="&lt;Compound Path&gt;"
         class="cls-2"
         d="m 132.44,80.59 c 0,-0.56 0.46,-1.43 0.46,-2.21 0,-0.78 -1.13,-1.22 -2,-1.34 -1.85,-0.26 -2.47,-0.17 -2.47,-0.58 a 2.41,2.41 0 0 1 0.57,-1.06 3.57,3.57 0 0 1 2.31,-1.07 20.13,20.13 0 0 1 2.85,-0.23 15.86,15.86 0 0 1 2.77,0.27 c 1.13,0.2 1.31,0.67 1.31,1.2 v 0.53 c 0,0.54 -0.44,0.81 -1.23,1 l -0.61,0.12 a 1.72,1.72 0 0 0 -1.54,1 c -0.54,1.56 -1.48,2.77 -2.18,2.74 a 0.29,0.29 0 0 1 -0.24,-0.37 z m 1.63,-25.06 a 0.44,0.44 0 0 1 -0.31,-0.36 2.21,2.21 0 0 1 0.6,-1.1 c 0.93,-1.24 2.2,-2.77 2.67,-2.77 a 0.89,0.89 0 0 1 0.65,0.69 3.13,3.13 0 0 1 0.31,1.35 6.92,6.92 0 0 1 -1.45,4.12 12.13,12.13 0 0 0 -2.47,-1.93 z m -27.19,3.08 a 2.06,2.06 0 0 0 1.36,-1 c 1.41,-1.55 2.76,-1.76 2.76,-2.43 a 1.82,1.82 0 0 0 -0.39,-0.9 59.42,59.42 0 0 1 -3,-5.31 1.69,1.69 0 0 0 -1.07,-1 2.09,2.09 0 0 0 -1.38,1.12 4.88,4.88 0 0 0 -0.89,2.3 16.23,16.23 0 0 0 0.75,4.52 c 0.49,1.45 1.23,2.7 1.86,2.7 z m 16.9,5.39 a 2.82,2.82 0 0 0 -3,-2.38 3.66,3.66 0 0 0 -3.31,2.27 3.46,3.46 0 0 0 2.41,2.1 c 0.21,0.06 0.43,0.07 0.43,0.25 0,0.18 -0.27,0.39 -0.85,0.39 a 4.17,4.17 0 0 1 -3.41,-1.38 13.34,13.34 0 0 1 -1.71,0.28 0.75,0.75 0 0 1 -0.82,-0.86 2.48,2.48 0 0 1 0.29,-1.07 l 0.3,-0.6 a 5.45,5.45 0 0 1 2.39,-2.75 l 1,-0.57 a 4.83,4.83 0 0 1 2.79,-0.69 h 0.83 a 3.67,3.67 0 0 1 2.64,0.88 c 1.21,1 1.88,1.57 1.88,2.33 a 3.34,3.34 0 0 1 -0.72,2.37 3,3 0 0 1 -2,1.26 0.17,0.17 0 0 1 -0.2,-0.17 0.48,0.48 0 0 1 0.26,-0.28 3.18,3.18 0 0 0 0.8,-1.38 z m 8.13,26 a 15.17,15.17 0 0 1 -3.71,0.23 c -4.2,0 -4.91,-1 -4.91,-1.85 0,-1.37 6,-2.33 8.39,-2.33 2.39,0 3.32,0.69 3.32,1.25 0,0.56 -1.07,2.17 -3.09,2.7 z m -24.23,12.3 a 132.9,132.9 0 0 0 13.62,9.16 v 0 c 0,-4.12 -0.09,-6.54 2.69,-9.46 l 3.34,-3.47 a 4.35,4.35 0 0 1 1.8,-1.43 c 0.27,0 0.39,0.14 0.39,0.5 a 8.34,8.34 0 0 0 1,3.33 4.18,4.18 0 0 0 3.07,2.38 c 11.93,-9 21.9,-20.73 21.9,-37.45 v -24.4 c -2.94,-1 -15,-5.63 -34.2,-5.63 -19.2,0 -31.29,4.64 -34.18,5.63 v 24.37 a 38.65,38.65 0 0 0 5.1,19.35 c 0.32,-3.38 2.61,-5 2.61,-8.31 0,-2.32 -0.66,-3.79 -0.66,-5.73 0,-3.51 4.74,-10.74 7.2,-13.68 a 0.66,0.66 0 0 1 0.43,-0.29 0.52,0.52 0 0 1 0.42,0.29 0.86,0.86 0 0 0 0.63,0.59 0.34,0.34 0 0 0 0.37,-0.39 A 20.52,20.52 0 0 1 102.5,52 c 0,-2.79 0.65,-3.38 2.38,-5.08 a 3.84,3.84 0 0 1 2.21,-1.24 2.92,2.92 0 0 1 2.18,1.32 c 1.07,1.09 2.57,3 2.81,3.33 a 0.32,0.32 0 0 0 0.28,0.16 c 0.5,0 0.91,-0.15 3.06,-0.15 a 51.17,51.17 0 0 1 12.85,1.61 22.82,22.82 0 0 0 2.3,0.86 0.2,0.2 0 0 0 0.22,-0.24 7.84,7.84 0 0 1 -0.41,-0.78 0.47,0.47 0 0 1 0.29,-0.39 c 2.26,-1.21 4.19,-2.13 6,-2.13 1,0 1.54,0.89 2,1.77 a 6,6 0 0 1 0.7,2.55 7.86,7.86 0 0 1 -1.64,4.88 c 0.35,0.36 0.84,0.9 1.14,1.26 A 4.06,4.06 0 0 1 140,62 a 8.44,8.44 0 0 1 -0.29,1.43 0.72,0.72 0 0 1 -0.6,0.62 0.58,0.58 0 0 1 -0.43,-0.68 c 0,-0.07 0,-0.21 0,-0.24 a 3.67,3.67 0 0 0 -3.09,-3.58 h -0.29 a 3.11,3.11 0 0 0 -2.42,1 2.3,2.3 0 0 0 -0.75,1.69 4.67,4.67 0 0 0 0.67,1.69 c 0.23,0.45 0.81,1.53 1.12,2.08 a 1.13,1.13 0 0 0 1,0.65 c 1,0 1.82,-0.14 1.82,-0.43 a 0.15,0.15 0 0 0 -0.18,-0.15 h -0.31 c -1.27,0 -2,-1.62 -2.59,-3.09 a 2.71,2.71 0 0 1 2,-1 2,2 0 0 1 2.1,2 3,3 0 0 1 -0.27,1.22 0.57,0.57 0 0 0 -0.08,0.23 c 0,0.17 0.22,0.21 0.57,0.29 l 0.5,0.13 a 1.48,1.48 0 0 1 0.94,0.88 c 0.11,0.3 0.37,1 0.42,1.15 a 8,8 0 0 1 0.55,2.63 7.61,7.61 0 0 1 -0.38,2.58 15,15 0 0 0 -0.63,2.79 3.42,3.42 0 0 1 0.21,0.46 5.45,5.45 0 0 1 0.5,2.21 v 0.75 a 5.66,5.66 0 0 1 -1.2,3.42 c -0.49,0.66 -1.19,1.58 -1.59,2.1 a 1.34,1.34 0 0 1 -1,0.54 2.81,2.81 0 0 1 -0.63,-0.12 l -1,-0.25 a 2,2 0 0 1 -1.44,-1.52 L 133.09,83 c -0.2,-0.52 -0.32,-0.86 -0.64,-0.86 a 0.92,0.92 0 0 0 -0.71,0.52 3.9,3.9 0 0 1 -2.81,2.12 c -0.52,0.13 -1.59,0.35 -2.18,0.48 a 20.29,20.29 0 0 1 -3.4,0.62 5.45,5.45 0 0 1 -0.6,0 4.64,4.64 0 0 1 -3.64,-2.08 c -2.11,-2.52 -1.89,-2.87 -2,-6.27 a 0.74,0.74 0 0 0 -0.53,-0.85 c -0.35,0 -0.51,0.72 -0.64,1.74 -0.15,1.2 -0.43,2.44 -1,2.44 a 3.8,3.8 0 0 1 -1.32,-0.27 l -3.68,-1.23 c -1.37,-0.45 -2.67,-0.81 -3.2,-2 -0.25,-0.57 -0.71,-1.63 -0.94,-2.18 a 0.54,0.54 0 1 0 -1,0.18 c 0,0.39 -0.14,1.28 -0.19,1.83 a 7.64,7.64 0 0 1 -1.68,4.69 c -0.46,0.6 -0.9,1.22 -1.4,1.89 a 8,8 0 0 0 -1.65,5.51 c 0,0.18 0,1.18 0,1.64 0.02,3.98 1.04,5.95 7.8,11.34 z"
         transform="translate(-36.7,-33.08)" />
      <path
         id="_Compound_Path_3"
         data-name="&lt;Compound Path&gt;"
         class="cls-3"
         d="m 139.47,66.79 v 0 c 0.11,0.3 0.37,1 0.42,1.15 a 8,8 0 0 1 0.55,2.63 7.61,7.61 0 0 1 -0.38,2.58 15,15 0 0 0 -0.63,2.79 c -0.11,-0.22 -2.17,-3.78 -2.32,-4.06 a 1.86,1.86 0 0 1 -0.29,-0.9 1,1 0 0 1 0.59,-0.86 c 0.26,-0.17 0.6,-0.36 0.84,-0.48 a 2,2 0 0 0 1.31,-1.93 6.11,6.11 0 0 0 -0.09,-0.92 z m -9,5.68 a 2.5,2.5 0 0 1 0.21,0.84 1.19,1.19 0 0 1 -0.43,1 l -0.55,0.49 a 2,2 0 0 0 -0.73,0.6 2.41,2.41 0 0 0 -0.59,1.06 0.24,0.24 0 0 0 0.09,0.2 1.46,1.46 0 0 1 -0.57,-1.19 c 0,-0.37 0.12,-0.57 0.12,-0.92 a 2.71,2.71 0 0 0 -0.13,-0.76 c -0.57,-1.91 -1.53,-4.18 -2.12,-5.72 -0.59,-1.54 -1.08,-2.44 -1.76,-2.44 -0.38,0 -0.72,0.19 -1.11,0.19 a 3,3 0 0 0 2,-1.26 3.34,3.34 0 0 0 0.72,-2.37 1.53,1.53 0 0 0 -0.43,-1 11.41,11.41 0 0 1 2,3.24 c 1.27,2.73 2.39,5.71 3.32,8.03 z M 99.81,90.89 c 0,-0.46 0,-1.47 0,-1.64 a 8,8 0 0 1 1.65,-5.51 c 0.51,-0.67 0.94,-1.29 1.4,-1.89 a 7.64,7.64 0 0 0 1.68,-4.69 c 0,-0.55 0.15,-1.44 0.19,-1.83 a 0.54,0.54 0 1 1 1,-0.18 c 0.23,0.55 0.69,1.61 0.94,2.18 0.53,1.21 1.84,1.57 3.2,2 l 3.68,1.23 a 3.8,3.8 0 0 0 1.32,0.27 c 0.59,0 0.87,-1.25 1,-2.44 0.13,-1 0.28,-1.74 0.64,-1.74 a 0.74,0.74 0 0 1 0.53,0.85 c 0.13,3.4 -0.09,3.75 2,6.27 a 4.64,4.64 0 0 0 3.64,2.08 1.7,1.7 0 0 1 -1,-1.78 v -1.22 a 4.67,4.67 0 0 1 0.38,-1.93 c 0.14,-0.33 0.31,-0.93 0.47,-1.29 a 2.06,2.06 0 0 0 0.14,-1.22 7.09,7.09 0 0 0 -0.52,-2 c -0.19,-0.57 -0.44,-1.4 -0.69,-2.08 -0.76,-2.13 -1.07,-2.63 -3.62,-3 l -5.14,-0.72 c -2.86,-0.41 -5.1,-0.54 -6.26,-2.46 -1.39,-2.29 -1.25,-5.08 -2.59,-5.08 -0.64,0 -1,0.71 -1,1.75 0,1.04 0.41,2.85 0.41,5.92 0,2.65 -0.25,3.39 -1.79,5.34 -0.4,0.51 -0.94,1.25 -1.29,1.68 -1.15,1.44 -1.66,2.26 -1.59,3.94 a 57.22,57.22 0 0 0 1.22,9.19 z M 129,101.12 c 0.1,-1.06 0.57,-2.83 0.57,-3.56 v 0 c 0,-0.36 -0.12,-0.5 -0.39,-0.5 a 4.35,4.35 0 0 0 -1.8,1.43 L 124,102 c -2.79,2.91 -2.65,5.34 -2.69,9.46 v 0 c 3.1,-1.87 5.93,-3.66 8,-5.09 A 16.4,16.4 0 0 1 129,101.12 Z"
         transform="translate(-36.7,-33.08)" />
    </g>
  </g>
</svg>
