<svg xmlns="http://www.w3.org/2000/svg" width="32" height="32" viewBox="0 0 8.467 8.467"><g font-weight="400"><g color="#000" font-family="sans-serif"><path style="line-height:normal;font-variant-ligatures:normal;font-variant-position:normal;font-variant-caps:normal;font-variant-numeric:normal;font-variant-alternates:normal;font-variant-east-asian:normal;font-feature-settings:normal;font-variation-settings:normal;text-indent:0;text-align:start;text-decoration-line:none;text-decoration-style:solid;text-decoration-color:#000;text-transform:none;text-orientation:mixed;white-space:normal;shape-padding:0;shape-margin:0;inline-size:0;isolation:auto;mix-blend-mode:normal;solid-color:#000;solid-opacity:1" d="M.99.496h6.486c.274 0 .495.22.495.495v6.485c0 .274-.221.495-.495.495H.991a.493.493 0 01-.495-.495V.991c0-.274.22-.495.495-.495z" overflow="visible" fill="#fff" fill-opacity=".98"/><path style="line-height:normal;font-variant-ligatures:normal;font-variant-position:normal;font-variant-caps:normal;font-variant-numeric:normal;font-variant-alternates:normal;font-variant-east-asian:normal;font-feature-settings:normal;font-variation-settings:normal;text-indent:0;text-align:start;text-decoration-line:none;text-decoration-style:solid;text-decoration-color:#000;text-transform:none;text-orientation:mixed;white-space:normal;shape-padding:0;shape-margin:0;inline-size:0;isolation:auto;mix-blend-mode:normal;solid-color:#000;solid-opacity:1" d="M.99.398a.595.595 0 00-.594.594v6.484c0 .327.267.594.594.594h6.487a.595.595 0 00.593-.594V.992a.595.595 0 00-.593-.594H.99zm0 .197h6.487c.22 0 .394.176.394.397v6.484c0 .22-.174.394-.394.394H.99a.391.391 0 01-.394-.394V.992C.596.77.77.595.99.595z" overflow="visible" fill="#1e73be"/></g><g aria-label="LM" style="line-height:1.25" font-size="5.332" font-family="Source Sans Pro" letter-spacing="0" word-spacing="0" stroke-width=".265"><path d="M1.477 5.982H3.45v-.378H1.925v-3.12h-.448zM4.063 5.982h.41v-1.93c0-.31-.037-.741-.064-1.045h.022l.277.816.65 1.807h.326l.655-1.807.272-.816h.022c-.027.304-.064.736-.064 1.045v1.93h.421V2.484h-.56L5.77 4.356c-.085.245-.15.47-.23.73h-.02c-.075-.26-.15-.485-.235-.73l-.661-1.872h-.56z" style="-inkscape-font-specification:'Source Sans Pro'"/></g></g></svg>