<svg xmlns="http://www.w3.org/2000/svg" width="55" height="55" viewBox="0 0 14.552 14.552"><path d="M1.67.655h11.392c.482 0 .869.387.869.868v11.392a.867.867 0 01-.869.869H1.67a.867.867 0 01-.868-.869V1.523c0-.481.387-.868.868-.868z" fill="#fff" fill-opacity=".98" stroke="#1e73be" stroke-width=".198" stroke-linejoin="round"/><path d="M2.992 9.996h3.133v-.601H3.703V4.442h-.711zM7.098 9.996h.652V6.931c0-.49-.059-1.177-.101-1.66h.033l.44 1.296 1.034 2.87h.516l1.042-2.87.431-1.295h.034c-.042.482-.101 1.168-.101 1.66v3.064h.668V4.442h-.889l-1.05 2.972c-.135.39-.236.745-.363 1.16H9.41c-.119-.415-.237-.77-.373-1.16l-1.05-2.972h-.889z"/></svg>