<svg xmlns="http://www.w3.org/2000/svg" viewBox="0 0 96 96"><rect width="96" height="96" fill="#0a0a0a" rx="16"/><g fill="#0f8" stroke-linejoin="round" stroke-width=".1" aria-label="{LM}"><path d="M14.656 66.347h3.285v-3.328h-1.749c-3.584 0-4.352-.597-4.352-2.987 0-2.261.17-4.352.17-6.954 0-3.2-1.194-4.48-4.266-4.992v-.171c3.072-.512 4.267-1.75 4.267-4.95 0-2.56-.171-4.735-.171-6.954 0-2.39.768-2.987 4.352-2.987h1.75v-3.37h-3.286c-5.504 0-7.979 1.493-7.979 6.1 0 2.988.427 4.609.427 7.297 0 1.493-1.237 3.072-5.845 3.115v3.712c4.608.042 5.845 1.62 5.845 3.114 0 2.73-.427 4.267-.427 7.296 0 4.608 2.475 6.059 7.979 6.059"/><path fill="#fff" d="M26.901 59.861h18.645v-5.248H33.173V32.085h-6.272zm23.509 0h5.248v-8.576c0-3.157-.555-9.941-.853-12.928h.128l2.005 7.467 2.219 6.698h3.029l2.176-6.698 2.133-7.467h.128c-.298 2.987-.853 9.77-.853 12.928v8.576h5.333V32.085H64.49l-2.73 9.856-.897 3.84h-.17l-.94-3.84-2.73-9.856H50.41z"/><path d="M78.016 66.347h3.285c5.504 0 7.936-1.45 7.936-6.059 0-3.029-.426-4.565-.426-7.296 0-1.493 1.237-3.072 5.888-3.114v-3.712c-4.651-.043-5.888-1.622-5.888-3.115 0-2.688.426-4.31.426-7.296 0-4.608-2.432-6.101-7.936-6.101h-3.285v3.37h1.75c3.54 0 4.309.598 4.309 2.987 0 2.219-.128 4.395-.128 6.955 0 3.2 1.194 4.437 4.266 4.949v.17c-3.072.513-4.266 1.793-4.266 4.993 0 2.602.128 4.693.128 6.954 0 2.39-.768 2.987-4.31 2.987h-1.749z"/></g></svg>